<svg xmlns="http://www.w3.org/2000/svg" viewBox="0 0 198.768 44.353"><path d="M33.324 38.299a3.251 3.251 0 0 0-.764.989 11.609 11.609 0 0 1-8.677 5.035c-5.17.36-9.036-2.518-10.07-7.6-1.889-9.033 3.101-20.273 14.925-22.433a26.757 26.757 0 0 1 13.172 1.079c1.394.449 1.394.494 1.169 1.933-.674 4.586-1.394 9.171-2.068 13.757a23.119 23.119 0 0 0-.36 3.956 4.378 4.378 0 0 0 .09 1.079 2.069 2.069 0 0 0 2.428 1.888 5 5 0 0 0 3.192-1.439 10.486 10.486 0 0 0 2.563-3.686 19.4 19.4 0 0 0 1.439-6.384 21.638 21.638 0 0 0-.854-8.317A16.121 16.121 0 0 0 39.033 7.19c-8.317-2.787-16.184-1.708-23.153 3.866a22.174 22.174 0 0 0-7.373 11.059 28.728 28.728 0 0 0 .045 17.713 20.29 20.29 0 0 0 1.753 3.731c-.18.36-.4.225-.584.27H3.337a1.037 1.037 0 0 1-1.124-.719A26.14 26.14 0 0 1 .19 35.333a32.153 32.153 0 0 1 4.091-19.736A29.962 29.962 0 0 1 26.445.447a28.79 28.79 0 0 1 16.279 1.751c7.1 3.057 11.869 8.227 13.8 15.78a25.162 25.162 0 0 1-1.4 16.994 14.908 14.908 0 0 1-10.655 8.946 13.071 13.071 0 0 1-5.44.18 6.512 6.512 0 0 1-5.395-5.08c-.086-.228.004-.54-.31-.719zm-10.16-6.474a7.477 7.477 0 0 0 .27 2.338 3.185 3.185 0 0 0 4.54 2.027 5.846 5.846 0 0 0 2.2-1.843 9.57 9.57 0 0 0 1.888-4.316q.607-3.776 1.079-7.553c.135-.9.09-.944-.854-1.034a7.21 7.21 0 0 0-6.788 3.1 11.58 11.58 0 0 0-2.336 7.281zm159.146-7.328a822.5 822.5 0 0 1-2.428 6.114c-1.663 4.181-3.282 8.362-4.945 12.543-.36.989-.4.989-1.349.989h-10.475c-.9 0-.9 0-1.259-.809-.674-1.708-1.394-3.372-2.068-5.08a1.021 1.021 0 0 0-1.079-.764c-2.967.045-5.979.045-8.946 0a.977.977 0 0 0-1.034.674c-.674 1.8-1.394 3.552-2.113 5.3-.135.36-.27.674-.809.674-2.652-.045-5.3 0-7.957 0-.18-.315 0-.539.09-.764 3.552-8.5 7.1-17.039 10.7-25.535a5.313 5.313 0 0 1 5.215-3.507 9.292 9.292 0 0 1 1.933.09 5.614 5.614 0 0 1 4.181 3.686c2.158 5.215 4.361 10.385 6.519 15.6.584 1.394 1.169 2.742 1.753 4.181a2.71 2.71 0 0 0 .584-1.124l8.092-19.151a5.124 5.124 0 0 1 4.046-3.192 8.288 8.288 0 0 1 2.787 0 5.022 5.022 0 0 1 4 3.1q5.462 12.88 10.835 25.85a.959.959 0 0 1 .135.809h-7.643c-.944 0-.944 0-1.3-.9-1.753-4.406-3.462-8.811-5.215-13.217-.629-1.618-1.3-3.282-1.933-4.9a.756.756 0 0 0-.317-.667zm-25.355 6.159c-.9-2.248-1.708-4.316-2.652-6.654-.944 2.338-1.8 4.451-2.652 6.654zm-41.541.629V20.091a7.1 7.1 0 0 1 .225-1.933 4.645 4.645 0 0 1 3.642-3.417 8.134 8.134 0 0 1 1.8-.18h12.633a11.03 11.03 0 0 1 3.417.495 6.907 6.907 0 0 1 4.72 5.665 19.524 19.524 0 0 1-.09 8.227 7.037 7.037 0 0 1-7.328 5.844c-3.147.045-6.339 0-9.486 0h-.764c-.4-.045-.584.135-.584.539v7.957c0 .764 0 .764-.764.764h-6.564c-.809 0-.809 0-.809-.854-.048-3.956-.048-7.912-.048-11.913zm12.633-3.641h1.167c.989 0 2.023.045 3.012-.045 1.079-.09 1.3-.315 1.484-1.349a7.272 7.272 0 0 0 .045-2.787c-.225-1.394-.45-1.663-1.888-1.708-2.608-.045-5.17 0-7.778-.045-.494 0-.629.225-.584.629v4.541c0 .719.045.764.809.764zM80.304 44.097h-8.092a13.912 13.912 0 0 1-5.08-.9 10.591 10.591 0 0 1-6.384-7.643 21.562 21.562 0 0 1-.54-4.5 27.458 27.458 0 0 1 .674-8.137 10.623 10.623 0 0 1 9.576-8.182 26.043 26.043 0 0 1 3.237-.18H84.17c.944 0 .944 0 .944.944v5.395c0 .809 0 .854-.809.854h-8.722q-1.349 0-2.7.135a3.789 3.789 0 0 0-3.821 3.192 18.856 18.856 0 0 0-.09 8.677 3.678 3.678 0 0 0 3.327 3.057 18.2 18.2 0 0 0 2.7.225H89.88c.36 0 .494.135.494.495v5.754c0 .9 0 .9-.944.9-3.057-.09-6.069-.09-9.126-.09zm20.005-29.536h11.958c.944 0 .944 0 .944.944v5.17c0 1.079.18 1.079-1.034 1.079h-6.7c-1.124 0-1.124 0-1.124 1.079v20.051c0 1.349.135 1.214-1.214 1.214h-5.708c-1.349 0-1.214.135-1.214-1.214v-19.2c0-.584.27-1.349-.135-1.8-.4-.495-1.214-.18-1.843-.18-2.023-.045-4.046 0-6.024 0-.764 0-.764 0-.764-.764v-5.62c0-.764.045-.764.809-.764z" fill="#262626"/></svg>