<svg xmlns="http://www.w3.org/2000/svg" viewBox="0 0 702.2 257.997"><defs><style>.b,.h{fill:#814d23}.c{fill:#f0774a}.d{fill:#594a42}.e{fill:#ed916c}.f{fill:#ff7016}.g{fill:#93330b}.h,.i,.j{fill-rule:evenodd}.i{fill:#f3ebd6}.j{fill:#ffb339}.k{fill:#cfbd9f}.n{fill:#fb402b}.o{opacity:.4}.p{fill:#fff}</style><clipPath id="a"><path d="M0 0h702.2v257.997H0z"/></clipPath></defs><g clip-path="url(#a)"><path class="b" d="M79.963 125.794s11.538-25.319-9.294-35.9a8.8 8.8 0 0 0-8.814.961 1.919 1.919 0 0 0-.641.641c-5.769-4.487-10.737-6.73-11.7-6.089a57.462 57.462 0 0 1 11.217 6.57c-.16.16-.16.32-.32.481-1.122 1.122-4.968 5.929 4.327 14.743 1.923 1.923 11.377 7.211 14.582 13.621.481 2.884.641 4.807.641 4.968zm-.16-3.525a6.572 6.572 0 0 1 .16 3.525c0-1.282-.16-2.404-.16-3.523z"/><path class="c" d="M10.255 25.158l.481.16a10.429 10.429 0 0 1 1.763-2.4c1.122-1.122 2.724-2.243 4.647-1.763l-.481 3.525 3.686-2.243-1.282 2.4.481-.16a30.629 30.629 0 0 0 14.1-8.333 34 34 0 0 0 6.891-9.935s2.083-4.807 4.487-10.1c-4.326 11.222-9.614 25.644-10.257 32.375a6.969 6.969 0 0 0 1.763 5.448.559.559 0 0 0 .32.16l.32.32v-1.6a2.494 2.494 0 0 1 .481-1.442c.16 0 .16-.16.32-.16a6.206 6.206 0 0 0 1.125 5.289l.16.32.8-1.442c.16.8.32 2.4 1.282 3.2l.16.16.16.16 1.284-1.598a4.777 4.777 0 0 0 1.125 2.562l.481.481.32.16v-.641a1.215 1.215 0 0 1 .32-.641.636.636 0 0 1 .8-.16 6.509 6.509 0 0 1 2.243 1.6 22.834 22.834 0 0 1 1.763 1.923.222.222 0 0 0 .32 0v.16l.16.16h.32a22.838 22.838 0 0 0 1.923-1.763 11.3 11.3 0 0 1 2.4-1.442.636.636 0 0 1 .8.16.963.963 0 0 1 .16.641v.641l.32-.16c.16 0 .32-.16.641-.32a3.648 3.648 0 0 0 1.442-2.4l1.122 1.763.16-.16.16-.16a5.663 5.663 0 0 0 1.6-3.045l.645 1.441.16-.32a6.132 6.132 0 0 0 1.6-5.128c.16 0 .16 0 .32.16a3.827 3.827 0 0 1 .32 1.442v1.6l.481-.32c.16 0 .16-.16.32-.16a7.193 7.193 0 0 0 2.4-5.128c0-6.73-3.365-21.794-6.41-33.331A1677.243 1677.243 0 0 0 64.727 7.69a35.819 35.819 0 0 0 5.769 10.737c5.929 7.532 12.98 9.775 13.14 9.775l.481.16-1.11-2.563 3.364 2.724v-3.685a5.11 5.11 0 0 1 4.327 2.243 18.942 18.942 0 0 1 1.6 2.564l.481-.16c-.481-2.4-.481-2.4 0-6.73a12.618 12.618 0 0 0-.481-5.288h.32a7.813 7.813 0 0 0 1.122.481 7.1 7.1 0 0 1 1.442.8l.32.16.16-.32a10.4 10.4 0 0 0-.32-5.128l.961.481a2.258 2.258 0 0 1 .8.481l.481.32v-.481a19.59 19.59 0 0 0-4.166-8.653c-7.366-9.294-22.429-18.109-29.961-22.109a65.948 65.948 0 0 0 19.23 4h.32l-.16-.32a2.557 2.557 0 0 1-.476-1.28c1.282-.16 3.525-.481 3.525-.481h.475l-.32-.32c-.32-.481-.961-1.282-1.282-1.763 2.083-.8 6.41-1.923 6.41-1.923l.32-.16-.16-.32c-1.6-1.923-6.73-4.166-8.012-4.807a1.2 1.2 0 0 1 .8-.16 1.658 1.658 0 0 1 .641.16l.8.16-.641-.641a15.558 15.558 0 0 0-3.525-1.923c0-.16.16-.16.32-.32a.5.5 0 0 1 .32-.16h.16l.16-.481c-11.057-3.846-20.351 1.282-23.877 3.686a3.5 3.5 0 0 0-.8.481 7.223 7.223 0 0 1-2.243 1.6c.8-10.416 2.4-22.915 5.769-29.966-2.243-.8-3.365 1.6-3.365 1.6s-3.525 4.968-4.006 28.524a4.938 4.938 0 0 1-2.4-1.763c-2.243-2.083-12.018-10.576-23.877-6.73v.481h.16c.16 0 .16.16.32.16a.559.559 0 0 1 .16.32 15.715 15.715 0 0 0-3.686 1.446l-.641.481.8-.16h.641c.32 0 .481.16.8.16-1.442.481-6.891 2.083-8.493 3.846l-.32.32.32.16s4.166 1.6 6.25 2.724a13.012 13.012 0 0 1-1.442 1.6l-.481.481.481.16a32.461 32.461 0 0 1 3.525.961 9.448 9.448 0 0 1-.641 1.282l-.16.32h.32a64.8 64.8 0 0 0 19.55-1.923c-8.012 3.2-23.877 10.256-32.37 18.749-2.564 2.564-4.487 5.288-5.128 8.012l-.16.481.481-.16a6.739 6.739 0 0 1 .8-.32 2.278 2.278 0 0 1 .961-.32c-.32.8-1.282 3.2-.8 4.968v.32l.32-.16 1.6-.641a2.971 2.971 0 0 1 1.122-.32h.32a11.322 11.322 0 0 0-1.122 5.128c-.154 4.167-.154 4.167-.795 6.41z"/><path class="d" d="M50.48 29.165c-.16 0-.16-.16-.16-.32-.481-8.814 3.045-41.183 3.686-46.632-4.326 3.685-30.931 25.96-36.7 31.893a.34.34 0 0 1-.481-.481c6.25-6.41 37.017-32.049 37.337-32.37.16-.16.16-.16.32 0 .16 0 .16.16.16.32 0 .32-4.487 37.818-3.846 47.273.16.16 0 .32-.32.32z"/><path class="d" d="M30.446-22.435c-.16 0-.16-.16-.16-.32a.345.345 0 0 1 .32-.32c7.051-.481 22.595 3.846 24.037 4.327 1.6-.32 19.871-4.166 28.524.481a.589.589 0 0 1 .16.481.589.589 0 0 1-.481.16c-8.653-4.807-27.883-.481-28.2-.481h-.16c-.32-.16-16.826-4.807-24.037-4.327z"/><path class="d" d="M84.129 18.589a.157.157 0 0 1-.16-.16c-4.968-11.858-29.485-36.376-29.806-36.7a.34.34 0 1 1 .481-.481c.32.32 24.838 24.838 29.806 36.857a.589.589 0 0 1-.16.481zm-40.222 3.043c-.16-.16-.32-.32-.16-.481 2.243-3.686 7.371-9.294 7.371-9.455a.34.34 0 0 1 .481.481 100.956 100.956 0 0 0-7.371 9.294.559.559 0 0 1-.321.161zm16.828-8.333a.157.157 0 0 1-.16-.16c-1.923-4.487-8.493-9.615-8.493-9.615a.34.34 0 0 1 .481-.481c.32.16 6.73 5.288 8.653 9.935a.589.589 0 0 1-.16.481.5.5 0 0 0-.321-.16z"/><path class="d" d="M78.2 17.626c-.16 0-.16-.16-.16-.32a67.2 67.2 0 0 1 .481-8.012.32.32 0 0 1 .641 0 39.708 39.708 0 0 0-.481 7.852c0 .32-.16.32-.481.481zM67.303-4.327c-.16 0-.16-.16-.16-.32a.345.345 0 0 1 .32-.32c.32 0 9.455.641 11.858 2.4a.34.34 0 1 1-.481.481c-2.243-1.763-11.378-2.243-11.538-2.243zm12.82-11.057c-1.923-.8-5.769-4.327-5.929-4.487a.34.34 0 1 1 .481-.481s3.846 3.686 5.609 4.327c.16 0 .16.32.16.481s-.16.16-.321.16zm-13.301-4.487c-.16-.16-.32-.32-.16-.481s2.724-4.006 5.609-4.647c.16 0 .32 0 .32.16s0 .32-.16.32c-2.564.641-5.128 4.327-5.128 4.327-.321.321-.321.321-.481.321zM32.69-18.749a.157.157 0 0 1-.16-.16.589.589 0 0 1 .16-.481c1.442-.481 4.327-3.2 4.327-3.2a.34.34 0 0 1 .481.481c-.16.16-3.045 2.884-4.647 3.365zm11.057-2.083a.157.157 0 0 1-.16-.16 8.962 8.962 0 0 0-5.288-4.807c-.16 0-.16-.16-.16-.481 0-.16.16-.16.32-.16a10.836 10.836 0 0 1 5.769 5.128c0 .16 0 .32-.16.32-.161.16-.161.16-.321.16zM16.024 6.088c-.16 0-.16-.16-.16-.32a.345.345 0 0 1 .32-.32c3.2-.481 9.775 0 10.1 0a.32.32 0 1 1 0 .641c-.16 0-6.891-.481-10.256 0zm14.742 4.328c-.16-.16-.32-.32-.16-.481C32.849 6.249 33.17-.641 33.17-.802a.32.32 0 1 1 .641 0c0 .32-.32 7.211-2.724 10.9-.161.318-.161.48-.321.318zM32.69-7.693a.157.157 0 0 1-.16-.16c0-.16 0-.32.16-.32 4.006-1.282 9.455-.32 9.775-.32a.32.32 0 0 1 0 .641s-5.448-.961-9.455.32c-.16-.161-.16-.161-.32-.161zM72.11 7.532c-.16 0-.16-.16-.16-.32l.8-5.609a.32.32 0 1 1 .641 0l-.8 5.609c-.16.32-.321.481-.481.32zM60.573-5.449c-.16 0-.16-.16-.16-.32l.32-6.089a.32.32 0 0 1 .641 0l-.32 6.089c0 .32-.16.32-.481.32zM49.355-4.167c-.16-.16-.32-.32-.16-.481a35.055 35.055 0 0 1 4.166-5.929.34.34 0 1 1 .481.481 36.562 36.562 0 0 0-4.006 5.769c-.16 0-.321.16-.481.16z"/><path class="e" d="M175.47 46.471l.32-.32a10.775 10.775 0 0 1-1.6-2.724c-.641-1.6-.961-3.686.16-5.288l3.365 1.923-.8-4.487 1.923 2.4.16-.481a33.337 33.337 0 0 0-2.243-17.467 40.207 40.207 0 0 0-6.891-11.057s-3.846-4.166-8.173-8.814c9.294 8.974 21.473 20.351 27.723 23.877a7.067 7.067 0 0 0 6.089.481c.16 0 .16-.16.32-.16l.481-.481-.481-.16a5.461 5.461 0 0 1-2.243-1.6v-.32a6.965 6.965 0 0 0 5.769 1.122h.32l-.961-1.442a5.767 5.767 0 0 0 3.686.16.157.157 0 0 0 .16-.16l.16-.16-1.122-1.923a4.912 4.912 0 0 0 3.045 0c.32-.16.481-.16.641-.32l.32-.32-.32-.16a.5.5 0 0 1-.32-.16c-.16-.16-.481-.32-.481-.481-.16-.16-.16-.481.32-.961a5.036 5.036 0 0 1 2.564-1.442 22.081 22.081 0 0 1 2.564-.961c.16 0 .16-.16.16-.32h.16v.16h.16a.559.559 0 0 0 .16-.32 22.076 22.076 0 0 0-.961-2.564 7.121 7.121 0 0 1-.32-2.884 1.713 1.713 0 0 1 .481-.8h.8a.559.559 0 0 1 .32.16l.32.16v-.481a1.742 1.742 0 0 0-.16-.8 4.108 4.108 0 0 0-1.763-2.4l2.243-.32v-.32c-.32-1.282-1.6-2.243-2.4-2.884h1.763l-.16-.32a6.684 6.684 0 0 0-4.327-3.846c0-.16.16-.16.32-.16a2.081 2.081 0 0 1 1.6.32l.961.481.481.32-.16-.481v-.32a7.277 7.277 0 0 0-4.166-4.487c-6.73-2.884-22.915-5.769-35.735-7.692 6.25.641 11.858 1.122 11.858 1.122a36.463 36.463 0 0 0 12.98-1.282c10.1-2.724 15.223-8.814 15.223-8.814l.32-.32h-3.043l4.006-2.083-3.525-1.442a5.576 5.576 0 0 1 4.166-3.365 12.624 12.624 0 0 1 3.2-.481v-.492c-2.564-.641-2.564-.481-6.57-2.884a10.447 10.447 0 0 0-5.448-1.763c0-.16.16-.16.16-.32a2.355 2.355 0 0 1 .961-.8 8.574 8.574 0 0 1 1.45-1.123l.32-.16-.16-.16a9.349 9.349 0 0 0-5.128-1.763c.16-.32.481-.481.8-.8s.8-.481.8-.641l.481-.32-.481-.16a20.571 20.571 0 0 0-10.256.481c-12.339 3.365-27.242 14.582-34.613 20.351a82.82 82.82 0 0 0 11.857-17.79l.16-.32h-1.923c.32-1.282.961-3.686.961-3.846l.16-.481-.481.16c-.641.16-1.763.32-2.243.481.16-2.4.8-7.211.8-7.211v-.321l-.32.16c-2.564.641-6.891 4.807-8.173 5.929a1.2 1.2 0 0 1 .16-.8 1.983 1.983 0 0 1 .32-.481l.641-.8-.8.32a9.977 9.977 0 0 0-3.365 2.724.5.5 0 0 1-.16-.32v-.641l-.32-.32c-8.974 8.173-7.852 19.55-6.891 24.037 0 .481.16.8.16 1.122a6.285 6.285 0 0 1 .641 2.884c-9.935-5.128-21.633-12.179-27.082-18.268-1.763 1.923.32 4.006.32 4.006s3.365 5.609 26.441 16.025a4.589 4.589 0 0 1-2.884 1.6c-3.042 1.282-15.542 7.372-16.665 20.832l.481.16.16-.16c.16 0 .16-.16.32-.16s.16 0 .481-.16a12.556 12.556 0 0 0-.16 4.327l.32.961.16-.961a1.6 1.6 0 0 1 .16-.641 2.212 2.212 0 0 1 .481-.641c-.16 1.6-.8 7.692.16 10.1l.16.32.32-.32a62.127 62.127 0 0 1 5.288-4.968 12.083 12.083 0 0 1 .961 2.083l.16.481.32-.32a29.455 29.455 0 0 1 2.4-3.045 8.127 8.127 0 0 1 .961 1.122l.16.32v-.481a71.977 71.977 0 0 0 6.41-20.031c-.16 9.294 0 28.043 4.807 39.9a19.926 19.926 0 0 0 5.769 8.493l.481.32v-1.445a2.727 2.727 0 0 1 .16-1.122 8.737 8.737 0 0 0 4.487 2.884h.32v-2.082a3.124 3.124 0 0 1 .16-1.282c0-.16 0-.32.16-.32a10.067 10.067 0 0 0 4.647 3.365c4.336 1.762 4.175 1.762 6.259 3.525z"/><path class="d" d="M196.301 8.172c-.16.16-.16.16-.32.16-8.814-3.2-39.421-20.351-44.549-23.4 1.763 5.769 12.659 41.664 16.025 49.676a.358.358 0 0 1-.641.32c-3.686-8.808-16.185-50.152-16.345-50.632 0-.16 0-.32.16-.32.16-.16.32-.16.32 0 .32.16 35.575 20.351 45.189 23.716.321 0 .321.16.16.481.162-.161.001-.161.001-.001z"/><path class="d" d="M136.85 6.25c-.16.16-.16.16-.32.16a.307.307 0 0 1-.16-.481c2.4-7.211 13.461-20.672 14.422-21.954.32-1.6 4.166-21.473 12.5-28.043a.34.34 0 0 1 .481.481c-8.333 6.57-12.339 27.4-12.339 27.723v.16c-.321.16-12.019 14.582-14.582 21.954z"/><path class="d" d="M200.147-29.646a.559.559 0 0 1-.32.16c-13.941-.16-48.555 13.781-48.875 13.941a.589.589 0 0 1-.481-.16.589.589 0 0 1 .16-.481c.32-.16 35.094-14.1 49.035-13.941a.345.345 0 0 1 .32.32.157.157 0 0 1 .161.161zm-14.102 41.183c-.16.16-.481.16-.481 0C182.84 7.851 179.475.32 179.314.16a.358.358 0 0 1 .641-.32 102.28 102.28 0 0 0 6.089 11.217.3.3 0 0 1 .001.48zm-1.122-20.19a.559.559 0 0 1-.32.16c-5.288 0-13.14 4.327-13.14 4.327-.16.16-.32 0-.481-.16s0-.32.16-.481c.32-.16 8.012-4.327 13.461-4.487a.345.345 0 0 1 .32.32.222.222 0 0 1 0 .321z"/><path class="d" d="M196.623-24.197c-.16.16-.16.16-.32.16-2.884-.961-7.532-3.846-7.692-3.846a.589.589 0 0 1-.16-.481.589.589 0 0 1 .481-.16 58.369 58.369 0 0 0 7.532 3.846c.16 0 .32.16.16.481zm-26.442 1.602a.358.358 0 1 1-.641-.32c.16-.32 4.647-9.134 7.371-10.576.16-.16.32 0 .481.16s0 .32-.16.481c-2.4 1.282-6.891 10.1-7.051 10.256zm-5.448-17.306c-1.6 1.6-6.73 3.846-6.891 4.006a.589.589 0 0 1-.481-.16.589.589 0 0 1 .16-.481s5.128-2.243 6.73-3.846a.34.34 0 0 1 .481.481zm-9.935 11.217c-.16.16-.481.16-.481 0-.16-.16-2.724-4.487-2.243-7.532a.32.32 0 1 1 .641 0c-.481 2.884 2.083 6.891 2.083 7.051v.481zM141.497 5.609a.559.559 0 0 1-.32.16.345.345 0 0 1-.32-.32c0-1.6-1.442-5.609-1.442-5.769a.358.358 0 1 1 .641-.32c0 .16 1.442 4.327 1.442 5.929zm2.567-11.859a.559.559 0 0 1-.32.16 10.189 10.189 0 0 0-7.051 3.2.34.34 0 0 1-.481-.481 10.477 10.477 0 0 1 7.532-3.525.345.345 0 0 1 .32.32.222.222 0 0 1 0 .326zm14.9 38.78c0 .16-.16.16-.32.16s-.32-.16-.16-.481a68.281 68.281 0 0 1 4.327-9.935c0-.16.32-.16.481-.16a.589.589 0 0 1 .16.481c-.32 0-3.525 6.41-4.487 9.935zm10.581-12.659c-.16.16-.481.16-.481 0-2.724-3.846-9.455-7.051-9.455-7.051-.16 0-.16-.32-.16-.481a.589.589 0 0 1 .481-.16c.32.16 6.891 3.365 9.775 7.371a.5.5 0 0 1-.16.321zm-17.151-9.611c0 .16-.16.16-.32.16a.345.345 0 0 1-.32-.32c.481-4.647 3.686-9.455 3.846-9.775a.358.358 0 1 1 .641.32s-3.365 4.968-3.686 9.455c-.161-.005-.161-.005-.161.16zm31.729-32.534a.3.3 0 0 1-.481 0l-5.288-3.045a.589.589 0 0 1-.16-.481.589.589 0 0 1 .481-.16l5.288 3.045c.16.32.32.481.16.641zm-17.627 5.929a.589.589 0 0 1-.481.16l-5.769-2.884a.589.589 0 0 1-.16-.481.589.589 0 0 1 .481-.16l5.769 2.884c.16 0 .16.16.16.481zM162.81-4.808a.3.3 0 0 1-.481 0 44.048 44.048 0 0 1-4.166-6.57c-.16-.16 0-.32.16-.481s.32 0 .481.16a48.558 48.558 0 0 0 4.006 6.41.3.3 0 0 1 0 .481z"/><path class="b" d="M17.307 162.65c.8 3.2 1.6 5.929 2.083 7.532 1.442 2.724 3.846 8.173 1.763 14.582-.961-.16-8.012-7.692-3.525-15.384-.485-2.082-1.285-4.646-2.085-7.691a19.237 19.237 0 0 1-7.051 13.621c-.641-.641-2.243-11.538 6.73-14.743-.961-4.006-2.243-8.974-3.365-14.9a18.7 18.7 0 0 1-7.049 13.457c-.641-.641-2.243-11.538 6.891-14.743-.481-2.243-.961-4.487-1.282-7.051a45.973 45.973 0 0 1-.8-9.134c-.8 2.564-3.2 8.814-9.935 11.858-.481-.8.481-11.858 9.935-12.98a45.143 45.143 0 0 1 1.6-11.858A18.851 18.851 0 0 1 .643 123.55c-.32-.961 2.243-11.217 11.538-11.217a65.247 65.247 0 0 1 3.846-9.294 18.953 18.953 0 0 1-13.623 5.285c0-.961 5.769-10.1 14.582-6.891a44.235 44.235 0 0 1 5.609-8.009c.481.641.481.641.8 1.122a44.876 44.876 0 0 0-5.448 7.211c8.653 3.525 7.051 14.1 6.41 14.9-5.769-4.487-6.73-11.217-6.891-13.941a45.675 45.675 0 0 0-3.525 9.615c8.974 3.365 7.211 14.262 6.57 14.9-5.769-4.647-6.73-11.377-6.891-13.941-.481 1.6-.961 3.2-1.442 5.128a34 34 0 0 0-.8 8.493c9.455 1.6 9.935 12.5 9.294 13.3a18.716 18.716 0 0 1-9.294-11.858 103.673 103.673 0 0 0 1.765 15.071c9.294.8 10.9 11.378 10.416 12.179a18.5 18.5 0 0 1-9.935-9.455 199.89 199.89 0 0 0 3.2 13.781c9.455.32 11.538 10.9 11.057 11.858a17.6 17.6 0 0 1-10.574-9.137z"/><path class="f" d="M21.954 111.692c-.16 5.448 1.763 10.416 3.365 15.864.16-3.846 1.122-5.769 1.763-8.493 1.442 7.051 8.814 11.538 13.14 16.986a25.842 25.842 0 0 1-3.045-7.852 82.6 82.6 0 0 1 15.864 15.864 87.185 87.185 0 0 1 .32-22.435 27.4 27.4 0 0 1 3.365 7.692c-.641-6.891 1.442-15.223-2.4-21.313 2.564 1.442 4.487 2.083 7.211 4.807-2.724-5.128-4.807-10.1-8.653-13.781 1.923.641 4.166.8 6.25 1.442-2.564-.8-6.891-7.211-10.576-8.974-4.487-2.243-9.775-3.365-14.582-2.4a11.175 11.175 0 0 0-2.724.961 9.579 9.579 0 0 0-2.563 1.28c-4.166 2.564-7.051 7.051-8.814 11.858-1.282 3.846 0 11.378-1.282 13.781.957-1.762 2.396-3.364 3.361-5.287z"/><path class="d" d="M26.601 82.046c.16 0 .16 0 .32.16.961 1.923 23.556 46.151 24.518 55.606a.32.32 0 1 1-.641 0c-.961-9.294-24.2-54.965-24.357-55.445-.16 0 0-.16.16-.32z"/><path class="d" d="M43.427 117.14c.32 0 6.41.32 7.852 2.4.16.16 0 .32-.16.32s-.32 0-.32-.16c-.961-1.6-5.609-2.083-7.371-2.243a.345.345 0 0 1-.32-.32zm-4.006-8.814c.32.16.32.32.32.32s-3.045 6.891-3.045 11.858a.32.32 0 0 1-.641 0c0-4.968 3.045-11.7 3.2-12.018.001-.16.001-.16.166-.16zm-4.006-11.698c3.045 0 9.615.641 13.781 5.128.16.16.16.32 0 .32-.16.16-.32.16-.32 0-5.288-5.929-14.743-4.968-14.9-4.968a.32.32 0 1 1 0-.641c-.004.321.476.161 1.439.161z"/><path class="f" d="M54.164 74.675c3.2 4.487 7.692 7.211 12.339 10.576-2.243-3.2-2.724-5.288-3.846-7.852 5.448 4.647 14.1 3.846 20.672 5.448a25.4 25.4 0 0 1-7.211-4.327 84.225 84.225 0 0 1 22.274 2.884 81.268 81.268 0 0 1-13.3-17.948 25.761 25.761 0 0 1 7.371 4.166C87.811 62.656 84.29 54.804 77.56 52.24c2.884-.32 4.807-1.122 8.653-.641-5.288-2.4-9.935-4.968-15.223-5.609 1.923-.641 3.846-1.923 5.769-2.564-2.564.961-9.935-1.442-13.781-.8a23.084 23.084 0 0 0-12.98 7.051 8.981 8.981 0 0 0-1.6 2.4 9.6 9.6 0 0 0-1.287 2.567 24.381 24.381 0 0 0 .16 14.743c1.282 3.846 6.891 8.974 7.371 11.7a43.153 43.153 0 0 0-.478-6.412z"/><path class="d" d="M39.742 48.394h.32c1.923.961 46.792 22.114 53.362 29 .16.16.16.32 0 .32-.16.16-.32.16-.32 0-6.41-6.891-52.721-28.684-53.2-29-.32.16-.32 0-.16-.32z"/><path class="d" d="M74.515 65.861c.16-.16 5.288-3.686 7.692-2.884.16 0 .16.16.16.32s-.16.16-.32.16c-1.763-.641-5.769 1.763-7.211 2.724a.222.222 0 0 1-.32 0c-.161 0-.161-.32-.001-.32zm-8.654-4.487c.32-.16.481 0 .481.16 0 0 1.763 7.371 4.807 11.217a.227.227 0 1 1-.32.32c-3.045-4.006-4.807-11.217-4.807-11.538-.321.001-.161-.159-.161-.159zm-10.255-6.731c2.4-1.763 8.012-5.448 14.1-4.327.16 0 .32.16.16.32 0 .16-.16.32-.32.16-7.692-1.442-14.743 5.128-14.743 5.128-.16.16-.32.16-.32 0-.16-.16-.16-.32 0-.32a11.673 11.673 0 0 1 1.123-.961z"/><path class="f" d="M440.358 14.583c3.2 4.487 7.692 7.211 12.339 10.576-2.243-3.2-2.724-5.288-3.846-7.852 5.448 4.647 14.1 3.846 20.672 5.448a25.4 25.4 0 0 1-7.211-4.327 84.225 84.225 0 0 1 22.274 2.884 81.267 81.267 0 0 1-13.3-17.948 25.76 25.76 0 0 1 7.371 4.166c-4.647-4.968-8.173-12.82-14.9-15.384 2.884-.32 4.807-1.122 8.653-.641-5.288-2.4-9.935-4.968-15.223-5.609 1.923-.641 3.846-1.923 5.769-2.564-2.564.961-9.935-1.442-13.781-.8a23.084 23.084 0 0 0-12.98 7.051 8.981 8.981 0 0 0-1.6 2.4 9.594 9.594 0 0 0-1.29 2.569 24.381 24.381 0 0 0 .162 14.74c1.282 3.846 6.891 8.974 7.371 11.7-.32-2.083-.16-4.326-.48-6.409z"/><path class="d" d="M425.935-11.698h.32c1.923.961 46.792 22.114 53.362 29 .16.16.16.32 0 .32-.16.16-.32.16-.32 0-6.41-6.891-52.721-28.684-53.2-29-.32 0-.32-.16-.16-.32z"/><path class="d" d="M460.548 5.769c.16-.16 5.288-3.686 7.692-2.884.16 0 .16.16.16.32s-.16.16-.321.16c-1.763-.641-5.769 1.763-7.211 2.724a.227.227 0 1 1-.32-.32zm-8.492-4.487c.32-.16.481 0 .481.16 0 0 1.763 7.371 4.807 11.217a.227.227 0 0 1-.32.32c-3.045-4.006-4.807-11.217-4.807-11.538-.322.001-.322-.159-.161-.159zM441.8-5.609c2.4-1.763 8.012-5.448 14.1-4.327.16 0 .321.16.16.32 0 .16-.16.32-.32.16-7.692-1.442-14.743 5.128-14.743 5.128-.16.16-.32.16-.32 0-.16-.16-.16-.32 0-.32-.159.161.322-.32 1.123-.961z"/><path class="f" d="M94.866-8.973c-.16 5.448 1.763 10.416 3.365 15.864.16-3.846 1.122-5.769 1.763-8.493 1.442 7.051 8.814 11.538 13.14 16.986a25.842 25.842 0 0 1-3.045-7.852 82.6 82.6 0 0 1 15.865 15.865 87.185 87.185 0 0 1 .32-22.435 27.4 27.4 0 0 1 3.365 7.692c-.641-6.891 1.442-15.223-2.4-21.313 2.564 1.442 4.487 2.083 7.211 4.807-2.724-5.128-4.807-10.1-8.653-13.781 1.923.641 4.166.8 6.25 1.442-2.564-.8-6.891-7.211-10.576-8.974-4.487-2.243-9.775-3.365-14.582-2.4a11.174 11.174 0 0 0-2.724.961 9.579 9.579 0 0 0-2.564 1.279c-4.166 2.564-7.051 7.051-8.814 11.858-1.282 3.846 0 11.377-1.282 13.781.957-1.762 2.396-3.364 3.361-5.287z"/><path class="d" d="M99.513-38.619c.16 0 .16 0 .32.16.96 1.923 23.56 46.151 24.519 55.606a.32.32 0 1 1-.641 0c-.961-9.294-24.2-54.8-24.518-55.285 0-.16 0-.32.32-.481z"/><path class="d" d="M116.339-3.525c.32 0 6.41.32 7.852 2.4.16.16 0 .32-.16.32s-.32 0-.32-.16c-.961-1.6-5.609-2.083-7.371-2.243a.345.345 0 0 1-.32-.32c.159.163.159.003.319.003zm-4.006-8.814c.32.16.32.32.32.32s-3.045 6.891-3.045 11.858a.32.32 0 1 1-.641 0c0-4.968 3.045-11.7 3.2-12.018.001-.16.001-.16.166-.16zm-4.006-11.698c3.045 0 9.615.641 13.781 5.128.16.16.16.32 0 .32-.16.16-.32.16-.32 0-5.288-5.929-14.743-4.968-14.9-4.968a.32.32 0 0 1 0-.641c-.004.321.476.161 1.439.161z"/><path class="g" d="M28.524 62.015c1.763 2.724-2.243 9.935-3.365 12.179-1.6 3.525-7.371 13.14-1.6 16.826 4.166 2.724 9.935-7.211 9.294.961-.16 2.243-2.884 7.371-.16 9.455 5.769 4.327 7.051-5.609 12.018-3.2 5.448 2.564 3.846 11.858 9.294 11.7h.32c4.647-3.045-1.763-9.775 1.282-14.9 2.884-4.807 9.455 2.724 11.858-4.006 1.122-3.2-4.006-5.929-5.448-7.692-5.128-6.41 5.288-1.442 7.211-5.929 2.724-6.25-7.371-11.057-10.737-12.98-2.243-1.282-9.455-4.968-9.615-8.333-.16-4.968 7.532-.641 9.615-4.487 2.083-4.166-5.929-6.891-9.294-8.653-7.532-4.006-13.781-9.935-20.512-17.467l-.16-.481v.32a.157.157 0 0 0-.16-.16l.16.481c-1.442 9.935-3.365 18.428-7.371 25.96-1.763 3.2-6.891 10.1-2.884 12.339 3.684 1.75 7.69-6.26 10.254-1.933z"/><path class="d" d="M30.607 31.568a.585.585 0 0 1 .8.32c.16.481 14.743 47.433 19.39 68.906 0 .32-.16.641-.481.641s-.641-.16-.641-.481c-4.647-21.473-19.23-68.425-19.39-68.906-.159-.004.002-.32.322-.48z"/><path class="d" d="M45.03 80.924h.32c.32.16 7.852 2.564 12.659 6.41a.578.578 0 0 1-.641.961c-4.006-3.2-10.416-5.609-12.018-6.089-1.122 1.442-6.25 7.532-7.051 11.377 0 .32-.32.481-.641.481s-.481-.32-.481-.641c.961-4.807 7.371-12.018 7.532-12.339.161 0 .321 0 .321-.16zM40.703 65.22h.32c.641 0 14.582 1.923 19.23 6.41a.567.567 0 0 1-.8.8c-4.012-3.845-16.346-5.768-18.269-6.088-1.282 1.282-8.814 8.653-13.621 17.787-.16.32-.481.32-.8.32-.32-.16-.32-.481-.32-.8C31.569 73.393 40.382 65.38 40.382 65.38c.159-.16.159-.16.321-.16zm-6.891-24.999h.32c2.4.641 10.1 2.564 10.9 4.327a.61.61 0 0 1-1.122.481c-.481-.961-5.609-2.724-10.256-3.846-.32 0-.481-.32-.481-.641a.833.833 0 0 0 .639-.321z"/><path class="d" d="M33.331 40.382a.589.589 0 0 1 .481.16.529.529 0 0 1 0 .8s-6.41 7.852-7.532 11.7c-.16.32-.32.481-.641.32s-.481-.32-.32-.641c1.122-4.006 7.532-11.858 7.692-12.179.16 0 .16 0 .32-.16zm3.526 11.858h.32c.16 0 5.609 1.923 7.211 3.365a.567.567 0 1 1-.8.8c-1.122-.961-4.647-2.4-6.41-3.045-1.6 2.243-3.846 5.929-4.006 6.73 0 .32-.32.481-.641.481s-.481-.32-.481-.641c.32-1.6 4.006-7.051 4.487-7.532.16.002.16-.158.32-.158z"/><path class="h" d="M13.3 28.043c2.083.8 13.461 5.929 18.428 18.428 5.448 13.621 1.282 29.806-9.775 42.465s-12.5 15.063-15.384 23.716S8.332 98.39.96 85.891C-18.108 53.518-.481 40.543 12.98 27.883c0 0 .481-.481.32.16z"/><path class="i" d="M26.44 47.112a131.915 131.915 0 0 1-10.9-8.333 74.419 74.419 0 0 0-2.724-9.134c0-.32.16 1.282.16 1.282.481 2.724.8 5.448 1.122 8.012-6.41 4.807-10.737 7.371-10.576 7.371a114.275 114.275 0 0 0 10.737-6.089c.16 1.923.32 3.846.481 5.609A149.682 149.682 0 0 1 .961 55.284c2.083-.8 7.051-3.525 13.781-7.852.16 2.243.16 4.327.16 6.57C6.409 61.374.48 65.38.796 65.22a136.706 136.706 0 0 0 14.1-9.455c0 1.923-.16 3.846-.16 5.609-7.692 7.532-13.3 11.7-12.98 11.538a162.341 162.341 0 0 0 12.98-9.775q-.24 3.365-.481 6.25c-6.73 6.891-11.7 10.736-11.377 10.736a119.965 119.965 0 0 0 11.223-8.814c-.32 2.4-.641 4.647-.961 6.57a82.243 82.243 0 0 1-6.891 8.333 54.579 54.579 0 0 0 6.73-6.891 89.857 89.857 0 0 1-2.243 10.576 100.618 100.618 0 0 0 3.2-10.416c1.923 4.807 3.525 7.852 4.166 9.134.16.16-1.763-3.846-3.846-10.576.481-2.083.961-4.327 1.442-6.891a120.581 120.581 0 0 0 7.371 11.538c.16.16-3.045-4.968-7.051-13.461a46.148 46.148 0 0 0 .8-5.288 137.107 137.107 0 0 0 10.256 12.018 159.932 159.932 0 0 1-9.928-13.94c0-.481.16-.8.16-1.282.16-1.6.32-3.2.32-4.807a162.657 162.657 0 0 0 11.7 11.858c.32.16-4.807-4.968-11.7-13.941 0-1.923-.16-3.686-.32-5.448a111.042 111.042 0 0 0 11.057 8.814 151.55 151.55 0 0 1-11.217-10.58c-.32-2.243-.641-4.487-.961-6.41a54.237 54.237 0 0 0 10.255 6.893z"/><path class="j" d="M16.826 127.075s-11.057-12.659-10.1-27.4c.8-11.7 10.1-21.313 13.461-24.678-1.442 12.98-2.083 20.832-2.564 36.376a23.556 23.556 0 0 1 0 3.365c.641-2.724.481-1.282.641-3.2 2.083-16.826 2.564-22.274 3.2-36.376 2.724 3.686 9.775 14.262 8.974 26.12-.953 14.576-13.612 25.793-13.612 25.793z"/><path class="e" d="M42.947 74.194l.32-.32a10.775 10.775 0 0 1-1.6-2.724c-.641-1.6-.961-3.686.16-5.288l3.365 1.923-.8-4.487 1.923 2.4.16-.481a33.337 33.337 0 0 0-2.246-17.464 40.207 40.207 0 0 0-6.891-11.057s-3.846-4.166-8.173-8.814c9.294 8.814 21.473 20.031 27.723 23.556a7.067 7.067 0 0 0 6.089.481c.16 0 .16-.16.32-.16l.481-.16-.481-.16a5.461 5.461 0 0 1-2.243-1.6v-.32a6.965 6.965 0 0 0 5.769 1.122h.32l-.961-1.442a5.766 5.766 0 0 0 3.686.16.157.157 0 0 0 .16-.16l.16-.16-1.121-1.927a4.912 4.912 0 0 0 3.045 0c.32-.16.481-.16.641-.32l.32-.32-.16-.16a.5.5 0 0 1-.32-.16c-.16-.16-.481-.32-.481-.481-.16-.16-.16-.481.32-.961a5.036 5.036 0 0 1 2.564-1.447 22.081 22.081 0 0 1 2.564-.961c.16 0 .16-.16.16-.32h.16v.16h.16a.559.559 0 0 0 .16-.32 22.083 22.083 0 0 0-.961-2.564 7.121 7.121 0 0 1-.32-2.884 1.713 1.713 0 0 1 .481-.8h.8a.56.56 0 0 1 .32.16l.32.16v-.481a1.742 1.742 0 0 0-.16-.8 4.108 4.108 0 0 0-1.763-2.4l2.243-.32v-.32c-.32-1.282-1.6-2.243-2.4-2.884h1.757l-.16-.32a6.684 6.684 0 0 0-4.327-3.846c0-.16.16-.16.32-.16a2.081 2.081 0 0 1 1.6.32l.961.481.481.32-.16-.481v-.32a7.277 7.277 0 0 0-4.166-4.487c-6.73-2.884-22.915-5.769-35.735-7.692 6.25.641 11.858 1.122 11.858 1.122a36.463 36.463 0 0 0 12.98-1.282C72.269 9.62 77.392 3.53 77.392 3.53l.32-.32h-3.037l4.006-2.083-3.525-1.442a5.576 5.576 0 0 1 4.166-3.365 12.624 12.624 0 0 1 3.2-.481v-.486c-2.564-.641-2.564-.481-6.57-2.884a10.447 10.447 0 0 0-5.448-1.763c0-.16.16-.16.16-.32a2.355 2.355 0 0 1 .961-.8 8.575 8.575 0 0 1 1.448-1.123l.32-.16-.476-.64a9.349 9.349 0 0 0-5.128-1.763c.16-.32.481-.481.8-.8s.8-.481.8-.641l.481-.32-.481-.16a20.571 20.571 0 0 0-10.256.481C46.792-12.179 31.89-.962 24.517 4.807a70.255 70.255 0 0 0 12.02-17.306l.16-.32h-1.923c.32-1.282.961-3.686.961-3.846l.16-.481-.481.16c-.641.16-1.763.32-2.243.481.16-2.4.8-7.211.8-7.211v-.321l-.32.16c-2.564.641-6.891 4.807-8.173 5.929a1.2 1.2 0 0 1 .16-.8 1.983 1.983 0 0 1 .32-.481l.641-.8-.8.32a9.978 9.978 0 0 0-3.365 2.724.5.5 0 0 1-.16-.32v-.641l-.32-.32c-8.974 8.173-7.852 19.55-6.891 24.037 0 .481.16.8.16 1.122a6.285 6.285 0 0 1 .641 2.884C5.93 4.647-5.768-2.404-11.217-8.493c-1.763 1.923.32 4.006.32 4.006s3.365 5.609 26.441 16.025a4.589 4.589 0 0 1-2.884 1.6C9.617 14.422-2.883 20.512-4.006 33.972l.481.16.16-.16c.16 0 .16-.16.32-.16s.16 0 .481-.16a12.556 12.556 0 0 0-.16 4.327l.32.961v-.961a1.6 1.6 0 0 1 .16-.641 2.212 2.212 0 0 1 .481-.641c-.16 1.6-.8 7.692.16 10.1l.16.32.32-.32a62.131 62.131 0 0 1 5.288-4.968 12.082 12.082 0 0 1 .961 2.083l.16.481.32-.32a29.455 29.455 0 0 1 2.411-3.05 8.129 8.129 0 0 1 .961 1.122l.16.32.16-.32a71.977 71.977 0 0 0 6.41-20.031c-.16 9.294 0 28.043 4.807 39.9a19.925 19.925 0 0 0 5.769 8.493l.481.32v-1.442a2.727 2.727 0 0 1 .16-1.122 8.737 8.737 0 0 0 4.487 2.884h.32v-2.084a3.124 3.124 0 0 1 .16-1.282c0-.16 0-.32.16-.32a10.067 10.067 0 0 0 4.647 3.365c4.325 1.605 4.325 1.766 6.248 3.368z"/><path class="d" d="M63.938 35.895c-.16.16-.16.16-.32.16-8.814-3.2-39.421-20.351-44.549-23.4 1.763 5.769 12.659 41.664 16.025 49.676a.358.358 0 0 1-.641.32c-3.686-8.808-16.185-50.152-16.345-50.632 0-.16 0-.32.16-.32.16-.16.32-.16.32 0 .32.16 35.575 20.351 45.189 23.716.16 0 .16.16.16.481z"/><path class="d" d="M4.327 33.973c-.16.16-.16.16-.32.16a.307.307 0 0 1-.16-.481c2.4-7.211 13.461-20.672 14.422-21.954.32-1.6 4.166-21.473 12.5-28.043a.34.34 0 0 1 .481.481C22.915-9.29 18.909 11.538 18.909 11.859v.16c-.32.321-12.018 14.743-14.582 21.954z"/><path class="d" d="M67.624-1.762a.559.559 0 0 1-.32.16C53.362-1.762 18.748 12.18 18.429 12.34a.358.358 0 1 1-.32-.641c.32-.16 35.094-14.1 49.035-13.941a.345.345 0 0 1 .32.32c.321 0 .321 0 .16.16zM53.522 39.26c-.16.16-.481.16-.481 0-2.724-3.686-6.089-11.217-6.25-11.377a.358.358 0 0 1 .641-.32 102.281 102.281 0 0 0 6.09 11.216.3.3 0 0 1 0 .481zM52.4 19.07a.559.559 0 0 1-.32.16c-5.288 0-13.14 4.327-13.14 4.327-.16.16-.32 0-.481-.16s0-.32.16-.481c.32-.16 8.012-4.327 13.461-4.487a.345.345 0 0 1 .32.32c.161.321.161.321 0 .321z"/><path class="d" d="M64.1 3.526c-.16.16-.16.16-.32.16-2.884-.961-7.532-3.846-7.692-3.846a.358.358 0 0 1 .32-.641 58.371 58.371 0 0 0 7.532 3.846.307.307 0 0 1 .16.481zM37.819 5.128a.589.589 0 0 1-.481.16.589.589 0 0 1-.16-.481c.16-.32 4.647-9.134 7.371-10.576.16-.16.32 0 .481.16s0 .32-.16.481c-2.564 1.282-7.051 10.1-7.051 10.256zM32.37-12.178c-1.6 1.6-6.73 3.846-6.891 4.006a.589.589 0 0 1-.481-.16.589.589 0 0 1 .16-.481s5.128-2.243 6.73-3.846a.3.3 0 0 1 .481 0zM22.275-.801c-.16.16-.481.16-.481 0-.16-.16-2.724-4.487-2.243-7.532a.32.32 0 0 1 .641 0c-.481 2.884 2.083 6.891 2.083 7.051a.3.3 0 0 1 0 .481zM8.974 33.492a.559.559 0 0 1-.32.16.345.345 0 0 1-.32-.32c0-1.6-1.442-5.609-1.442-5.769a.589.589 0 0 1 .159-.481.589.589 0 0 1 .481.16c0 .16 1.442 4.327 1.442 5.929v.321zm2.567-12.019a.559.559 0 0 1-.32.16 10.189 10.189 0 0 0-7.051 3.2.34.34 0 0 1-.481-.481 10.477 10.477 0 0 1 7.529-3.52.345.345 0 0 1 .32.32c.161.321.161.321.003.321zm14.9 38.78c0 .16-.16.16-.32.16s-.32-.16-.16-.481a68.28 68.28 0 0 1 4.327-9.935c0-.16.32-.16.481-.16a.589.589 0 0 1 .16.481c-.32 0-3.525 6.57-4.487 9.935zm10.581-12.659c-.16.16-.481.16-.481 0-2.724-3.846-9.455-7.051-9.455-7.051-.16 0-.16-.32-.16-.481a.589.589 0 0 1 .481-.16c.32.16 6.891 3.365 9.775 7.371-.004.161-.004.321-.16.321zm-17.151-9.611c0 .16-.16.16-.32.16a.345.345 0 0 1-.32-.32c.481-4.647 3.686-9.455 3.846-9.775a.589.589 0 0 1 .481-.16.589.589 0 0 1 .16.481s-3.365 4.968-3.686 9.455zM51.6 5.449a.3.3 0 0 1-.481 0l-5.288-3.045a.358.358 0 1 1 .32-.641l5.288 3.045c.32.32.32.481.16.641zm-17.627 5.929a.589.589 0 0 1-.481.16l-5.769-2.884a.358.358 0 1 1 .32-.641l5.769 2.884c.16 0 .32.16.16.481zm-3.526 11.537a.3.3 0 0 1-.481 0 44.05 44.05 0 0 1-4.166-6.57c-.16-.16 0-.32.16-.481s.32 0 .481.16a48.558 48.558 0 0 0 4.006 6.41z"/><path class="k" d="M273.861 63.297c-1.122-1.282-.961-2.884-.641-4.487 3.2-7.211-3.365-22.595-13.781-23.716a13.307 13.307 0 0 0-10.416 3.365 13.307 13.307 0 0 0-3.365 10.416c1.122 10.576 16.505 16.986 23.556 13.941 1.763-.48 3.365-.641 4.647.481z"/><path class="b" d="M246.46 35.735c-6.25 6.25-5.128 17.467.641 17.307a15.988 15.988 0 0 1 2.564-6.57 50.865 50.865 0 0 1 3.365-4.327 22.351 22.351 0 0 1 4.327-3.365 15.988 15.988 0 0 1 6.57-2.564c0-5.449-11.217-6.73-17.467-.481z"/><path d="M81.245 16.025c1.442 2.884-3.2 9.615-4.647 11.858-2.081 3.365-8.653 12.339-3.365 16.506 3.846 3.045 10.737-6.25 9.134 1.923-.481 2.243-3.686 7.051-1.122 9.455 5.288 4.807 7.532-4.968 12.339-2.083 5.128 3.045 2.564 12.179 8.173 12.5h.32c4.968-2.564-.8-9.935 2.724-14.743 3.365-4.487 9.134 3.686 12.179-2.724 1.442-3.045-3.365-6.25-4.647-8.333-4.487-6.891 5.448-.961 7.692-5.288 3.365-5.929-6.25-11.7-9.294-14.1-2.083-1.6-8.974-5.929-8.814-9.134.32-4.968 7.692.16 10.1-3.525 2.564-3.846-5.288-7.532-8.333-9.615-7.055-4.814-12.667-11.381-18.753-19.393l-.16-.321v.32c0-.16-.16-.16-.16-.32l.16.641c-2.4 9.775-5.128 17.948-9.935 25-2.083 3.045-7.852 9.455-4.166 12.018 3.685 2.403 8.492-5.129 10.575-.642z" fill="#d0984e"/><path class="d" d="M86.373-13.941c.32 0 .641.16.641.481.16.481 9.935 48.715 12.339 70.508 0 .32-.16.641-.481.641s-.641-.16-.641-.481C95.827 35.415 85.892-12.819 85.892-13.3c0-.321.16-.641.481-.641z"/><path class="d" d="M95.83 36.697h.32c.32.16 7.532 3.365 12.018 7.692a.567.567 0 0 1-.8.8c-3.686-3.686-9.775-6.57-11.377-7.211-1.282 1.282-7.051 6.73-8.173 10.737-.16.32-.481.481-.641.32-.32-.16-.481-.32-.32-.641 1.442-4.647 8.493-11.217 8.814-11.377-.004-.32.159-.32.159-.32zm-2.891-16.345h.32c.641.16 14.262 3.365 18.428 8.173a.567.567 0 1 1-.8.8c-3.686-4.166-15.7-7.371-17.627-7.852a73.973 73.973 0 0 0-15.221 16.346c-.16.32-.481.32-.8.16s-.32-.481-.16-.8c6.25-9.615 15.7-16.666 15.7-16.826.16.159.16.159.16-.001zM88.616-4.967h.32c2.243.8 9.775 3.525 10.416 5.448.16.32 0 .641-.32.641-.32.16-.641 0-.641-.32-.32-.961-5.288-3.2-9.775-4.807-.32-.16-.481-.481-.32-.641a.345.345 0 0 1 .32-.321z"/><path class="d" d="M88.135-4.967a.589.589 0 0 1 .481.16.728.728 0 0 1 0 .8s-7.211 7.211-8.653 10.9a.61.61 0 1 1-1.122-.481c1.6-3.846 8.653-10.9 8.974-11.217.16-.002.32-.002.32-.162zm2.404 12.178h.32c.16.16 5.448 2.4 6.891 4.006a.567.567 0 0 1-.8.8c-.961-1.122-4.327-2.884-6.089-3.525-1.763 2.083-4.487 5.448-4.807 6.41-.16.32-.32.481-.641.32s-.481-.32-.32-.641c.481-1.6 4.807-6.57 5.288-7.051-.002-.319-.002-.319.158-.319z"/><path d="M292.289 6.89c3.2.961 5.769 1.923 7.371 2.4 2.564 1.6 8.012 4.327 14.422 2.564-.16-.961-7.211-8.493-15.063-4.327a353.412 353.412 0 0 1-7.532-2.4 18.725 18.725 0 0 0 13.941-6.25c-.641-.641-11.378-2.884-15.063 5.929A230.532 230.532 0 0 0 275.783.64a18.6 18.6 0 0 0 13.781-6.25c-.641-.641-11.378-2.884-15.063 5.929-2.243-.641-4.487-1.122-6.891-1.763a48.1 48.1 0 0 0-9.134-1.282c2.564-.641 8.974-2.724 12.5-9.294-.8-.481-11.858-.32-13.461 9.294a46.214 46.214 0 0 0-11.858.961 18.923 18.923 0 0 0 8.974-10.1c-.8-.481-11.378 1.6-11.858 10.9a55.7 55.7 0 0 0-9.615 3.365 18.549 18.549 0 0 0 6.089-13.3c-.961-.16-10.416 5.128-7.692 14.1a43.539 43.539 0 0 0-8.333 5.128 5.112 5.112 0 0 0 1.122.961 35.96 35.96 0 0 1 7.532-4.963c3.045 8.814 13.781 7.852 14.422 7.211a18.732 18.732 0 0 0-13.461-7.532A50.987 50.987 0 0 1 242.612.96c2.884 9.134 13.781 8.012 14.582 7.371A18.166 18.166 0 0 0 243.733.799c1.6-.32 3.365-.641 5.288-1.122a35.857 35.857 0 0 1 8.493-.32c1.122 9.455 12.018 10.576 12.82 10.1-2.724-6.41-8.493-8.974-11.217-9.935a132.071 132.071 0 0 1 14.9 2.564c.16 9.294 10.736 11.538 11.7 11.057-1.763-5.609-6.089-8.814-8.814-10.416 4.807 1.282 9.615 2.564 13.461 3.846-.32 9.455 10.256 12.179 11.217 11.7a21.113 21.113 0 0 0-9.292-11.383zm130.602-4.326c.481 3.365.8 6.089.961 7.692-.321 3.045-.321 9.134 3.846 14.262.8-.481 4.487-10.1-2.564-15.544-.321-2.243-.641-4.807-1.122-7.852 1.282 2.4 4.807 8.012 11.7 9.935.32-.961-2.4-11.538-11.858-11.057-.641-4.166-1.282-9.134-2.4-15.063 1.282 2.564 4.807 8.012 11.7 9.775.321-.961-2.4-11.538-11.858-11.057a500.883 500.883 0 0 1-1.442-6.891 47.257 47.257 0 0 0-2.724-8.814 18.218 18.218 0 0 0 13.773 7.212c.16-.961-4.807-10.737-14.1-8.173a53.687 53.687 0 0 0-5.929-10.416 18.489 18.489 0 0 0 12.98 3.686c0-.961-6.25-9.615-14.9-6.089a50.991 50.991 0 0 0-7.211-7.211 18.68 18.68 0 0 0 14.743-.32c-.321-.961-9.134-7.211-16.185-.961a47.982 47.982 0 0 0-8.178-5.129 2.635 2.635 0 0 0-.32 1.442 36.351 36.351 0 0 1 7.692 4.647c-6.73 6.57-1.122 15.7-.321 16.185 3.686-6.41 1.923-12.98 1.122-15.384a56.371 56.371 0 0 1 6.891 7.532c-7.051 6.57-1.282 15.864-.481 16.345 3.686-6.41 1.923-12.98 1.122-15.544.961 1.282 2.083 2.724 3.2 4.327a46.8 46.8 0 0 1 4.006 7.532c-8.173 4.968-4.327 15.384-3.525 15.864a19.171 19.171 0 0 0 4.166-14.422 96.858 96.858 0 0 1 4.006 14.582c-8.333 4.166-5.769 14.582-4.968 15.223a18.366 18.366 0 0 0 5.609-12.5c.961 4.968 1.763 9.775 2.243 13.941-8.648 3.848-6.562 14.424-5.762 15.23a20.145 20.145 0 0 0 6.088-12.985z" fill="#b2ab52"/><path class="k" d="M54.964 130.28a4.706 4.706 0 0 1-4.327 1.442c-7.692-1.6-21.313 8.012-20.191 18.589a13.946 13.946 0 0 0 5.448 9.455 13.5 13.5 0 0 0 10.9 1.122c10.1-3.365 13.14-19.71 8.653-25.96-.803-1.764-1.284-3.206-.483-4.648z"/><path class="b" d="M33.812 162.971c7.371 4.807 18.108 1.282 16.826-4.327a13.807 13.807 0 0 1-6.891-1.122c-1.763-.8-3.365-1.6-4.968-2.4a21.178 21.178 0 0 1-4.166-3.525 15.032 15.032 0 0 1-3.846-5.933c-5.608 1.282-4.326 12.5 3.045 17.307z"/><path class="j" d="M182.04 77.559s-5.929-15.7 0-29.165c4.809-10.576 16.826-16.345 21.152-18.428a329.848 329.848 0 0 0-15.063 33.171c-.8 1.763-.32 1.282-1.122 3.045 1.442-2.4.961-1.122 1.763-2.724a343.769 343.769 0 0 0 15.544-33.011c1.282 4.327 4.327 16.666-.641 27.562-5.929 13.457-21.633 19.55-21.633 19.55z"/><path class="h" d="M212.647-14.262c2.243 0 14.743.481 24.037 10.1 10.1 10.737 12.339 27.082 6.891 42.946s-5.929 18.589-5.288 27.883c.641 9.134-3.686-13.941-15.223-22.755-29.806-22.915-18.428-41.344-10.737-58.33-.161.156.16-.484.32.156z"/><path class="i" d="M232.037-1.443a122.9 122.9 0 0 1-13.3-3.686 57.632 57.632 0 0 0-5.929-7.371c-.16-.32.641 1.122.641 1.122a101.825 101.825 0 0 1 4.166 7.051c-4.166 6.891-7.211 10.9-7.051 10.737 1.122-1.282 4.006-4.647 7.692-9.775a51 51 0 0 1 2.564 5.128c-5.288 8.974-9.455 14.1-9.134 13.941a117.453 117.453 0 0 0 9.775-12.5c.961 1.923 1.763 4.006 2.564 5.929-5.128 10.1-8.974 15.864-8.814 15.7 1.442-1.763 4.968-6.73 9.615-13.941l1.923 5.291c-4.327 9.935-7.852 15.864-7.692 15.7a119.683 119.683 0 0 0 8.333-13.941c.641 2.083 1.282 4.006 1.763 6.089a140.747 140.747 0 0 1-6.57 14.1 108.1 108.1 0 0 0 7.051-12.339c.641 2.243 1.122 4.487 1.6 6.41-1.763 6.57-3.365 10.576-3.2 10.416a68.552 68.552 0 0 0 3.686-8.814c1.442 6.57 1.923 10.737 1.923 10.576 0-1.6-.32-5.448-.961-10.9a90.384 90.384 0 0 0 7.371 6.891 102.667 102.667 0 0 1-7.532-8.333c-.32-2.083-.641-4.487-1.282-7.051a126.589 126.589 0 0 0 11.217 8.012 129.448 129.448 0 0 1-11.538-9.775c-.32-1.6-.8-3.365-1.122-5.128a116.647 116.647 0 0 0 14.1 7.211 156.439 156.439 0 0 1-14.423-9.124c-.16-.481-.16-.8-.32-1.282-.481-1.6-.8-3.045-1.442-4.647 7.692 3.686 13.14 5.769 15.384 6.57.32 0-6.41-2.884-16.025-8.653a47.463 47.463 0 0 0-2.4-4.968 128.909 128.909 0 0 0 13.461 4.006c.32 0-5.609-1.763-14.262-5.609a54.032 54.032 0 0 0-3.365-5.448 65.943 65.943 0 0 0 11.533 2.405z"/><path class="h" d="M142.299 11.537c1.923 1.122 12.339 8.173 15.063 21.313 3.045 14.422-3.846 29.646-16.826 40.222-12.98 10.737-14.743 12.82-19.23 20.832-4.327 8.173 4.166-13.781-.961-27.242-13.3-35.094 6.089-44.869 21.633-55.285 0 0 .481-.481.321.16z"/><path class="i" d="M151.913 32.529a112.121 112.121 0 0 1-9.294-10.1 71.094 71.094 0 0 0-1.122-9.455c0-.32-.16 1.282-.16 1.282 0 2.724 0 5.448-.16 8.173-7.211 3.686-11.858 5.448-11.7 5.448a103.885 103.885 0 0 0 11.538-4.166c-.16 1.923-.32 3.846-.481 5.609-9.294 4.807-15.384 7.051-15.223 7.051a104.356 104.356 0 0 0 14.9-5.448c-.32 2.243-.641 4.327-.961 6.41a161.112 161.112 0 0 1-15.864 8.653 155.008 155.008 0 0 0 15.544-6.891c-.32 1.923-.8 3.686-1.122 5.448-8.974 6.089-15.063 9.294-14.9 9.294a121.577 121.577 0 0 0 14.422-7.371c-.481 2.083-1.122 4.166-1.6 6.089-7.852 5.769-13.3 8.653-12.98 8.653a127.363 127.363 0 0 0 12.5-6.73 60.211 60.211 0 0 1-2.083 6.41c-4.968 4.647-8.333 7.211-8.333 7.051a64.8 64.8 0 0 0 7.692-5.609 89.747 89.747 0 0 1-4.006 10.1 90.441 90.441 0 0 0 4.807-9.775c1.122 4.968 2.243 8.333 2.564 9.615a90.87 90.87 0 0 1-2.086-11.057c.8-1.923 1.763-4.166 2.564-6.57 2.4 6.57 4.487 10.9 5.288 12.659.16.16-2.083-5.288-4.647-14.422.481-1.6 1.122-3.2 1.763-4.968 3.846 7.051 6.891 11.7 8.173 13.621.16.16-3.2-5.609-7.532-15.384a3.771 3.771 0 0 0 .32-1.282c.481-1.6.8-3.045 1.122-4.647a130.662 130.662 0 0 0 9.615 13.621c.16.16-3.846-5.769-9.134-15.7.32-1.763.481-3.686.641-5.448a98.317 98.317 0 0 0 9.294 10.416 150.092 150.092 0 0 1-9.294-12.179 42.732 42.732 0 0 0 0-6.41c5.288 4.163 8.493 7.043 9.935 8.009z"/><path class="h" d="M264.246 14.102c-.16.481 0 .481-.32 1.122a32.287 32.287 0 0 1 8.814 4.327 33.692 33.692 0 0 1 5.448 5.288c1.122 1.442 1.122 1.763 1.282 3.686.641 15.7 8.493 11.858 16.505 17.467.641-11.858-5.929-16.986-13.461-19.871-1.763-.641-2.243-.641-3.365-2.083a28.98 28.98 0 0 0-5.609-5.288 31.6 31.6 0 0 0-9.294-4.648z"/><path class="h" d="M274.823 36.375c-3.365-10.736 1.923-22.594-16.185-23.075 3.2 5.609-2.724 24.357 16.185 23.075zm28.204-20.671c-11.217-1.442-19.71-11.217-27.723 5.128 6.41-.641 20.992 12.659 27.723-5.128z"/><g transform="translate(155.81 56.202)"><ellipse class="n" cx="9.455" cy="9.775" rx="9.455" ry="9.775" transform="rotate(-87.845 9.81 9.448)"/><g class="o" transform="translate(1.251 5.553)"><circle class="p" cx="1.763" cy="1.763" r="1.763" transform="rotate(-67.734 2.43 1.631)"/></g><path class="b" d="M13.893 16.069c-1.6.641-3.045.481-3.525-.32-.32-.8.641-2.083 2.083-2.724 1.6-.641 3.045-.481 3.525.32.32.962-.641 2.083-2.083 2.724z"/></g><g transform="translate(161.952 80.069)"><circle class="n" cx="5.609" cy="5.609" r="5.609" transform="rotate(-87.843 5.82 5.604)"/><g class="o" transform="translate(.517 3.379)"><circle class="p" cx=".961" cy=".961" r=".961" transform="rotate(-67.752 1.326 .89)"/></g><ellipse class="b" cx="1.763" cy=".961" rx="1.763" ry=".961" transform="rotate(-22.82 23.39 -9.725)"/></g><g transform="translate(141.893 61.544)"><circle class="n" cx="5.609" cy="5.609" r="5.609" transform="rotate(-87.82 5.823 5.606)"/><g class="o" transform="translate(.705 3.407)"><circle class="p" cx=".961" cy=".961" r=".961" transform="rotate(-67.734 1.326 .89)"/></g><ellipse class="b" cx="1.763" cy=".961" rx="1.763" ry=".961" transform="rotate(-22.749 23.425 -9.759)"/></g><g transform="translate(143.596 76.291)"><ellipse class="n" cx="7.692" cy="7.852" rx="7.692" ry="7.852" transform="rotate(-87.834 7.983 7.686)"/><g class="o" transform="translate(.872 4.554)"><circle class="p" cx="1.442" cy="1.442" r="1.442" transform="rotate(-67.752 1.988 1.335)"/></g><path class="b" d="M11.042 12.966c-1.282.481-2.4.32-2.724-.32s.481-1.6 1.763-2.243c1.282-.481 2.4-.32 2.724.32.16.641-.481 1.762-1.763 2.243z"/></g><g transform="translate(24.923 180.26)"><ellipse class="n" cx="9.455" cy="9.775" rx="9.455" ry="9.775" transform="rotate(-27.5 17.842 4.364)"/><g class="o" transform="translate(9.305 4.296)"><circle class="p" cx="1.763" cy="1.763" r="1.763" transform="rotate(-7.418 3.51 .228)"/></g><path class="b" d="M9.368 19.246c-1.282-.961-1.923-2.4-1.442-3.2.641-.8 2.083-.481 3.365.481s1.923 2.4 1.442 3.2-2.081.643-3.365-.481z"/></g><g transform="translate(14.036 196.897)"><circle class="n" cx="5.609" cy="5.609" r="5.609" transform="rotate(-27.5 10.583 2.589)"/><g class="o" transform="translate(5.563 2.641)"><circle class="p" cx=".961" cy=".961" r=".961" transform="rotate(-7.418 1.913 .124)"/></g><ellipse class="b" cx=".961" cy="1.763" rx=".961" ry="1.763" transform="rotate(-52.48 12.355 1.06)"/></g><g transform="translate(20.143 170.491)"><circle class="n" cx="5.609" cy="5.609" r="5.609" transform="rotate(-27.5 10.583 2.589)"/><g class="o" transform="translate(5.561 2.635)"><circle class="p" cx=".961" cy=".961" r=".961" transform="rotate(-7.411 1.915 .124)"/></g><ellipse class="b" cx=".961" cy="1.763" rx=".961" ry="1.763" transform="rotate(-52.43 12.317 .872)"/></g><g transform="translate(4.578 179.2)"><ellipse class="n" cx="7.692" cy="7.852" rx="7.692" ry="7.852" transform="rotate(-27.5 14.513 3.55)"/><g class="o" transform="translate(7.585 3.625)"><circle class="p" cx="1.442" cy="1.442" r="1.442" transform="rotate(-7.435 2.87 .186)"/></g><ellipse class="b" cx="1.442" cy="2.404" rx="1.442" ry="2.404" transform="rotate(-52.48 17.239 1.44)"/></g><path class="g" d="M134.607-6.09c-1.923 2.724-10.1 1.763-12.659 1.6-3.846-.16-14.9-1.763-16.185 4.968-.961 4.807 10.576 6.41 2.724 8.974-2.243.641-8.012.16-8.814 3.525-1.763 6.891 7.852 4.327 7.692 9.775-.32 5.929-9.455 8.012-7.211 13.14l.16.16v.16c4.487 3.2 8.333-5.448 14.262-4.647 5.448.8 1.122 9.775 8.173 9.294 3.365-.16 4.006-5.929 5.128-8.012 4.006-7.211 3.365 4.327 8.333 4.327 6.73 0 7.371-11.057 7.852-14.9.32-2.564.961-10.737 3.846-12.179 4.487-2.083 3.525 6.73 7.852 7.211 4.647.32 4.006-8.173 4.487-11.858.8-8.493 3.846-16.505 8.173-25.639l.481-.32c-.16 0-.16 0-.32.16 0-.16.16-.16.16-.32l-.481.32c-9.775 2.564-18.268 4.006-26.761 3.2-3.686-.32-12.018-2.4-12.5 2.083-.481 4.331 8.493 4.972 5.608 8.978z"/><path class="d" d="M163.451-15.864a.715.715 0 0 1 0 .8c-.32.32-38.139 31.889-56.086 44.549-.32.16-.641.16-.8-.16s-.16-.641.16-.8c17.948-12.5 55.606-44.228 56.086-44.549a.4.4 0 0 1 .64.16z"/><path class="d" d="M123.55 16.505c.16.16.16.16.16.32 0 .32.641 8.333-.961 14.262-.16.32-.32.481-.641.32s-.481-.32-.32-.641c1.442-4.968 1.122-11.858.961-13.461-1.763-.641-9.294-2.884-13.3-2.083-.32 0-.641-.16-.641-.481s.16-.641.481-.641c4.807-.961 13.781 2.083 14.262 2.243-.162.002-.162.162-.001.162zm12.819-10.256l.16.16c.16.641 3.846 14.262 1.6 20.191-.16.32-.481.481-.641.32-.32-.16-.481-.481-.32-.641 1.923-5.128-.961-17.307-1.6-19.23a71.082 71.082 0 0 0-21.633-5.609c-.32 0-.481-.32-.481-.641s.32-.481.641-.481c11.377.8 22.114 5.769 22.274 5.769-.16.162 0 .162 0 .162zM156.72-9.616a.56.56 0 0 1 .16.32c.32 2.4 1.442 10.256.16 11.858a.529.529 0 0 1-.8 0c-.32-.16-.32-.481 0-.8.641-.8.32-6.25-.481-10.9 0-.32.16-.641.481-.641.16-.157.319.003.48.163z"/><path class="d" d="M156.397-10.095a.589.589 0 0 1 .16.481c-.16.32-.32.481-.641.32-.16 0-9.775-2.884-13.781-2.4-.32 0-.641-.16-.641-.481s.16-.641.481-.641c4.166-.481 13.781 2.4 14.1 2.4.165.321.165.321.322.321zm-9.612 7.852c.16.16.16.16.16.32s.481 5.929-.32 7.852c-.16.32-.481.481-.641.32-.32-.16-.481-.481-.32-.641.481-1.442.32-5.288.32-7.051-2.724-.641-6.891-1.282-7.852-1.122-.32 0-.641-.16-.641-.481s.16-.641.481-.641c1.6-.32 8.012 1.122 8.814 1.282-.161.002-.001.162-.001.162z"/><path class="g" d="M380.265-10.739c-1.442 2.4-8.814 2.083-11.057 2.243-3.365 0-13.3-.641-13.941 5.448-.481 4.327 9.775 4.968 2.884 7.692-1.923.8-7.051.641-7.532 3.686-1.122 6.25 7.211 3.365 7.371 8.173.16 5.288-7.852 7.692-5.609 12.018h.16v.16c4.166 2.564 7.051-5.288 12.339-4.968 4.968.32 1.6 8.493 7.852 7.692 3.045-.32 3.045-5.448 4.006-7.371 3.045-6.57 3.2 3.525 7.532 3.365 6.089-.32 5.769-10.256 6.089-13.621.16-2.243.16-9.615 2.724-10.9 3.846-2.083 3.525 5.769 7.371 5.929 4.166 0 3.045-7.532 3.2-10.737.16-7.532 2.4-14.9 5.609-23.236l.321-.32c-.16 0-.16 0-.321.16 0-.16 0-.16.16-.32l-.32.32c-8.493 2.884-15.864 4.647-23.4 4.487-3.365 0-10.737-1.442-10.9 2.724-.147 3.533 7.865 3.533 5.462 7.376z"/><path class="d" d="M405.102-21.313a.487.487 0 0 1 0 .641c-.32.32-31.729 30.607-46.792 42.786a.453.453 0 0 1-.641-.641c15.063-12.179 46.472-42.465 46.792-42.786a.487.487 0 0 1 .641 0z"/><path class="d" d="M371.931 9.936a.559.559 0 0 1 .16.32c0 .32 1.122 7.211 0 12.659 0 .32-.32.481-.641.32-.32 0-.481-.32-.32-.641a35.466 35.466 0 0 0 0-11.858c-1.6-.32-8.493-2.083-11.858-.961-.32 0-.481 0-.641-.32 0-.32 0-.481.32-.641 4.166-1.122 12.339.961 12.659 1.122.161-.16.161-.16.321 0zM382.668.001l.16.16c.16.481 4.166 12.339 2.564 17.787 0 .32-.32.481-.641.32-.321 0-.481-.32-.321-.641 1.442-4.647-1.923-15.223-2.564-16.826-1.442-.481-10.416-3.525-19.39-3.686a.481.481 0 1 1 0-.961A60.044 60.044 0 0 1 382.507 0zm16.825-15.384a.559.559 0 0 1 .16.32c.481 2.083 1.923 8.974.961 10.416-.16.16-.481.32-.641.16s-.32-.481-.16-.641c.481-.641-.16-5.448-1.122-9.615a.833.833 0 0 1 .32-.641c.323-.159.482.001.482.001z"/><path class="d" d="M399.174-15.543a.589.589 0 0 1 .16.481c0 .32-.32.481-.641.32-.16 0-8.814-1.923-12.339-1.282a.832.832 0 0 1-.641-.32.833.833 0 0 1 .32-.641c3.686-.641 12.339 1.282 12.659 1.282.482 0 .482 0 .482.16zm-7.853 7.371c.16 0 .16.16.16.32s.8 5.128.16 7.051c0 .32-.32.481-.641.32-.32 0-.481-.32-.32-.641.32-1.282 0-4.647-.16-6.25-2.4-.32-6.25-.8-7.051-.481-.32.16-.481 0-.641-.32 0-.32 0-.481.32-.641 1.282-.481 7.211.481 7.852.481a.5.5 0 0 0 .321.161z"/><path class="c" d="M138.132 47.113l.481.16a10.429 10.429 0 0 1 1.763-2.4c1.122-1.122 2.724-2.243 4.647-1.763l-.481 3.525 3.686-2.242-1.282 2.4.481-.16a30.629 30.629 0 0 0 14.1-8.333 34 34 0 0 0 6.891-9.935s2.083-4.807 4.487-10.1c-4.327 11.217-9.615 25.639-10.256 32.37a6.969 6.969 0 0 0 1.759 5.451.559.559 0 0 0 .32.16l.32.32v-1.6a2.494 2.494 0 0 1 .481-1.442c.16 0 .16-.16.32-.16a6.206 6.206 0 0 0 1.122 5.288l.16.32.8-1.442c.16.8.32 2.4 1.282 3.2l.16.16.16.16 1.282-1.6a4.777 4.777 0 0 0 1.122 2.564l.481.481.32.16v-.641a1.215 1.215 0 0 1 .32-.641.636.636 0 0 1 .8-.16 6.509 6.509 0 0 1 2.243 1.6 22.836 22.836 0 0 1 1.763 1.923.222.222 0 0 0 .32 0v.16l.16.16h.32a22.834 22.834 0 0 0 1.923-1.763 11.3 11.3 0 0 1 2.4-1.442.636.636 0 0 1 .8.16.963.963 0 0 1 .16.641v.641l.32-.16c.16 0 .32-.16.641-.32a3.648 3.648 0 0 0 1.442-2.4l1.122 1.763.16-.16.16-.16a5.663 5.663 0 0 0 1.6-3.045l.641 1.442.16-.32a6.132 6.132 0 0 0 1.6-5.128c.16 0 .16 0 .32.16a3.827 3.827 0 0 1 .32 1.442v1.6l.481-.32c.16 0 .16-.16.32-.16a7.193 7.193 0 0 0 2.4-5.128c0-6.73-3.365-21.794-6.41-33.331a1677.243 1677.243 0 0 0 3.365 10.576 35.819 35.819 0 0 0 5.769 10.737c5.929 7.532 12.98 9.775 13.14 9.775l.481.16-1.122-2.564 3.365 2.724v-3.683a5.11 5.11 0 0 1 4.327 2.243 18.941 18.941 0 0 1 1.6 2.564l.481-.16c-.481-2.4-.481-2.4 0-6.73a12.618 12.618 0 0 0-.481-5.288h.32a7.812 7.812 0 0 0 1.122.481 7.094 7.094 0 0 1 1.442.8l.32.16.16-.32a10.4 10.4 0 0 0-.32-5.128l.961.481a2.258 2.258 0 0 1 .8.481l.481.32v-.481a19.59 19.59 0 0 0-4.166-8.653c-7.371-9.294-22.435-18.108-29.966-22.114a65.948 65.948 0 0 0 19.23 4.006h.32l-.16-.32a2.557 2.557 0 0 1-.481-1.282c1.282-.16 3.525-.481 3.525-.481h.481l-.32-.32c-.32-.481-.961-1.282-1.282-1.763 2.083-.8 6.41-1.923 6.41-1.923l.32-.16-.16-.32c-1.6-1.923-6.73-4.166-8.012-4.807a1.2 1.2 0 0 1 .8-.16 1.657 1.657 0 0 1 .641.16l.8.16h-1.122a15.558 15.558 0 0 0-3.525-1.923c0-.16.16-.16.32-.32a.5.5 0 0 1 .32-.16h.16l.16-.481c-10.256-4.647-19.55.481-23.076 2.884a3.5 3.5 0 0 0-.8.481 7.223 7.223 0 0 1-2.243 1.6c.8-10.416 2.4-22.915 5.769-29.966-2.243-.8-3.365 1.6-3.365 1.6s-3.525 4.968-4.006 28.524a4.938 4.938 0 0 1-2.4-1.763c-2.243-2.083-12.018-10.576-23.877-6.73v.481h.16c.16 0 .16.16.32.16a.559.559 0 0 1 .16.32 15.715 15.715 0 0 0-3.686 1.442l-.641.481.8-.16h.641c.32 0 .481.16.8.16-1.442.481-6.891 2.083-8.493 3.846l-.32.32.32.16s4.166 1.6 6.25 2.724a13.01 13.01 0 0 1-1.442 1.6l-.32.32.481.16a32.461 32.461 0 0 1 3.525.961 9.446 9.446 0 0 1-.641 1.282l-.16.32h.32a64.8 64.8 0 0 0 19.55-1.923c-8.012 3.2-23.877 10.256-32.37 18.749-2.564 2.564-4.487 5.288-5.128 8.012l-.448.649.481-.16a6.739 6.739 0 0 1 .8-.32 2.278 2.278 0 0 1 .961-.32c-.32.8-1.282 3.2-.8 4.968v.32l.32-.16 1.6-.641a2.971 2.971 0 0 1 1.122-.32h.32a11.322 11.322 0 0 0-1.122 5.128c-.157 4.325-.157 4.325-.958 6.569z"/><path class="d" d="M178.517 51.119c-.16 0-.16-.16-.16-.32-.481-8.814 3.045-41.183 3.686-46.632-4.326 3.685-30.931 26.12-36.7 31.893a.34.34 0 0 1-.481-.481c6.25-6.41 37.017-32.049 37.337-32.37.16-.16.16-.16.32 0 .16 0 .16.16.16.32 0 .32-4.487 37.818-3.846 47.273.16.16 0 .32-.32.32z"/><path class="d" d="M158.483-.481c-.16 0-.16-.16-.16-.32a.345.345 0 0 1 .32-.32c7.051-.481 22.595 3.846 24.037 4.327 1.6-.32 19.871-4.166 28.524.481a.358.358 0 1 1-.32.641c-8.653-4.807-27.883-.481-28.2-.481h-.16c-.321-.16-16.826-4.807-24.037-4.327z"/><path class="d" d="M212.166 40.543a.157.157 0 0 1-.16-.16c-4.968-11.858-29.485-36.376-29.806-36.7a.34.34 0 0 1 .481-.481c.32.32 24.838 24.838 29.806 36.857a.589.589 0 0 1-.16.481zm-40.222 2.883c-.16-.16-.32-.32-.16-.481 2.243-3.686 7.371-9.294 7.371-9.455a.34.34 0 1 1 .481.481 100.956 100.956 0 0 0-7.371 9.294c0 .161-.161.322-.321.161zm16.828-8.173a.157.157 0 0 1-.16-.16c-1.923-4.487-8.493-9.615-8.493-9.615a.34.34 0 1 1 .481-.481c.32.16 6.73 5.288 8.653 9.935a.589.589 0 0 1-.16.481.5.5 0 0 0-.321-.16z"/><path class="d" d="M206.237 39.42c-.16 0-.16-.16-.16-.32a67.2 67.2 0 0 1 .481-8.012.32.32 0 0 1 .641 0 39.708 39.708 0 0 0-.481 7.852.425.425 0 0 1-.481.481zM195.34 17.467c-.16 0-.16-.16-.16-.32a.345.345 0 0 1 .32-.32c.32 0 9.455.641 11.858 2.4a.34.34 0 0 1-.481.481c-2.243-1.6-11.377-2.083-11.538-2.243zM208.16 6.57c-1.923-.8-5.769-4.327-5.929-4.487a.34.34 0 0 1 .481-.481s3.846 3.686 5.609 4.327c.16 0 .16.32.16.481s-.16.16-.321.16zm-13.301-4.487c-.16-.16-.32-.32-.16-.481s2.724-4.006 5.609-4.647c.16 0 .32 0 .32.16s0 .32-.16.32c-2.564.641-5.128 4.327-5.128 4.327-.321.321-.481.321-.481.321zm-34.132 1.122a.157.157 0 0 1-.16-.16.589.589 0 0 1 .16-.481c1.442-.481 4.327-3.2 4.327-3.2a.34.34 0 0 1 .481.481c-.16.16-3.045 2.884-4.647 3.365zm11.057-2.083a.157.157 0 0 1-.16-.16 8.962 8.962 0 0 0-5.288-4.807c-.16 0-.16-.16-.16-.481 0-.16.16-.16.32-.16a10.836 10.836 0 0 1 5.769 5.128c0 .16 0 .32-.16.32a.5.5 0 0 1-.321.16zm-27.723 26.76c-.16 0-.16-.16-.16-.32a.345.345 0 0 1 .32-.32c3.2-.481 9.775 0 10.1 0a.32.32 0 0 1 0 .641c-.16 0-6.891-.32-10.256 0zm14.742 4.488c-.16-.16-.32-.32-.16-.481 2.243-3.686 2.564-10.576 2.564-10.737a.32.32 0 1 1 .641 0c0 .32-.32 7.211-2.724 10.9-.161.318-.321.48-.321.318zm1.924-18.109a.157.157 0 0 1-.16-.16c0-.16 0-.32.16-.32 4.006-1.282 9.455-.32 9.775-.32a.32.32 0 0 1 0 .641s-5.448-.961-9.455.32c-.16-.161-.16-.161-.32-.161zm39.42 15.225c-.16 0-.16-.16-.16-.32l.8-5.609a.32.32 0 1 1 .641 0l-.8 5.609c-.16.32-.32.32-.481.32zM188.61 16.505c-.16 0-.16-.16-.16-.32l.32-6.089a.32.32 0 1 1 .641 0l-.32 6.089c0 .16-.16.32-.481.32zm-11.218 1.122c-.16-.16-.32-.32-.16-.481a35.054 35.054 0 0 1 4.166-5.929.34.34 0 1 1 .481.481 36.562 36.562 0 0 0-4.006 5.769c-.16.16-.321.32-.481.16z"/><path d="M221.461 9.935c1.763 5.128 5.448 8.974 9.134 13.461-1.442-3.686-1.282-5.769-1.442-8.653 4.006 5.929 12.5 7.371 18.428 10.737a29.838 29.838 0 0 1-5.768-6.09 91.5 91.5 0 0 1 20.672 8.653 83.293 83.293 0 0 1-8.012-20.832 23.17 23.17 0 0 1 5.929 5.929c-3.2-6.089-4.327-14.582-10.256-18.749 2.884.481 4.968.32 8.493 1.763-4.487-3.686-8.173-7.532-13.14-9.455 2.083-.16 4.166-.8 6.25-.961-2.724.16-9.134-4.166-13.14-4.487-5.128-.32-10.416.641-14.422 3.365a11.973 11.973 0 0 0-2.243 1.923 11.383 11.383 0 0 0-1.923 2.083 22.006 22.006 0 0 0-3.686 14.262c.16 4.006 4.327 10.576 4.006 13.3.158-2.082.96-4.165 1.12-6.249z" fill="#fea92a"/><path class="d" d="M214.57-19.39h.32c1.6 1.442 39.1 33.972 43.587 42.305 0 .16 0 .32-.16.32s-.32 0-.32-.16c-4.327-8.333-42.946-41.824-43.427-42.145-.16.16-.16-.16 0-.32z"/><path class="d" d="M243.414 6.73c.32-.16 6.089-2.083 8.173-.641.16.16.16.32 0 .32-.16.16-.32.16-.32 0-1.6-1.122-6.089.16-7.692.641-.16 0-.32 0-.32-.16zm-7.21-6.57c.32 0 .32.16.32.32 0 0-.32 7.532 1.6 12.179 0 .16 0 .32-.16.32s-.32 0-.32-.16c-1.923-4.647-1.6-12.018-1.6-12.339a.56.56 0 0 1 .16-.32zm-8.013-9.294c2.724-1.122 9.134-3.045 14.743-.32.16 0 .16.16.16.32s-.16.16-.32.16c-7.051-3.525-15.544.961-15.544.961-.16 0-.32 0-.32-.16s0-.32.16-.32c-.321 0 .32-.321 1.121-.641z"/></g></svg>