<svg xmlns="http://www.w3.org/2000/svg" viewBox="0 0 49 30.772"><defs><style>.a{fill:#fff}</style></defs><path class="a" d="M45.545 30.772H3.455A3.421 3.421 0 0 1 0 27.394V3.378A3.421 3.421 0 0 1 3.455 0h42.09A3.421 3.421 0 0 1 49 3.378v24.016a3.421 3.421 0 0 1-3.455 3.378zM3.455 1.843a1.553 1.553 0 0 0-1.57 1.535v24.016a1.553 1.553 0 0 0 1.571 1.536h42.09a1.553 1.553 0 0 0 1.571-1.536V3.378a1.553 1.553 0 0 0-1.571-1.536z"/><path class="a" d="M18.736 26.724v-1.518a.9.9 0 0 0-.951-.962.943.943 0 0 0-.85.428.885.885 0 0 0-.8-.428.8.8 0 0 0-.709.356v-.3h-.527v2.42h.532v-1.339a.566.566 0 0 1 .592-.643c.349 0 .527.228.527.638v1.346h.532v-1.34a.571.571 0 0 1 .592-.643c.359 0 .532.228.532.638v1.346zm2.966-1.21v-1.21h-.527v.3a.917.917 0 0 0-.764-.354 1.272 1.272 0 0 0 0 2.541.917.917 0 0 0 .764-.354v.294h.527zm-1.958 0a.733.733 0 1 1 .734.775.726.726 0 0 1-.734-.775zm13.223-1.275a1.364 1.364 0 0 1 .519.1 1.267 1.267 0 0 1 .413.268 1.224 1.224 0 0 1 .273.4 1.346 1.346 0 0 1 0 1.011 1.224 1.224 0 0 1-.273.4 1.266 1.266 0 0 1-.413.268 1.434 1.434 0 0 1-1.04 0 1.252 1.252 0 0 1-.412-.268 1.236 1.236 0 0 1-.272-.4 1.346 1.346 0 0 1 0-1.011 1.238 1.238 0 0 1 .272-.4 1.253 1.253 0 0 1 .412-.268 1.364 1.364 0 0 1 .521-.1zm0 .5a.785.785 0 0 0-.3.057.71.71 0 0 0-.24.159.742.742 0 0 0-.159.245.881.881 0 0 0 0 .629.74.74 0 0 0 .159.245.71.71 0 0 0 .24.159.823.823 0 0 0 .6 0 .725.725 0 0 0 .241-.159.735.735 0 0 0 .16-.245.881.881 0 0 0 0-.629.735.735 0 0 0-.16-.245.726.726 0 0 0-.241-.159.786.786 0 0 0-.3-.057zm-8.4.775a1.16 1.16 0 0 0-1.149-1.271 1.272 1.272 0 0 0 .035 2.541 1.468 1.468 0 0 0 .992-.339l-.258-.39a1.153 1.153 0 0 1-.7.253.672.672 0 0 1-.724-.592h1.8c-.003-.065.003-.131.003-.203zm-1.8-.212a.623.623 0 0 1 .643-.587.6.6 0 0 1 .612.587zm4.019-.379a1.559 1.559 0 0 0-.755-.208c-.289 0-.461.106-.461.283s.184.207.41.238l.248.035c.527.076.846.3.846.724 0 .461-.405.79-1.1.79a1.749 1.749 0 0 1-1.048-.314l.248-.41a1.289 1.289 0 0 0 .8.252c.359 0 .551-.106.551-.294 0-.136-.136-.212-.425-.253l-.248-.036c-.541-.076-.835-.319-.835-.714 0-.481.395-.775 1.007-.775a1.807 1.807 0 0 1 .987.253zm2.53-.139h-.861v1.1c0 .245.086.4.349.4a.972.972 0 0 0 .466-.136l.152.45a1.238 1.238 0 0 1-.658.187c-.623 0-.84-.334-.84-.9v-1.1h-.489v-.481h.489v-.734h.532v.734h.86zm1.822-.541a1.124 1.124 0 0 1 .374.066l-.162.5a.856.856 0 0 0-.329-.061c-.344 0-.516.223-.516.623v1.356h-.526v-2.418h.519v.3a.713.713 0 0 1 .638-.354zm5.097-17.622a9.11 9.11 0 0 0-11.736-.976 9.119 9.119 0 1 0 0 14.855A9.12 9.12 0 0 0 36.235 6.621zM24.499 19.056a7.991 7.991 0 0 1 0-11.964 8 8 0 0 1 0 11.964zm-5.283 1.994a7.976 7.976 0 1 1 0-15.951 7.863 7.863 0 0 1 4.347 1.3 9.138 9.138 0 0 0 0 13.36 7.863 7.863 0 0 1-4.347 1.291zm10.567 0a7.863 7.863 0 0 1-4.344-1.293 9.144 9.144 0 0 0 0-13.362 7.863 7.863 0 0 1 4.347-1.3 7.976 7.976 0 1 1 0 15.951z"/></svg>