<svg xmlns="http://www.w3.org/2000/svg" viewBox="0 0 198.768 53.292"><path d="M48.692 26.641c0 8.309-.024 16.642.024 24.951 0 1.042-.291 1.284-1.284 1.26a164.168 164.168 0 0 0-8.479 0c-.993.024-1.187-.315-1.187-1.235.048-5.378 0-10.732.048-16.109 0-.872-.121-1.235-1.139-1.235q-9.629.073-19.259 0c-.9 0-1.114.291-1.26 1.114a100.215 100.215 0 0 0-1.331 16.128c0 1.09-.315 1.332-1.357 1.308-4.07-.048-8.164-.048-12.233 0-.9 0-1.235-.242-1.235-1.139.242-14.263 3.416-27.514 13.517-38.269C19.089 7.479 26.09 3.991 33.939 2.077A71.227 71.227 0 0 1 47.723.405c1.017-.048.969.484.969 1.163-.025 8.358 0 16.715 0 25.073zm-31.08 2.132c6.613 0 13.033 0 19.452.024.727 0 .727-.363.727-.9 0-7.316-.024-14.607 0-21.923 0-.9-.339-.9-.993-.654a25.671 25.671 0 0 0-4.385 2.011c-8.188 4.799-12.185 12.551-14.802 21.441zm132.484-2.205V1.496c0-.63-.073-1.139.9-1.114a61.634 61.634 0 0 1 18.29 2.98c12.984 4.53 21.293 13.663 25.872 26.4a65.373 65.373 0 0 1 3.61 21.342c.024 1.671 0 1.671-1.623 1.7-4 0-7.994-.024-11.991.024-.993.024-1.163-.291-1.187-1.211-.121-8.576-.872-17.078-3.561-25.291-2.3-7-5.79-13.2-11.894-17.66a25.557 25.557 0 0 0-6.4-3.343c-.9-.315-1.163-.218-1.163.8.048 7.631.024 15.262.024 22.892 0 7.51-.024 15.019.024 22.529 0 .993-.242 1.308-1.26 1.284a164.168 164.168 0 0 0-8.479 0c-.945.024-1.211-.242-1.211-1.187.074-8.357.049-16.715.049-25.073zm-97.383-6.661v-1.866c0-4.288.024-8.551-.024-12.839-.024-.945.291-1.308 1.187-1.55A92.155 92.155 0 0 1 73.401.382a146.987 146.987 0 0 1 23.086.46c.727.073.993.315.993 1.017a20.965 20.965 0 0 0 .121 3.028c.17 1.187-.339 1.5-1.429 1.55A151.48 151.48 0 0 0 81.007 7.89c-1.211.17-1.6.533-1.6 1.841.073 13.929.024 27.858.073 41.763 0 1.139-.315 1.405-1.405 1.381-2.713-.073-5.4-.1-8.115 0-1.163.048-1.381-.363-1.357-1.429q.036-19.477.024-38.977c0-1.6 0-1.6-1.453-1.042a43.276 43.276 0 0 0-13.735 7.921 8.576 8.576 0 0 0-.726.559zm82.46-8.939a16.3 16.3 0 0 0-7.074-5.426 15.982 15.982 0 0 0-19.452 23.013.873.873 0 0 1-.194 1.308c-3.852 3.561-7.7 7.122-11.507 10.732-.8.751-.9.024-1.163-.412a27.013 27.013 0 0 1 2.137-29.894 26.542 26.542 0 0 1 38.832-3.391c.1.073.17.17.266.242 1.163 1.09 1.163 1.09-.024 2.2-.533.484-1.066.993-1.6 1.478a1.546 1.546 0 0 1-.221.15zm6.614 1.308c6.2 9.108 6.153 24.951-5.354 34.738a26.572 26.572 0 0 1-36.41-1.986c.848-.8 1.7-1.6 2.519-2.422.581-.581.727.024.969.315a15.513 15.513 0 0 0 11.991 5.887 15.954 15.954 0 0 0 14.462-23.28c-.7-1.357-.46-1.938.533-2.834 3.585-3.246 7.1-6.565 10.659-9.859a4.511 4.511 0 0 1 .631-.559z" fill="#262626"/></svg>