<svg xmlns="http://www.w3.org/2000/svg" viewBox="0 0 702.2 257.997"><defs><style>.a{clip-path:url(#a)}.b,.h{fill:#814d23}.c{fill:#f0774a}.d{fill:#594a42}.e{fill:#ed916c}.f{fill:#ff7016}.g{fill:#93330b}.h,.i,.j{fill-rule:evenodd}.i{fill:#f3ebd6}.j{fill:#ffb339}.k{fill:#cfbd9f}.m{fill:#b2ab52}.n{fill:#fb402b}.o{opacity:.4}.p{fill:#fff}</style><clipPath id="a"><path d="M0 0h702.2v257.997H0z"/></clipPath></defs><g class="a"><path class="b" d="M629.771 124.512s-11.538 25.319 9.294 35.9a8.8 8.8 0 0 0 8.814-.961 1.919 1.919 0 0 0 .641-.641c5.769 4.487 10.737 6.73 11.7 6.089a57.46 57.46 0 0 1-11.217-6.57c.16-.16.16-.32.32-.481 1.122-1.122 4.968-5.929-4.327-14.743-1.923-1.923-11.378-7.211-14.582-13.621a24.146 24.146 0 0 1-.641-4.968zm.16 3.525a6.572 6.572 0 0 1-.16-3.525 24.806 24.806 0 0 0 .158 3.525z"/></g><g class="a"><path class="b" d="M602.847 23.235s20.191 19.069 37.017 2.724a8.757 8.757 0 0 0 1.923-8.653 6.737 6.737 0 0 1-.321-.8c6.089-4.006 9.935-8.012 9.615-9.134a52.912 52.912 0 0 1-9.934 8.492c-.16-.16-.16-.32-.32-.481-.641-1.442-4.006-6.57-15.384-.641-2.4 1.282-10.416 8.333-17.627 9.455a29.9 29.9 0 0 1-4.968-.961zm3.365.961a8.366 8.366 0 0 1-3.365-.961 13.3 13.3 0 0 0 3.365.962z"/></g><g class="a"><path class="c" d="M699.476 224.986l-.481-.16a10.428 10.428 0 0 1-1.763 2.4c-1.122 1.122-2.724 2.243-4.647 1.763l.481-3.525-3.686 2.243 1.282-2.4-.481.16a30.629 30.629 0 0 0-14.1 8.333 33.995 33.995 0 0 0-6.892 9.938s-2.083 4.807-4.487 10.1c4.327-11.217 9.615-25.639 10.256-32.37a6.969 6.969 0 0 0-1.763-5.448.56.56 0 0 0-.321-.16l-.32-.32v1.6a2.494 2.494 0 0 1-.481 1.442c-.16 0-.16.16-.32.16a6.206 6.206 0 0 0-1.122-5.288l-.16-.32-.8 1.442c-.16-.8-.32-2.4-1.282-3.2l-.16-.16-.16-.16-1.282 1.6a4.777 4.777 0 0 0-1.122-2.564l-.481-.481-.32-.16v.641a1.215 1.215 0 0 1-.321.641.636.636 0 0 1-.8.16 6.51 6.51 0 0 1-2.243-1.6 22.84 22.84 0 0 1-1.763-1.923.222.222 0 0 0-.32 0v-.16l-.16-.16h-.32a22.836 22.836 0 0 0-1.923 1.763 11.3 11.3 0 0 1-2.4 1.442.636.636 0 0 1-.8-.16.964.964 0 0 1-.16-.641v-.641l-.321.16c-.16 0-.32.16-.641.32a3.648 3.648 0 0 0-1.442 2.4l-1.122-1.763-.16.16-.16.16a5.663 5.663 0 0 0-1.6 3.045l-.641-1.442-.16.32a6.132 6.132 0 0 0-1.6 5.128c-.16 0-.16 0-.32-.16a3.828 3.828 0 0 1-.32-1.442v-1.6l-.481.32c-.16 0-.16.16-.32.16a7.193 7.193 0 0 0-2.4 5.128c0 6.73 3.365 21.794 6.41 33.331a1677.243 1677.243 0 0 0-3.365-10.576 35.82 35.82 0 0 0-5.769-10.737c-5.929-7.532-12.98-9.775-13.14-9.775l-.481-.16 1.122 2.564-3.365-2.724v3.686a5.11 5.11 0 0 1-4.327-2.243 18.942 18.942 0 0 1-1.6-2.564l-.481.16c.481 2.4.481 2.4 0 6.73a12.618 12.618 0 0 0 .481 5.288h-.32a7.815 7.815 0 0 0-1.122-.481 7.093 7.093 0 0 1-1.442-.8v-.8l-.16.32a10.4 10.4 0 0 0 .32 5.128l-.961-.481a2.258 2.258 0 0 1-.8-.481l-.481-.32v.481a19.59 19.59 0 0 0 4.166 8.653c7.371 9.294 22.435 18.108 29.966 22.114a65.948 65.948 0 0 0-19.23-4.006h-.321l.16.32a2.557 2.557 0 0 1 .481 1.282c-1.282.16-3.525.481-3.525.481h-.481l.321.32c.32.481.961 1.282 1.282 1.763-2.083.8-6.41 1.923-6.41 1.923l-.32.16.16.32c1.6 1.923 6.73 4.166 8.012 4.807a1.2 1.2 0 0 1-.8.16 1.658 1.658 0 0 1-.641-.16l-.8-.16.641.641a15.559 15.559 0 0 0 3.525 1.923c0 .16-.16.16-.32.32a.5.5 0 0 1-.32.16h-.16l-.16.481c10.256 4.647 19.55-.481 23.076-2.884a3.5 3.5 0 0 0 .8-.481 7.224 7.224 0 0 1 2.243-1.6c-.8 10.416-2.4 22.915-5.769 29.966 2.243.8 3.365-1.6 3.365-1.6s3.525-4.968 4.006-28.524a4.939 4.939 0 0 1 2.4 1.763c2.243 2.083 12.018 10.576 23.877 6.73v-.481h-.16c-.16 0-.16-.16-.32-.16a.559.559 0 0 1-.16-.32 15.714 15.714 0 0 0 3.686-1.442l.641-.481-.32-.16h-.641c-.32 0-.481-.16-.8-.16 1.442-.481 6.891-2.083 8.493-3.846l.32-.32-.32-.16s-4.166-1.6-6.25-2.724a13.014 13.014 0 0 1 1.442-1.6l.32-.32-.481-.16a32.461 32.461 0 0 1-3.525-.961 9.445 9.445 0 0 1 .641-1.282l.16-.32h-.481a64.8 64.8 0 0 0-19.55 1.923c8.012-3.2 23.877-10.256 32.37-18.749 2.564-2.564 4.487-5.288 5.128-8.012l.16-.481-.481.16a6.743 6.743 0 0 1-.8.32 2.278 2.278 0 0 1-.961.32c.32-.8 1.282-3.2.8-4.968v-.32l-.32.16-1.6.641a2.971 2.971 0 0 1-1.122.32h-.321a11.321 11.321 0 0 0 1.122-5.128c.296-4.185.296-4.025 1.097-6.428z"/><path class="d" d="M659.093 221.14c.16 0 .16.16.16.32.481 8.814-3.045 41.183-3.686 46.632 4.327-3.686 30.928-25.96 36.7-31.889a.34.34 0 1 1 .481.481c-6.25 6.41-37.017 32.049-37.337 32.37-.16.16-.16.16-.321 0-.16 0-.16-.16-.16-.32 0-.32 4.487-37.818 3.846-47.273-.16-.16 0-.321.32-.321z"/><path class="d" d="M679.124 272.739c.16 0 .16.16.16.32a.345.345 0 0 1-.321.32c-7.051.481-22.595-3.846-24.037-4.327-1.6.32-19.871 4.166-28.524-.481a.358.358 0 1 1 .32-.641c8.653 4.807 27.883.481 28.2.481h.16c.321 0 16.986 4.807 24.037 4.327z"/><path class="d" d="M625.441 231.556a.157.157 0 0 1 .16.16c4.968 11.858 29.485 36.376 29.806 36.7a.34.34 0 0 1-.481.481c-.32-.32-24.838-24.838-29.806-36.857a.589.589 0 0 1 .16-.481zm40.222-2.884c.16.16.32.32.16.481-2.243 3.686-7.371 9.294-7.371 9.455a.34.34 0 0 1-.481-.481s5.288-5.769 7.371-9.294a.5.5 0 0 1 .321-.161zm-16.825 8.332a.157.157 0 0 1 .16.16c1.923 4.487 8.493 9.615 8.493 9.615a.34.34 0 1 1-.481.481c-.32-.16-6.73-5.288-8.653-9.935a.589.589 0 0 1 .16-.481z"/><path class="d" d="M631.37 232.678c.16 0 .16.16.16.32a67.207 67.207 0 0 1-.481 8.012.32.32 0 0 1-.641 0 39.709 39.709 0 0 0 .481-7.852.425.425 0 0 1 .481-.481zm10.898 21.954c.16 0 .16.16.16.32a.345.345 0 0 1-.321.32c-.32 0-9.455-.641-11.858-2.4a.34.34 0 1 1 .481-.481c2.244 1.6 11.378 2.243 11.538 2.243zm-12.821 10.896c1.923.8 5.769 4.327 5.929 4.487a.34.34 0 0 1-.481.481s-3.846-3.686-5.609-4.327c-.16 0-.16-.32-.16-.481a.559.559 0 0 1 .321-.16zm13.461 4.487c.16.16.32.32.16.481s-2.724 4.006-5.609 4.647c-.16 0-.321 0-.321-.16s0-.32.16-.32c2.564-.641 5.128-4.327 5.128-4.327.161-.321.322-.321.482-.321zm34.133-1.122a.157.157 0 0 1 .16.16.589.589 0 0 1-.16.481c-1.442.481-4.327 3.2-4.327 3.2a.34.34 0 0 1-.481-.481c.16-.16 3.045-2.884 4.647-3.365zm-11.217 2.084a.157.157 0 0 1 .16.16 8.962 8.962 0 0 0 5.288 4.807c.16 0 .16.16.16.481 0 .16-.16.16-.32.16a10.836 10.836 0 0 1-5.769-5.128c0-.16 0-.32.16-.32a.5.5 0 0 1 .321-.16zm27.722-26.762c.16 0 .16.16.16.32a.345.345 0 0 1-.321.32c-3.2.481-9.775 0-10.1 0a.32.32 0 1 1 0-.641c.32 0 7.051.481 10.256 0zm-14.582-4.486c.16.16.32.32.16.481-2.243 3.686-2.564 10.576-2.564 10.737a.321.321 0 0 1-.641 0c0-.32.321-7.211 2.724-10.9 0-.318.16-.318.321-.318zm-2.079 18.267a.157.157 0 0 1 .16.16c0 .16 0 .32-.16.32-4.006 1.282-9.455.32-9.775.32a.32.32 0 0 1 0-.641s5.448.961 9.455-.32a.5.5 0 0 0 .32.161zm-39.265-15.383c.16 0 .16.16.16.32l-.8 5.609a.321.321 0 0 1-.641 0l.8-5.609c0-.16.16-.32.481-.32zm11.376 12.98c.16 0 .16.16.16.32l-.32 6.089a.321.321 0 0 1-.641 0l.321-6.089c.16-.16.32-.32.481-.32zm11.219-1.122c.16.16.32.32.16.481a35.05 35.05 0 0 1-4.166 5.929.34.34 0 0 1-.481-.481 36.562 36.562 0 0 0 4.006-5.769.589.589 0 0 1 .481-.16z"/></g><g class="a"><path class="e" d="M534.262 203.834l-.32.32a10.775 10.775 0 0 1 1.6 2.724c.641 1.6.961 3.686-.16 5.288l-3.365-1.923.8 4.487-1.923-2.4-.16.481a33.338 33.338 0 0 0 2.243 17.467 40.207 40.207 0 0 0 6.891 11.057s3.846 4.166 8.173 8.814c-9.294-8.974-21.473-20.351-27.723-23.877a7.067 7.067 0 0 0-6.089-.481c-.16 0-.16.16-.321.16l-.481.16.481.16a5.461 5.461 0 0 1 2.243 1.6v.32a6.965 6.965 0 0 0-5.769-1.122h-.32l.961 1.442a5.767 5.767 0 0 0-3.686-.16.157.157 0 0 0-.16.16l-.16.16 1.122 1.923a4.912 4.912 0 0 0-3.045 0c-.32.16-.481.16-.641.32l-.32.32.32.16a.5.5 0 0 1 .321.16c.16.16.481.32.481.481.16.16.16.481-.321.961a5.036 5.036 0 0 1-2.564 1.442 22.081 22.081 0 0 1-2.564.961c-.16 0-.16.16-.16.32h-.16v-.16h-.16a.559.559 0 0 0-.16.32 22.087 22.087 0 0 0 .961 2.564 7.122 7.122 0 0 1 .32 2.884 1.713 1.713 0 0 1-.481.8h-.8a.56.56 0 0 1-.321-.16l-.32-.16v.481a1.742 1.742 0 0 0 .16.8 4.108 4.108 0 0 0 1.763 2.4l-2.243.32v.32c.32 1.282 1.6 2.243 2.4 2.884h-1.763l.16.32a6.684 6.684 0 0 0 4.327 3.846c0 .16-.16.16-.321.16a2.081 2.081 0 0 1-1.6-.32 10.676 10.676 0 0 1-1.122-.481l-.481-.32.16.481v.32a7.277 7.277 0 0 0 4.166 4.487c6.73 2.884 22.915 5.769 35.735 7.692a807.389 807.389 0 0 0-11.858-1.122 36.463 36.463 0 0 0-12.98 1.282c-10.1 2.724-15.223 8.814-15.223 8.814l-.32.32h3.045l-4.006 2.083 3.525 1.442a5.576 5.576 0 0 1-4.166 3.365 12.624 12.624 0 0 1-3.2.481v.481c2.564.641 2.564.481 6.57 2.884a10.447 10.447 0 0 0 5.448 1.763c0 .16-.16.16-.16.32a2.355 2.355 0 0 1-.961.8 8.573 8.573 0 0 1-1.442 1.122l-.32.16.16.16a9.349 9.349 0 0 0 5.128 1.763c-.16.32-.481.481-.8.8s-.8.481-.8.641l-.481.32.481.16a20.571 20.571 0 0 0 10.256-.481c12.339-3.365 27.242-14.582 34.613-20.351a70.255 70.255 0 0 0-12.018 17.307l-.16.32h1.923a31.937 31.937 0 0 1-1.122 3.846l-.16.481.481-.16c.641-.16 1.763-.32 2.243-.481-.16 2.4-.8 7.211-.8 7.211v.32l.32-.16c2.564-.641 6.891-4.807 8.173-5.929a1.2 1.2 0 0 1-.16.8 1.985 1.985 0 0 1-.32.481l-.641.8.8-.32a9.978 9.978 0 0 0 3.365-2.724.5.5 0 0 1 .16.32v.641l.321.32c8.974-8.173 7.852-19.55 6.891-24.037 0-.481-.16-.8-.16-1.122a6.286 6.286 0 0 1-.641-2.884c9.935 5.128 21.633 12.179 27.082 18.268 1.763-1.923-.32-4.006-.32-4.006s-3.365-5.609-26.441-16.025a4.589 4.589 0 0 1 2.884-1.6c3.045-1.282 15.544-7.371 16.666-20.832l-.481-.16-.16.16c-.16 0-.16.16-.32.16s-.16 0-.481.16a12.557 12.557 0 0 0 .16-4.327l-.32-.961-.16.961a1.6 1.6 0 0 1-.16.641 2.214 2.214 0 0 1-.481.641c.16-1.6.8-7.692-.16-10.1l-.16-.32-.32.32a62.136 62.136 0 0 1-5.288 4.968 12.08 12.08 0 0 1-.962-2.083l-.16-.481-.32.32a29.453 29.453 0 0 1-2.4 3.045 8.135 8.135 0 0 1-.961-1.122l-.16-.32-.16.32a71.977 71.977 0 0 0-6.41 20.031c.16-9.294 0-28.043-4.807-39.9a19.926 19.926 0 0 0-5.769-8.493l-.481-.32v1.442a2.727 2.727 0 0 1-.16 1.122 8.737 8.737 0 0 0-4.487-2.884h-.32v2.083a3.124 3.124 0 0 1-.16 1.282c0 .16 0 .32-.16.32a10.067 10.067 0 0 0-4.647-3.365c-3.705-.945-3.705-.945-5.624-2.545z"/><path class="d" d="M513.269 242.132c.16-.16.16-.16.321-.16 8.814 3.2 39.421 20.351 44.548 23.4-1.763-5.769-12.659-41.664-16.025-49.676a.358.358 0 0 1 .641-.32c3.69 8.809 16.19 50.152 16.345 50.635 0 .16 0 .32-.16.32-.16.16-.321.16-.321 0-.32-.16-35.575-20.351-45.19-23.716-.16 0-.32-.16-.16-.481z"/><path class="d" d="M572.881 243.895c.16-.16.16-.16.321-.16a.307.307 0 0 1 .16.481c-2.4 7.211-13.461 20.672-14.422 21.954-.32 1.6-4.166 21.473-12.5 28.043a.34.34 0 0 1-.481-.481c8.333-6.57 12.339-27.4 12.339-27.723v-.16c.32-.16 12.018-14.582 14.582-21.954-.16.16.001.16.001 0z"/><path class="d" d="M509.423 279.789a.56.56 0 0 1 .32-.16c13.941.16 48.555-13.781 48.875-13.941a.358.358 0 0 1 .32.641c-.321.16-35.094 14.1-49.035 13.941a.345.345 0 0 1-.32-.32c-.16.001-.16.001-.16-.161zm14.102-41.022c.16-.16.481-.16.481 0 2.724 3.686 6.089 11.217 6.25 11.378a.358.358 0 1 1-.641.32 102.282 102.282 0 0 0-6.089-11.217zm1.121 20.031a.56.56 0 0 1 .321-.16c5.288 0 13.14-4.327 13.14-4.327.16-.16.32 0 .481.16s0 .32-.16.481c-.321.16-8.012 4.327-13.461 4.487a.345.345 0 0 1-.321-.32z"/><path class="d" d="M513.108 274.342c.16-.16.16-.16.321-.16 2.884.961 7.532 3.846 7.692 3.846a.358.358 0 1 1-.32.641 58.364 58.364 0 0 0-7.532-3.846c-.32 0-.32-.16-.16-.481zm26.281-1.443a.358.358 0 1 1 .641.32c-.16.32-4.647 9.134-7.371 10.576-.16.16-.32 0-.481-.16s0-.32.16-.481c2.564-1.282 6.891-10.1 7.051-10.256zm5.448 17.307c1.6-1.6 6.73-3.846 6.891-4.006a.358.358 0 0 1 .32.641s-5.128 2.243-6.73 3.846a.34.34 0 1 1-.481-.481zm10.096-11.377c.16-.16.481-.16.481 0 .16.16 2.724 4.487 2.243 7.532a.32.32 0 0 1-.641 0c.481-2.884-2.083-6.891-2.083-7.051a.3.3 0 0 1 0-.481zm13.3-34.293a.559.559 0 0 1 .32-.16.345.345 0 0 1 .32.32c0 1.6 1.442 5.609 1.442 5.769a.358.358 0 1 1-.641.32c0-.16-1.442-4.327-1.442-5.929-.159-.16-.159-.16.001-.32zm-2.724 11.858a.56.56 0 0 1 .321-.16 10.189 10.189 0 0 0 7.051-3.2.34.34 0 0 1 .481.481 10.477 10.477 0 0 1-7.532 3.525.345.345 0 0 1-.321-.32v-.326zm-14.742-38.619c.16-.16.16-.16.32-.16s.32.16.16.481a68.272 68.272 0 0 1-4.327 9.935c0 .16-.32.16-.481.16a.589.589 0 0 1-.16-.481 64.031 64.031 0 0 0 4.487-9.935zm-10.737 12.499c.16-.16.481-.16.481 0 2.724 3.846 9.455 7.051 9.455 7.051.16 0 .16.32.16.481a.589.589 0 0 1-.481.16c-.32-.16-6.891-3.365-9.775-7.371.16 0 .16-.161.16-.321zm17.307 9.775c0-.16.16-.16.32-.16a.345.345 0 0 1 .32.32c-.481 4.647-3.686 9.455-3.846 9.775a.358.358 0 1 1-.641-.32s3.365-4.968 3.686-9.455a.157.157 0 0 1 .161-.16zm-31.889 32.37a.3.3 0 0 1 .481 0l5.288 3.045a.358.358 0 1 1-.32.641l-5.288-3.045c-.16-.16-.16-.32-.16-.641zm17.788-5.769a.589.589 0 0 1 .481-.16l5.769 2.884a.358.358 0 0 1-.32.641l-5.769-2.884c-.321 0-.321-.32-.16-.481zm3.524-11.538a.3.3 0 0 1 .481 0 44.055 44.055 0 0 1 4.166 6.57c.16.16 0 .32-.16.481s-.32 0-.481-.16a48.556 48.556 0 0 0-4.006-6.41c-.161-.16 0-.481 0-.481z"/></g><g class="a"><path class="b" d="M692.264 87.655c-.8-3.2-1.6-5.929-2.083-7.532-1.442-2.724-3.846-8.173-1.763-14.582.961.16 8.012 7.692 3.525 15.384.481 2.083 1.282 4.647 2.083 7.692a19.237 19.237 0 0 1 7.051-13.621c.641.641 2.243 11.538-6.73 14.743.961 4.006 2.243 8.974 3.365 14.9a18.7 18.7 0 0 1 7.052-13.459c.641.641 2.243 11.538-6.891 14.743.481 2.243.961 4.487 1.282 7.051a45.977 45.977 0 0 1 .8 9.134c.8-2.564 3.2-8.814 9.935-11.858.481.8-.481 11.858-9.935 12.98a45.143 45.143 0 0 1-1.6 11.858 18.851 18.851 0 0 1 10.576-8.333c.32.961-2.243 11.217-11.538 11.217a65.243 65.243 0 0 1-3.846 9.294 18.953 18.953 0 0 1 13.621-5.288c0 .961-5.769 10.1-14.582 6.891a44.232 44.232 0 0 1-5.609 8.012c-.481-.641-.481-.641-.8-1.122a44.879 44.879 0 0 0 5.448-7.211c-8.653-3.525-7.051-14.1-6.41-14.9 5.769 4.487 6.73 11.217 6.891 13.941a45.677 45.677 0 0 0 3.525-9.615c-8.974-3.365-7.211-14.262-6.57-14.9 5.769 4.647 6.73 11.377 6.891 13.941.481-1.6.961-3.2 1.442-5.128a34 34 0 0 0 .8-8.493c-9.455-1.6-9.935-12.5-9.294-13.3a18.716 18.716 0 0 1 9.294 11.858 103.668 103.668 0 0 0-1.763-15.063c-9.294-.8-10.9-11.377-10.416-12.179a18.5 18.5 0 0 1 9.935 9.455 199.89 199.89 0 0 0-3.2-13.781c-9.455-.32-11.538-10.9-11.057-11.858 5.924 1.597 9.129 6.245 10.571 9.129z"/></g><g class="a"><path class="f" d="M687.618 138.453c.16-5.448-1.763-10.416-3.365-15.864-.16 3.846-1.122 5.769-1.763 8.493-1.442-7.051-8.814-11.538-13.14-16.986a25.842 25.842 0 0 1 3.045 7.852 82.6 82.6 0 0 1-15.865-15.865 87.184 87.184 0 0 1-.32 22.435 27.4 27.4 0 0 1-3.365-7.692c.641 6.891-1.442 15.223 2.4 21.313-2.564-1.442-4.487-2.083-7.211-4.807 2.724 5.128 4.807 10.1 8.653 13.781-1.923-.641-4.166-.8-6.25-1.442 2.564.8 6.891 7.211 10.576 8.974 4.487 2.243 9.775 3.365 14.582 2.4a11.174 11.174 0 0 0 2.724-.961 9.578 9.578 0 0 0 2.564-1.282c4.166-2.564 7.051-7.051 8.814-11.858 1.282-3.846 0-11.378 1.282-13.781-.957 1.764-2.4 3.527-3.361 5.29z"/><path class="d" d="M682.97 168.098c-.16 0-.16 0-.32-.16-.961-1.923-23.556-46.151-24.518-55.606a.321.321 0 0 1 .641 0c.961 9.294 24.2 54.965 24.357 55.445.16.16.16.321-.16.321z"/><path class="d" d="M666.144 133.164c-.32 0-6.41-.32-7.852-2.4-.16-.16 0-.32.16-.32s.321 0 .321.16c.961 1.6 5.609 2.083 7.371 2.243a.345.345 0 0 1 .32.32c.003-.163-.16-.003-.32-.003zm4.006 8.815c-.32-.16-.32-.32-.32-.32s3.045-6.891 3.045-11.858a.32.32 0 1 1 .641 0c0 4.968-3.045 11.7-3.2 12.018.155.16-.005.16-.166.16zm4.006 11.537c-3.045 0-9.615-.641-13.781-5.128-.16-.16-.16-.32 0-.32.16-.16.32-.16.32 0 5.288 5.929 14.743 4.968 14.9 4.968a.32.32 0 1 1 0 .641c.164-.161-.477-.161-1.439-.161z"/></g><g class="a"><path class="f" d="M655.408 175.47c-3.2-4.487-7.692-7.211-12.339-10.576 2.243 3.2 2.724 5.288 3.846 7.852-5.448-4.647-14.1-3.846-20.672-5.448a25.4 25.4 0 0 1 7.211 4.327 84.224 84.224 0 0 1-22.274-2.884 81.268 81.268 0 0 1 13.3 17.948 25.76 25.76 0 0 1-7.371-4.166c4.647 4.968 8.173 12.82 14.9 15.384-2.884.32-4.807 1.122-8.653.641 5.288 2.4 9.935 4.968 15.223 5.609-1.923.641-3.846 1.923-5.769 2.564 2.564-.961 9.935 1.442 13.781.8a23.084 23.084 0 0 0 12.98-7.051 8.98 8.98 0 0 0 1.6-2.4 9.6 9.6 0 0 0 1.282-2.564 24.382 24.382 0 0 0-.16-14.743c-1.282-3.846-6.891-8.974-7.371-11.7.326 2.241.165 4.324.486 6.407z"/><path class="d" d="M669.83 201.75h-.321c-1.923-.961-46.792-22.114-53.362-29-.16-.16-.16-.32 0-.32.16-.16.321-.16.321 0 6.41 6.891 52.721 28.684 53.2 29 .32 0 .32.16.16.32z"/><path class="d" d="M635.216 184.443c-.16.16-5.288 3.686-7.692 2.884-.16 0-.16-.16-.16-.32s.16-.16.32-.16c1.763.641 5.769-1.763 7.211-2.724a.222.222 0 0 1 .32 0l.001.32zm8.493 4.487c-.32.16-.481 0-.481-.16 0 0-1.763-7.371-4.807-11.217a.227.227 0 1 1 .32-.32c3.045 4.006 4.807 11.217 4.807 11.538.321-.001.321-.001.161.159zm10.256 6.731c-2.4 1.763-8.012 5.448-14.1 4.327-.16 0-.321-.16-.16-.32 0-.16.16-.32.32-.16 7.692 1.442 14.743-5.128 14.743-5.128.16-.16.32-.16.32 0 .16.16.16.32 0 .32-.001 0-.322.32-1.123.961z"/></g><g class="a"><path class="f" d="M269.214 235.562c-3.2-4.487-7.692-7.211-12.339-10.576 2.243 3.2 2.724 5.288 3.846 7.852-5.448-4.647-14.1-3.846-20.672-5.448a25.4 25.4 0 0 1 7.211 4.327 84.224 84.224 0 0 1-22.274-2.884 81.268 81.268 0 0 1 13.3 17.948 25.76 25.76 0 0 1-7.371-4.166c4.647 4.968 8.173 12.82 14.9 15.384-2.884.32-4.807 1.122-8.653.641 5.288 2.4 9.935 4.968 15.223 5.609-1.923.641-3.846 1.923-5.769 2.564 2.564-.961 9.935 1.442 13.781.8a23.085 23.085 0 0 0 12.98-7.051 8.982 8.982 0 0 0 1.6-2.4 9.6 9.6 0 0 0 1.282-2.564 24.381 24.381 0 0 0-.16-14.743c-1.282-3.846-6.891-8.974-7.371-11.7.326 2.241.166 4.324.486 6.407z"/><path class="d" d="M283.797 262.003h-.32c-1.923-.961-46.792-22.114-53.362-29-.16-.16-.16-.32 0-.32.16-.16.32-.16.32 0 6.41 6.891 52.721 28.684 53.2 29 .16-.16.32 0 .16.32z"/><path class="d" d="M249.023 244.536c-.16.16-5.288 3.686-7.692 2.884-.16 0-.16-.16-.16-.32s.16-.16.32-.16c1.763.641 5.769-1.763 7.211-2.724a.222.222 0 0 1 .32 0c.161 0 .161.16.001.32zm8.653 4.487c-.32.16-.481 0-.481-.16 0 0-1.763-7.371-4.807-11.217a.227.227 0 1 1 .32-.32c3.045 4.006 4.807 11.217 4.807 11.538a.157.157 0 0 1 .161.159zm10.096 6.73c-2.4 1.763-8.012 5.448-14.1 4.327-.16 0-.32-.16-.16-.32 0-.16.16-.32.32-.16 7.692 1.442 14.743-5.128 14.743-5.128.16-.16.32-.16.32 0 .16.16.16.32 0 .32.159 0-.322.32-1.123.961z"/></g><g class="a"><path class="f" d="M614.706 259.119c.16-5.448-1.763-10.416-3.365-15.864-.16 3.846-1.122 5.769-1.763 8.493-1.442-7.051-8.814-11.538-13.14-16.986a25.842 25.842 0 0 1 3.045 7.852 82.6 82.6 0 0 1-15.865-15.865 87.184 87.184 0 0 1-.32 22.435 27.4 27.4 0 0 1-3.365-7.692c.641 6.891-1.442 15.223 2.4 21.313-2.564-1.442-4.487-2.083-7.211-4.807 2.724 5.128 4.807 10.1 8.653 13.781-2.083-.641-4.166-.8-6.25-1.442 2.564.8 6.891 7.211 10.576 8.974 4.487 2.243 9.775 3.365 14.582 2.4a11.175 11.175 0 0 0 2.724-.961 9.579 9.579 0 0 0 2.564-1.282c4.166-2.564 7.051-7.051 8.814-11.858 1.282-3.846 0-11.378 1.282-13.781-.957 1.764-2.4 3.367-3.361 5.29z"/><path class="d" d="M610.058 288.764c-.16 0-.16 0-.321-.16-.961-1.923-23.556-46.151-24.518-55.606a.32.32 0 0 1 .641 0c.961 9.294 24.2 54.965 24.357 55.445.16.16.16.32-.16.32z"/><path class="d" d="M593.232 253.83c-.32 0-6.41-.32-7.852-2.4-.16-.16 0-.32.16-.32s.32 0 .32.16c.961 1.6 5.609 2.083 7.371 2.243a.345.345 0 0 1 .321.32c.003-.163-.16-.003-.32-.003zm4.006 8.815c-.32-.16-.32-.32-.32-.32s3.045-6.891 3.045-11.858a.321.321 0 0 1 .641 0c0 4.968-3.045 11.7-3.2 12.018.155-.001-.005.16-.166.16zm4.006 11.537c-3.045 0-9.615-.641-13.781-5.128-.16-.16-.16-.32 0-.32.16-.16.32-.16.32 0 5.288 5.929 14.743 4.968 14.9 4.968a.32.32 0 1 1 0 .641c.164-.161-.477-.161-1.439-.161z"/></g><g class="a"><path class="g" d="M681.048 188.289c-1.763-2.724 2.243-9.935 3.365-12.179 1.6-3.525 7.371-13.14 1.6-16.826-4.166-2.724-9.935 7.211-9.294-.961.16-2.243 2.884-7.371.16-9.455-5.769-4.327-7.051 5.609-12.018 3.2-5.448-2.564-3.846-11.858-9.294-11.7h-.32c-4.647 3.045 1.763 9.775-1.282 14.9-2.884 4.807-9.455-2.724-11.858 4.006-1.122 3.2 4.006 5.929 5.448 7.692 5.128 6.41-5.288 1.442-7.211 5.929-2.724 6.25 7.371 11.057 10.737 12.98 2.243 1.282 9.455 4.968 9.615 8.333.16 4.968-7.532.641-9.615 4.487-2.083 4.166 5.929 6.891 9.294 8.653 7.532 4.006 13.781 9.935 20.512 17.467l.16.481v-.32a.157.157 0 0 0 .16.16l-.16-.481c1.442-9.935 3.365-18.428 7.371-25.96 1.763-3.2 6.891-10.1 2.884-12.339-3.524-1.912-7.53 6.1-10.254 1.933z"/><path class="d" d="M678.964 218.576a.585.585 0 0 1-.8-.32c-.16-.481-14.743-47.433-19.39-68.906 0-.32.16-.641.481-.641s.641.16.641.481c4.647 21.473 19.23 68.425 19.39 68.906.159.16-.001.48-.322.48z"/><path class="d" d="M664.542 169.22h-.32c-.32-.16-7.852-2.564-12.659-6.41a.578.578 0 0 1 .641-.961c4.006 3.2 10.416 5.609 12.018 6.089 1.122-1.442 6.25-7.532 7.051-11.378 0-.32.32-.481.641-.481s.481.32.481.641c-.961 4.807-7.371 12.018-7.532 12.339a.5.5 0 0 1-.321.161zm4.492 15.865h-.32c-.641 0-14.582-1.923-19.23-6.41a.567.567 0 0 1 .8-.8c4.006 3.846 16.345 5.769 18.268 6.089 1.282-1.282 8.814-8.653 13.621-17.787.16-.32.481-.32.8-.32.321.16.321.481.321.8-5.128 10.256-13.941 18.268-13.941 18.268a.5.5 0 0 1-.319.16zm6.885 24.838h-.32c-2.4-.641-10.1-2.564-10.9-4.327a.61.61 0 0 1 1.122-.481c.481.961 5.609 2.724 10.256 3.846.32 0 .481.32.481.641-.319.16-.48.321-.639.321z"/><path class="d" d="M676.239 209.759a.589.589 0 0 1-.481-.16.529.529 0 0 1 0-.8s6.41-7.852 7.532-11.7c.16-.32.321-.481.641-.32s.481.32.32.641c-1.122 4.006-7.532 11.858-7.692 12.179.001.16-.159.16-.32.16zm-3.524-11.694h-.32c-.16 0-5.609-1.923-7.211-3.365a.567.567 0 1 1 .8-.8c1.122.962 4.647 2.4 6.41 3.045 1.6-2.243 3.846-5.929 4.006-6.73 0-.32.32-.481.641-.481s.481.32.481.641c-.32 1.6-4.006 7.051-4.487 7.532a.5.5 0 0 0-.32.158z"/></g><g class="a"><path class="h" d="M696.431 222.261c-2.083-.8-13.461-5.929-18.428-18.428-5.448-13.621-1.282-29.806 9.775-42.465s12.5-15.063 15.384-23.716-1.763 14.262 5.609 26.761c19.069 32.37 1.442 45.35-12.018 58.009-.002-.161-.483.48-.322-.161z"/><path class="i" d="M683.291 203.033a131.915 131.915 0 0 1 10.9 8.333 74.41 74.41 0 0 0 2.724 9.134c0 .32-.16-1.282-.16-1.282-.481-2.724-.8-5.448-1.122-8.012 6.41-4.807 10.737-7.371 10.576-7.371a114.285 114.285 0 0 0-10.737 6.089c-.16-1.923-.32-3.846-.481-5.609a149.691 149.691 0 0 1 13.781-9.455c-2.083.8-7.051 3.525-13.781 7.852-.16-2.243-.16-4.327-.16-6.57 8.493-7.371 14.422-11.378 14.1-11.217a136.711 136.711 0 0 0-14.1 9.455c0-1.923.16-3.846.16-5.609 7.692-7.532 13.3-11.7 12.98-11.538a162.338 162.338 0 0 0-12.98 9.775q.24-3.365.481-6.25c6.73-6.891 11.7-10.737 11.378-10.737a119.972 119.972 0 0 0-11.217 8.814c.32-2.4.641-4.647.961-6.57a82.256 82.256 0 0 1 6.891-8.333 54.574 54.574 0 0 0-6.73 6.891 89.862 89.862 0 0 1 2.243-10.576 100.633 100.633 0 0 0-3.2 10.416c-1.923-4.807-3.525-7.852-4.166-9.134-.16-.16 1.763 3.846 3.846 10.576a167.297 167.297 0 0 0-1.442 6.891 120.578 120.578 0 0 0-7.371-11.538c-.16-.16 3.045 4.968 7.051 13.461a46.142 46.142 0 0 0-.8 5.288 137.109 137.109 0 0 0-10.256-12.018 159.914 159.914 0 0 1 9.935 13.941c0 .481-.16.8-.16 1.282-.16 1.6-.321 3.2-.321 4.807a162.673 162.673 0 0 0-11.7-11.858c-.321-.16 4.807 4.968 11.7 13.941 0 1.923.16 3.686.321 5.448a111.044 111.044 0 0 0-11.057-8.814 151.543 151.543 0 0 1 11.217 10.576c.32 2.243.641 4.487.961 6.41a83.657 83.657 0 0 0-10.265-6.889z"/></g><g class="a"><path class="j" d="M692.746 123.23s11.057 12.659 10.1 27.4c-.8 11.7-10.1 21.153-13.461 24.678 1.442-12.98 2.083-20.832 2.564-36.376a23.561 23.561 0 0 1 0-3.365c-.641 2.724-.481 1.282-.641 3.2-2.083 16.826-2.564 22.274-3.2 36.376-2.724-3.686-9.775-14.262-8.974-26.12.952-14.736 13.612-25.793 13.612-25.793z"/></g><g class="a"><path class="e" d="M666.625 175.951l-.32.32a10.775 10.775 0 0 1 1.6 2.724c.641 1.6.961 3.686-.16 5.288l-3.365-1.923.8 4.487-1.923-2.4-.16.481a33.338 33.338 0 0 0 2.243 17.467 40.207 40.207 0 0 0 6.891 11.057s3.846 4.166 8.173 8.814c-9.294-8.974-21.473-20.351-27.723-23.877a7.067 7.067 0 0 0-6.089-.481c-.16 0-.16.16-.32.16l-.481.16.481.16a5.461 5.461 0 0 1 2.243 1.6v.32a6.965 6.965 0 0 0-5.769-1.122h-.32l.961 1.442a5.767 5.767 0 0 0-3.686-.16.157.157 0 0 0-.16.16l-.16.16 1.122 1.923a4.912 4.912 0 0 0-3.045 0c-.32.16-.481.16-.641.32l-.32.32.32.16a.5.5 0 0 1 .32.16c.16.16.481.32.481.481.16.16.16.481-.321.961a5.036 5.036 0 0 1-2.564 1.442 22.088 22.088 0 0 1-2.564.961c-.16 0-.16.16-.16.32h-.16v-.16h-.16a.559.559 0 0 0-.16.32 22.081 22.081 0 0 0 .961 2.564 7.122 7.122 0 0 1 .32 2.884 1.713 1.713 0 0 1-.481.8h-.8a.559.559 0 0 1-.32-.16l-.321-.16v.481a1.742 1.742 0 0 0 .16.8 4.108 4.108 0 0 0 1.763 2.4l-2.243.32v.32c.32 1.282 1.6 2.243 2.4 2.884h-1.763l.16.32a6.684 6.684 0 0 0 4.327 3.846c0 .16-.16.16-.321.16a2.081 2.081 0 0 1-1.6-.32 10.679 10.679 0 0 1-1.122-.481l-.481-.32.16.481v.32a7.277 7.277 0 0 0 4.166 4.487c6.73 2.884 22.915 5.769 35.735 7.692a807.389 807.389 0 0 0-11.858-1.122 36.463 36.463 0 0 0-12.98 1.282c-10.1 2.724-15.223 8.814-15.223 8.814l-.321.32h3.045l-4.006 2.083 3.525 1.442a5.576 5.576 0 0 1-4.167 3.377 12.624 12.624 0 0 1-3.2.481v.481c2.564.641 2.564.481 6.57 2.884a10.447 10.447 0 0 0 5.448 1.763c0 .16-.16.16-.16.32a2.355 2.355 0 0 1-.961.8 8.576 8.576 0 0 1-1.442 1.122l-.32.16.16.16a9.35 9.35 0 0 0 5.128 1.763c-.16.32-.481.481-.8.8-.481.32-.8.481-.8.641l-.481.32.481.16a20.572 20.572 0 0 0 10.256-.481c12.339-3.365 27.242-14.582 34.613-20.351a70.255 70.255 0 0 0-12.018 17.307l-.16.32h1.923c-.32 1.282-.961 3.686-.961 3.846l-.16.481.481-.16c.641-.16 1.763-.32 2.243-.481-.16 2.4-.8 7.211-.8 7.211v.32l.321-.16c2.564-.641 6.891-4.807 8.173-5.929a1.2 1.2 0 0 1-.16.8 1.983 1.983 0 0 1-.321.481l-.641.8.8-.32a9.978 9.978 0 0 0 3.365-2.724.5.5 0 0 1 .16.32v.641l.32.32c8.974-8.173 7.852-19.55 6.891-24.037 0-.481-.16-.8-.16-1.122a6.286 6.286 0 0 1-.641-2.884c9.935 5.128 21.633 12.179 27.082 18.268 1.763-1.923-.321-4.006-.321-4.006s-3.365-5.609-26.441-16.025a4.589 4.589 0 0 1 2.884-1.6c3.045-1.282 15.544-7.371 16.666-20.832l-.481-.16-.16.16c-.16 0-.16.16-.321.16a.589.589 0 0 0-.481.16 12.557 12.557 0 0 0 .16-4.327h.321l-.16.961a1.6 1.6 0 0 1-.16.641 2.213 2.213 0 0 1-.481.641c.16-1.6.8-7.692-.16-10.1l-.16-.32-.481.16a62.141 62.141 0 0 1-5.288 4.968 12.084 12.084 0 0 1-.961-2.083l-.16-.481-.32.32a29.453 29.453 0 0 1-2.4 3.045 8.128 8.128 0 0 1-.961-1.122l-.16-.32-.16.32a71.976 71.976 0 0 0-6.41 20.031c.16-9.294 0-28.043-4.807-39.9a19.925 19.925 0 0 0-5.769-8.493l-.481-.32v1.442a2.727 2.727 0 0 1-.16 1.122 8.737 8.737 0 0 0-4.487-2.884h-.32v2.083a3.123 3.123 0 0 1-.16 1.282c0 .16 0 .32-.16.32a10.067 10.067 0 0 0-4.647-3.365c-4.178-1.595-4.178-1.595-6.261-3.358z"/><path class="d" d="M645.793 214.409c.16-.16.16-.16.32-.16 8.814 3.2 39.421 20.351 44.549 23.4-1.763-5.769-12.659-41.664-16.025-49.676a.358.358 0 1 1 .641-.32c3.686 8.814 16.185 50.157 16.345 50.638 0 .16 0 .32-.16.32-.16.16-.32.16-.32 0-.32-.16-35.575-20.351-45.19-23.716-.16-.16-.32-.32-.16-.481z"/><path class="d" d="M705.245 216.172c.16-.16.16-.16.321-.16a.307.307 0 0 1 .16.481c-2.4 7.211-13.461 20.672-14.422 21.954-.32 1.6-4.166 21.473-12.5 28.043a.34.34 0 0 1-.481-.481c8.333-6.57 12.339-27.4 12.339-27.723v-.16c.32-.16 12.179-14.582 14.582-21.954z"/><path class="d" d="M641.947 252.066a.559.559 0 0 1 .32-.16c13.941.16 48.555-13.781 48.875-13.941a.358.358 0 1 1 .32.641c-.32.16-35.094 14.1-49.035 13.941a.345.345 0 0 1-.321-.32.157.157 0 0 1-.159-.161zm14.101-41.182c.16-.16.481-.16.481 0 2.724 3.686 6.089 11.217 6.25 11.378a.358.358 0 1 1-.641.32 102.29 102.29 0 0 0-6.089-11.217.3.3 0 0 1-.001-.481zm1.122 20.191a.56.56 0 0 1 .32-.16c5.288 0 13.14-4.327 13.14-4.327.16-.16.32 0 .481.16s0 .32-.16.481c-.32.16-8.012 4.327-13.461 4.487a.345.345 0 0 1-.32-.32.222.222 0 0 1 0-.321z"/><path class="d" d="M645.472 246.619c.16-.16.16-.16.32-.16 2.884.961 7.532 3.846 7.692 3.846a.358.358 0 0 1-.32.641 58.366 58.366 0 0 0-7.532-3.846c-.16 0-.16-.16-.16-.481zm26.441-1.603a.358.358 0 1 1 .641.32c-.16.32-4.647 9.134-7.371 10.576-.16.16-.32 0-.481-.16s0-.32.16-.481c2.4-1.282 6.891-10.1 7.051-10.256zm5.448 17.307c1.6-1.6 6.73-3.846 6.891-4.006a.358.358 0 1 1 .32.641s-5.128 2.243-6.73 3.846a.3.3 0 0 1-.481 0c-.16 0-.16-.321 0-.481zm9.936-11.217c.16 0 .16-.16 0 0 .16-.16.481-.16.481 0 .16.16 2.724 4.487 2.243 7.532a.32.32 0 1 1-.641 0c.481-2.884-2.083-6.891-2.083-7.051v-.481zm13.3-34.293a.559.559 0 0 1 .32-.16.345.345 0 0 1 .32.32c0 1.6 1.442 5.609 1.442 5.769a.358.358 0 1 1-.641.32c0-.16-1.442-4.327-1.442-5.929zm-2.564 11.858a.56.56 0 0 1 .32-.16 10.189 10.189 0 0 0 7.051-3.2.34.34 0 1 1 .481.481 10.476 10.476 0 0 1-7.532 3.525.345.345 0 0 1-.32-.32.222.222 0 0 1 0-.326zm-14.903-38.78c0-.16.16-.16.32-.16s.32.16.16.481a68.282 68.282 0 0 1-4.327 9.935c0 .16-.321.16-.481.16a.589.589 0 0 1-.16-.481c.32 0 3.686-6.41 4.487-9.935zm-10.576 12.66c.16-.16.481-.16.481 0 2.724 3.846 9.455 7.051 9.455 7.051.16 0 .16.32.16.481a.589.589 0 0 1-.481.16c-.321-.16-6.891-3.365-9.775-7.371a.559.559 0 0 0 .16-.321zm17.147 9.775c0-.16.16-.16.32-.16a.345.345 0 0 1 .32.32c-.481 4.647-3.686 9.455-3.846 9.775a.358.358 0 0 1-.641-.32s3.365-4.968 3.686-9.455zm-31.73 32.37a.3.3 0 0 1 .481 0l5.288 3.045a.358.358 0 1 1-.32.641l-5.288-3.045c-.16-.16-.32-.481-.16-.641zm17.788-5.929a.589.589 0 0 1 .481-.16l5.769 2.884a.358.358 0 0 1-.32.641l-5.769-2.884c-.32 0-.32-.16-.16-.481zm3.525-11.538a.3.3 0 0 1 .481 0 44.047 44.047 0 0 1 4.166 6.57c.16.16 0 .32-.16.481s-.321 0-.481-.16a48.556 48.556 0 0 0-4.006-6.41.3.3 0 0 1 0-.481z"/></g><g class="a"><path class="k" d="M122.588 220.178a4.923 4.923 0 0 1-4.487.32c-7.051-3.365-22.595 2.4-24.2 12.82a13.046 13.046 0 0 0 2.887 10.42 13.646 13.646 0 0 0 10.254 3.843c10.576-.641 17.627-15.7 14.9-23.075-.476-1.603-.636-3.206.646-4.328z"/><path class="b" d="M93.905 246.458c5.929 6.57 17.307 5.769 17.467.16a13.478 13.478 0 0 1-6.41-2.884c-1.442-1.122-2.884-2.4-4.166-3.525a24.765 24.765 0 0 1-3.2-4.487 15.253 15.253 0 0 1-2.243-6.57c-5.779-.481-7.538 10.736-1.448 17.306z"/></g><g class="a"><path d="M628.327 234.12c-1.442-2.884 3.2-9.615 4.647-11.858 2.083-3.365 8.653-12.339 3.365-16.505-3.846-3.045-10.737 6.25-9.134-1.923.481-2.243 3.686-7.051 1.122-9.455-5.288-4.807-7.532 4.968-12.339 2.083-5.128-3.045-2.564-12.179-8.173-12.5h-.32c-4.968 2.564.8 9.935-2.724 14.743-3.365 4.487-9.134-3.686-12.179 2.724-1.442 3.045 3.365 6.25 4.647 8.333 4.487 6.891-5.448.961-7.692 5.288-3.365 5.929 6.25 11.7 9.294 14.1 2.083 1.6 8.974 5.929 8.814 9.134-.32 4.968-7.692-.16-10.1 3.525-2.564 3.846 5.288 7.532 8.333 9.615 7.051 4.807 12.659 11.378 18.749 19.39l.16.641v-.32c0 .16.16.16.16.32l-.16-.641c2.4-9.775 5.128-17.948 9.935-25 2.083-3.045 7.852-9.455 4.166-12.018-3.516-2.721-8.328 4.811-10.571.324z" fill="#d0984e"/><path class="d" d="M623.199 264.246c-.32 0-.641-.16-.641-.481-.16-.481-9.935-48.715-12.339-70.508 0-.32.16-.641.481-.641s.641.16.641.481c2.4 21.794 12.339 70.028 12.339 70.508a.858.858 0 0 1-.481.641z"/><path class="d" d="M613.744 213.609h-.32c-.32-.16-7.532-3.365-12.018-7.692a.567.567 0 0 1 .8-.8c3.686 3.686 9.775 6.57 11.378 7.211 1.282-1.282 7.051-6.73 8.173-10.737.16-.32.481-.481.641-.32.32.16.481.32.32.641-1.442 4.647-8.493 11.217-8.814 11.378 0 .156 0 .319-.16.319zm2.884 16.185h-.321c-.641-.16-14.262-3.365-18.428-8.173a.567.567 0 0 1 .8-.8c3.686 4.166 15.7 7.371 17.627 7.852a73.974 73.974 0 0 0 15.228-16.346c.16-.32.481-.32.8-.16s.32.481.16.8c-6.25 9.615-15.7 16.666-15.7 16.826zm4.327 25.478h-.32c-2.243-.8-9.775-3.525-10.416-5.448-.16-.32 0-.641.321-.641.32-.16.641 0 .641.32.32.961 5.288 3.2 9.775 4.807.32.16.481.481.32.641a.345.345 0 0 1-.321.321z"/><path class="d" d="M621.436 255.11a.589.589 0 0 1-.481-.16.728.728 0 0 1 0-.8s7.211-7.211 8.653-10.9a.61.61 0 0 1 1.122.481c-1.6 3.846-8.653 10.9-8.974 11.217-.16.162-.16.162-.32.162zm-2.404-12.016h-.321c-.16-.16-5.448-2.4-6.891-4.006a.567.567 0 0 1 .8-.8c.961 1.122 4.327 2.884 6.089 3.525 1.763-2.083 4.487-5.448 4.807-6.41.16-.32.32-.481.641-.32s.481.32.32.641c-.481 1.6-4.807 6.57-5.288 7.051.164.159.003.319-.157.319z"/></g><g class="a"><path class="m" d="M407.988 253.993c-3.2-.961-5.769-1.923-7.371-2.4-2.564-1.6-8.012-4.327-14.422-2.564.16.961 7.211 8.493 15.063 4.327 2.083.641 4.647 1.442 7.532 2.4a18.725 18.725 0 0 0-13.941 6.25c.641.641 11.378 2.884 15.063-5.929a230.532 230.532 0 0 0 14.582 4.166c-2.884.16-9.294.961-13.781 6.25.641.641 11.378 2.884 15.063-5.929 2.243.641 4.487 1.122 6.891 1.763a48.107 48.107 0 0 0 9.134 1.282c-2.564.641-8.974 2.724-12.5 9.294.8.481 11.858.32 13.461-9.294a46.211 46.211 0 0 0 11.858-.961 18.924 18.924 0 0 0-8.974 10.1c.8.481 11.378-1.6 11.858-10.9a55.7 55.7 0 0 0 9.615-3.365 18.549 18.549 0 0 0-6.089 13.3c.961.16 10.416-5.128 7.692-14.1a43.542 43.542 0 0 0 8.333-5.128 5.113 5.113 0 0 0-1.122-.961 35.96 35.96 0 0 1-7.532 4.968c-3.045-8.814-13.781-7.852-14.422-7.211a18.732 18.732 0 0 0 13.461 7.532 50.985 50.985 0 0 1-9.775 3.045c-2.884-9.134-13.781-8.012-14.582-7.371a18.165 18.165 0 0 0 13.461 7.532c-1.6.32-3.365.641-5.288 1.122a35.856 35.856 0 0 1-8.493.32c-1.122-9.455-12.018-10.576-12.82-10.1 2.724 6.41 8.493 8.974 11.217 9.935a132.061 132.061 0 0 1-14.9-2.564c-.16-9.294-10.737-11.538-11.7-11.057 1.763 5.609 6.089 8.814 8.814 10.416-4.807-1.282-9.615-2.564-13.461-3.846.32-9.455-10.256-12.179-11.217-11.7a21.058 21.058 0 0 0 9.292 11.378z"/></g><g class="a"><path class="m" d="M286.681 247.581c-.481-3.365-.8-6.089-.961-7.692.32-3.045.32-9.134-3.846-14.262-.8.481-4.487 10.1 2.564 15.544.32 2.243.641 4.807 1.122 7.852-1.282-2.4-4.807-8.012-11.7-9.935-.32.961 2.4 11.538 11.858 11.057.641 4.166 1.282 9.134 2.4 15.063-1.282-2.564-4.807-8.012-11.7-9.775-.32.962 2.4 11.538 11.858 11.057.481 2.243.961 4.487 1.442 6.891a47.26 47.26 0 0 0 2.734 8.813 18.218 18.218 0 0 0-13.781-7.211c-.16.961 4.807 10.737 14.1 8.173a53.688 53.688 0 0 0 5.929 10.416 18.49 18.49 0 0 0-12.98-3.686c0 .961 6.25 9.615 14.9 6.089a50.987 50.987 0 0 0 7.211 7.211 18.68 18.68 0 0 0-14.743.32c.32.961 9.134 7.211 16.185.961a41.893 41.893 0 0 0 8.333 5.288 2.635 2.635 0 0 0 .32-1.442 36.351 36.351 0 0 1-7.692-4.647c6.73-6.57 1.122-15.7.32-16.185-3.686 6.41-1.923 12.98-1.122 15.384a56.376 56.376 0 0 1-6.891-7.532c7.051-6.57 1.282-15.864.481-16.345-3.686 6.41-1.923 12.98-1.122 15.544-.961-1.282-2.083-2.724-3.2-4.327a46.805 46.805 0 0 1-4.006-7.532c8.173-4.968 4.327-15.384 3.525-15.864a19.171 19.171 0 0 0-4.166 14.422 96.858 96.858 0 0 1-4.006-14.582c8.333-4.166 5.769-14.582 4.968-15.223a18.366 18.366 0 0 0-5.609 12.5c-.961-4.968-1.763-9.775-2.243-13.941 8.653-3.846 6.57-14.422 5.769-15.223a19.692 19.692 0 0 0-6.251 12.819z"/></g><g class="a"><path class="k" d="M654.606 120.025a4.706 4.706 0 0 1 4.327-1.442c7.692 1.6 21.313-8.012 20.191-18.589a13.946 13.946 0 0 0-5.448-9.455 13.5 13.5 0 0 0-10.9-1.122c-10.1 3.365-13.14 19.71-8.653 25.96.804 1.603 1.444 3.205.483 4.648z"/><path class="b" d="M675.759 87.334c-7.371-4.807-18.108-1.282-16.826 4.327a13.807 13.807 0 0 1 6.891 1.123c1.763.8 3.365 1.6 4.968 2.4a21.178 21.178 0 0 1 4.166 3.525 15.033 15.033 0 0 1 3.846 5.929c5.609-1.279 4.49-12.496-3.045-17.304z"/></g><g class="a"><path class="j" d="M527.532 172.585s5.929 15.7 0 29.165c-4.807 10.576-16.826 16.345-21.153 18.428a329.842 329.842 0 0 0 15.063-33.171c.8-1.763.32-1.282 1.122-3.045-1.442 2.4-.961 1.122-1.763 2.724a343.783 343.783 0 0 0-15.544 33.011c-1.282-4.327-4.327-16.666.641-27.562 5.93-13.461 21.634-19.55 21.634-19.55z"/></g><g class="a"><path class="h" d="M501.571 283.315c-2.243 0-14.743-.481-24.037-10.1-10.1-10.737-12.339-27.082-6.891-42.946s5.929-18.589 5.288-27.883c-.641-9.134 3.686 13.941 15.223 22.755 29.806 22.915 18.428 41.344 10.737 58.33.001-.156-.16.646-.32-.156z"/><path class="i" d="M482.182 270.496a122.9 122.9 0 0 1 13.3 3.686 57.634 57.634 0 0 0 5.929 7.371c.16.32-.641-1.122-.641-1.122a101.825 101.825 0 0 1-4.166-7.051c4.166-6.891 7.211-10.9 7.051-10.737-1.122 1.282-4.006 4.647-7.692 9.775a51 51 0 0 1-2.564-5.128c5.288-8.974 9.455-14.1 9.134-13.941a117.444 117.444 0 0 0-9.775 12.5c-.961-1.923-1.763-4.006-2.564-5.929 5.128-10.1 8.974-15.864 8.814-15.7-1.442 1.763-4.968 6.73-9.615 13.941l-1.923-5.288c4.327-9.935 7.852-15.864 7.692-15.7a119.7 119.7 0 0 0-8.333 13.941c-.641-2.083-1.282-4.006-1.763-6.089a140.741 140.741 0 0 1 6.57-14.1 108.1 108.1 0 0 0-7.051 12.339c-.641-2.243-1.122-4.487-1.6-6.41 1.763-6.57 3.365-10.576 3.2-10.416a68.551 68.551 0 0 0-3.686 8.814c-1.442-6.57-1.923-10.737-1.923-10.576 0 1.6.321 5.448.961 10.9a90.386 90.386 0 0 0-7.371-6.891 102.665 102.665 0 0 1 7.532 8.333c.32 2.083.641 4.487 1.282 7.051a126.591 126.591 0 0 0-11.217-8.012 129.451 129.451 0 0 1 11.538 9.775c.321 1.6.8 3.365 1.122 5.128a116.648 116.648 0 0 0-14.1-7.211 156.436 156.436 0 0 1 14.422 9.134c.16.481.16.8.321 1.282.481 1.6.8 3.045 1.442 4.647-7.692-3.686-13.14-5.769-15.384-6.57-.321 0 6.41 2.884 16.025 8.653a47.46 47.46 0 0 0 2.4 4.968 128.909 128.909 0 0 0-13.461-4.006c-.321 0 5.609 1.763 14.262 5.609a54.03 54.03 0 0 0 3.365 5.448 65.948 65.948 0 0 0-11.533-2.418z"/></g><g class="a"><path class="h" d="M567.433 238.767c-1.923-1.122-12.339-8.173-15.063-21.313-3.045-14.422 3.846-29.646 16.826-40.222 12.98-10.736 14.743-12.82 19.23-20.832 4.327-8.173-4.166 13.781.961 27.242 13.3 35.094-6.089 44.869-21.633 55.285-.001 0-.642.481-.321-.16z"/><path class="i" d="M557.656 217.612a112.128 112.128 0 0 1 9.3 10.1 71.1 71.1 0 0 0 1.122 9.455c0 .32.16-1.282.16-1.282 0-2.724 0-5.448.16-8.173 7.211-3.686 11.858-5.448 11.7-5.448a103.894 103.894 0 0 0-11.538 4.166c.16-1.923.32-3.846.481-5.609 9.294-4.807 15.384-7.051 15.223-7.051a104.355 104.355 0 0 0-14.9 5.448c.32-2.243.481-4.327.961-6.41a161.1 161.1 0 0 1 15.864-8.653 155.009 155.009 0 0 0-15.544 6.891c.32-1.923.8-3.686 1.122-5.448 8.974-6.089 15.063-9.294 14.9-9.294a121.576 121.576 0 0 0-14.422 7.371c.481-2.083 1.122-4.166 1.6-6.089 7.852-5.769 13.3-8.653 12.98-8.653a127.342 127.342 0 0 0-12.5 6.73 60.209 60.209 0 0 1 2.083-6.41c4.968-4.647 8.333-7.211 8.333-7.051a64.793 64.793 0 0 0-7.692 5.609 89.749 89.749 0 0 1 4.007-10.099 90.439 90.439 0 0 0-4.807 9.775c-1.122-4.968-2.243-8.333-2.564-9.615a90.874 90.874 0 0 1 2.083 11.057c-.8 1.923-1.763 4.166-2.564 6.57-2.4-6.57-4.487-10.9-5.288-12.659-.16-.16 2.083 5.288 4.647 14.422-.481 1.6-1.122 3.2-1.763 4.968-3.846-7.051-6.891-11.7-8.173-13.621-.16-.16 3.2 5.609 7.532 15.384a3.771 3.771 0 0 0-.32 1.282c-.481 1.6-.8 3.045-1.122 4.647a130.65 130.65 0 0 0-9.615-13.621c-.16-.16 3.846 5.769 9.134 15.7-.32 1.763-.481 3.686-.641 5.448a98.32 98.32 0 0 0-9.294-10.416 150.1 150.1 0 0 1 9.294 12.179 42.741 42.741 0 0 0 0 6.41c-5.13-4.161-8.495-6.885-9.939-8.01z"/></g><g class="a"><path class="h" d="M445.004 248.382c.16-.481 0-.481.32-1.122a32.287 32.287 0 0 1-8.814-4.327 33.69 33.69 0 0 1-5.448-5.288c-1.122-1.442-1.122-1.763-1.282-3.686-.641-15.7-8.493-11.858-16.505-17.467-.641 11.858 5.929 16.986 13.461 19.871 1.763.641 2.243.641 3.365 2.083a28.981 28.981 0 0 0 5.609 5.288 29.759 29.759 0 0 0 9.294 4.647z"/><path class="h" d="M434.428 226.108c3.365 10.737-1.923 22.595 16.185 23.076-3.365-5.609 2.724-24.357-16.185-23.076zm-28.363 20.512c11.217 1.442 19.71 11.217 27.723-5.128-6.41.8-20.992-12.5-27.723 5.128z"/></g><g class="a"><g transform="translate(533.507 174.278)"><ellipse class="n" cx="9.455" cy="9.775" rx="9.455" ry="9.775" transform="rotate(-87.845 9.81 9.448)"/><g class="o" transform="translate(14.413 9.484)"><circle class="p" cx="1.763" cy="1.763" r="1.763" transform="rotate(-67.734 2.43 1.631)"/></g><path class="b" d="M6.524 3.596c1.6-.641 3.045-.481 3.525.32.321.8-.641 2.083-2.083 2.724-1.6.641-3.045.481-3.525-.32s.48-2.083 2.083-2.724z"/></g><g transform="translate(536.137 158.576)"><circle class="n" cx="5.609" cy="5.609" r="5.609" transform="rotate(-87.843 5.82 5.604)"/><g class="o" transform="translate(8.383 5.735)"><circle class="p" cx=".961" cy=".961" r=".961" transform="rotate(-67.752 1.326 .89)"/></g><ellipse class="b" cx="1.763" cy=".961" rx="1.763" ry=".961" transform="rotate(-22.824 8.261 -3.646)"/></g><g transform="translate(556.035 177.096)"><circle class="n" cx="5.609" cy="5.609" r="5.609" transform="rotate(-87.844 5.82 5.604)"/><g class="o" transform="translate(8.378 5.713)"><circle class="p" cx=".961" cy=".961" r=".961" transform="rotate(-67.734 1.325 .89)"/></g><ellipse class="b" cx="1.763" cy=".961" rx="1.763" ry=".961" transform="rotate(-22.724 8.095 -3.66)"/></g><g transform="translate(549.853 158.016)"><ellipse class="n" cx="7.692" cy="7.852" rx="7.692" ry="7.852" transform="rotate(-87.834 7.983 7.686)"/><g class="o" transform="translate(11.587 7.695)"><circle class="p" cx="1.442" cy="1.442" r="1.442" transform="matrix(.379 -.925 .925 .379 0 2.67)"/></g><path class="b" d="M5.081 3.031c1.282-.481 2.4-.32 2.724.32s-.481 1.6-1.763 2.243c-1.282.481-2.4.32-2.724-.32-.16-.801.642-1.762 1.763-2.243z"/></g></g><g class="a"><g transform="translate(658.908 44.035)"><ellipse class="n" cx="9.455" cy="9.775" rx="9.455" ry="9.775" transform="rotate(-27.5 17.842 4.364)"/><g class="o" transform="translate(12.445 17.576)"><circle class="p" cx="1.763" cy="1.763" r="1.763" transform="rotate(-7.418 3.51 .228)"/></g><path class="b" d="M16.37 6.602c1.282.961 1.923 2.4 1.442 3.2-.641.8-2.083.481-3.365-.481s-1.923-2.4-1.442-3.2c.64-.801 2.083-.48 3.365.481z"/></g><g transform="translate(680.49 38.082)"><circle class="n" cx="5.609" cy="5.609" r="5.609" transform="rotate(-27.523 10.581 2.592)"/><g class="o" transform="translate(7.475 10.538)"><circle class="p" cx=".961" cy=".961" r=".961" transform="rotate(-7.418 1.913 .124)"/></g><ellipse class="b" cx=".961" cy="1.763" rx=".961" ry="1.763" transform="rotate(-52.48 7.994 -4.973)"/></g><g transform="translate(674.287 64.605)"><circle class="n" cx="5.609" cy="5.609" r="5.609" transform="rotate(-27.5 10.583 2.589)"/><g class="o" transform="translate(7.396 10.306)"><ellipse class="p" cx=".961" cy="1.122" rx=".961" ry="1.122" transform="rotate(-7.4 1.914 .124)"/></g><ellipse class="b" cx=".961" cy="1.763" rx=".961" ry="1.763" transform="rotate(-52.48 7.898 -5.106)"/></g><g transform="translate(684.177 49.851)"><ellipse class="n" cx="7.692" cy="7.852" rx="7.692" ry="7.852" transform="rotate(-27.5 14.513 3.55)"/><g class="o" transform="translate(10.17 14.374)"><circle class="p" cx="1.442" cy="1.442" r="1.442" transform="rotate(-7.435 2.87 .186)"/></g><ellipse class="b" cx="1.442" cy="2.404" rx="1.442" ry="2.404" transform="rotate(-52.48 11.181 -6.605)"/></g></g><g class="a"><path class="g" d="M574.965 256.394c1.923-2.724 10.1-1.763 12.659-1.6 3.846.16 14.9 1.763 16.185-4.968.961-4.807-10.576-6.41-2.724-8.974 2.243-.641 8.012-.16 8.814-3.525 1.763-6.891-7.852-4.327-7.692-9.775.32-5.929 9.455-8.012 7.211-13.14l-.16-.16v-.16c-4.487-3.2-8.333 5.448-14.262 4.647-5.448-.8-1.122-9.775-8.173-9.294-3.365.16-4.006 5.929-5.128 8.012-4.006 7.211-3.365-4.327-8.333-4.327-6.73 0-7.371 11.057-7.852 14.9-.32 2.564-.961 10.737-3.846 12.179-4.487 2.083-3.525-6.73-7.852-7.211-4.647-.32-4.006 8.173-4.487 11.858-.8 8.493-3.846 16.505-8.173 25.639l-.481.32c.16 0 .16 0 .32-.16 0 .16-.16.16-.16.32l.481-.32c9.775-2.564 18.268-4.006 26.761-3.2 3.686.32 12.018 2.4 12.5-2.083.481-4.331-8.493-4.972-5.608-8.978z"/><path class="d" d="M546.12 266.169a.715.715 0 0 1 0-.8c.321-.32 38.139-31.889 56.086-44.549.32-.16.641-.16.8.16s.16.641-.16.8c-17.948 12.5-55.606 44.228-56.086 44.548a1.6 1.6 0 0 1-.64-.159z"/><path class="d" d="M586.182 233.64c-.16-.16-.16-.16-.16-.32 0-.32-.641-8.333.961-14.262.16-.32.32-.481.641-.32s.481.32.32.641c-1.442 4.968-1.122 11.858-.961 13.461 1.763.641 9.294 2.884 13.3 2.083.32 0 .641.16.641.481s-.16.641-.481.641c-4.807.961-13.781-2.083-14.262-2.243.161-.002.001-.002.001-.162zm-12.98 10.259l-.16-.16c-.16-.641-3.846-14.262-1.6-20.191a.585.585 0 0 1 .8-.32c.32.16.481.481.32.641-1.923 5.128.961 17.307 1.6 19.23a71.081 71.081 0 0 0 21.633 5.609c.321 0 .481.32.481.641s-.32.481-.641.481c-11.378-.8-22.114-5.769-22.274-5.769zm-20.191 16.02a.56.56 0 0 1-.16-.32c-.321-2.4-1.442-10.256-.16-11.858a.529.529 0 0 1 .8 0c.321.16.321.481 0 .8-.641.8-.32 6.25.481 10.9 0 .32-.16.641-.481.641a.589.589 0 0 1-.48-.163z"/><path class="d" d="M553.331 260.24a.589.589 0 0 1-.16-.481c.16-.32.32-.481.641-.32.16 0 9.775 2.884 13.781 2.4.32 0 .641.16.641.481s-.16.641-.481.641c-4.166.481-13.781-2.4-14.1-2.4zm9.454-7.852c-.16-.16-.16-.16-.16-.32s-.481-5.929.32-7.852c.16-.32.481-.481.641-.32.32.16.481.481.32.641-.481 1.442-.32 5.288-.32 7.051 2.724.641 6.891 1.282 7.852 1.122.321 0 .641.16.641.481s-.16.641-.481.641c-1.6.32-8.012-1.122-8.814-1.282.161-.002.161-.002.001-.162z"/></g><g class="a"><path class="g" d="M329.306 261.041c1.442-2.4 8.814-2.083 11.057-2.243 3.365 0 13.3.641 13.941-5.448.481-4.327-9.775-4.968-2.884-7.692 1.923-.8 7.051-.641 7.532-3.686 1.122-6.25-7.211-3.365-7.371-8.173-.16-5.288 7.852-7.692 5.609-12.018h-.16v-.16c-4.166-2.564-7.051 5.288-12.339 4.968-4.968-.32-1.6-8.493-7.852-7.692-3.045.32-3.045 5.448-4.006 7.371-3.045 6.57-3.2-3.525-7.532-3.365-6.089.32-5.769 10.256-6.089 13.621-.16 2.243-.16 9.615-2.724 10.9-3.846 2.083-3.525-5.769-7.371-5.929-4.166 0-3.045 7.532-3.2 10.737-.16 7.532-2.4 14.9-5.609 23.236l-.32.32c.16 0 .16 0 .32-.16 0 .16 0 .16-.16.32l.32-.32c8.493-2.884 15.864-4.647 23.4-4.487 3.365 0 10.737 1.442 10.9-2.724.147-3.691-7.705-3.691-5.462-7.376z"/><path class="d" d="M304.468 271.458a.487.487 0 0 1 0-.641c.32-.32 31.729-30.607 46.792-42.786a.453.453 0 0 1 .641.641c-15.063 12.179-46.471 42.465-46.792 42.786a.487.487 0 0 1-.641 0z"/><path class="d" d="M337.8 240.369a.56.56 0 0 1-.16-.32c0-.32-1.122-7.211 0-12.659 0-.32.32-.481.641-.32.32 0 .481.32.32.641a35.465 35.465 0 0 0 0 11.858c1.6.32 8.493 2.083 11.858.961.32 0 .481 0 .641.32 0 .32 0 .481-.32.641-4.166 1.122-12.339-.961-12.659-1.122zm-10.737 9.776l-.16-.16c-.16-.481-4.166-12.339-2.564-17.787 0-.32.32-.481.641-.32s.481.32.32.641c-1.442 4.647 1.923 15.223 2.564 16.826 1.442.481 10.416 3.525 19.39 3.686a.481.481 0 1 1 0 .961 60.046 60.046 0 0 1-20.031-3.846c-.16.159-.16.159-.16-.001zm-16.986 15.383a.56.56 0 0 1-.16-.32c-.481-2.083-1.923-8.974-.961-10.416.16-.16.481-.32.641-.16s.32.481.16.641c-.481.641.16 5.448 1.122 9.615a.833.833 0 0 1-.32.641.3.3 0 0 1-.482-.001z"/><path class="d" d="M310.397 265.849a.589.589 0 0 1-.16-.481c0-.32.32-.481.641-.32.16 0 8.814 1.923 12.339 1.282a.507.507 0 0 1 .32.961c-3.686.641-12.339-1.282-12.659-1.282a1.24 1.24 0 0 0-.481-.16zm7.852-7.532a.56.56 0 0 1-.16-.32c0-.16-.8-5.128-.16-7.051 0-.32.32-.481.641-.32.32 0 .481.32.32.641-.32 1.282 0 4.647.16 6.25 2.4.32 6.25.8 7.051.481.32-.16.481 0 .641.32 0 .32 0 .481-.32.641-1.282.481-7.211-.481-7.852-.481-.161 0-.161-.161-.321-.161z"/></g><g class="a"><path class="c" d="M571.438 203.033l-.481-.16a10.429 10.429 0 0 1-1.763 2.4c-1.122 1.122-2.724 2.243-4.647 1.763l.481-3.525-3.686 2.243 1.282-2.4-.481.16a30.629 30.629 0 0 0-14.1 8.333 33.994 33.994 0 0 0-6.891 9.935s-2.083 4.807-4.487 10.1c4.327-11.217 9.455-25.639 10.256-32.37a6.969 6.969 0 0 0-1.763-5.448.56.56 0 0 0-.32-.16l-.321-.32v1.6a2.494 2.494 0 0 1-.481 1.442c-.16 0-.16.16-.32.16a6.206 6.206 0 0 0-1.122-5.288l-.16-.32-.8 1.442c-.16-.8-.32-2.4-1.282-3.2l-.16-.16-.16-.16-1.282 1.6a4.777 4.777 0 0 0-1.122-2.564l-.481-.481-.32-.16v.641a1.215 1.215 0 0 1-.32.641.637.637 0 0 1-.8.16 6.51 6.51 0 0 1-2.243-1.6 22.84 22.84 0 0 1-1.763-1.923.222.222 0 0 0-.32 0v-.16h.16l-.16-.16h-.32a22.836 22.836 0 0 0-1.923 1.763 11.3 11.3 0 0 1-2.4 1.442.636.636 0 0 1-.8-.16.963.963 0 0 1-.16-.641v-.641l-.32.16c-.16 0-.32.16-.641.32a3.648 3.648 0 0 0-1.442 2.4l-1.122-1.763-.16.16-.16.16a5.663 5.663 0 0 0-1.6 3.045l-.641-1.442-.16.32a6.132 6.132 0 0 0-1.6 5.128c-.16 0-.16 0-.32-.16a3.828 3.828 0 0 1-.32-1.442v-1.6l-.481.32c-.16 0-.16.16-.321.16a7.193 7.193 0 0 0-2.4 5.128c-.16 6.73 3.365 21.794 6.41 33.331a1677.243 1677.243 0 0 0-3.365-10.576 35.82 35.82 0 0 0-5.769-10.737c-5.929-7.532-12.98-9.775-13.14-9.775l-.481-.16 1.122 2.564-3.365-2.724v3.686a5.11 5.11 0 0 1-4.327-2.243 18.942 18.942 0 0 1-1.6-2.564l-.481.16c.481 2.4.481 2.4 0 6.73a12.62 12.62 0 0 0 .481 5.288h-.32a7.817 7.817 0 0 0-1.122-.481 7.092 7.092 0 0 1-1.442-.8l-.32-.16-.16.32a10.4 10.4 0 0 0 .321 5.128l-.961-.481a2.259 2.259 0 0 1-.8-.481v-.32a19.589 19.589 0 0 0 4.166 8.653c7.371 9.294 22.435 18.108 29.966 22.114a65.95 65.95 0 0 0-19.23-4.006h-.32l.16.32a2.557 2.557 0 0 1 .481 1.282c-1.282.16-3.525.481-3.525.481h-.481l.32.32c.32.481.961 1.282 1.282 1.763-2.083.8-6.41 1.923-6.41 1.923l-.32.16.16.32c1.6 1.923 6.73 4.166 8.012 4.807a1.2 1.2 0 0 1-.8.16 1.657 1.657 0 0 1-.641-.16l-.8-.16.641.641a15.556 15.556 0 0 0 3.525 1.923c0 .16-.16.16-.32.32a.5.5 0 0 1-.321.16h-.16l-.16.481c10.256 4.647 19.55-.481 23.076-2.884a3.5 3.5 0 0 0 .8-.481 7.223 7.223 0 0 1 2.243-1.6c-.8 10.416-2.4 22.915-5.769 29.966 2.243.8 3.365-1.6 3.365-1.6s3.525-4.968 4.006-28.524a4.939 4.939 0 0 1 2.4 1.763c2.243 2.083 12.018 10.576 23.877 6.73v-.481h-.16c-.16 0-.16-.16-.32-.16a.56.56 0 0 1-.16-.32 15.716 15.716 0 0 0 3.686-1.442l.641-.481-.8.16h-.641c-.32 0-.481-.16-.8-.16 1.442-.481 6.891-2.083 8.493-3.846l.32-.32-.32-.16s-4.166-1.6-6.25-2.724a13.014 13.014 0 0 1 1.442-1.6l.32-.32-.481-.16a32.461 32.461 0 0 1-3.525-.961 9.452 9.452 0 0 1 .641-1.282l.16-.32h-.32a64.8 64.8 0 0 0-19.55 1.923c8.012-3.2 23.877-10.256 32.37-18.749 2.564-2.564 4.487-5.288 5.128-8.012l.16-.481-.481.16a6.74 6.74 0 0 1-.8.32 2.277 2.277 0 0 1-.961.32c.32-.8 1.282-3.2.8-4.968v-.32l-.321.16-1.6.641a2.971 2.971 0 0 1-1.122.32h-.32a11.322 11.322 0 0 0 1.122-5.128 23.937 23.937 0 0 1 1.093-6.904z"/><path class="d" d="M531.057 199.186c.16 0 .16.16.16.32.481 8.814-3.045 41.183-3.686 46.632 4.327-3.686 30.927-25.96 36.7-31.889a.34.34 0 1 1 .481.481c-6.25 6.41-37.017 32.049-37.337 32.37-.16.16-.16.16-.32 0-.16 0-.16-.16-.16-.32 0-.32 4.487-37.818 3.846-47.273-.16-.16 0-.321.321-.321z"/><path class="d" d="M551.248 250.785c.16 0 .16.16.16.32a.345.345 0 0 1-.321.32c-7.051.481-22.595-3.846-24.037-4.327-1.6.32-19.871 4.166-28.524-.481a.358.358 0 0 1 .32-.641c8.653 4.807 27.883.481 28.2.481h.16c.16 0 16.826 4.807 24.037 4.327z"/><path class="d" d="M497.405 209.602a.157.157 0 0 1 .16.16c4.968 11.858 29.485 36.376 29.806 36.7a.34.34 0 1 1-.481.481c-.321-.32-24.838-24.838-29.806-36.857a.589.589 0 0 1 .16-.481zm40.383-2.884c.16.16.32.32.16.481-2.243 3.686-7.371 9.294-7.371 9.455a.34.34 0 0 1-.481-.481 100.95 100.95 0 0 0 7.371-9.294c0-.161.161-.161.321-.161zm-16.826 8.332a.157.157 0 0 1 .16.16c1.923 4.487 8.493 9.615 8.493 9.615a.34.34 0 0 1-.481.481c-.32-.16-6.73-5.288-8.653-9.935a.589.589 0 0 1 .16-.481c.16.16.16.16.321.16z"/><path class="d" d="M503.334 210.724c.16 0 .16.16.16.32a67.21 67.21 0 0 1-.481 8.012.321.321 0 0 1-.641 0 39.7 39.7 0 0 0 .481-7.852c.16-.321.16-.481.481-.481zm10.898 21.954c.16 0 .16.16.16.32a.345.345 0 0 1-.32.32c-.321 0-9.455-.641-11.858-2.4a.34.34 0 0 1 .481-.481c2.243 1.6 11.378 2.243 11.538 2.243zm-12.821 11.056c1.923.8 5.769 4.327 5.929 4.487a.34.34 0 0 1-.481.481s-3.846-3.686-5.609-4.327c-.16 0-.16-.32-.16-.481s.161-.32.321-.16zm13.461 4.327c.16.16.32.32.16.481s-2.724 4.006-5.609 4.647c-.16 0-.32 0-.32-.16s0-.32.16-.32c2.564-.641 5.128-4.327 5.128-4.327.16-.321.321-.321.481-.321zm34.133-1.122a.157.157 0 0 1 .16.16.589.589 0 0 1-.16.481c-1.442.481-4.327 3.2-4.327 3.2a.34.34 0 1 1-.481-.481c.16-.16 3.045-2.884 4.647-3.365zm-11.217 2.084a.157.157 0 0 1 .16.16 8.962 8.962 0 0 0 5.288 4.807c.16 0 .16.16.16.481 0 .16-.16.16-.321.16a10.837 10.837 0 0 1-5.769-5.128c0-.16 0-.32.16-.32a.5.5 0 0 1 .322-.16zm27.722-26.761c.16 0 .16.16.16.32a.345.345 0 0 1-.32.32c-3.2.481-9.775 0-10.1 0a.32.32 0 1 1 0-.641c.32 0 7.051.481 10.256 0zm-14.582-4.487c.16.16.32.32.16.481-2.243 3.686-2.564 10.576-2.564 10.737a.32.32 0 0 1-.641 0c0-.32.32-7.211 2.724-10.9 0-.318.16-.318.321-.318zm-2.079 18.267a.157.157 0 0 1 .16.16c0 .16 0 .32-.16.32-4.006 1.282-9.455.32-9.775.32a.32.32 0 1 1 0-.641s5.448.961 9.455-.32a.5.5 0 0 0 .32.161zm-39.265-15.383c.16 0 .16.16.16.32l-.8 5.609a.321.321 0 0 1-.641 0l.8-5.609c0-.16.16-.32.481-.32zm11.376 12.98c.16 0 .16.16.16.32l-.32 6.089a.32.32 0 1 1-.641 0l.32-6.089c.16-.16.32-.32.481-.32zm11.219-1.122c.16.16.32.32.16.481a35.052 35.052 0 0 1-4.166 5.929.34.34 0 0 1-.481-.481 36.557 36.557 0 0 0 4.006-5.769.589.589 0 0 1 .481-.16z"/></g><g class="a"><path d="M479.939 248.703c-.641-5.448-3.2-9.935-5.769-15.223.481 3.846-.16 5.929-.481 8.653-2.564-6.73-10.416-10.1-15.544-14.743a25.76 25.76 0 0 1 4.166 7.371 92.014 92.014 0 0 1-18.108-13.3 89.556 89.556 0 0 1 3.045 22.114 25.91 25.91 0 0 1-4.487-7.211c1.6 6.73.8 15.223 5.609 20.672-2.724-1.122-4.807-1.442-7.852-3.686 3.525 4.647 6.25 9.134 10.737 12.339-2.083-.32-4.327-.16-6.41-.481 2.724.481 8.012 6.089 11.7 7.371a23.227 23.227 0 0 0 14.743.16 19.129 19.129 0 0 0 2.564-1.282 8.981 8.981 0 0 0 2.4-1.6c3.686-3.2 5.929-8.012 6.891-12.98.8-4.006-1.763-11.217-.8-13.781-.481 1.921-1.763 3.684-2.404 5.607z" fill="#fea92a"/><path class="d" d="M479.938 278.829c-.16 0-.16 0-.32-.16-1.282-1.763-30.126-41.985-32.53-51.279 0-.16 0-.32.16-.32s.32 0 .32.16c2.243 9.134 32.21 50.638 32.53 51.119a.589.589 0 0 1-.16.481z"/><path class="d" d="M457.984 246.78c-.321 0-6.41.641-8.012-1.282-.16-.16-.16-.32 0-.32.16-.16.321-.16.321 0 1.282 1.442 5.929 1.282 7.532 1.122a.345.345 0 0 1 .321.32.157.157 0 0 0-.162.16zm5.288 8.012c-.32 0-.32-.16-.32-.32 0 0 2.083-7.371 1.282-12.179a.56.56 0 0 1 .16-.32c.16 0 .321 0 .321.16.8 4.968-1.282 12.018-1.282 12.339s-.161.32-.161.32zm5.609 10.896c-3.045.481-9.615.961-14.422-3.045-.16-.16-.16-.32 0-.32.16-.16.32-.16.32 0 6.089 4.968 15.384 2.724 15.384 2.724.16 0 .32 0 .32.16s0 .32-.16.32c.161-.159-.48.001-1.442.161z"/></g></svg>