<svg xmlns="http://www.w3.org/2000/svg" viewBox="0 0 198.627 54.244"><defs><style>.a{fill:#262626}</style></defs><path class="a" d="M198.628 13.789c-.079.646-.105 1.305-.237 1.938a11.21 11.21 0 0 1-6.222 8.041 13.709 13.709 0 0 1-4.956 1.279c-.58.04-1.16.053-1.74.053h-6.486c-.369 0-.343-.026-.343.343v8.582c0 .277 0 .277-.277.277h-6.644c-.277 0-.277 0-.29-.277V7.514a6.272 6.272 0 0 0-.237-1.318c-.053-.264-.132-.5-.171-.778a3.221 3.221 0 0 0-.184-.606c-.171-.567-.237-1.16-.4-1.74l-.593-2.254c-.053-.2-.026-.237.171-.25h15.792a13.777 13.777 0 0 1 6.354 1.45 11.385 11.385 0 0 1 6.116 7.83 7.016 7.016 0 0 1 .25 1.74 2.952 2.952 0 0 0 .013.343c.013.105-.04.237.066.33.018.526.018 1.027.018 1.528zm-19.984-.936v4.97c0 .277 0 .277.277.29h7.118c.2 0 .4 0 .606-.013a4.679 4.679 0 0 0 3.2-1.45 5.408 5.408 0 0 0 1.5-4.337 4.841 4.841 0 0 0-2.861-4.166 5.486 5.486 0 0 0-2.425-.5h-7.237c-.119 0-.185.04-.171.158v.224c-.007 1.607-.007 3.215-.007 4.824zM77.51 54.231v-1.2c0-.132-.04-.185-.185-.185-.316.013-.633 0-.949 0h-3.994c-.119 0-.145-.053-.145-.158V46.11c0-.4-.026-.343.356-.356H73.7c.25 0 .25 0 .25.264v5.062c0 .29 0 .29.264.29h1.9c.29 0 .29 0 .29-.29v-4.925c0-.435-.053-.382.382-.4h1.134c.145 0 .224.053.211.2v5.26c-.013.119.04.171.171.171h.54c.119 0 .171.053.158.171-.013.9.026 1.793-.013 2.689-.462-.015-.963-.015-1.477-.015zM13.222.079C13.235.026 13.209 0 13.169 0h1.832c0 .013-.013.026-.013.04a.046.046 0 0 1 .013.026c-.593 0-1.186 0-1.779.013z"/><path class="a" d="M198.627 12.274c-.105-.092-.053-.211-.066-.33s0-.224-.013-.343a.048.048 0 0 0 .066-.026c.013.236.013.474.013.699zM35.447.619a.5.5 0 0 1 .3-.04c6.1 0 12.207-.013 18.323.013a10.594 10.594 0 0 1 6.921 2.5 9.114 9.114 0 0 1 2.834 4.073 9.324 9.324 0 0 1 .2 5.629 9.835 9.835 0 0 1-2.36 4.152c-.237.264-.237.264.013.488a8.366 8.366 0 0 1 2.32 3.559 10.048 10.048 0 0 1 .356 4.956 9.659 9.659 0 0 1-5.062 7.039 14.18 14.18 0 0 1-1.648.725 6.135 6.135 0 0 1-1.028.316 12.562 12.562 0 0 1-2.215.277c-.29 0-.593.013-.883.013H37.635c-.461 0-.4.053-.4-.409V8.173a5.305 5.305 0 0 0-.224-1.292c-.171-.7-.409-1.4-.527-2.109-.105-.606-.277-1.2-.422-1.793a9.2 9.2 0 0 0-.237-1 11.858 11.858 0 0 0-.378-1.36zm13.986 26.825h4.653a3.152 3.152 0 0 0 2.926-1.766 3.28 3.28 0 0 0-2.953-4.9h-9.478c-.119-.013-.171.04-.171.158v6.314c-.013.158.066.211.211.2h4.811zm-.013-20h-4.873c-.119 0-.171.053-.171.171v6.288c0 .105.053.145.158.145h9.333a2.865 2.865 0 0 0 .475-.026 3.147 3.147 0 0 0 2.65-2.162 3.26 3.26 0 0 0-.751-3.454 3.115 3.115 0 0 0-2.386-.975c-1.482.017-2.959.017-4.435.017zM13.222.079c.593 0 1.186 0 1.766-.013a11.7 11.7 0 0 1 2.254.264 17.388 17.388 0 0 1 3.23.936 17.209 17.209 0 0 1 7.276 5.484 16.635 16.635 0 0 1 2.913 5.761 18.2 18.2 0 0 1 .606 6.472 17.9 17.9 0 0 1-.633 3.533A17.325 17.325 0 0 1 28.5 27.3a16.237 16.237 0 0 1-4.337 4.508 16.557 16.557 0 0 1-6.314 2.676 17.912 17.912 0 0 1-4.021.369A16.787 16.787 0 0 1 .659 28.394c-.211-.25-.4-.514-.593-.778A.608.608 0 0 1 0 27.485c1.938-1.437 3.889-2.861 5.853-4.311a9.429 9.429 0 0 0 5.4 4.113 9.578 9.578 0 0 0 5.312.105 10 10 0 0 0 6.973-6.393 1.086 1.086 0 0 0-.4-.04H12.325c-.4 0-.4 0-.488-.382-.514-2.1-1.041-4.192-1.555-6.288a.244.244 0 0 1-.026-.092c-.053-.237-.04-.25.2-.25h13a6.948 6.948 0 0 0-1.134-2.386 9.84 9.84 0 0 0-11.196-3.889 9.759 9.759 0 0 0-5.273 4.1c-.448-.343-.883-.659-1.305-.989q-2.1-1.6-4.231-3.2C.3 7.566.277 7.553.264 7.54c-.2-.158-.2-.158-.053-.356A16.764 16.764 0 0 1 2.4 4.64 16.571 16.571 0 0 1 11.152.303a13.613 13.613 0 0 1 2.07-.224zm130.476.488a.692.692 0 0 1-.25.237 10 10 0 0 0-3.071 3.757 10.263 10.263 0 0 0-.923 5.471 10.385 10.385 0 0 0 4.759 7.777 10 10 0 0 0 7.448 1.331 8.956 8.956 0 0 0 1.911-.606 11.431 11.431 0 0 0 1.331-.672 7.848 7.848 0 0 0 1.358-1c.277-.264.541-.554.831-.83a8.447 8.447 0 0 0 1.806-2.6c.132-.277.237-.58.343-.87a7.143 7.143 0 0 0 .316-.989 8.974 8.974 0 0 0 .264-1.318 10.526 10.526 0 0 0-.119-3.151c-.053-.264-.172-.527-.211-.791-.053-.382-.25-.7-.33-1.055a2.471 2.471 0 0 0-.29-.593 9.186 9.186 0 0 0-.461-.962c-.237-.356-.461-.7-.712-1.041-.316-.409-.725-.738-1.068-1.107s-.685-.659-1.068-1h9a.434.434 0 0 1 .448.277 18.514 18.514 0 0 1 1.186 2.795 18.565 18.565 0 0 1 .791 4.073 17.029 17.029 0 0 1-.33 4.9 17.269 17.269 0 0 1-6.67 10.414 16.145 16.145 0 0 1-3.81 2.135 17.683 17.683 0 0 1-8.173 1.173c-.593-.053-1.173-.158-1.753-.237-.356-.053-.7-.171-1.055-.237-.4-.066-.765-.25-1.16-.33a4.745 4.745 0 0 1-.778-.3 3.605 3.605 0 0 0-.527-.2 3.271 3.271 0 0 1-.58-.264 6.66 6.66 0 0 1-1.015-.514c-.633-.4-1.266-.778-1.872-1.213-.527-.382-1.028-.817-1.529-1.239a7.624 7.624 0 0 1-.936-.91 22.147 22.147 0 0 1-1.687-2.162c-.264-.4-.5-.8-.751-1.2-.2-.33-.4-.659-.567-1-.079-.158-.079-.33-.158-.475a7.943 7.943 0 0 1-.672-1.674 8.739 8.739 0 0 1-.409-1.661c-.04-.435-.158-.87-.211-1.305a18.815 18.815 0 0 1-.066-4.39c.079-.7.211-1.371.316-2.056.079-.488.25-.949.369-1.424a6.778 6.778 0 0 1 .33-.9c.158-.382.29-.765.475-1.147.105-.237.2-.475.3-.712a.3.3 0 0 1 .356-.211h9.267zm-49.631 33.72c.33-.343.606-.646.91-.936a5.2 5.2 0 0 0 .91-1.16c.145-.264.343-.488.488-.765a7.506 7.506 0 0 0 .672-1.569c.158-.567.382-1.107.488-1.687a10.153 10.153 0 0 0-.092-3.889 5.315 5.315 0 0 0-.4-1.252c-.079-.158-.079-.343-.145-.5a9.73 9.73 0 0 0-.29-.646c-.158-.29-.316-.593-.488-.87a9.908 9.908 0 0 0-1.951-2.307 8.718 8.718 0 0 0-1.569-1.12 4.767 4.767 0 0 0-1.371-.62 3.071 3.071 0 0 0-1.068-.4 7.8 7.8 0 0 0-1.455-.301 11.669 11.669 0 0 0-1.516-.066 10.007 10.007 0 0 0-4.442 1.094 9.9 9.9 0 0 0-4.746 5.049 10.487 10.487 0 0 0 2.404 11.694l.29.29h-8.59c-.316 0-.356-.04-.474-.33-.132-.316-.277-.62-.435-.923a4.448 4.448 0 0 1-.132-.448c-.158-.435-.33-.857-.448-1.305a10.417 10.417 0 0 1-.3-1.265c-.119-.725-.237-1.45-.29-2.175a19.273 19.273 0 0 1 .171-4.442 5.212 5.212 0 0 1 .132-.791c.092-.316.105-.646.211-.949.158-.5.33-.989.488-1.476a2.38 2.38 0 0 1 .211-.5 1.2 1.2 0 0 0 .158-.409 1.306 1.306 0 0 1 .119-.316c.185-.343.369-.7.527-1.055a6.461 6.461 0 0 1 .409-.633 16.892 16.892 0 0 1 1.12-1.621 20.055 20.055 0 0 1 1.977-2.122 17.649 17.649 0 0 1 1.569-1.252 9.289 9.289 0 0 1 1.041-.659 15.936 15.936 0 0 1 2.215-1.134 17.01 17.01 0 0 1 1.687-.606 20.139 20.139 0 0 1 4.047-.778 16.883 16.883 0 0 1 5.273.369 17.783 17.783 0 0 1 2.465.765 17.679 17.679 0 0 1 6.67 4.653 17.89 17.89 0 0 1 2.689 4.071 17.36 17.36 0 0 1 1.674 7.883 17.555 17.555 0 0 1-1.252 6.143c-.145.369-.33.725-.475 1.094a.355.355 0 0 1-.409.25c-2.03-.013-4.047 0-6.077 0h-2.346a.434.434 0 0 0-.254-.078zM129.145.593a.515.515 0 0 1-.026.316c-.237.844-.435 1.7-.646 2.557-.277 1.134-.567 2.267-.831 3.4-.04.185-.092.369-.132.554-.026.145-.106.185-.25.185h-7.343c-.422 0-.369-.04-.369.369v25.9c0 .435 0 .435-.435.435h-6.578c-.145.013-.224-.026-.211-.2a2.127 2.127 0 0 0 0-.29V8.014c0-.488.066-.422-.409-.422h-7.25c-.237 0-.264-.013-.316-.237-.211-.883-.409-1.766-.633-2.65-.132-.514-.264-1.028-.382-1.555-.053-.25-.092-.5-.158-.751-.105-.369-.224-.738-.316-1.12a1.962 1.962 0 0 1-.092-.685zM58.792 49.287v-3.256c0-.277 0-.277.277-.277h1.173c.29 0 .29 0 .29.3v2.241c0 .29 0 .29.3.29h.475c.132 0 .185-.04.211-.171a2.491 2.491 0 0 1 .422-1.068 3.686 3.686 0 0 1 .488-.7 3.877 3.877 0 0 1 1.78-.936 3.744 3.744 0 0 1 2.663.369 3.411 3.411 0 0 1 1.806 2.887 3.633 3.633 0 0 1-1.463 3.309 3.359 3.359 0 0 1-1.859.672c-.435.04-.857-.066-1.292-.066-.224-.211-.554-.2-.817-.356a5.86 5.86 0 0 1-1.2-1.081 1.136 1.136 0 0 1-.29-.54c-.053-.264-.264-.475-.25-.751a.1.1 0 0 0-.105-.092h-.066c-.25.013-.554-.105-.738.04s-.053.461-.066.685c-.013.593 0 1.186 0 1.766 0 .264 0 .264-.25.277h-1.266c-.224 0-.224-.013-.224-.237zm8.107-.079a1.643 1.643 0 0 0-.079-.58 1.8 1.8 0 0 0-1.555-1.384 1.7 1.7 0 0 0-1.74.844 2.347 2.347 0 0 0 .211 2.689 1.743 1.743 0 0 0 2.663-.026 2.433 2.433 0 0 0 .5-1.543zM173.12 50.25c.237-.5.448-.949.7-1.371.224-.382.422-.778.659-1.147.264-.435.5-.883.791-1.292a1.268 1.268 0 0 0 .211-.422.321.321 0 0 1 .369-.264c.448.013.883 0 1.331 0 .25 0 .25 0 .25.277v6.42a.853.853 0 0 0 0 .185c.026.171-.066.211-.224.211-.435-.013-.87-.013-1.292 0-.158 0-.224-.053-.224-.211.026-1.4-.04-2.795.053-4.205-.04 0-.053.026-.066.053a26.746 26.746 0 0 1-1.542 2.755c-.277.475-.567.936-.844 1.41a.319.319 0 0 1-.343.2 22.717 22.717 0 0 0-1.331 0c-.145 0-.211-.053-.2-.2.013-.237 0-.461 0-.7v-5.853c0-.369-.026-.343.343-.343h1.107c.3 0 .3 0 .3.29-.013 1.331.053 2.676-.053 4.007zm-86.197-1.819c-.066 0-.079.04-.092.079a25.263 25.263 0 0 1-1.529 2.729c-.277.475-.567.936-.844 1.41a.354.354 0 0 1-.356.2c-.422-.013-.844 0-1.265 0-.25 0-.25 0-.25-.237v-6.6c0-.237 0-.237.25-.237h1.239c.25 0 .264 0 .25.264-.013 1.345.053 2.7-.053 4.047v.119a.619.619 0 0 0 .132-.211c.29-.646.685-1.239 1.015-1.859.185-.356.435-.672.606-1.055a5.123 5.123 0 0 1 .382-.606 1.822 1.822 0 0 0 .237-.448.366.366 0 0 1 .4-.277c.435.013.87 0 1.292 0 .25 0 .25 0 .25.264v6.635c.013.145-.053.185-.185.185-.448 0-.883-.013-1.331 0-.171 0-.224-.053-.224-.211.013-.58 0-1.16 0-1.74.01-.817-.016-1.634.076-2.451zm-44.741 4.535a3.65 3.65 0 0 1-3.8-2.992 3.84 3.84 0 0 1-.013-1.345 2.847 2.847 0 0 1 .277-.975 3.68 3.68 0 0 1 2.781-1.951 3.943 3.943 0 0 1 2.135.264 3.378 3.378 0 0 1 1.885 1.9 3.678 3.678 0 0 1-.026 2.94 3.469 3.469 0 0 1-2.1 1.964 4.748 4.748 0 0 1-1.139.195zm1.753-3.717a2.137 2.137 0 0 0-.079-.633 1.888 1.888 0 0 0-1.674-1.384 1.779 1.779 0 0 0-1.766.936 2.278 2.278 0 0 0 .224 2.544 1.825 1.825 0 0 0 2.913-.132 2.42 2.42 0 0 0 .383-1.332zm71.065.157a3.825 3.825 0 0 1 .356-1.793 3.678 3.678 0 0 1 1.635-1.6 3.917 3.917 0 0 1 4.192.514 3.518 3.518 0 0 1 1.226 2.861 3.638 3.638 0 0 1-4.139 3.559 3.076 3.076 0 0 1-.765-.119 4.279 4.279 0 0 1-1.582-1.055A3.635 3.635 0 0 1 115 49.4zm5.616-.211a1.506 1.506 0 0 0-.079-.567 1.846 1.846 0 0 0-1.529-1.371 1.781 1.781 0 0 0-1.832.791 2.244 2.244 0 0 0 .2 2.729 1.8 1.8 0 0 0 2.715-.013 2.224 2.224 0 0 0 .52-1.569zm21.252.053a3.528 3.528 0 0 1 3.7-3.612 3.582 3.582 0 0 1 3.7 3.612 3.738 3.738 0 0 1-6.354 2.65 3.449 3.449 0 0 1-1.046-2.65zm3.836 2.122a1.713 1.713 0 0 0 1.292-.712 2.215 2.215 0 0 0 .422-1.911 1.886 1.886 0 0 0-3.651-.211 2.246 2.246 0 0 0-.053 1.252 1.956 1.956 0 0 0 1.988 1.582zm11.374-2.241c.026.013.053.04.079.04a1.732 1.732 0 0 1 .936 1.99 2 2 0 0 1-1.753 1.582 3.639 3.639 0 0 1-.751.079h-2.5c-.25 0-.264 0-.264-.264v-6.551c0-.277 0-.277.277-.277h2.373a3.671 3.671 0 0 1 1.239.224 1.763 1.763 0 0 1 .514 2.992c-.058.085-.137.107-.15.185zm-2.5 1.476v.606c0 .105.04.158.145.158a6.873 6.873 0 0 0 1.042-.026.686.686 0 0 0 .593-.765.639.639 0 0 0-.62-.672c-.33-.026-.672-.013-1.015-.026-.105 0-.145.053-.145.158-.005.191-.005.384-.005.568zm0-2.742v.475c0 .092.027.171.145.158.29 0 .567.013.857-.013a.6.6 0 0 0 .527-.672.551.551 0 0 0-.567-.554c-.25-.013-.5 0-.751-.013-.132 0-.2.04-.184.185a3.379 3.379 0 0 0-.032.436zM34.062 49.129c.026.013.04.04.066.04a1.858 1.858 0 0 1 .25 3.124 2.721 2.721 0 0 1-1.569.514c-.936.026-1.872.013-2.808.026-.158 0-.2-.066-.2-.211v-6.578c0-.33-.013-.316.3-.316h2.333a3.536 3.536 0 0 1 1.173.2 1.77 1.77 0 0 1 .554 3.045c-.02.056-.085.077-.099.156zm-2.531 1.49v.567c0 .119.04.171.158.171.316 0 .633.013.949-.013a.707.707 0 0 0 .7-.751.671.671 0 0 0-.685-.712c-.316-.026-.633 0-.949-.013-.119 0-.171.053-.171.171.012.198-.002.396-.002.58zm0-2.755v.475c0 .092.026.171.145.158a5.514 5.514 0 0 0 .936-.026.591.591 0 0 0 .435-.672.5.5 0 0 0-.488-.527c-.29-.026-.593-.013-.883-.026-.105 0-.158.04-.158.145a2.854 2.854 0 0 1 .013.473zm60.387 4.97c.119-.211.211-.369.3-.54.356-.646.791-1.252 1.107-1.925.053-.092.224-.132.145-.277-.053-.079-.171-.119-.25-.185a2.278 2.278 0 0 1-.817-1.41 4.222 4.222 0 0 1 .053-1.292 1.689 1.689 0 0 1 .593-.9 2.2 2.2 0 0 1 1.556-.554c.91-.026 1.806 0 2.715-.013.171 0 .224.066.211.224v6.7c.013.119-.04.171-.171.171h-1.382c-.158 0-.185-.079-.185-.211v-2.03c.013-.132-.053-.171-.171-.158h-.132c-.25-.04-.382.079-.5.3-.343.659-.712 1.292-1.068 1.938a.241.241 0 0 1-.237.158zm3.889-4.706v-.725c0-.105-.039-.158-.145-.158-.277.013-.554 0-.817.026a.706.706 0 0 0-.685.725 1.423 1.423 0 0 0 .026.409.73.73 0 0 0 .593.58 4.955 4.955 0 0 0 .883.04c.119 0 .132-.066.132-.158.013-.251.013-.489.013-.739zm-71.486 1.859h-2.6c-.277 0-.277 0-.277-.277v-.883c0-.224.013-.224.237-.224h2.7a1.735 1.735 0 0 0-.672-1.028 2.071 2.071 0 0 0-1.569-.343 2.616 2.616 0 0 0-1.186.488c-.105.079-.224.158-.33.237-.105-.013-.119-.092-.158-.145-.185-.3-.382-.606-.567-.91-.132-.211-.132-.211.066-.382a3.239 3.239 0 0 1 .91-.554 4.4 4.4 0 0 1 2.821-.158 3.4 3.4 0 0 1 2.478 2.926 3.981 3.981 0 0 1-.277 2.109 3.492 3.492 0 0 1-3.058 2.122 4.016 4.016 0 0 1-2.953-.9c-.224-.171-.224-.171-.066-.4.185-.277.382-.554.58-.83.119-.171.132-.185.316-.04a2.913 2.913 0 0 0 2.017.606 1.769 1.769 0 0 0 1.6-1.239.23.23 0 0 0-.012-.175zm143.157-.699v3.256c0 .29 0 .29-.29.29h-1.134c-.316 0-.316 0-.316-.3v-4.877a1.272 1.272 0 0 1 0-.224c.013-.158-.053-.2-.2-.2-.329.013-.659.013-.975 0-.158 0-.2.053-.2.211 0 .514 0 1.028-.026 1.555a6.706 6.706 0 0 1-.4 2.1 2.64 2.64 0 0 1-1.147 1.463 2.6 2.6 0 0 1-1.358.343c-.092 0-.132-.04-.132-.132v-1.292c0-.105.053-.145.145-.171a1.394 1.394 0 0 0 1.068-1.331c.026-.158.105-.29.119-.448a12.713 12.713 0 0 0 .079-1.582v-1.99c0-.158.053-.224.224-.224h4.337c.211 0 .224.013.224.277-.018 1.101-.018 2.195-.018 3.276zm-112.654.013v3.388c0 .105-.04.158-.145.158h-1.45a.118.118 0 0 1-.132-.132v-5.246c.013-.145-.04-.211-.2-.211-.343.013-.672 0-1.015 0-.145 0-.185.053-.185.185v.949a8.064 8.064 0 0 1-.461 2.847 2.518 2.518 0 0 1-2.333 1.687c-.237 0-.25 0-.25-.237v-1.108c0-.145.026-.211.2-.264a1.37 1.37 0 0 0 .975-1.081 7.767 7.767 0 0 0 .237-2.333v-1.859c0-.264 0-.264.25-.264h4.231c.264 0 .264 0 .264.29.014 1.056.014 2.15.014 3.231zm71.157-.013v-3.256c0-.277 0-.277.277-.277h2.623a2.259 2.259 0 0 1 2.346 2.294 2.7 2.7 0 0 1-.422 1.621 2.026 2.026 0 0 1-1.542.962c-.435.053-.883.013-1.331.026-.224 0-.224.013-.237.224v1.673c0 .29 0 .29-.3.29h-1.2c-.224 0-.224 0-.224-.237.01-1.106.01-2.213.01-3.32zm1.727-1.094v.791c0 .132.04.2.185.185.25-.013.5 0 .751 0a.8.8 0 0 0 .791-.646 1.2 1.2 0 0 0-.026-.712.732.732 0 0 0-.7-.54c-.277-.013-.54 0-.817-.013-.132 0-.185.053-.185.185zm-18.639-2.439h2.755c.264 0 .264 0 .264.264v.975c0 .25 0 .25-.264.25h-1.555c-.356 0-.33-.013-.33.316v5.022c0 .237 0 .237-.25.237h-1.2c-.277 0-.277 0-.277-.277v-4.864c0-.5.079-.435-.422-.448h-1.49c-.224 0-.237 0-.237-.224v-1.041c0-.224 0-.224.237-.224.91.014 1.833.014 2.769.014zm25.546 3.506v-3.309c-.013-.132.04-.2.171-.185h4.007c.105 0 .158.04.158.145v1.2c0 .171-.119.145-.224.145h-2.214c-.119 0-.185.04-.172.158v5.154c0 .277 0 .277-.277.277h-1.2c-.264 0-.264 0-.264-.264.015-1.103.015-2.213.015-3.321z"/></svg>