<svg xmlns="http://www.w3.org/2000/svg" viewBox="0 0 49 30.772"><defs><style>.a{fill:#fff}</style></defs><path class="a" d="M45.545 30.772H3.455A3.421 3.421 0 0 1 0 27.394V3.378A3.421 3.421 0 0 1 3.455 0h42.09A3.421 3.421 0 0 1 49 3.378v24.016a3.421 3.421 0 0 1-3.455 3.378zM3.455 1.843a1.553 1.553 0 0 0-1.57 1.535v24.016a1.553 1.553 0 0 0 1.571 1.536h42.09a1.553 1.553 0 0 0 1.571-1.536V3.378a1.553 1.553 0 0 0-1.571-1.536z"/><path class="a" d="M15.239 26.525v-1.486a.865.865 0 0 0-.916-.941.979.979 0 0 0-.842.419.861.861 0 0 0-.792-.419.841.841 0 0 0-.718.347v-.3H11.5v2.378h.468v-1.36a.555.555 0 0 1 .594-.619c.347 0 .545.223.545.619v1.362h.471v-1.362a.555.555 0 0 1 .594-.619c.347 0 .545.223.545.619v1.362zm7.727-2.353h-.867v-.718h-.469v.718h-.5v.419h.5v1.117c0 .545.2.867.792.867a1.385 1.385 0 0 0 .643-.173l-.149-.419a.815.815 0 0 1-.446.124.347.347 0 0 1-.371-.4v-1.139h.869v-.4zm4.408-.074a.741.741 0 0 0-.644.347v-.3h-.471v2.378h.471v-1.335c0-.4.2-.644.52-.644a1.448 1.448 0 0 1 .322.05l.149-.446a1.674 1.674 0 0 0-.347-.048zm-6.662.248a1.7 1.7 0 0 0-.966-.248c-.594 0-.966.273-.966.743 0 .4.273.619.792.694l.248.025c.273.05.446.149.446.273 0 .173-.2.3-.57.3a1.306 1.306 0 0 1-.792-.248l-.248.371a1.8 1.8 0 0 0 1.017.3c.694 0 1.065-.322 1.065-.768 0-.419-.3-.619-.817-.694l-.248-.025c-.223-.025-.419-.1-.419-.248 0-.173.2-.3.471-.3a1.783 1.783 0 0 1 .743.2zm7.182.991a1.17 1.17 0 0 0 1.238 1.238 1.23 1.23 0 0 0 .842-.273l-.248-.371a1 1 0 0 1-.619.223.793.793 0 0 1 0-1.582 1 1 0 0 1 .619.223l.248-.371a1.233 1.233 0 0 0-.842-.273 1.12 1.12 0 0 0-1.238 1.189zM24.576 24.1a1.139 1.139 0 0 0-1.164 1.238 1.163 1.163 0 0 0 1.213 1.238 1.515 1.515 0 0 0 .966-.322l-.248-.347a1.183 1.183 0 0 1-.694.248.694.694 0 0 1-.718-.619h1.759v-.2a1.116 1.116 0 0 0-1.115-1.238zm-.024.446a.592.592 0 0 1 .619.594h-1.288a.671.671 0 0 1 .669-.596zm-6.414.792v-1.189h-.47v.3a.907.907 0 0 0-.768-.347 1.241 1.241 0 0 0 0 2.477.91.91 0 0 0 .768-.347v.3h.471zm-1.907 0a.733.733 0 1 1 .743.792.716.716 0 0 1-.744-.794zm18.3-1.238a.741.741 0 0 0-.644.347v-.3h-.469v2.378h.47V25.19c0-.4.2-.644.52-.644a1.448 1.448 0 0 1 .322.05l.149-.446a1.674 1.674 0 0 0-.347-.05zm-1.833 1.238v-1.189h-.471v.3a.907.907 0 0 0-.768-.347 1.241 1.241 0 0 0 0 2.477.91.91 0 0 0 .768-.347v.3h.471zm-1.907 0a.733.733 0 1 1 .743.792.716.716 0 0 1-.741-.794zm6.687 0v-2.13h-.471v1.238a.907.907 0 0 0-.768-.347 1.241 1.241 0 0 0 0 2.477.91.91 0 0 0 .768-.347v.3h.471zm-1.907 0a.733.733 0 1 1 .743.792.716.716 0 0 1-.744-.792zm.399-18.517a8.9 8.9 0 0 0-11.47-.954 8.912 8.912 0 1 0 0 14.519A8.913 8.913 0 0 0 35.97 6.821zM24.5 18.975a7.811 7.811 0 0 1 0-11.694 7.814 7.814 0 0 1 0 11.694zm-5.164 1.949a7.8 7.8 0 1 1 0-15.59A7.686 7.686 0 0 1 23.585 6.6a8.931 8.931 0 0 0 0 13.058 7.685 7.685 0 0 1-4.249 1.266zm10.328 0a7.686 7.686 0 0 1-4.246-1.264 8.937 8.937 0 0 0 0-13.06 7.686 7.686 0 0 1 4.249-1.266 7.8 7.8 0 1 1 0 15.59z"/></svg>