<svg version="1.1" id="Layer_1" xmlns="http://www.w3.org/2000/svg" x="0" y="0" viewBox="0 0 200 200" xml:space="preserve"><style>.st0{fill:#262626}</style><path class="st0" d="M86.9 163.7H2.4v-14.4l41.9-45.7c6-6.7 10.3-12.4 12.9-16.9 2.6-4.5 3.8-9 3.8-13.6 0-6-1.7-10.8-5-14.5-3.4-3.7-7.9-5.5-13.6-5.5-6.8 0-12.1 2.1-15.8 6.2-3.7 4.1-5.6 9.8-5.6 17H0c0-7.7 1.7-14.5 5.2-20.7 3.5-6.1 8.5-10.9 14.9-14.3 6.5-3.4 13.9-5.1 22.4-5.1 12.2 0 21.8 3.1 28.9 9.2C78.4 51.5 82 60 82 70.8c0 6.3-1.8 12.8-5.3 19.7-3.5 6.9-9.3 14.7-17.4 23.4L28.6 147H87v16.7zM106.3 163.7V38h37.1c11.1 0 21 2.5 29.6 7.4 8.6 4.9 15.3 12 20 21.1 4.7 9.1 7.1 19.5 7.1 31.2v6.3c0 11.9-2.4 22.4-7.1 31.4-4.7 9-11.5 16-20.3 20.9-8.8 4.9-18.8 7.3-30.2 7.3h-36.2zm21.8-108.1v90.6h14.2c11.5 0 20.2-3.6 26.4-10.7 6.1-7.2 9.3-17.5 9.4-30.9v-7c0-13.6-3-24.1-8.9-31.2-5.9-7.2-14.5-10.8-25.8-10.8h-15.3z"/></svg>