<svg version="1.1" id="Layer_1" xmlns="http://www.w3.org/2000/svg" x="0" y="0" viewBox="0 0 200 200" xml:space="preserve"><style>.st0{fill:#262626}</style><path class="st0" d="M53.7 165.5H32V60.6L0 71.5V53.2l50.9-18.7h2.8v131zM102.6 165.5V34.9h38.6c11.5 0 21.8 2.6 30.7 7.7 8.9 5.1 15.9 12.4 20.8 21.9C197.5 74 200 84.8 200 97v6.5c0 12.4-2.5 23.3-7.4 32.6-4.9 9.4-12 16.6-21.1 21.7-9.1 5.1-19.6 7.6-31.3 7.6h-37.6zm22.7-112.3v94.2h14.8c11.9 0 21-3.7 27.4-11.2 6.4-7.4 9.6-18.1 9.7-32.1v-7.3c0-14.2-3.1-25-9.2-32.5-6.2-7.5-15.1-11.2-26.8-11.2h-15.9z"/></svg>