<svg xmlns="http://www.w3.org/2000/svg" viewBox="0 0 49 30.772"><defs><style>.a{fill:#fff}</style></defs><path class="a" d="M3.455 1.843a1.553 1.553 0 0 0-1.57 1.535v24.016a1.553 1.553 0 0 0 1.571 1.536h42.09a1.553 1.553 0 0 0 1.571-1.536V3.378a1.553 1.553 0 0 0-1.571-1.536zm0-1.843h42.09A3.417 3.417 0 0 1 49 3.378v24.016a3.417 3.417 0 0 1-3.455 3.378H3.455A3.417 3.417 0 0 1 0 27.394V3.378A3.417 3.417 0 0 1 3.455 0z"/><path class="a" d="M21.31 18.411v2.2h9v2.258h-9v3.674h-3.708v-3.66h-2.1v-2.272h2.1v-2.34h-2.1V15.41h2.1V4.11h6.806a9.015 9.015 0 0 1 5.993 1.8 6.275 6.275 0 0 1 2.128 5.07 7 7 0 0 1-2.222 5.351 8.437 8.437 0 0 1-6.008 2.081zm0-11.235v8.2h2.41a5.329 5.329 0 0 0 3.642-1.111 3.965 3.965 0 0 0 1.252-3.129q0-3.959-4.6-3.959z"/></svg>