<svg version="1.1" id="Layer_1" xmlns="http://www.w3.org/2000/svg" x="0" y="0" viewBox="0 0 512 345" xml:space="preserve"><style>.st0{fill:#1a68ff}.st1{fill:#fff}</style><path class="st0" d="M185.6 115.2V0H147v345h76.6c10.7 0 19.3-8.7 19.3-19.3V133.9c0-10.7-8.7-19.3-19.3-19.3h-38v.6zm20.7 187h-24.2V158h24.2v144.2z"/><path class="st1" d="M0 196h198.7v58H0zM322.9 115.2V0h38.6v345h-77.3c-10.7 0-19.3-8.7-19.3-19.3V133.9c0-10.7 8.7-19.3 19.3-19.3h38.6l.1.6zm-20.7 187h24.2V158h-24.2v144.2z"/><path class="st0" d="M313.3 196H512v58H313.3z"/><path fill="#e61616" d="M247 196h13.8v58H247z"/></svg>