<svg xmlns="http://www.w3.org/2000/svg" viewBox="0 0 199 48.532"><defs><style>.a{fill:#262626;fill-rule:evenodd}</style></defs><path class="a" d="M192.713 5.776h4.716a19.88 19.88 0 0 0-3.4 2.688l-4.716 4.823 2.586 3.7a68.342 68.342 0 0 0 7.1 8.824h-6.745a37.808 37.808 0 0 0-3.3-5.984l-3.041-4.563 2.638-3.347a36.255 36.255 0 0 0 4.162-6.141zm-7.151 2.231v15.524l.2 1.166a1.614 1.614 0 0 0 .912.507v.609h-6.542v-.609l.913-.507a2.3 2.3 0 0 0 .2-1.166V8.012l-.2-1.116a1.179 1.179 0 0 0-.913-.456v-.664h6.542v.659a1.171 1.171 0 0 0-.912.456zm-9.737 0v15.524l.2 1.166.913.507v.609h-6.593v-.609a2.352 2.352 0 0 0 1.014-.507l.151-1.166v-8.064h-7.708v8.063l.2 1.166a1.614 1.614 0 0 0 .912.507v.609h-6.643v-.609a1.734 1.734 0 0 0 1.014-.507l.2-1.166V8.012l-.2-1.116c-.136-.236-.473-.388-1.014-.456v-.664h6.643v.659a1.171 1.171 0 0 0-.912.456l-.2 1.116v6.136h7.711V8.012l-.151-1.116a1.589 1.589 0 0 0-1.014-.456v-.664h6.593v.659a1.174 1.174 0 0 0-.913.456zm-2.384 31.138h3.195l-1.323 6.7h-.912l.609-3.094h-1.573l-2.181 3.094h-1.014l2.231-3.145a1.682 1.682 0 0 1-1.369-1.723 1.535 1.535 0 0 1 .609-1.218 2.333 2.333 0 0 1 1.728-.608zm-.2 2.84h1.927l.4-2.08h-2.129a1.632 1.632 0 0 0-1.116.356 1.033 1.033 0 0 0-.305.761q.003.969 1.22.968zm-7.81-1.116l-.658 3.347a2.18 2.18 0 0 0 1.724.964 2.046 2.046 0 0 0 1.673-.964 4.217 4.217 0 0 0 .71-2.484 2.306 2.306 0 0 0-.406-1.471 1.4 1.4 0 0 0-1.165-.507 2.221 2.221 0 0 0-1.881 1.122zm.254-1.724l-.152.811.862-.71 1.117-.254a2.084 2.084 0 0 1 1.673.71 3.113 3.113 0 0 1 .61 2.079 4.539 4.539 0 0 1-.964 2.992 2.793 2.793 0 0 1-2.282 1.165l-1.117-.2-.811-.609-.658 3.4h-.913l1.826-9.382h.81zm16.025 0l.761 5.884h.658l-.4 2.079h-.71l.151-1.268h-4.512l-.356 1.268h-.658l.355-2.079h.609l2.789-5.884zm-.862.862l-2.335 5.026h2.992l-.456-5.021zm3.144 3.043a4.251 4.251 0 0 1 1.014-2.892 2.744 2.744 0 0 1 2.23-1.165 2.027 2.027 0 0 1 1.724.811 3.146 3.146 0 0 1 .659 2.13 4.45 4.45 0 0 1-.964 2.841 2.839 2.839 0 0 1-2.231 1.165 2.231 2.231 0 0 1-1.775-.761 3.156 3.156 0 0 1-.66-2.124zm15.011-10.244H52.235v-1.973H199zm-5.68 6.339l.761 5.781 2.789-5.781h1.471l-1.319 6.7h-.862l1.116-5.883-2.941 5.883h-.862l-.862-5.883-1.166 5.883h-.862l1.319-6.7zm-5.021 1.166a1.442 1.442 0 0 0-1.166-.558 1.859 1.859 0 0 0-1.521.964 4.217 4.217 0 0 0-.71 2.484 2.246 2.246 0 0 0 .456 1.471 1.3 1.3 0 0 0 1.065.507 2.014 2.014 0 0 0 1.624-.964 4.361 4.361 0 0 0 .658-2.433 2.45 2.45 0 0 0-.408-1.465zM143.925 6.44v-.664h5.78a10.315 10.315 0 0 0 .71 2.941l4.26 11.968a38.6 38.6 0 0 0 2.079 5.122h-5.071l-2.18-7.2h-6.442l-1.368 4.769-.406 2.434h-3.651l6.49-15.011a10.955 10.955 0 0 0 .964-3.246c.002-.639-.388-1.011-1.165-1.113zm2.384 2.688l-2.739 8.063h5.477zm-10.244 1.014h-1.117l-.254-.862a3 3 0 0 0-1.217-1.927l-2.789-.355h-2.687a1.76 1.76 0 0 0-1.217.3 1.284 1.284 0 0 0-.254.913v4.767h1.116q4.869 0 6.745.964 2.688 1.319 2.688 5.173 0 3.753-2.131 5.376-1.876 1.319-5.832 1.319h-8.012v-.609l.963-.507.152-1.166V8.012l-.152-1.116a1.234 1.234 0 0 0-.963-.456v-.664h14.96zm-9.534 4.108v8.571a1.758 1.758 0 0 0 .355 1.319 1.981 1.981 0 0 0 1.42.406h.609a3.217 3.217 0 0 0 2.841-1.319 7.233 7.233 0 0 0 .811-3.9 6.257 6.257 0 0 0-.863-3.753q-.913-1.319-3.4-1.319h-1.775zm1.268 22.72a2.259 2.259 0 0 1 .609 1.673 2.166 2.166 0 0 1-.558 1.521 3.338 3.338 0 0 1-1.623.863 2.19 2.19 0 0 1 1.572 2.079 2.418 2.418 0 0 1-.913 2.029 4 4 0 0 1-2.586.71h-3.195l1.775-9.484h2.991a2.752 2.752 0 0 1 1.927.609zm-4.108.254l-.659 3.3h1.881a3.026 3.026 0 0 0 1.876-.507 1.726 1.726 0 0 0 .659-1.37 1.252 1.252 0 0 0-.409-1.071 2.211 2.211 0 0 0-1.369-.355h-1.979zm6.238 5.832a2.067 2.067 0 0 0 .506 1.52 1.608 1.608 0 0 0 1.319.558l1.165-.355.659-.913.71.3-1.014 1.268a2.587 2.587 0 0 1-1.624.507 2.371 2.371 0 0 1-1.876-.811 3.192 3.192 0 0 1-.71-2.181 4.394 4.394 0 0 1 .913-2.789 2.79 2.79 0 0 1 2.282-1.165 2.179 2.179 0 0 1 1.521.507 3.237 3.237 0 0 1 .912 1.419l-.859.152a1.539 1.539 0 0 0-1.572-1.319 2.042 2.042 0 0 0-1.624.912 3.924 3.924 0 0 0-.709 2.389zm-5.325-1.724h-1.723l-.659 3.651h2.231a2.619 2.619 0 0 0 1.724-.507 1.725 1.725 0 0 0 .051-2.586 2.434 2.434 0 0 0-1.625-.559zm16.482 1.166h-4.715l-.051.558a2.251 2.251 0 0 0 .507 1.572 1.547 1.547 0 0 0 1.268.558 1.748 1.748 0 0 0 1.216-.456l.863-1.116.761.406-1.268 1.369a2.705 2.705 0 0 1-1.724.558 2.287 2.287 0 0 1-1.826-.761 3.268 3.268 0 0 1-.659-2.13 4.423 4.423 0 0 1 .913-2.892 2.978 2.978 0 0 1 2.384-1.165 2.206 2.206 0 0 1 1.775.71 2.608 2.608 0 0 1 .659 1.926zm-1.166-2.231a1.5 1.5 0 0 0-1.166-.507 1.818 1.818 0 0 0-1.419.558 3.144 3.144 0 0 0-.812 1.42h3.7l.051-.406a1.681 1.681 0 0 0-.355-1.066zm2.181 5.578l1.319-6.694h3.752l-.151.761h-2.891l-1.166 5.933zm7.556-5.832l-2.333 5.021h2.989l-.456-5.021zm.862-.862l.761 5.884h.658l-.4 2.079h-.659l.1-1.268h-4.514l-.356 1.268h-.658l.355-2.079h.609l2.789-5.884zm2.434 4.919a1.794 1.794 0 0 1 .913-1.624 5.034 5.034 0 0 1 2.687-.609h.913l.052-.76a1.2 1.2 0 0 0-.355-.964 1.641 1.641 0 0 0-1.117-.355 2.289 2.289 0 0 0-1.47.761l-.559-.558a3.381 3.381 0 0 1 2.181-.964 2.308 2.308 0 0 1 1.623.558 1.844 1.844 0 0 1 .61 1.42l-.1 1.014-.455 2.231a7.728 7.728 0 0 0-.152 1.624h-.862l-.052-.761-.912.609-1.065.254a1.7 1.7 0 0 1-1.32-.558 1.809 1.809 0 0 1-.561-1.318zm3.7-1.521q-2.789 0-2.789 1.419a1.282 1.282 0 0 0 .3.863 1.175 1.175 0 0 0 .862.355 3.559 3.559 0 0 0 1.927-.862l.355-1.775zm-37.324-31.037q0 3.5-2.131 5.021-1.826 1.319-5.68 1.319h-2.029v5.68l.2 1.166q.152.3.963.507v.609h-6.593v-.609l.913-.507.2-1.166V8.012l-.2-1.116a1.179 1.179 0 0 0-.913-.456v-.664h8.317a9.413 9.413 0 0 1 4.97 1.014q1.984 1.324 1.983 4.722zm-9.534-4.311q-.3.2-.3.913v8.469h2.029a2.739 2.739 0 0 0 2.637-1.42 8.667 8.667 0 0 0 .659-3.854q0-4.31-3.6-4.311h-.507zm-8.773 2.941h-1.065l-.254-.862a3.475 3.475 0 0 0-1.268-1.927l-2.739-.355h-2.231l-.811.2-.2.761v6.187h2.637a7.015 7.015 0 0 0 3.6-.609v2.539a7.012 7.012 0 0 0-3.6-.609h-2.64v7.509a1.342 1.342 0 0 0 .609 1.268l2.536.3h.558l2.739-.406a3.564 3.564 0 0 0 1.116-2.231l.2-.761h1.268v4.666H87.025v-.609a1.669 1.669 0 0 0 .964-.507l.2-1.166V8.012l-.2-1.116a1.237 1.237 0 0 0-.964-.456v-.664h14v4.361zm-17.293 0h-1.066l-.25-.866a3.164 3.164 0 0 0-1.268-1.927l-2.688-.355h-2.792a1.883 1.883 0 0 0-1.217.3 1.923 1.923 0 0 0-.152.913v4.767h1.117q4.818 0 6.745.964 2.637 1.319 2.637 5.173 0 3.753-2.13 5.376-1.826 1.319-5.832 1.319h-8.065v-.609a1.731 1.731 0 0 0 1.014-.507l.2-1.166V8.012l-.2-1.116q-.2-.354-1.014-.456v-.664h14.96zM63.544 7.404a4.891 4.891 0 0 0-2.84-.659 4.548 4.548 0 0 0-4.31 2.231q-1.065 1.928-1.065 6.288t1.166 6.441a5.089 5.089 0 0 0 4.868 2.586 11.31 11.31 0 0 0 5.021-1.215l.609 1.268a12.732 12.732 0 0 1-6.8 1.775q-9.535 0-9.534-10.092 0-10.6 9.889-10.6a14.686 14.686 0 0 1 5.832.913v4.159h-1.267l-.352-1.223a3.652 3.652 0 0 0-1.217-1.872zm10.751 6.846v8.571a1.963 1.963 0 0 0 .3 1.319 2.067 2.067 0 0 0 1.471.406h.558q3.651 0 3.651-5.223a6.257 6.257 0 0 0-.862-3.753 4 4 0 0 0-3.449-1.319h-1.668zM33.217 2.586l1.775 1.623L12.577 17.09 1.724 10.8l1.014-2.029 9.839 5.629zM28.705 0l2.384 1.217-18.51 10.65-8.623-4.919 1.47-1.775 7.151 4.108zm7.861 5.883l1.319 1.775-25.308 14.555-12.222-7 .558-2.231 11.664 6.694z"/><path class="a" d="M40.216 12.425a19.576 19.576 0 0 1 1.116 6.593 20.457 20.457 0 0 1-1.116 6.694l-.507 1.37a21.088 21.088 0 0 1-4.409 6.593 20.388 20.388 0 0 1-6.6 4.36 20.269 20.269 0 0 1-8.063 1.674 20.05 20.05 0 0 1-8.06-1.674 21.315 21.315 0 0 1-6.542-4.36 20 20 0 0 1-4.412-6.593A20.823 20.823 0 0 1 0 19.018v-1.37l12.577 7.151L39.1 9.585z"/></svg>