<svg xmlns="http://www.w3.org/2000/svg" viewBox="0 0 30 30"><path d="M15 30A15 15 0 0 1 4.393 4.393a15 15 0 1 1 21.214 21.213A14.9 14.9 0 0 1 15 30zm0-28.636A13.636 13.636 0 1 0 28.636 15 13.652 13.652 0 0 0 15 1.364zM11.406 23.7a11.8 11.8 0 0 1-6.384-1.872.1.1 0 0 1-.04-.118.1.1 0 0 1 .1-.067h.012a8.276 8.276 0 0 0 .973.057 8.148 8.148 0 0 0 4.847-1.58 4.218 4.218 0 0 1-3.672-2.924.1.1 0 0 1 .02-.1.1.1 0 0 1 .075-.034h.02a4.105 4.105 0 0 0 .761.072 4.02 4.02 0 0 0 .646-.052 4.243 4.243 0 0 1-2.974-4.041v-.051a.1.1 0 0 1 .051-.085.1.1 0 0 1 .05-.013.1.1 0 0 1 .049.013 4.019 4.019 0 0 0 1.476.477A4.234 4.234 0 0 1 6.39 7.944a.1.1 0 0 1 .079-.05h.009a.1.1 0 0 1 .077.037 11.68 11.68 0 0 0 8.307 4.27 4.233 4.233 0 0 1 7.2-3.768 8.158 8.158 0 0 0 2.538-.978.1.1 0 0 1 .051-.014.1.1 0 0 1 .1.132 4.2 4.2 0 0 1-1.487 2.089 8.155 8.155 0 0 0 1.906-.578.1.1 0 0 1 .04-.009.1.1 0 0 1 .078.036.1.1 0 0 1 .007.121 8.436 8.436 0 0 1-2.041 2.131 11 11 0 0 1 .01.484A11.736 11.736 0 0 1 11.406 23.7z" fill="#fff"/></svg>