<svg xmlns="http://www.w3.org/2000/svg" viewBox="0 0 30 30"><path d="M15 30A15 15 0 0 1 4.393 4.393a15 15 0 0 1 21.214 21.214A14.9 14.9 0 0 1 15 30zm0-28.637A13.636 13.636 0 1 0 28.636 15 13.652 13.652 0 0 0 15 1.363zm.263 19.065a6.916 6.916 0 0 1-3.525-.872 8.738 8.738 0 0 1-2.69-2.518 33.375 33.375 0 0 1-3.541-6.312.611.611 0 0 1-.044-.571A.609.609 0 0 1 6 9.952c.426-.008.861-.012 1.329-.012.447 0 .907 0 1.406.012a.8.8 0 0 1 .76.568 16.868 16.868 0 0 0 1.853 3.435 2.891 2.891 0 0 0 .7.77.607.607 0 0 0 .333.126c.164 0 .3-.114.39-.338a2.335 2.335 0 0 0 .161-.722 10.651 10.651 0 0 0-.044-2.524 1.048 1.048 0 0 0-.9-.964c-.117-.022-.179-.054-.195-.1s.035-.13.1-.2a1.008 1.008 0 0 1 .858-.426H15.9c.5.1.61.323.677.822v3.508c-.005.186.094.768.446.9a.405.405 0 0 0 .127.021.705.705 0 0 0 .47-.3l.033-.035a10.977 10.977 0 0 0 1.78-2.733c.2-.41.376-.828.576-1.329a.673.673 0 0 1 .7-.489h3.057a1.606 1.606 0 0 1 .269.016.677.677 0 0 1 .5.251.673.673 0 0 1-.005.556 7.338 7.338 0 0 1-1.157 2.025l-.051.07c-.237.328-.486.655-.726.972a50.07 50.07 0 0 0-.826 1.112c-.458.639-.426.968.148 1.529.171.167.346.333.517.495a16.638 16.638 0 0 1 1.362 1.4 5.4 5.4 0 0 1 .673.969.852.852 0 0 1 .015.8.543.543 0 0 1-.44.285H21.25a2.304 2.304 0 0 1-.184.008 2.175 2.175 0 0 1-1.6-.732c-.257-.261-.505-.539-.746-.807-.122-.136-.247-.276-.372-.412a2.614 2.614 0 0 0-.5-.447.766.766 0 0 0-.412-.142.6.6 0 0 0-.518.368 2.956 2.956 0 0 0-.295 1.3c-.029.645-.221.83-.89.862-.158.004-.317.008-.471.008z" fill="#fff"/></svg>