<svg version="1.1" id="Layer_1" xmlns="http://www.w3.org/2000/svg" x="0" y="0" viewBox="0 0 624 348.5" xml:space="preserve"><style>.st0{fill:#231f20}.st1{fill:#d1d3d4}.st3{fill:#f1f2f2}.st4{fill:#bcbec0}.st5{fill:#1a68ff}.st6{fill:#e61616}.st7{fill:#939598}.st8{fill:#fff}.st9{fill:#a7a9ac}.st13{fill:#fff;stroke:#231f20;stroke-width:3;stroke-linecap:round;stroke-linejoin:round;stroke-miterlimit:10}</style><path class="st0" d="M115.9 283.5l-.1-3.5c2.5-.1 5.1-.3 7.6-.7l.5 3.5c-2.6.3-5.3.6-8 .7zm-7.9-.1c-2.7-.2-5.3-.5-7.9-.9l.6-3.5c2.5.4 5 .7 7.5.9l-.2 3.5zm23.7-2.1l-.9-3.5c2.5-.6 4.9-1.3 7.3-2.2l1.2 3.3c-2.5 1-5 1.7-7.6 2.4zm-39.4-.6c-2.6-.7-5.1-1.5-7.5-2.5l1.3-3.3c2.4.9 4.8 1.7 7.2 2.4l-1 3.4zm54.3-4.8l-1.5-3.2c2.3-1.1 4.5-2.3 6.7-3.6l1.9 3c-2.3 1.4-4.7 2.7-7.1 3.8zm-69.1-1c-2.4-1.2-4.7-2.5-6.9-4l1.9-3c2.1 1.4 4.3 2.7 6.6 3.8l-1.6 3.2zm82.7-7.3l-2.2-2.8c2-1.5 4-3.2 5.8-4.9l2.4 2.6c-1.9 1.8-3.9 3.5-6 5.1zm-96-1.4c-2.1-1.7-4-3.4-5.9-5.3l2.5-2.5c1.8 1.8 3.7 3.5 5.7 5.1l-2.3 2.7zm107.6-9.5l-2.7-2.3c1.7-1.9 3.2-3.9 4.7-6l2.9 2c-1.5 2.2-3.2 4.3-4.9 6.3zm-118.9-1.6c-1.7-2-3.3-4.2-4.7-6.4l3-2c1.4 2.1 2.9 4.1 4.5 6.1l-2.8 2.3zm128-11.4l-3.1-1.7c1.2-2.2 2.4-4.5 3.4-6.8l3.3 1.4c-1.1 2.5-2.3 4.9-3.6 7.1zm-136.8-1.9c-1.2-2.3-2.4-4.8-3.3-7.2l3.3-1.3c.9 2.3 2 4.6 3.2 6.9l-3.2 1.6zm143.2-12.6l-3.4-1.1c.8-2.4 1.4-4.9 1.9-7.4l3.5.7c-.6 2.7-1.2 5.3-2 7.8zm-149-2.1c-.7-2.5-1.3-5.1-1.8-7.8l3.5-.6c.4 2.5 1 5 1.7 7.4l-3.4 1zm152.2-13.5l-3.5-.4c.3-2.5.4-5 .4-7.6h3.5c0 2.8-.2 5.4-.4 8zm-155-2.1c-.1-1.9-.2-3.9-.2-5.8v-2.2l3.6.1v2.1c0 1.8.1 3.7.2 5.5l-3.6.3zm151.8-9.3c-.1-2.5-.4-5.1-.7-7.6l3.5-.5c.4 2.6.6 5.3.8 7.9l-3.6.2zm-147.8-6.1l-3.5-.5c.3-2.6.8-5.2 1.4-7.8l3.5.8c-.7 2.5-1.2 5-1.4 7.5zm145.6-8.9c-.6-2.5-1.4-4.9-2.3-7.2l3.3-1.2c.9 2.5 1.7 5 2.4 7.6l-3.4.8zm-142.2-5.9l-3.4-1.2c.9-2.5 1.9-5 3-7.4l3.2 1.5c-1 2.4-2 4.7-2.8 7.1zm136.9-8.3c-1.1-2.3-2.3-4.5-3.7-6.6l3-1.9c1.4 2.2 2.7 4.6 3.9 7l-3.2 1.5zm-130.5-5.4l-3-1.9c1.4-2.3 2.9-4.5 4.4-6.6l2.9 2.1c-1.6 2.1-3 4.2-4.3 6.4zm122.4-7.4c-1.5-2-3.2-3.9-5-5.8l2.6-2.5c1.8 1.9 3.6 3.9 5.2 6l-2.8 2.3zm-113.3-4.8l-2.6-2.4c1.8-1.9 3.7-3.8 5.7-5.6l2.4 2.7c-2 1.7-3.8 3.5-5.5 5.3zm102.8-6.2c-1.9-1.6-3.9-3.2-6-4.6l2-2.9c2.2 1.5 4.3 3.1 6.3 4.9l-2.3 2.6zm-91.5-3.8l-2.1-2.9c2.1-1.5 4.4-3 6.7-4.3l1.8 3.1c-2.2 1.2-4.3 2.6-6.4 4.1zm79-4.8c-2.2-1.2-4.5-2.3-6.8-3.3l1.4-3.3c2.4 1 4.8 2.2 7.2 3.5l-1.8 3.1zm-65.8-2.8l-1.5-3.3c2.4-1.1 4.9-2 7.5-2.9L90 135c-2.4.9-4.8 1.8-7.1 2.8zm52-3.1c-2.4-.7-4.9-1.4-7.4-1.8l.7-3.5c2.6.5 5.2 1.2 7.7 1.9l-1 3.4zm-37.6-1.5l-.8-3.5c2.6-.6 5.2-1 7.9-1.3l.4 3.5c-2.5.3-5 .7-7.5 1.3zm22.6-1.5c-2.3-.2-4.6-.3-6.9-.3h-.7v-3.6h.7c2.4 0 4.8.1 7.2.3l-.3 3.6z"/><path class="st1" d="M250.9 293.4h63.3v42.2h-63.3v-42.2z"/><path d="M428.7 112.3c0-8.8-6.5-16.7-15.7-16.7H151.3c-9.2 0-17.1 7.9-17.1 16.7v131.1h294.4V112.3z" fill="#e6e7e8"/><path class="st3" d="M134.3 243.4v35c0 8.8 7.9 15 17.1 15H413c9.2 0 15.7-6.2 15.7-15v-35H134.3z"/><path class="st0" d="M413 295.1H151.3c-10.6 0-18.9-7.3-18.9-16.7v-35c0-1 .8-1.8 1.8-1.8h294.4c1 0 1.8.8 1.8 1.8v35c.1 9.7-7.3 16.7-17.4 16.7zm-277-50v33.3c0 7.4 6.7 13.2 15.3 13.2H413c8.2 0 13.9-5.4 13.9-13.2v-33.3H136z"/><path class="st4" d="M292.5 268.5c0 5.7-4.6 10.3-10.3 10.3-5.7 0-10.3-4.6-10.3-10.3 0-5.7 4.6-10.3 10.3-10.3s10.3 4.6 10.3 10.3z"/><path class="st3" d="M238.7 335.6h85.6v11.1h-85.6v-11.1z"/><path class="st5" d="M153.2 113.4H411v130H153.2v-130z"/><path class="st0" d="M410.9 245.1H153.2c-1 0-1.8-.8-1.8-1.8v-130c0-1 .8-1.8 1.8-1.8H411c1 0 1.8.8 1.8 1.8v130c-.1 1-.9 1.8-1.9 1.8zm-256-3.5h254.2V115.1H154.9v126.5zM326 335.6c0-1-.8-1.8-1.8-1.8h-85.6c-1 0-1.8.8-1.8 1.8v9.3h-26v3.5h135.6v-3.5H326v-9.3zm-85.5 1.8h82v7.5h-82v-7.5zM357.6 344.9h16.7v3.5h-16.7z"/><path class="st5" d="M482.5 112.6c0 21.7 17.6 39.3 39.4 39.3 21.7 0 39.3-17.6 39.3-39.4 0-21.7-17.6-39.4-39.4-39.3-21.7.1-39.3 17.7-39.3 39.4z"/><path class="st0" d="M502.4 57.8l-1.1-3.4c1.3-.4 2.5-.8 3.8-1.2l.9 3.4c-1.1.4-2.4.8-3.6 1.2zm50.3 108.7l-1.8-3c2.2-1.3 4.3-2.7 6.3-4.3l2.2 2.8c-2.2 1.6-4.4 3.1-6.7 4.5zm12.6-10l-2.5-2.5c1.8-1.8 3.5-3.7 5-5.8l2.8 2.1c-1.5 2.3-3.3 4.3-5.3 6.2zm9.8-12.8l-3.1-1.8c1.3-2.2 2.4-4.5 3.3-6.9l3.3 1.3c-1 2.6-2.2 5-3.5 7.4zm6-15l-3.5-.9c.6-2.5 1.1-5 1.4-7.5l3.5.4c-.2 2.8-.7 5.4-1.4 8zm-1.5-16c0-2.5-.2-5.1-.5-7.6l3.5-.5c.4 2.7.6 5.4.6 8l-3.6.1zm-2.1-15c-.7-2.4-1.5-4.8-2.5-7.2l3.3-1.4c1 2.5 1.9 5 2.6 7.6l-3.4 1zm-5.9-14c-1.3-2.2-2.7-4.3-4.3-6.3l2.8-2.2c1.7 2.1 3.2 4.4 4.5 6.7l-3 1.8zm-9.3-12c-1.8-1.8-3.7-3.5-5.7-5l2.2-2.8c2.1 1.6 4.2 3.4 6.1 5.3l-2.6 2.5zm-12.1-9.2c-2.2-1.3-4.5-2.4-6.8-3.4l1.3-3.3c2.5 1 4.9 2.2 7.3 3.6l-1.8 3.1zm-14-5.8c-2.5-.6-5-1.1-7.5-1.5l.5-3.5c2.7.3 5.3.9 7.9 1.6l-.9 3.4zm-22.6-1.4l-.5-3.5c2.7-.4 5.4-.5 8.1-.5v3.5c-2.6-.1-5.1.1-7.6.5zm28 116.3l-1.2-3.4c1.2-.4 2.4-.9 3.5-1.4l1.4 3.3c-1.2.6-2.4 1.1-3.7 1.5zM527.6 174c-.4 0-.8-.1-1.1-.4l-16-12.3c-23-5.1-39.1-25.2-39.1-49.2-.4-27.7 21.8-50.5 49.5-50.9 27.7-.4 50.5 21.8 50.9 49.5v1.4c.2 24.8-17.9 45.9-42.4 49.7v10.4c0 .7-.4 1.3-1 1.6-.3.2-.5.2-.8.2zm-5.8-108.5c-25.8 0-46.8 21-46.8 46.8 0 22.4 15.1 41.2 36.7 45.8.3.1.5.2.7.3l13.5 10.3v-8.3c0-.9.7-1.6 1.5-1.8 25.6-3.2 43.8-26.6 40.5-52.3-2.9-23.2-22.6-40.7-46.1-40.8z"/><path class="st0" d="M526.5 100.5h-8.9c-1 0-1.8.8-1.8 1.8v35.5c0 1 .8 1.8 1.8 1.8h8.9c1 0 1.8-.8 1.8-1.8v-35.5c0-1-.8-1.8-1.8-1.8zm-1.8 35.5h-5.3v-32h5.3v32zM522 81.9c-4.3 0-7.8 3.5-7.8 7.8s3.5 7.8 7.8 7.8 7.8-3.5 7.8-7.8-3.5-7.8-7.8-7.8zm4.2 7.9c0 2.3-1.9 4.2-4.3 4.2-2.3 0-4.2-1.9-4.2-4.3 0-2.3 1.9-4.2 4.3-4.2s4.2 1.9 4.2 4.3z"/><path class="st6" d="M453.8 251.1l10.1-8.2 41.8-34.1h-102L444 243l9.8 8.1z"/><path class="st3" d="M404.3 208.7v66.1l40.3-31.9-40.3-34.2z"/><path class="st0" d="M404.3 276.5c-.3 0-.5-.1-.8-.2-.6-.3-1-.9-1-1.6v-66.1c0-1 .8-1.8 1.8-1.8.4 0 .8.1 1.2.4l40.3 34.2c.4.3.6.9.6 1.4 0 .5-.3 1-.7 1.4l-40.3 31.9c-.3.3-.7.4-1.1.4zm1.7-64v58.6l35.7-28.3-35.7-30.3z"/><path class="st3" d="M463.6 242.8l41.8 31.9v-66.1l-41.8 34.2z"/><path class="st0" d="M505.4 276.5c-.4 0-.8-.1-1.1-.4l-41.8-31.9c-.4-.3-.7-.8-.7-1.4 0-.5.2-1.1.7-1.4l41.8-34.2c.5-.4 1.3-.5 1.9-.2.6.3 1 .9 1 1.6v66.1c0 .7-.4 1.3-1 1.6-.3.1-.6.2-.8.2zm-38.9-33.7l37.1 28.3v-58.7l-37.1 30.4z"/><path class="st3" d="M453.8 251.1l-9.8-8.4-40.3 31.8h102l-41.8-31.8-10.1 8.4z"/><path class="st0" d="M505.7 276.3h-102c-1 0-1.8-.8-1.8-1.8 0-.5.3-1.1.7-1.4l40.3-31.8c.7-.5 1.6-.5 2.3 0l8.6 7.5 9-7.5c.7-.5 1.6-.5 2.2 0l41.8 31.8c.8.6.9 1.7.3 2.5-.4.4-.9.6-1.4.7zm-96.8-3.6h91.6L464 245l-9.1 7.5c-.7.6-1.6.6-2.3 0l-8.7-7.5-35 27.7zM228.7 166h8.9v3.6h-8.9V166z"/><path class="st3" d="M198.1 102.3h.6v-6.9c0-5.1 4.1-9.8 9.2-9.8h46.2c5.1 0 9.1 4.6 9.1 9.8v14.3c-.1 4.1-2.8 7.7-6.7 9v36.1c-.1 7.2-5.9 13-13.1 13.1h-5.8V180h-21.1v-12.2H211c-7.1 0-13.4-5.9-13.4-13.1v-24.4c-2.5-.2-4.4-2.2-4.4-4.7v-18.4c-.1-2.7 2.1-4.9 4.9-4.9z"/><path class="st4" d="M187.6 241.1v-50c.2-6 5.1-10.9 11.1-11.1h58.9c6 .2 10.9 5 11 11.1v50"/><path class="st3" d="M227.2 209.7l10.4-29.6h-20.9l10.5 29.6z"/><path class="st0" d="M227.2 211.5c-.8 0-1.4-.5-1.7-1.2L215 180.6c-.2-.5-.1-1.1.2-1.6.3-.5.9-.8 1.5-.8h20.9c1 0 1.8.8 1.8 1.8 0 .2 0 .4-.1.6l-10.4 29.6c-.3.8-1 1.3-1.7 1.3zm-8-29.7l8 22.5 7.9-22.5h-15.9z"/><path class="st0" d="M254.2 83.8H208c-6 0-11 5.3-11 11.5v5.2c-3.2.6-5.5 3.4-5.6 6.7v18.4c0 2.8 1.8 5.2 4.4 6.2v22.9c.2 8.2 6.9 14.8 15.1 14.9h3.8V180c0 1 .8 1.8 1.8 1.8H237.7c1 0 1.8-.8 1.8-1.8v-10.5h4c8.2-.1 14.8-6.7 14.9-14.8v-34.9c4-1.9 6.6-5.8 6.7-10.2V95.3c-.1-6.2-5.1-11.5-10.9-11.5zm7.2 25.8c-.1 3.3-2.3 6.2-5.4 7.3-.2 0-.3.1-.4.2H211v3.5h43.8v34c-.1 6.2-5.1 11.2-11.3 11.3h-5.8c-1 0-1.8.8-1.8 1.8v10.5h-17.6v-10.5c0-1-.8-1.8-1.8-1.8H211c-6.2 0-11.6-5.3-11.6-11.3v-24.3c0-1-.8-1.8-1.8-1.8-1.5-.1-2.7-1.4-2.7-2.9v-18.4c0-1.7 1.4-3.2 3.1-3.2h.6c1 0 1.8-.8 1.8-1.8v-6.9c0-4.4 3.4-8 7.4-8H254c3.9 0 7.3 3.7 7.3 8v14.3zM225.4 229.4h3.3v3.6h-3.3zM225.4 218.3h3.3v3.5h-3.3z"/><path class="st0" d="M239.9 147.4h-4.4v-3.6h2.7v-10.4h3.5v12.2c-.1 1-.9 1.8-1.8 1.8zM203.6 211.1h3.6v30h-3.6v-30zm46.7 0h3.6v30h-3.6v-30z"/><path class="st7" d="M236.5 154.5h8.9c1.2 0 2.2 1 2.2 2.2v1.1c0 1.2-1 2.2-2.2 2.2h-8.9c-1.2 0-2.2-1-2.2-2.2v-1.1c0-1.2 1-2.2 2.2-2.2zM204.4 135.3c0 2.4 1.9 4.3 4.3 4.3s4.3-1.9 4.3-4.3-1.9-4.3-4.3-4.3-4.3 1.9-4.3 4.3z"/><path class="st0" d="M245.4 152.7h-8.9c-2 0-3.6 1.4-3.9 3.3h-19.7c-.5 0-.9-.2-1.3-.5-1-1-1.1-3.3-1.1-4.1v-10.3c2.4-.8 4.2-3.1 4.2-5.8 0-3.4-2.7-6.1-6.1-6.1-3.4 0-6.1 2.7-6.1 6.1 0 2.8 1.9 5.1 4.4 5.8v10.2c-.1.4-.2 4.4 2 6.7 1 1.1 2.4 1.6 3.9 1.6h20.1c.7 1.3 2 2.2 3.6 2.2h8.9c2.2 0 4-1.8 4-4v-1.1c0-2.2-1.8-4-4-4zm-39.3-17.4c0-1.4 1.2-2.5 2.6-2.5 1.4 0 2.5 1.1 2.5 2.5s-1.1 2.5-2.5 2.5-2.6-1.1-2.6-2.5zm39.3 23h-8.9c-.2 0-.4-.2-.4-.5v-1.1c0-.2.2-.4.4-.4h8.9c.2 0 .4.2.4.4v1.1c0 .3-.2.5-.4.5z"/><path class="st3" d="M378.7 82.3h6.7M378.7 202.3h6.7"/><path class="st0" d="M378.7 200.5h6.7v3.6h-6.7v-3.6z"/><path class="st3" d="M298.7 87.8h14.5M298.7 97.8h66.7M298.7 110h27.8M298.7 121.2h66.7M335.4 110h6.7M405.4 171.1h27.8M440.9 171.1h6.7M472 195.6h-26.7M472 183.4h-66.7M435.4 195.6h-5.6M298.7 163.4h18.9M325.4 163.4h38.9M298.7 174.5h47.8M298.7 216.7h18.9M325.4 216.7h38.9M298.7 227.8h47.8"/><g><path class="st8" d="M385.4 70.6c-.7-.3-1.5-.4-2.3-.5h-88.9c-4.7-.1-8.6 3.6-8.8 8.3v165h93.3v-165c0-3.7 2.9-6.9 6.7-7.8z"/><path class="st0" d="M378.7 245.1h-93.3c-1 0-1.8-.8-1.8-1.8v-165c0-5.5 4.8-10.1 10.6-10.1h88.9c.7 0 1.4.2 2.1.4l.6.2c1 .2 1.5 1.2 1.3 2.1-.2.6-.7 1.2-1.3 1.3-3 .7-5.3 3.4-5.3 6.1v165c0 1.1-.8 1.8-1.8 1.8zm-91.5-3.5H377V78.4c0-2.5 1-4.8 2.8-6.6h-85.5c-3.7-.1-6.8 2.8-7 6.6l-.1 163.2z"/><path class="st1" d="M385.4 70.8c-3.8.9-6.7 4-6.7 7.6v127.8c0 3.6 2.9 6.6 6.7 7.6 3.8-.9 6.7-3.9 6.7-7.6V78.4c-.1-3.7-2.9-6.7-6.7-7.6z"/><path class="st0" d="M385.4 215.5h-.4c-4.7-1.1-8-5-8-9.3V78.4c0-4.3 3.3-8.1 8-9.3.3-.1.6-.1.8 0 4.7 1.1 8 5 8 9.3v127.8c0 4.3-3.3 8.1-8 9.3h-.4zm0-142.8c-2.9.9-4.9 3.2-4.9 5.7v127.8c0 2.6 2 4.9 4.9 5.7 2.9-.9 4.9-3.2 4.9-5.7V78.4c0-2.6-2-4.9-4.9-5.7z"/><path class="st0" d="M378.7 80.5h6.7V84h-6.7v-3.5zM298.7 86h14.4v3.6h-14.4V86zM298.7 96h66.7v3.6h-66.7V96zM298.7 108.3h27.8v3.6h-27.8v-3.6zM298.7 119.4h66.7v3.6h-66.7v-3.6zM335.4 108.3h6.7v3.6h-6.7v-3.6z"/><path class="st1" d="M298.7 133.4h66.7v21.1h-66.7v-21.1z"/><path class="st0" d="M298.7 161.6h18.9v3.6h-18.9v-3.6zM325.4 161.6h38.9v3.6h-38.9v-3.6zM298.7 172.7h47.8v3.6h-47.8v-3.6z"/><path class="st1" d="M298.7 186.7h66.7v21.1h-66.7v-21.1z"/><path class="st0" d="M298.7 214.9h18.9v3.6h-18.9v-3.6zM325.4 214.9h38.9v3.6h-38.9v-3.6zM298.7 226h47.8v3.6h-47.8V226z"/></g><path class="st3" d="M405.4 98.9h18.9M432 98.9h38.9M405.4 110h47.8"/><g><path class="st8" d="M385.5 214c.8.3 1.6.4 2.4.5h88.9c4.7.1 8.5-3.6 8.6-8.3V57.8H392v148.4c-.1 3.8-2.8 7-6.5 7.8z"/><path class="st0" d="M476.8 216.3h-88.9c-.8 0-1.5-.2-2.3-.4l-.5-.1c-1-.2-1.5-1.2-1.3-2.1.2-.7.7-1.2 1.3-1.3 2.9-.6 5-3.1 5.2-6V57.8c0-1 .8-1.8 1.8-1.8h93.3c1 0 1.8.8 1.8 1.8v148.4c-.1 5.6-4.8 10.1-10.4 10.1zm-85.7-3.6h85.7c3.7.1 6.7-2.8 6.8-6.5V59.6h-89.7v146.6c-.1 2.4-1.1 4.8-2.8 6.5z"/><path class="st0" d="M405.4 169.4h27.8v3.6h-27.8v-3.6zM440.9 169.4h6.7v3.6h-6.7v-3.6zM445.4 193.8h26.7v3.6h-26.7v-3.6zM405.4 181.6H472v3.6h-66.7v-3.6zM429.8 193.8h5.6v3.6h-5.6v-3.6z"/><path class="st1" d="M405.4 68.9H472V90h-66.7V68.9z"/><path class="st0" d="M405.4 97.2h18.9v3.6h-18.9v-3.6zM432 97.2h38.9v3.6H432v-3.6zM405.4 108.3h47.8v3.6h-47.8v-3.6z"/><path class="st1" d="M405.4 121.2H472v36.7h-66.7v-36.7z"/></g><g><path class="st9" d="M89.8 67.8h86.7v55.6h-42.2V142l-26.5-18.7h-18V67.8z"/><path class="st0" d="M96.5 82.7h34.4v3.6H96.5v-3.6zm47.8 0h25.6v3.6h-25.6v-3.6zM96.5 94.9h73.3v3.6H96.5v-3.6zm0 11.1h73.3v3.6H96.5V106z"/></g><path d="M568.2 302.7l3.1 3.1c4.7 4.7 3.4 8.7 1.3 10.8l-9.3 9.3c-2.1 2.1-6 3.2-10.7-1.4l-11.4-11.4s1.7-15.2 26.6-40.1 39.1-25.6 39.1-25.6l11.4 11.4c2.4 2.4 6.2 6 2 10.1l-9.3 9.3c-4.2 4.2-8.9 1.7-11.3-.8l-3.1-3.1s-4.1-3.2-17.3 10-11.1 18.4-11.1 18.4z" fill="#e6e7e8" stroke="#231f20" stroke-width="3" stroke-miterlimit="10"/><path class="st0" d="M77.6 109.6h-7.7V106h7.8l-.1 3.6zm-15.6 0h-7.8V106H62v3.6zm-15.5 0h-7.8V106h7.8v3.6z"/><g><path class="st0" d="M78.9 298.7l-2.3-2.7-10.3 8.9c-.4.3-.6.8-.6 1.3s.2 1 .6 1.3l10.3 9.1 2.4-2.7-5.1-4.5h45.5V306h-49l8.5-7.3zM127.1 306h14.4v3.5h-14.4z"/></g><path d="M162.2 162.8c-3.2-3.5-7.8-4.4-10.3-2.2s-5.9 3.2-7.5 2.1-5.2-6.4-4.2-9.6-1.8-7.1-6.2-8.5-9 0-10.1 3.3-3.5 5.8-5.5 5.6-7.7-2.9-8.4-6.3-5.1-5.3-9.7-4.3-7.8 4.6-7.1 7.9-.1 6.7-1.9 7.6-8.1 1.3-10.4-1.2-7-2-10.5 1.1-4.5 7.8-2.2 10.4 3.3 5.9 2.1 7.5-6.4 5.2-9.6 4.2-7.1 1.8-8.5 6.2 0 9 3.3 10 5.8 3.5 5.6 5.5-2.9 7.7-6.3 8.4-5.3 5.1-4.3 9.7 4.5 7.8 7.9 7 6.7.1 7.6 1.9 1.3 8.1-1.2 10.4-2 7 1.1 10.5 7.8 4.5 10.3 2.2 5.9-3.2 7.5-2.1 5.3 6.4 4.2 9.6 1.8 7.1 6.2 8.5 9 0 10-3.3 3.5-5.8 5.5-5.6 7.7 2.9 8.4 6.3 5.1 5.3 9.7 4.3 7.8-4.5 7-7.9.1-6.8 1.9-7.6 8.1-1.4 10.4 1.2c2.3 2.6 7 2 10.5-1.1s4.4-7.8 2.2-10.4-1.2-8.8-.2-10.5 4.4-2.2 7.7-1.2 7.1-1.8 8.5-6.2-.1-9-3.3-10.1-5.8-3.5-5.6-5.5 2.9-7.7 6.2-8.4 5.3-5.1 4.3-9.7-4.5-7.8-7.9-7.1-6.8-.1-7.6-1.9-1.3-8.1 1.2-10.4 2.4-6.8-.8-10.3h0zm-12.6 55c-6.3 19.6-27.3 30.4-46.9 24.1S72.3 214.6 78.6 195c6.3-19.6 27.3-30.4 46.9-24.1 19.6 6.3 30.4 27.3 24.1 46.9 0 0 0 0 0 0z" fill="#e61616" stroke="#231f20" stroke-width="3" stroke-miterlimit="10"/><path d="M48.4 67c-3.3 3.3-3.3 8.7 0 12s8.7 3.3 12-.1h0L101.9 37v0c9.4 3 19.5-2.1 22.5-11.5 1.1-3.3 1.1-6.9.2-10.3l-10.1 10.2-9.9-2.6-2.7-9.9L112 2.7C102.5.1 92.7 5.8 90.1 15.3c-.8 3.1-.8 6.4.1 9.6L48.4 67zm2.1 7.3c0-1.8 1.4-3.2 3.2-3.2 1.8 0 3.2 1.4 3.2 3.2 0 1.8-1.4 3.2-3.2 3.2-1.8.1-3.2-1.4-3.2-3.2 0 0 0 0 0 0z" fill="#1a68ff" stroke="#231f20" stroke-width="3" stroke-miterlimit="10"/><g><path class="st4" d="M30.5 231.1c6.2 0 12.2 1.8 17.3 5.3 3.4-3.9 8-6.5 13.1-7.4-.2-1.5-.3-3-.3-4.5 0-16.8 13.6-30.5 30.4-30.6s30.6 13.5 30.6 30.4c0 2.5-.3 5-.9 7.4 16.9-3.5 33.4 7.4 36.9 24.2.4 1.9.6 3.8.6 5.8H0c.1-16.8 13.7-30.4 30.5-30.6z"/><path class="st0" d="M47.8 241.5c-.2-1.5-.7-2.9-1.5-4.3l3.1-1.8c1.1 1.8 1.8 3.8 2 5.9l-3.6.2zM41.4 260h81.1v3.5H41.4V260zM.3 260H27v3.5H.3V260z"/></g><g><path class="st4" d="M414.3 197.8h-71.1v48.9h35.5v16.1l19.1-16.1h16.5v-48.9z"/><path class="st0" d="M378.7 212.7h24.4v3.6h-24.4v-3.6zm-25.5 0H371v3.6h-17.8v-3.6zm0 15.6h50v3.6h-50v-3.6z"/></g><g><path class="st9" d="M463.2 181.1h63.3v43.3h-31.1v15l-17.5-15h-14.8v-43.3z"/><path class="st0" d="M472 194.9h23.3v3.6H472v-3.6zm30 0h15.6v3.6H502v-3.6zm-30 14.5h45.6v3.6H472v-3.6z"/></g><g><path class="st6" d="M286 91.3c-16 0-29.1-13.1-29.1-29.1S270 33.1 286 33.1s29.1 13.1 29.1 29.1-13 29.1-29.1 29.1z"/><path class="st0" d="M286 34.6c15.2 0 27.6 12.4 27.6 27.6S301.3 89.8 286 89.8s-27.6-12.4-27.6-27.6 12.4-27.6 27.6-27.6m0-3c-16.9 0-30.6 13.7-30.6 30.6s13.7 30.6 30.6 30.6 30.6-13.7 30.6-30.6-13.7-30.6-30.6-30.6z"/><g><path class="st13" d="M291.2 71.4c3-2 5.1-5.4 5.1-8V51.2s.2-10.2-10-10.2-10 10.2-10 10.2v12.2c0 2.6 2.3 6 5.2 8h.2c-.3 1.9-1.6 3.5-3.3 4.3-2.6 1.1-8 3.7-11.4 7 11.8 11.8 29.1 9.8 38.6-.5-3.4-3.1-8.5-5.5-10.9-6.6-1.9-.7-3.1-2.3-3.5-4.2z"/></g></g><g><path class="st5" d="M433.2 325.1c-16 0-29.1-13.1-29.1-29.1s13.1-29.1 29.1-29.1 29.1 13.1 29.1 29.1-13.1 29.1-29.1 29.1z"/><path class="st0" d="M433.2 268.4c15.2 0 27.6 12.4 27.6 27.6s-12.4 27.6-27.6 27.6-27.6-12.4-27.6-27.6 12.3-27.6 27.6-27.6m0-3c-16.9 0-30.6 13.7-30.6 30.6s13.7 30.6 30.6 30.6 30.6-13.7 30.6-30.6-13.7-30.6-30.6-30.6z"/><g><path class="st13" d="M438.4 305.2c3-2 5.1-5.4 5.1-8V285s.2-10.2-10-10.2-10 10.2-10 10.2v12.2c0 2.6 2.3 6 5.2 8h.2c-.3 1.9-1.6 3.5-3.3 4.3-2.6 1.1-8 3.7-11.4 7 11.8 11.8 29.1 9.8 38.6-.5-3.4-3.1-8.5-5.5-10.9-6.6-1.9-.7-3.2-2.3-3.5-4.2z"/></g></g><g><path class="st0" d="M548.7 268.3h7.8v3.5h-7.8zM533.2 268.3h7.8v3.5h-7.8zM517.6 268.3h7.8v3.5h-7.8z"/></g><g><path class="st0" d="M546.5 208.3h16.7v3.6h-16.7v-3.6zM622.2 208.1L613 200l-2.4 2.7 6.3 5.5h-47.1v3.5h45.8l-4.9 4.2 2.3 2.7 9.2-7.9c.4-.3.6-.8.6-1.3 0-.4-.2-.9-.6-1.3z"/></g><g><path class="st0" d="M595.4 188.3h-39.6l6.2-5.4-2.3-2.7-9.2 7.9c-.1 0-.1.1-.2.2-.7.7-.6 1.9.2 2.5l9.2 8.1 2.3-2.7-5-4.4h38.3v-3.5zM603.2 188.3h12.2v3.6h-12.2z"/></g><g><path class="st0" d="M146.9 327.6l-10.3-9.1-2.4 2.7 8.1 7.2H86.1v3.5h53.6l-5.4 4.7 2.3 2.7 10.3-8.9c.4-.3.6-.8.6-1.3 0-.7-.2-1.2-.6-1.5zM58.3 328.3h20v3.5h-20z"/></g><g><path class="st4" d="M199.9 318c-16 0-29.1-13.1-29.1-29.1s13.1-29.1 29.1-29.1 29.1 13.1 29.1 29.1-13.1 29.1-29.1 29.1z"/><path class="st0" d="M199.9 261.3c15.2 0 27.6 12.4 27.6 27.6 0 15.2-12.4 27.6-27.6 27.6s-27.6-12.4-27.6-27.6c0-15.2 12.4-27.6 27.6-27.6m0-3c-16.9 0-30.6 13.7-30.6 30.6s13.7 30.6 30.6 30.6 30.6-13.7 30.6-30.6-13.7-30.6-30.6-30.6z"/><g><path class="st13" d="M205.1 298.1c3-2 5.1-5.4 5.1-8v-12.2s.2-10.2-10-10.2-10 10.2-10 10.2v12.2c0 2.6 2.3 6 5.2 8h.2c-.3 1.9-1.6 3.5-3.3 4.3-2.6 1.1-8 3.7-11.4 7 11.8 11.8 29.1 9.8 38.6-.5-3.4-3.1-8.5-5.5-10.9-6.6-1.9-.7-3.2-2.3-3.5-4.2z"/></g></g></svg>