<svg xmlns="http://www.w3.org/2000/svg" xmlns:xlink="http://www.w3.org/1999/xlink" viewBox="0 0 702.2 257.997"><defs><style>.a{clip-path:url(#a);}.b,.h{fill:#814d23;}.c{fill:#f0774a;}.d{fill:#594a42;}.e{fill:#ed916c;}.f{fill:#ff7016;}.g{fill:#93330b;}.h,.i,.j{fill-rule:evenodd;}.i{fill:#f3ebd6;}.j{fill:#ffb339;}.k{fill:#cfbd9f;}.l{fill:#d0984e;}.m{fill:#b2ab52;}.n{fill:#fb402b;}.o{opacity:0.4;}.p{fill:#fff;}.q{fill:#fea92a;}</style><clipPath id="a"><rect width="702.2" height="257.997"/></clipPath></defs><g transform="translate(-7.5 -37.1)"><g class="a" transform="translate(7.5 37.1)"><path class="b" d="M401.7,114.8s-11.538,25.319,9.294,35.9a8.8,8.8,0,0,0,8.814-.961,1.919,1.919,0,0,0,.641-.641c5.769,4.487,10.737,6.73,11.7,6.089a57.46,57.46,0,0,1-11.217-6.57c.16-.16.16-.32.32-.481,1.122-1.122,4.968-5.929-4.327-14.743-1.923-1.923-11.378-7.211-14.582-13.621a24.146,24.146,0,0,1-.641-4.968Zm.16,3.525a6.572,6.572,0,0,1-.16-3.525A24.806,24.806,0,0,0,401.858,118.325Z" transform="translate(228.071 9.712)"/></g><g class="a" transform="translate(7.5 37.1)"><path class="b" d="M383.7,57.564s20.191,19.069,37.017,2.724a8.757,8.757,0,0,0,1.923-8.653,6.737,6.737,0,0,1-.321-.8c6.089-4.006,9.935-8.012,9.615-9.134A52.912,52.912,0,0,1,422,50.193c-.16-.16-.16-.32-.32-.481-.641-1.442-4.006-6.57-15.384-.641-2.4,1.282-10.416,8.333-17.627,9.455a29.9,29.9,0,0,1-4.968-.961Zm3.365.961a8.366,8.366,0,0,1-3.365-.961A13.3,13.3,0,0,0,387.065,58.526Z" transform="translate(219.147 -34.329)"/></g><g class="a" transform="translate(7.5 37.1)"><g transform="translate(612.462 207.038)"><path class="c" d="M476.714,184.248l-.481-.16a10.428,10.428,0,0,1-1.763,2.4c-1.122,1.122-2.724,2.243-4.647,1.763l.481-3.525-3.686,2.243,1.282-2.4-.481.16a30.629,30.629,0,0,0-14.1,8.333A33.995,33.995,0,0,0,446.427,203s-2.083,4.807-4.487,10.1c4.327-11.217,9.615-25.639,10.256-32.37a6.969,6.969,0,0,0-1.763-5.448.56.56,0,0,0-.321-.16l-.32-.32v1.6a2.494,2.494,0,0,1-.481,1.442c-.16,0-.16.16-.32.16a6.206,6.206,0,0,0-1.122-5.288l-.16-.32-.8,1.442c-.16-.8-.32-2.4-1.282-3.2l-.16-.16-.16-.16-1.282,1.6a4.777,4.777,0,0,0-1.122-2.564l-.481-.481-.32-.16v.641a1.215,1.215,0,0,1-.321.641.636.636,0,0,1-.8.16,6.51,6.51,0,0,1-2.243-1.6,22.84,22.84,0,0,1-1.763-1.923h0a.222.222,0,0,0-.32,0h0v-.16h0l-.16-.16h-.32a22.836,22.836,0,0,0-1.923,1.763,11.3,11.3,0,0,1-2.4,1.442.636.636,0,0,1-.8-.16.964.964,0,0,1-.16-.641v-.641l-.321.16c-.16,0-.32.16-.641.32a3.648,3.648,0,0,0-1.442,2.4l-1.122-1.763-.16.16-.16.16a5.663,5.663,0,0,0-1.6,3.045l-.641-1.442-.16.32a6.132,6.132,0,0,0-1.6,5.128c-.16,0-.16,0-.32-.16a3.828,3.828,0,0,1-.32-1.442v-1.6l-.481.32c-.16,0-.16.16-.32.16a7.193,7.193,0,0,0-2.4,5.128c0,6.73,3.365,21.794,6.41,33.331-1.763-5.609-3.365-10.576-3.365-10.576a35.82,35.82,0,0,0-5.769-10.737c-5.929-7.532-12.98-9.775-13.14-9.775l-.481-.16,1.122,2.564-3.365-2.724v3.686a5.11,5.11,0,0,1-4.327-2.243,18.942,18.942,0,0,1-1.6-2.564l-.481.16c.481,2.4.481,2.4,0,6.73a12.618,12.618,0,0,0,.481,5.288h-.32a7.815,7.815,0,0,0-1.122-.481,7.093,7.093,0,0,1-1.442-.8v-.8l-.16.32a10.4,10.4,0,0,0,.32,5.128l-.961-.481a2.258,2.258,0,0,1-.8-.481l-.481-.32v.481a19.59,19.59,0,0,0,4.166,8.653c7.371,9.294,22.435,18.108,29.966,22.114a65.948,65.948,0,0,0-19.23-4.006h-.321l.16.32a2.557,2.557,0,0,1,.481,1.282c-1.282.16-3.525.481-3.525.481h-.481l.321.32c.32.481.961,1.282,1.282,1.763-2.083.8-6.41,1.923-6.41,1.923l-.32.16.16.32c1.6,1.923,6.73,4.166,8.012,4.807a1.2,1.2,0,0,1-.8.16,1.658,1.658,0,0,1-.641-.16l-.8-.16.641.641a15.559,15.559,0,0,0,3.525,1.923c0,.16-.16.16-.32.32a.5.5,0,0,1-.32.16h-.16l-.16.481c10.256,4.647,19.55-.481,23.076-2.884h0a3.5,3.5,0,0,0,.8-.481,7.224,7.224,0,0,1,2.243-1.6c-.8,10.416-2.4,22.915-5.769,29.966,2.243.8,3.365-1.6,3.365-1.6s3.525-4.968,4.006-28.524a4.939,4.939,0,0,1,2.4,1.763c2.243,2.083,12.018,10.576,23.877,6.73v-.481h-.16c-.16,0-.16-.16-.32-.16a.559.559,0,0,1-.16-.32,15.714,15.714,0,0,0,3.686-1.442l.641-.481-.32-.16h-.641c-.32,0-.481-.16-.8-.16,1.442-.481,6.891-2.083,8.493-3.846l.32-.32-.32-.16s-4.166-1.6-6.25-2.724a13.014,13.014,0,0,1,1.442-1.6l.32-.32-.481-.16a32.461,32.461,0,0,1-3.525-.961,9.445,9.445,0,0,1,.641-1.282l.16-.32h-.481a64.8,64.8,0,0,0-19.55,1.923c8.012-3.2,23.877-10.256,32.37-18.749,2.564-2.564,4.487-5.288,5.128-8.012l.16-.481-.481.16a6.743,6.743,0,0,1-.8.32,2.278,2.278,0,0,1-.961.32c.32-.8,1.282-3.2.8-4.968v-.32l-.32.16-1.6.641a2.971,2.971,0,0,1-1.122.32h-.321a11.321,11.321,0,0,0,1.122-5.128C475.913,186.491,475.913,186.651,476.714,184.248Z" transform="translate(-389.7 -166.3)"/></g><g transform="translate(625.121 221.14)"><g transform="translate(29.806)"><path class="d" d="M420.366,175.1c.16,0,.16.16.16.32.481,8.814-3.045,41.183-3.686,46.632,4.327-3.686,30.928-25.96,36.7-31.889a.34.34,0,1,1,.481.481c-6.25,6.41-37.017,32.049-37.337,32.37-.16.16-.16.16-.321,0-.16,0-.16-.16-.16-.32,0-.32,4.487-37.818,3.846-47.273-.16-.16,0-.321.32-.321Z" transform="translate(-416.2 -175.1)"/></g><g transform="translate(1.122 46.792)"><path class="d" d="M451.181,209.107c.16,0,.16.16.16.32a.345.345,0,0,1-.321.32c-7.051.481-22.595-3.846-24.037-4.327-1.6.32-19.871,4.166-28.524-.481a.358.358,0,1,1,.32-.641c8.653,4.807,27.883.481,28.2.481h.16c.321,0,16.986,4.807,24.037,4.327Z" transform="translate(-398.3 -204.3)"/></g><g transform="translate(0 10.416)"><path class="d" d="M397.92,181.6a.157.157,0,0,1,.16.16c4.968,11.858,29.485,36.376,29.806,36.7a.34.34,0,0,1-.481.481c-.32-.32-24.838-24.838-29.806-36.857a.589.589,0,0,1,.16-.481Z" transform="translate(-397.6 -181.6)"/></g><g transform="translate(32.73 7.532)"><path class="d" d="M425.837,179.8h0c.16.16.32.32.16.481-2.243,3.686-7.371,9.294-7.371,9.455a.34.34,0,0,1-.481-.481s5.288-5.769,7.371-9.294A.5.5,0,0,1,425.837,179.8Z" transform="translate(-418.025 -179.8)"/></g><g transform="translate(23.236 15.704)"><path class="d" d="M412.581,185.06a.157.157,0,0,1,.16.16c1.923,4.487,8.493,9.615,8.493,9.615a.34.34,0,1,1-.481.481c-.32-.16-6.73-5.288-8.653-9.935a.589.589,0,0,1,.16-.481Z" transform="translate(-412.1 -184.9)"/></g><g transform="translate(5.288 11.538)"><path class="d" d="M401.861,182.3c.16,0,.16.16.16.32a67.207,67.207,0,0,1-.481,8.012.32.32,0,0,1-.641,0,39.709,39.709,0,0,0,.481-7.852.425.425,0,0,1,.481-.481Z" transform="translate(-400.9 -182.3)"/></g><g transform="translate(5.008 31.128)"><path class="d" d="M412.864,196.889c.16,0,.16.16.16.32a.345.345,0,0,1-.321.32c-.32,0-9.455-.641-11.858-2.4a.34.34,0,1,1,.481-.481c2.244,1.6,11.378,2.243,11.538,2.243Z" transform="translate(-400.725 -194.525)"/></g><g transform="translate(4.006 44.388)"><path class="d" d="M400.42,202.8h0c1.923.8,5.769,4.327,5.929,4.487a.34.34,0,0,1-.481.481s-3.846-3.686-5.609-4.327c-.16,0-.16-.32-.16-.481A.559.559,0,0,1,400.42,202.8Z" transform="translate(-400.1 -202.8)"/></g><g transform="translate(12.018 48.875)"><path class="d" d="M410.869,205.6h0c.16.16.32.32.16.481s-2.724,4.006-5.609,4.647c-.16,0-.321,0-.321-.16s0-.32.16-.32c2.564-.641,5.128-4.327,5.128-4.327C410.548,205.6,410.709,205.6,410.869,205.6Z" transform="translate(-405.1 -205.6)"/></g><g transform="translate(46.992 47.753)"><path class="d" d="M431.853,204.9a.157.157,0,0,1,.16.16.589.589,0,0,1-.16.481c-1.442.481-4.327,3.2-4.327,3.2a.34.34,0,0,1-.481-.481c.16-.16,3.045-2.884,4.647-3.365Z" transform="translate(-426.925 -204.9)"/></g><g transform="translate(40.222 49.837)"><path class="d" d="M423.181,206.2a.157.157,0,0,1,.16.16,8.962,8.962,0,0,0,5.288,4.807c.16,0,.16.16.16.481,0,.16-.16.16-.32.16h0a10.836,10.836,0,0,1-5.769-5.128c0-.16,0-.32.16-.32A.5.5,0,0,1,423.181,206.2Z" transform="translate(-422.7 -206.2)"/></g><g transform="translate(57.849 23.075)"><path class="d" d="M444.276,189.5c.16,0,.16.16.16.32a.345.345,0,0,1-.321.32c-3.2.481-9.775,0-10.1,0a.32.32,0,1,1,0-.641c.32,0,7.051.481,10.256,0Z" transform="translate(-433.7 -189.5)"/></g><g transform="translate(50.798 18.589)"><path class="d" d="M432.345,186.7h0c.16.16.32.32.16.481-2.243,3.686-2.564,10.576-2.564,10.737a.321.321,0,0,1-.641,0c0-.32.321-7.211,2.724-10.9C432.024,186.7,432.184,186.7,432.345,186.7Z" transform="translate(-429.3 -186.7)"/></g><g transform="translate(41.664 36.696)"><path class="d" d="M433.7,198.16a.157.157,0,0,1,.16.16c0,.16,0,.32-.16.32-4.006,1.282-9.455.32-9.775.32a.32.32,0,0,1,0-.641s5.448.961,9.455-.32A.5.5,0,0,0,433.7,198.16Z" transform="translate(-423.6 -198)"/></g><g transform="translate(11.217 21.473)"><path class="d" d="M405.882,188.5c.16,0,.16.16.16.32l-.8,5.609a.321.321,0,0,1-.641,0l.8-5.609c0-.16.16-.32.481-.32Z" transform="translate(-404.6 -188.5)"/></g><g transform="translate(23.075 34.453)"><path class="d" d="M412.8,196.6c.16,0,.16.16.16.32l-.32,6.089a.321.321,0,0,1-.641,0l.321-6.089c.16-.16.32-.32.481-.32Z" transform="translate(-412 -196.6)"/></g><g transform="translate(30.487 33.331)"><path class="d" d="M421.232,195.9h0c.16.16.32.32.16.481a35.05,35.05,0,0,1-4.166,5.929.34.34,0,0,1-.481-.481,36.562,36.562,0,0,0,4.006-5.769A.589.589,0,0,1,421.232,195.9Z" transform="translate(-416.625 -195.9)"/></g></g></g><g class="a" transform="translate(7.5 37.1)"><g transform="translate(494.681 203.834)"><path class="e" d="M355.781,164.3l-.32.32a10.775,10.775,0,0,1,1.6,2.724c.641,1.6.961,3.686-.16,5.288l-3.365-1.923.8,4.487-1.923-2.4-.16.481a33.338,33.338,0,0,0,2.243,17.467,40.207,40.207,0,0,0,6.891,11.057s3.846,4.166,8.173,8.814c-9.294-8.974-21.473-20.351-27.723-23.877a7.067,7.067,0,0,0-6.089-.481c-.16,0-.16.16-.321.16l-.481.16.481.16a5.461,5.461,0,0,1,2.243,1.6v.32a6.965,6.965,0,0,0-5.769-1.122h-.32l.961,1.442a5.767,5.767,0,0,0-3.686-.16.157.157,0,0,0-.16.16l-.16.16,1.122,1.923a4.912,4.912,0,0,0-3.045,0c-.32.16-.481.16-.641.32l-.32.32.32.16a.5.5,0,0,1,.321.16c.16.16.481.32.481.481.16.16.16.481-.321.961a5.036,5.036,0,0,1-2.564,1.442,22.081,22.081,0,0,1-2.564.961h0c-.16,0-.16.16-.16.32h-.16v-.16h-.16a.559.559,0,0,0-.16.32h0a22.087,22.087,0,0,0,.961,2.564,7.122,7.122,0,0,1,.32,2.884,1.713,1.713,0,0,1-.481.8h-.8a.56.56,0,0,1-.321-.16l-.32-.16v.481a1.742,1.742,0,0,0,.16.8,4.108,4.108,0,0,0,1.763,2.4l-2.243.32v.32c.32,1.282,1.6,2.243,2.4,2.884h-1.763l.16.32a6.684,6.684,0,0,0,4.327,3.846c0,.16-.16.16-.321.16a2.081,2.081,0,0,1-1.6-.32,10.676,10.676,0,0,1-1.122-.481l-.481-.32.16.481v.32a7.277,7.277,0,0,0,4.166,4.487c6.73,2.884,22.915,5.769,35.735,7.692-6.25-.641-11.858-1.122-11.858-1.122a36.463,36.463,0,0,0-12.98,1.282c-10.1,2.724-15.223,8.814-15.223,8.814l-.32.32h3.045l-4.006,2.083,3.525,1.442a5.576,5.576,0,0,1-4.166,3.365,12.624,12.624,0,0,1-3.2.481v.481c2.564.641,2.564.481,6.57,2.884a10.447,10.447,0,0,0,5.448,1.763c0,.16-.16.16-.16.32a2.355,2.355,0,0,1-.961.8,8.573,8.573,0,0,1-1.442,1.122l-.32.16.16.16a9.349,9.349,0,0,0,5.128,1.763c-.16.32-.481.481-.8.8s-.8.481-.8.641l-.481.32.481.16a20.571,20.571,0,0,0,10.256-.481c12.339-3.365,27.242-14.582,34.613-20.351a70.255,70.255,0,0,0-12.018,17.307l-.16.32h1.923a31.937,31.937,0,0,1-1.122,3.846l-.16.481.481-.16c.641-.16,1.763-.32,2.243-.481-.16,2.4-.8,7.211-.8,7.211v.32l.32-.16c2.564-.641,6.891-4.807,8.173-5.929a1.2,1.2,0,0,1-.16.8,1.985,1.985,0,0,1-.32.481l-.641.8.8-.32a9.978,9.978,0,0,0,3.365-2.724.5.5,0,0,1,.16.32v.641l.321.32c8.974-8.173,7.852-19.55,6.891-24.037h0c0-.481-.16-.8-.16-1.122a6.286,6.286,0,0,1-.641-2.884c9.935,5.128,21.633,12.179,27.082,18.268,1.763-1.923-.32-4.006-.32-4.006s-3.365-5.609-26.441-16.025a4.589,4.589,0,0,1,2.884-1.6c3.045-1.282,15.544-7.371,16.666-20.832l-.481-.16-.16.16c-.16,0-.16.16-.32.16s-.16,0-.481.16a12.557,12.557,0,0,0,.16-4.327l-.32-.961-.16.961a1.6,1.6,0,0,1-.16.641,2.214,2.214,0,0,1-.481.641c.16-1.6.8-7.692-.16-10.1l-.16-.32-.32.32a62.136,62.136,0,0,1-5.288,4.968,12.08,12.08,0,0,1-.962-2.083l-.16-.481-.32.32a29.453,29.453,0,0,1-2.4,3.045,8.135,8.135,0,0,1-.961-1.122l-.16-.32-.16.32a71.977,71.977,0,0,0-6.41,20.031c.16-9.294,0-28.043-4.807-39.9a19.926,19.926,0,0,0-5.769-8.493l-.481-.32v1.442a2.727,2.727,0,0,1-.16,1.122,8.737,8.737,0,0,0-4.487-2.884h-.32v2.083a3.124,3.124,0,0,1-.16,1.282c0,.16,0,.32-.16.32a10.067,10.067,0,0,0-4.647-3.365C357.7,165.9,357.7,165.9,355.781,164.3Z" transform="translate(-316.2 -164.3)"/></g><g transform="translate(509.423 215.211)"><g transform="translate(3.78)"><path class="d" d="M327.825,198.321c.16-.16.16-.16.321-.16,8.814,3.2,39.421,20.351,44.548,23.4-1.763-5.769-12.659-41.664-16.025-49.676a.358.358,0,0,1,.641-.32C361,180.374,373.5,221.717,373.655,222.2c0,.16,0,.32-.16.32-.16.16-.321.16-.321,0-.32-.16-35.575-20.351-45.19-23.716-.16,0-.32-.16-.16-.481Z" transform="translate(-327.759 -171.4)"/></g><g transform="translate(36.416 28.524)"><path class="d" d="M375.167,189.36c.16-.16.16-.16.321-.16a.307.307,0,0,1,.16.481c-2.4,7.211-13.461,20.672-14.422,21.954-.32,1.6-4.166,21.473-12.5,28.043a.34.34,0,0,1-.481-.481c8.333-6.57,12.339-27.4,12.339-27.723v-.16c.32-.16,12.018-14.582,14.582-21.954C375.006,189.52,375.167,189.52,375.167,189.36Z" transform="translate(-348.125 -189.2)"/></g><g transform="translate(0 50.478)"><path class="d" d="M325.4,217a.56.56,0,0,1,.32-.16c13.941.16,48.555-13.781,48.875-13.941a.358.358,0,0,1,.32.641c-.321.16-35.094,14.1-49.035,13.941a.345.345,0,0,1-.32-.32C325.4,217.162,325.4,217.162,325.4,217Z" transform="translate(-325.4 -202.9)"/></g><g transform="translate(14.102 23.436)"><path class="d" d="M334.2,186.145h0c.16-.16.481-.16.481,0,2.724,3.686,6.089,11.217,6.25,11.378a.358.358,0,1,1-.641.32,102.282,102.282,0,0,0-6.089-11.217Z" transform="translate(-334.2 -186.025)"/></g><g transform="translate(15.223 39.034)"><path class="d" d="M334.9,200.312a.56.56,0,0,1,.321-.16c5.288,0,13.14-4.327,13.14-4.327.16-.16.32,0,.481.16s0,.32-.16.481c-.321.16-8.012,4.327-13.461,4.487a.345.345,0,0,1-.321-.32Z" transform="translate(-334.9 -195.759)"/></g><g transform="translate(3.565 58.971)"><path class="d" d="M327.745,208.36c.16-.16.16-.16.321-.16,2.884.961,7.532,3.846,7.692,3.846a.358.358,0,1,1-.32.641,58.364,58.364,0,0,0-7.532-3.846c-.32,0-.32-.16-.16-.481Z" transform="translate(-327.625 -208.2)"/></g><g transform="translate(22.689 57.528)"><path class="d" d="M346.836,207.46a.358.358,0,1,1,.641.32c-.16.32-4.647,9.134-7.371,10.576-.16.16-.32,0-.481-.16s0-.32.16-.481c2.564-1.282,6.891-10.1,7.051-10.256Z" transform="translate(-339.559 -207.3)"/></g><g transform="translate(35.294 70.989)"><path class="d" d="M347.545,219.706h0c1.6-1.6,6.73-3.846,6.891-4.006a.358.358,0,0,1,.32.641s-5.128,2.243-6.73,3.846a.34.34,0,1,1-.481-.481Z" transform="translate(-347.425 -215.7)"/></g><g transform="translate(45.39 63.498)"><path class="d" d="M353.845,211.145h0c.16-.16.481-.16.481,0,.16.16,2.724,4.487,2.243,7.532a.32.32,0,0,1-.641,0c.481-2.884-2.083-6.891-2.083-7.051A.3.3,0,0,1,353.845,211.145Z" transform="translate(-353.725 -211.025)"/></g><g transform="translate(58.69 29.165)"><path class="d" d="M362.145,189.76a.559.559,0,0,1,.32-.16.345.345,0,0,1,.32.32c0,1.6,1.442,5.609,1.442,5.769a.358.358,0,1,1-.641.32c0-.16-1.442-4.327-1.442-5.929C361.985,189.92,361.985,189.92,362.145,189.76Z" transform="translate(-362.025 -189.6)"/></g><g transform="translate(56.086 37.698)"><path class="d" d="M360.4,198.41a.56.56,0,0,1,.321-.16,10.189,10.189,0,0,0,7.051-3.2.34.34,0,0,1,.481.481h0a10.477,10.477,0,0,1-7.532,3.525.345.345,0,0,1-.321-.32C360.4,198.571,360.4,198.571,360.4,198.41Z" transform="translate(-360.4 -194.925)"/></g><g transform="translate(36.857 2.404)"><path class="d" d="M352.887,173.06c.16-.16.16-.16.32-.16s.32.16.16.481a68.272,68.272,0,0,1-4.327,9.935c0,.16-.32.16-.481.16a.589.589,0,0,1-.16-.481,64.031,64.031,0,0,0,4.487-9.935Z" transform="translate(-348.4 -172.9)"/></g><g transform="translate(30.447 14.943)"><path class="d" d="M344.56,180.845h0c.16-.16.481-.16.481,0,2.724,3.846,9.455,7.051,9.455,7.051.16,0,.16.32.16.481a.589.589,0,0,1-.481.16c-.32-.16-6.891-3.365-9.775-7.371C344.56,181.166,344.56,181.005,344.56,180.845Z" transform="translate(-344.4 -180.725)"/></g><g transform="translate(44.068 24.678)"><path class="d" d="M356.746,186.96c0-.16.16-.16.32-.16a.345.345,0,0,1,.32.32c-.481,4.647-3.686,9.455-3.846,9.775a.358.358,0,1,1-.641-.32s3.365-4.968,3.686-9.455A.157.157,0,0,1,356.746,186.96Z" transform="translate(-352.9 -186.8)"/></g><g transform="translate(16.025 57.088)"><path class="d" d="M335.4,207.145a.3.3,0,0,1,.481,0l5.288,3.045a.358.358,0,1,1-.32.641l-5.288-3.045c-.16-.16-.16-.32-.16-.641Z" transform="translate(-335.4 -207.025)"/></g><g transform="translate(33.707 51.279)"><path class="d" d="M346.54,203.56a.589.589,0,0,1,.481-.16l5.769,2.884a.358.358,0,0,1-.32.641l-5.769-2.884c-.321,0-.321-.32-.16-.481Z" transform="translate(-346.434 -203.4)"/></g><g transform="translate(37.266 39.781)"><path class="d" d="M348.727,196.345h0a.3.3,0,0,1,.481,0,44.055,44.055,0,0,1,4.166,6.57c.16.16,0,.32-.16.481s-.32,0-.481-.16a48.556,48.556,0,0,0-4.006-6.41C348.566,196.666,348.727,196.345,348.727,196.345Z" transform="translate(-348.656 -196.225)"/></g></g></g><g class="a" transform="translate(7.5 37.1)"><path class="b" d="M443.5,100.114c-.8-3.2-1.6-5.929-2.083-7.532-1.442-2.724-3.846-8.173-1.763-14.582.961.16,8.012,7.692,3.525,15.384.481,2.083,1.282,4.647,2.083,7.692a19.237,19.237,0,0,1,7.051-13.621c.641.641,2.243,11.538-6.73,14.743.961,4.006,2.243,8.974,3.365,14.9A18.7,18.7,0,0,1,456,103.639c.641.641,2.243,11.538-6.891,14.743.481,2.243.961,4.487,1.282,7.051a45.977,45.977,0,0,1,.8,9.134c.8-2.564,3.2-8.814,9.935-11.858.481.8-.481,11.858-9.935,12.98a45.143,45.143,0,0,1-1.6,11.858,18.851,18.851,0,0,1,10.576-8.333c.32.961-2.243,11.217-11.538,11.217a65.243,65.243,0,0,1-3.846,9.294,18.953,18.953,0,0,1,13.621-5.288c0,.961-5.769,10.1-14.582,6.891a44.232,44.232,0,0,1-5.609,8.012c-.481-.641-.481-.641-.8-1.122a44.879,44.879,0,0,0,5.448-7.211c-8.653-3.525-7.051-14.1-6.41-14.9,5.769,4.487,6.73,11.217,6.891,13.941a45.677,45.677,0,0,0,3.525-9.615c-8.974-3.365-7.211-14.262-6.57-14.9,5.769,4.647,6.73,11.377,6.891,13.941.481-1.6.961-3.2,1.442-5.128a34,34,0,0,0,.8-8.493c-9.455-1.6-9.935-12.5-9.294-13.3a18.716,18.716,0,0,1,9.294,11.858,103.668,103.668,0,0,0-1.763-15.063c-9.294-.8-10.9-11.377-10.416-12.179a18.5,18.5,0,0,1,9.935,9.455c-.961-4.968-2.083-9.615-3.2-13.781-9.455-.32-11.538-10.9-11.057-11.858C438.853,92.582,442.058,97.23,443.5,100.114Z" transform="translate(248.764 -12.459)"/></g><g class="a" transform="translate(7.5 37.1)"><g transform="translate(648.037 106.083)"><path class="f" d="M451.481,135.67c.16-5.448-1.763-10.416-3.365-15.864-.16,3.846-1.122,5.769-1.763,8.493-1.442-7.051-8.814-11.538-13.14-16.986a25.842,25.842,0,0,1,3.045,7.852A82.6,82.6,0,0,1,420.393,103.3a87.184,87.184,0,0,1-.32,22.435,27.4,27.4,0,0,1-3.365-7.692c.641,6.891-1.442,15.223,2.4,21.313-2.564-1.442-4.487-2.083-7.211-4.807,2.724,5.128,4.807,10.1,8.653,13.781-1.923-.641-4.166-.8-6.25-1.442,2.564.8,6.891,7.211,10.576,8.974,4.487,2.243,9.775,3.365,14.582,2.4a11.174,11.174,0,0,0,2.724-.961,9.578,9.578,0,0,0,2.564-1.282c4.166-2.564,7.051-7.051,8.814-11.858,1.282-3.846,0-11.378,1.282-13.781C453.885,132.144,452.442,133.907,451.481,135.67Z" transform="translate(-411.9 -103.3)"/></g><g transform="translate(658.132 112.012)"><path class="d" d="M443.038,163.086c-.16,0-.16,0-.32-.16-.961-1.923-23.556-46.151-24.518-55.606a.321.321,0,0,1,.641,0c.961,9.294,24.2,54.965,24.357,55.445.16.16.16.321-.16.321Z" transform="translate(-418.2 -107)"/><g transform="translate(0.094 18.428)"><path class="d" d="M426.177,121.224h0c-.32,0-6.41-.32-7.852-2.4-.16-.16,0-.32.16-.32s.321,0,.321.16c.961,1.6,5.609,2.083,7.371,2.243a.345.345,0,0,1,.32.32C426.5,121.064,426.337,121.224,426.177,121.224Z" transform="translate(-418.259 -118.5)"/></g><g transform="translate(11.698 17.467)"><path class="d" d="M425.82,130.4h0c-.32-.16-.32-.32-.32-.32s3.045-6.891,3.045-11.858a.32.32,0,1,1,.641,0c0,4.968-3.045,11.7-3.2,12.018C426.141,130.4,425.981,130.4,425.82,130.4Z" transform="translate(-425.5 -117.9)"/></g><g transform="translate(2.123 35.935)"><path class="d" d="M433.426,134.994c-3.045,0-9.615-.641-13.781-5.128-.16-.16-.16-.32,0-.32.16-.16.32-.16.32,0,5.288,5.929,14.743,4.968,14.9,4.968a.32.32,0,1,1,0,.641C435.029,134.994,434.388,134.994,433.426,134.994Z" transform="translate(-419.525 -129.425)"/></g></g></g><g class="a" transform="translate(7.5 37.1)"><g transform="translate(611.18 164.894)"><path class="f" d="M433.128,150.576c-3.2-4.487-7.692-7.211-12.339-10.576,2.243,3.2,2.724,5.288,3.846,7.852-5.448-4.647-14.1-3.846-20.672-5.448a25.4,25.4,0,0,1,7.211,4.327,84.224,84.224,0,0,1-22.274-2.884,81.268,81.268,0,0,1,13.3,17.948,25.76,25.76,0,0,1-7.371-4.166c4.647,4.968,8.173,12.82,14.9,15.384-2.884.32-4.807,1.122-8.653.641,5.288,2.4,9.935,4.968,15.223,5.609-1.923.641-3.846,1.923-5.769,2.564,2.564-.961,9.935,1.442,13.781.8a23.084,23.084,0,0,0,12.98-7.051,8.98,8.98,0,0,0,1.6-2.4,9.6,9.6,0,0,0,1.282-2.564,24.382,24.382,0,0,0-.16-14.743c-1.282-3.846-6.891-8.974-7.371-11.7C432.968,146.41,432.807,148.493,433.128,150.576Z" transform="translate(-388.9 -140)"/></g><g transform="translate(616.027 172.305)"><path class="d" d="M445.728,174.07h-.321c-1.923-.961-46.792-22.114-53.362-29-.16-.16-.16-.32,0-.32.16-.16.321-.16.321,0,6.41,6.891,52.721,28.684,53.2,29,.32,0,.32.16.16.32Z" transform="translate(-391.925 -144.625)"/><g transform="translate(11.337 11.747)"><path class="d" d="M406.852,152.347h0c-.16.16-5.288,3.686-7.692,2.884-.16,0-.16-.16-.16-.32s.16-.16.32-.16c1.763.641,5.769-1.763,7.211-2.724a.222.222,0,0,1,.32,0S406.852,152.187,406.852,152.347Z" transform="translate(-399 -151.956)"/></g><g transform="translate(22.323 4.856)"><path class="d" d="M411.215,159.425h0c-.32.16-.481,0-.481-.16,0,0-1.763-7.371-4.807-11.217a.227.227,0,1,1,.32-.32c3.045,4.006,4.807,11.217,4.807,11.538C411.375,159.265,411.375,159.265,411.215,159.425Z" transform="translate(-405.856 -147.656)"/></g><g transform="translate(23.61 21.954)"><path class="d" d="M420.987,159.727c-2.4,1.763-8.012,5.448-14.1,4.327-.16,0-.321-.16-.16-.32,0-.16.16-.32.32-.16,7.692,1.442,14.743-5.128,14.743-5.128.16-.16.32-.16.32,0,.16.16.16.32,0,.32C422.109,158.766,421.788,159.086,420.987,159.727Z" transform="translate(-406.659 -158.325)"/></g></g></g><g class="a" transform="translate(7.5 37.1)"><g transform="translate(224.986 224.986)"><path class="f" d="M192.128,188.076c-3.2-4.487-7.692-7.211-12.339-10.576,2.243,3.2,2.724,5.288,3.846,7.852-5.448-4.647-14.1-3.846-20.672-5.448a25.4,25.4,0,0,1,7.211,4.327,84.224,84.224,0,0,1-22.274-2.884,81.268,81.268,0,0,1,13.3,17.948,25.76,25.76,0,0,1-7.371-4.166c4.647,4.968,8.173,12.82,14.9,15.384-2.884.32-4.807,1.122-8.653.641,5.288,2.4,9.935,4.968,15.223,5.609-1.923.641-3.846,1.923-5.769,2.564,2.564-.961,9.935,1.442,13.781.8a23.085,23.085,0,0,0,12.98-7.051,8.982,8.982,0,0,0,1.6-2.4,9.6,9.6,0,0,0,1.282-2.564,24.381,24.381,0,0,0-.16-14.743c-1.282-3.846-6.891-8.974-7.371-11.7C191.968,183.91,191.808,185.993,192.128,188.076Z" transform="translate(-147.9 -177.5)"/></g><g transform="translate(229.994 232.558)"><path class="d" d="M204.828,211.67h-.32c-1.923-.961-46.792-22.114-53.362-29-.16-.16-.16-.32,0-.32.16-.16.32-.16.32,0,6.41,6.891,52.721,28.684,53.2,29,.16-.16.32,0,.16.32Z" transform="translate(-151.025 -182.225)"/><g transform="translate(11.177 11.587)"><path class="d" d="M165.852,189.847h0c-.16.16-5.288,3.686-7.692,2.884-.16,0-.16-.16-.16-.32s.16-.16.32-.16c1.763.641,5.769-1.763,7.211-2.724a.222.222,0,0,1,.32,0C166.012,189.527,166.012,189.687,165.852,189.847Z" transform="translate(-158 -189.456)"/></g><g transform="translate(22.323 4.696)"><path class="d" d="M170.315,196.925h0c-.32.16-.481,0-.481-.16,0,0-1.763-7.371-4.807-11.217a.227.227,0,1,1,.32-.32c3.045,4.006,4.807,11.217,4.807,11.538A.157.157,0,0,1,170.315,196.925Z" transform="translate(-164.956 -185.156)"/></g><g transform="translate(23.45 21.793)"><path class="d" d="M179.987,197.227c-2.4,1.763-8.012,5.448-14.1,4.327-.16,0-.32-.16-.16-.32,0-.16.16-.32.32-.16,7.692,1.442,14.743-5.128,14.743-5.128.16-.16.32-.16.32,0,.16.16.16.32,0,.32C181.269,196.266,180.788,196.586,179.987,197.227Z" transform="translate(-165.659 -195.825)"/></g></g></g><g class="a" transform="translate(7.5 37.1)"><g transform="translate(575.125 226.749)"><path class="f" d="M405.981,210.97c.16-5.448-1.763-10.416-3.365-15.864-.16,3.846-1.122,5.769-1.763,8.493-1.442-7.051-8.814-11.538-13.14-16.986a25.842,25.842,0,0,1,3.045,7.852A82.6,82.6,0,0,1,374.893,178.6a87.184,87.184,0,0,1-.32,22.435,27.4,27.4,0,0,1-3.365-7.692c.641,6.891-1.442,15.223,2.4,21.313-2.564-1.442-4.487-2.083-7.211-4.807,2.724,5.128,4.807,10.1,8.653,13.781-2.083-.641-4.166-.8-6.25-1.442,2.564.8,6.891,7.211,10.576,8.974,4.487,2.243,9.775,3.365,14.582,2.4a11.175,11.175,0,0,0,2.724-.961,9.579,9.579,0,0,0,2.564-1.282c4.166-2.564,7.051-7.051,8.814-11.858,1.282-3.846,0-11.378,1.282-13.781C408.385,207.444,406.942,209.047,405.981,210.97Z" transform="translate(-366.4 -178.6)"/></g><g transform="translate(585.22 232.678)"><path class="d" d="M397.538,238.386c-.16,0-.16,0-.321-.16-.961-1.923-23.556-46.151-24.518-55.606a.32.32,0,0,1,.641,0c.961,9.294,24.2,54.965,24.357,55.445.16.16.16.32-.16.32Z" transform="translate(-372.7 -182.3)"/><g transform="translate(0.094 18.428)"><path class="d" d="M380.677,196.524h0c-.32,0-6.41-.32-7.852-2.4-.16-.16,0-.32.16-.32s.32,0,.32.16c.961,1.6,5.609,2.083,7.371,2.243a.345.345,0,0,1,.321.32C381,196.364,380.837,196.524,380.677,196.524Z" transform="translate(-372.759 -193.8)"/></g><g transform="translate(11.698 17.467)"><path class="d" d="M380.32,205.7h0c-.32-.16-.32-.32-.32-.32s3.045-6.891,3.045-11.858a.321.321,0,0,1,.641,0c0,4.968-3.045,11.7-3.2,12.018C380.641,205.539,380.481,205.7,380.32,205.7Z" transform="translate(-380 -193.2)"/></g><g transform="translate(2.123 35.935)"><path class="d" d="M387.926,210.294c-3.045,0-9.615-.641-13.781-5.128-.16-.16-.16-.32,0-.32.16-.16.32-.16.32,0,5.288,5.929,14.743,4.968,14.9,4.968a.32.32,0,1,1,0,.641C389.529,210.294,388.888,210.294,387.926,210.294Z" transform="translate(-374.025 -204.725)"/></g></g></g><g class="a" transform="translate(7.5 37.1)"><g transform="translate(639.884 140.374)"><path class="g" d="M447.976,172.614c-1.763-2.724,2.243-9.935,3.365-12.179,1.6-3.525,7.371-13.14,1.6-16.826-4.166-2.724-9.935,7.211-9.294-.961.16-2.243,2.884-7.371.16-9.455-5.769-4.327-7.051,5.609-12.018,3.2-5.448-2.564-3.846-11.858-9.294-11.7h-.32c-4.647,3.045,1.763,9.775-1.282,14.9-2.884,4.807-9.455-2.724-11.858,4.006-1.122,3.2,4.006,5.929,5.448,7.692,5.128,6.41-5.288,1.442-7.211,5.929-2.724,6.25,7.371,11.057,10.737,12.98,2.243,1.282,9.455,4.968,9.615,8.333.16,4.968-7.532.641-9.615,4.487-2.083,4.166,5.929,6.891,9.294,8.653,7.532,4.006,13.781,9.935,20.512,17.467l.16.481v-.32a.157.157,0,0,0,.16.16l-.16-.481c1.442-9.935,3.365-18.428,7.371-25.96,1.763-3.2,6.891-10.1,2.884-12.339C454.706,168.769,450.7,176.781,447.976,172.614Z" transform="translate(-406.812 -124.699)"/></g><g transform="translate(658.773 148.709)"><path class="d" d="M438.791,199.767h0a.585.585,0,0,1-.8-.32c-.16-.481-14.743-47.433-19.39-68.906,0-.32.16-.641.481-.641s.641.16.641.481c4.647,21.473,19.23,68.425,19.39,68.906C439.272,199.447,439.112,199.767,438.791,199.767Z" transform="translate(-418.6 -129.9)"/></g><g transform="translate(651.336 156.08)"><path class="d" d="M427.165,147.64h-.32c-.32-.16-7.852-2.564-12.659-6.41a.578.578,0,0,1,.641-.961c4.006,3.2,10.416,5.609,12.018,6.089,1.122-1.442,6.25-7.532,7.051-11.378,0-.32.32-.481.641-.481s.481.32.481.641c-.961,4.807-7.371,12.018-7.532,12.339A.5.5,0,0,1,427.165,147.64Z" transform="translate(-413.959 -134.5)"/></g><g transform="translate(649.359 165.855)"><path class="d" d="M432.4,159.83h-.32c-.641,0-14.582-1.923-19.23-6.41a.567.567,0,0,1,.8-.8c4.006,3.846,16.345,5.769,18.268,6.089,1.282-1.282,8.814-8.653,13.621-17.787.16-.32.481-.32.8-.32.321.16.321.481.321.8-5.128,10.256-13.941,18.268-13.941,18.268A.5.5,0,0,1,432.4,159.83Z" transform="translate(-412.725 -140.6)"/></g><g transform="translate(664.639 204.732)"><path class="d" d="M433.541,170.052h-.32c-2.4-.641-10.1-2.564-10.9-4.327a.61.61,0,0,1,1.122-.481c.481.961,5.609,2.724,10.256,3.846.32,0,.481.32.481.641C433.861,169.891,433.7,170.052,433.541,170.052Z" transform="translate(-422.261 -164.861)"/></g><g transform="translate(675.574 196.72)"><path class="d" d="M429.75,172.9a.589.589,0,0,1-.481-.16.529.529,0,0,1,0-.8s6.41-7.852,7.532-11.7c.16-.32.321-.481.641-.32s.481.32.32.641c-1.122,4.006-7.532,11.858-7.692,12.179C430.071,172.9,429.911,172.9,429.75,172.9Z" transform="translate(-429.085 -159.861)"/></g><g transform="translate(665.063 189.732)"><path class="d" d="M430.177,163.833h-.32c-.16,0-5.609-1.923-7.211-3.365a.567.567,0,1,1,.8-.8c1.122.962,4.647,2.4,6.41,3.045,1.6-2.243,3.846-5.929,4.006-6.73,0-.32.32-.481.641-.481s.481.32.481.641c-.32,1.6-4.006,7.051-4.487,7.532A.5.5,0,0,0,430.177,163.833Z" transform="translate(-422.525 -155.5)"/></g></g><g class="a" transform="translate(7.5 37.1)"><g transform="translate(675.621 135.746)"><path class="h" d="M449.924,208.326c-2.083-.8-13.461-5.929-18.428-18.428-5.448-13.621-1.282-29.806,9.775-42.465s12.5-15.063,15.384-23.716-1.763,14.262,5.609,26.761c19.069,32.37,1.442,45.35-12.018,58.009C450.244,208.326,449.763,208.967,449.924,208.326Z" transform="translate(-429.114 -121.811)"/></g><g transform="translate(680.392 160.242)"><path class="i" d="M434.99,179.888a131.915,131.915,0,0,1,10.9,8.333,74.41,74.41,0,0,0,2.724,9.134c0,.32-.16-1.282-.16-1.282-.481-2.724-.8-5.448-1.122-8.012,6.41-4.807,10.737-7.371,10.576-7.371a114.285,114.285,0,0,0-10.737,6.089c-.16-1.923-.32-3.846-.481-5.609a149.691,149.691,0,0,1,13.781-9.455c-2.083.8-7.051,3.525-13.781,7.852-.16-2.243-.16-4.327-.16-6.57,8.493-7.371,14.422-11.378,14.1-11.217a136.711,136.711,0,0,0-14.1,9.455c0-1.923.16-3.846.16-5.609,7.692-7.532,13.3-11.7,12.98-11.538a162.338,162.338,0,0,0-12.98,9.775q.24-3.365.481-6.25c6.73-6.891,11.7-10.737,11.378-10.737a119.972,119.972,0,0,0-11.217,8.814c.32-2.4.641-4.647.961-6.57a82.256,82.256,0,0,1,6.891-8.333,54.574,54.574,0,0,0-6.73,6.891,89.862,89.862,0,0,1,2.243-10.576,100.633,100.633,0,0,0-3.2,10.416c-1.923-4.807-3.525-7.852-4.166-9.134-.16-.16,1.763,3.846,3.846,10.576-.481,2.083-.961,4.327-1.442,6.891a120.578,120.578,0,0,0-7.371-11.538c-.16-.16,3.045,4.968,7.051,13.461a46.142,46.142,0,0,0-.8,5.288,137.109,137.109,0,0,0-10.256-12.018,159.914,159.914,0,0,1,9.935,13.941c0,.481-.16.8-.16,1.282-.16,1.6-.321,3.2-.321,4.807a162.673,162.673,0,0,0-11.7-11.858c-.321-.16,4.807,4.968,11.7,13.941,0,1.923.16,3.686.321,5.448a111.044,111.044,0,0,0-11.057-8.814,151.543,151.543,0,0,1,11.217,10.576c.32,2.243.641,4.487.961,6.41A83.657,83.657,0,0,0,434.99,179.888Z" transform="translate(-432.091 -137.097)"/></g></g><g class="a" transform="translate(7.5 37.1)"><path class="j" d="M444.945,114s11.057,12.659,10.1,27.4c-.8,11.7-10.1,21.153-13.461,24.678,1.442-12.98,2.083-20.832,2.564-36.376a23.561,23.561,0,0,1,0-3.365c-.641,2.724-.481,1.282-.641,3.2-2.083,16.826-2.564,22.274-3.2,36.376-2.724-3.686-9.775-14.262-8.974-26.12C432.285,125.057,444.945,114,444.945,114Z" transform="translate(247.801 9.23)"/></g><g class="a" transform="translate(7.5 37.1)"><g transform="translate(627.044 175.951)"><path class="e" d="M438.381,146.9l-.32.32a10.775,10.775,0,0,1,1.6,2.724c.641,1.6.961,3.686-.16,5.288l-3.365-1.923.8,4.487-1.923-2.4-.16.481a33.338,33.338,0,0,0,2.243,17.467,40.207,40.207,0,0,0,6.891,11.057s3.846,4.166,8.173,8.814c-9.294-8.974-21.473-20.351-27.723-23.877a7.067,7.067,0,0,0-6.089-.481c-.16,0-.16.16-.32.16l-.481.16.481.16a5.461,5.461,0,0,1,2.243,1.6v.32a6.965,6.965,0,0,0-5.769-1.122h-.32l.961,1.442a5.767,5.767,0,0,0-3.686-.16.157.157,0,0,0-.16.16l-.16.16,1.122,1.923a4.912,4.912,0,0,0-3.045,0c-.32.16-.481.16-.641.32l-.32.32.32.16a.5.5,0,0,1,.32.16c.16.16.481.32.481.481.16.16.16.481-.321.961a5.036,5.036,0,0,1-2.564,1.442,22.088,22.088,0,0,1-2.564.961h0c-.16,0-.16.16-.16.32h-.16v-.16h-.16a.559.559,0,0,0-.16.32h0a22.081,22.081,0,0,0,.961,2.564,7.122,7.122,0,0,1,.32,2.884,1.713,1.713,0,0,1-.481.8h-.8a.559.559,0,0,1-.32-.16l-.321-.16v.481a1.742,1.742,0,0,0,.16.8,4.108,4.108,0,0,0,1.763,2.4l-2.243.32v.32c.32,1.282,1.6,2.243,2.4,2.884h-1.763l.16.32a6.684,6.684,0,0,0,4.327,3.846c0,.16-.16.16-.321.16a2.081,2.081,0,0,1-1.6-.32,10.679,10.679,0,0,1-1.122-.481l-.481-.32.16.481v.32a7.277,7.277,0,0,0,4.166,4.487c6.73,2.884,22.915,5.769,35.735,7.692-6.25-.641-11.858-1.122-11.858-1.122a36.463,36.463,0,0,0-12.98,1.282c-10.1,2.724-15.223,8.814-15.223,8.814l-.321.32h3.045l-4.006,2.083,3.525,1.442A5.576,5.576,0,0,1,402,224.459a12.624,12.624,0,0,1-3.2.481v.481c2.564.641,2.564.481,6.57,2.884a10.447,10.447,0,0,0,5.448,1.763c0,.16-.16.16-.16.32a2.355,2.355,0,0,1-.961.8,8.576,8.576,0,0,1-1.442,1.122l-.32.16.16.16a9.35,9.35,0,0,0,5.128,1.763c-.16.32-.481.481-.8.8-.481.32-.8.481-.8.641l-.481.32.481.16a20.572,20.572,0,0,0,10.256-.481c12.339-3.365,27.242-14.582,34.613-20.351a70.255,70.255,0,0,0-12.018,17.307l-.16.32h1.923c-.32,1.282-.961,3.686-.961,3.846l-.16.481.481-.16c.641-.16,1.763-.32,2.243-.481-.16,2.4-.8,7.211-.8,7.211v.32l.321-.16c2.564-.641,6.891-4.807,8.173-5.929a1.2,1.2,0,0,1-.16.8,1.983,1.983,0,0,1-.321.481l-.641.8.8-.32a9.978,9.978,0,0,0,3.365-2.724.5.5,0,0,1,.16.32v.641l.32.32c8.974-8.173,7.852-19.55,6.891-24.037h0c0-.481-.16-.8-.16-1.122a6.286,6.286,0,0,1-.641-2.884c9.935,5.128,21.633,12.179,27.082,18.268,1.763-1.923-.321-4.006-.321-4.006s-3.365-5.609-26.441-16.025a4.589,4.589,0,0,1,2.884-1.6c3.045-1.282,15.544-7.371,16.666-20.832l-.481-.16-.16.16c-.16,0-.16.16-.321.16a.589.589,0,0,0-.481.16,12.557,12.557,0,0,0,.16-4.327h.321l-.16.961a1.6,1.6,0,0,1-.16.641,2.213,2.213,0,0,1-.481.641c.16-1.6.8-7.692-.16-10.1l-.16-.32-.481.16a62.141,62.141,0,0,1-5.288,4.968,12.084,12.084,0,0,1-.961-2.083l-.16-.481-.32.32a29.453,29.453,0,0,1-2.4,3.045,8.128,8.128,0,0,1-.961-1.122l-.16-.32-.16.32a71.976,71.976,0,0,0-6.41,20.031c.16-9.294,0-28.043-4.807-39.9a19.925,19.925,0,0,0-5.769-8.493l-.481-.32v1.442a2.727,2.727,0,0,1-.16,1.122,8.737,8.737,0,0,0-4.487-2.884h-.32v2.083a3.123,3.123,0,0,1-.16,1.282c0,.16,0,.32-.16.32a10.067,10.067,0,0,0-4.647-3.365C440.464,148.663,440.464,148.663,438.381,146.9Z" transform="translate(-398.8 -146.9)"/></g><g transform="translate(641.947 187.488)"><g transform="translate(3.775)"><path class="d" d="M410.527,181.021c.16-.16.16-.16.32-.16,8.814,3.2,39.421,20.351,44.549,23.4-1.763-5.769-12.659-41.664-16.025-49.676a.358.358,0,1,1,.641-.32c3.686,8.814,16.185,50.157,16.345,50.638,0,.16,0,.32-.16.32-.16.16-.32.16-.32,0-.32-.16-35.575-20.351-45.19-23.716-.16-.16-.32-.32-.16-.481Z" transform="translate(-410.456 -154.1)"/></g><g transform="translate(36.256 28.524)"><path class="d" d="M457.767,172.06c.16-.16.16-.16.321-.16a.307.307,0,0,1,.16.481c-2.4,7.211-13.461,20.672-14.422,21.954-.32,1.6-4.166,21.473-12.5,28.043a.34.34,0,0,1-.481-.481c8.333-6.57,12.339-27.4,12.339-27.723v-.16c.32-.16,12.179-14.582,14.582-21.954Z" transform="translate(-430.725 -171.9)"/></g><g transform="translate(0 50.478)"><path class="d" d="M408.1,199.7a.559.559,0,0,1,.32-.16c13.941.16,48.555-13.781,48.875-13.941a.358.358,0,1,1,.32.641c-.32.16-35.094,14.1-49.035,13.941a.345.345,0,0,1-.321-.32A.157.157,0,0,1,408.1,199.7Z" transform="translate(-408.1 -185.6)"/></g><g transform="translate(13.981 23.276)"><path class="d" d="M416.945,168.745h0c.16-.16.481-.16.481,0,2.724,3.686,6.089,11.217,6.25,11.378a.358.358,0,1,1-.641.32,102.29,102.29,0,0,0-6.089-11.217A.3.3,0,0,1,416.945,168.745Z" transform="translate(-416.825 -168.625)"/></g><g transform="translate(15.152 39.034)"><path class="d" d="M417.627,183.012a.56.56,0,0,1,.32-.16c5.288,0,13.14-4.327,13.14-4.327.16-.16.32,0,.481.16s0,.32-.16.481c-.32.16-8.012,4.327-13.461,4.487a.345.345,0,0,1-.32-.32A.222.222,0,0,1,417.627,183.012Z" transform="translate(-417.556 -178.459)"/></g><g transform="translate(3.525 58.971)"><path class="d" d="M410.3,191.06c.16-.16.16-.16.32-.16,2.884.961,7.532,3.846,7.692,3.846a.358.358,0,0,1-.32.641,58.366,58.366,0,0,0-7.532-3.846c-.16,0-.16-.16-.16-.481Z" transform="translate(-410.3 -190.9)"/></g><g transform="translate(22.689 57.368)"><path class="d" d="M429.536,190.06a.358.358,0,1,1,.641.32c-.16.32-4.647,9.134-7.371,10.576-.16.16-.32,0-.481-.16s0-.32.16-.481c2.4-1.282,6.891-10.1,7.051-10.256Z" transform="translate(-422.259 -189.9)"/></g><g transform="translate(35.294 70.829)"><path class="d" d="M430.245,202.306h0c1.6-1.6,6.73-3.846,6.891-4.006a.358.358,0,1,1,.32.641s-5.128,2.243-6.73,3.846a.3.3,0,0,1-.481,0C430.085,202.787,430.085,202.466,430.245,202.306Z" transform="translate(-430.125 -198.3)"/></g><g transform="translate(45.35 63.498)"><path class="d" d="M436.4,193.845c.16,0,.16-.16,0,0,.16-.16.481-.16.481,0,.16.16,2.724,4.487,2.243,7.532a.32.32,0,1,1-.641,0c.481-2.884-2.083-6.891-2.083-7.051Q436.4,193.845,436.4,193.845Z" transform="translate(-436.4 -193.725)"/></g><g transform="translate(58.65 29.165)"><path class="d" d="M444.7,172.46a.559.559,0,0,1,.32-.16.345.345,0,0,1,.32.32c0,1.6,1.442,5.609,1.442,5.769a.358.358,0,1,1-.641.32c0-.16-1.442-4.327-1.442-5.929Z" transform="translate(-444.7 -172.3)"/></g><g transform="translate(56.015 37.698)"><path class="d" d="M443.127,181.11a.56.56,0,0,1,.32-.16,10.189,10.189,0,0,0,7.051-3.2.34.34,0,1,1,.481.481h0a10.476,10.476,0,0,1-7.532,3.525.345.345,0,0,1-.32-.32A.222.222,0,0,1,443.127,181.11Z" transform="translate(-443.056 -177.625)"/></g><g transform="translate(36.696 2.243)"><path class="d" d="M435.487,155.66c0-.16.16-.16.32-.16s.32.16.16.481a68.282,68.282,0,0,1-4.327,9.935c0,.16-.321.16-.481.16a.589.589,0,0,1-.16-.481c.32,0,3.686-6.41,4.487-9.935Z" transform="translate(-431 -155.5)"/></g><g transform="translate(30.447 14.943)"><path class="d" d="M427.26,163.545h0c.16-.16.481-.16.481,0,2.724,3.846,9.455,7.051,9.455,7.051.16,0,.16.32.16.481a.589.589,0,0,1-.481.16c-.321-.16-6.891-3.365-9.775-7.371A.559.559,0,0,0,427.26,163.545Z" transform="translate(-427.1 -163.425)"/></g><g transform="translate(43.908 24.678)"><path class="d" d="M439.346,169.66c0-.16.16-.16.32-.16a.345.345,0,0,1,.32.32c-.481,4.647-3.686,9.455-3.846,9.775a.358.358,0,0,1-.641-.32s3.365-4.968,3.686-9.455Z" transform="translate(-435.5 -169.5)"/></g><g transform="translate(15.958 57.088)"><path class="d" d="M418.125,189.845a.3.3,0,0,1,.481,0l5.288,3.045a.358.358,0,1,1-.32.641l-5.288-3.045c-.16-.16-.32-.481-.16-.641Z" transform="translate(-418.059 -189.725)"/></g><g transform="translate(33.692 51.119)"><path class="d" d="M429.245,186.16a.589.589,0,0,1,.481-.16l5.769,2.884a.358.358,0,0,1-.32.641l-5.769-2.884c-.32,0-.32-.16-.16-.481Z" transform="translate(-429.125 -186)"/></g><g transform="translate(37.217 39.621)"><path class="d" d="M431.445,178.945h0a.3.3,0,0,1,.481,0,44.047,44.047,0,0,1,4.166,6.57c.16.16,0,.32-.16.481s-.321,0-.481-.16a48.556,48.556,0,0,0-4.006-6.41A.3.3,0,0,1,431.445,178.945Z" transform="translate(-431.325 -178.825)"/></g></g></g><g class="a" transform="translate(7.5 37.1)"><g transform="translate(93.739 219.539)"><path class="k" d="M94.846,174.74a4.923,4.923,0,0,1-4.487.32c-7.051-3.365-22.595,2.4-24.2,12.82A13.046,13.046,0,0,0,69.046,198.3h0A13.646,13.646,0,0,0,79.3,202.143c10.576-.641,17.627-15.7,14.9-23.075C93.724,177.465,93.564,175.862,94.846,174.74Z" transform="translate(-65.997 -174.101)"/></g><g transform="translate(90.099 229.137)"><path class="b" d="M67.531,197.412c5.929,6.57,17.307,5.769,17.467.16a13.478,13.478,0,0,1-6.41-2.884c-1.442-1.122-2.884-2.4-4.166-3.525a24.765,24.765,0,0,1-3.2-4.487,15.253,15.253,0,0,1-2.243-6.57C63.2,179.625,61.441,190.842,67.531,197.412Z" transform="translate(-63.725 -180.091)"/></g></g><g class="a" transform="translate(7.5 37.1)"><g transform="translate(588.842 183.963)"><path class="l" d="M414.445,202.057c-1.442-2.884,3.2-9.615,4.647-11.858,2.083-3.365,8.653-12.339,3.365-16.505-3.846-3.045-10.737,6.25-9.134-1.923.481-2.243,3.686-7.051,1.122-9.455-5.288-4.807-7.532,4.968-12.339,2.083-5.128-3.045-2.564-12.179-8.173-12.5h-.32c-4.968,2.564.8,9.935-2.724,14.743-3.365,4.487-9.134-3.686-12.179,2.724-1.442,3.045,3.365,6.25,4.647,8.333,4.487,6.891-5.448.961-7.692,5.288-3.365,5.929,6.25,11.7,9.294,14.1,2.083,1.6,8.974,5.929,8.814,9.134-.32,4.968-7.692-.16-10.1,3.525-2.564,3.846,5.288,7.532,8.333,9.615,7.051,4.807,12.659,11.378,18.749,19.39l.16.641v-.32c0,.16.16.16.16.32l-.16-.641c2.4-9.775,5.128-17.948,9.935-25,2.083-3.045,7.852-9.455,4.166-12.018C421.5,199.012,416.688,206.544,414.445,202.057Z" transform="translate(-374.96 -151.9)"/></g><g transform="translate(610.219 192.616)"><path class="d" d="M401.28,228.93h0c-.32,0-.641-.16-.641-.481-.16-.481-9.935-48.715-12.339-70.508,0-.32.16-.641.481-.641s.641.16.641.481c2.4,21.794,12.339,70.028,12.339,70.508A.858.858,0,0,1,401.28,228.93Z" transform="translate(-388.3 -157.3)"/></g><g transform="translate(601.285 201.207)"><path class="d" d="M395.184,175.063h-.32c-.32-.16-7.532-3.365-12.018-7.692a.567.567,0,0,1,.8-.8c3.686,3.686,9.775,6.57,11.378,7.211,1.282-1.282,7.051-6.73,8.173-10.737.16-.32.481-.481.641-.32.32.16.481.32.32.641-1.442,4.647-8.493,11.217-8.814,11.378C395.344,174.9,395.344,175.063,395.184,175.063Z" transform="translate(-382.725 -162.661)"/></g><g transform="translate(597.759 212.061)"><path class="d" d="M399.394,187.167h-.321c-.641-.16-14.262-3.365-18.428-8.173a.567.567,0,0,1,.8-.8c3.686,4.166,15.7,7.371,17.627,7.852A73.974,73.974,0,0,0,414.3,169.7c.16-.32.481-.32.8-.16s.32.481.16.8c-6.25,9.615-15.7,16.666-15.7,16.826Z" transform="translate(-380.525 -169.434)"/></g><g transform="translate(610.156 249.12)"><path class="d" d="M399.06,198.713h-.32c-2.243-.8-9.775-3.525-10.416-5.448-.16-.32,0-.641.321-.641.32-.16.641,0,.641.32.32.961,5.288,3.2,9.775,4.807.32.16.481.481.32.641A.345.345,0,0,1,399.06,198.713Z" transform="translate(-388.261 -192.561)"/></g><g transform="translate(620.835 242.871)"><path class="d" d="M395.526,200.9a.589.589,0,0,1-.481-.16.728.728,0,0,1,0-.8s7.211-7.211,8.653-10.9a.61.61,0,0,1,1.122.481c-1.6,3.846-8.653,10.9-8.974,11.217C395.686,200.9,395.686,200.9,395.526,200.9Z" transform="translate(-394.925 -188.661)"/></g><g transform="translate(611.701 235.019)"><path class="d" d="M396.556,191.836h-.321c-.16-.16-5.448-2.4-6.891-4.006a.567.567,0,0,1,.8-.8c.961,1.122,4.327,2.884,6.089,3.525,1.763-2.083,4.487-5.448,4.807-6.41.16-.32.32-.481.641-.32s.481.32.32.641c-.481,1.6-4.807,6.57-5.288,7.051C396.877,191.676,396.716,191.836,396.556,191.836Z" transform="translate(-389.225 -183.761)"/></g></g><g class="a" transform="translate(7.5 37.1)"><path class="m" d="M270.294,199.9c-3.2-.961-5.769-1.923-7.371-2.4-2.564-1.6-8.012-4.327-14.422-2.564.16.961,7.211,8.493,15.063,4.327,2.083.641,4.647,1.442,7.532,2.4a18.725,18.725,0,0,0-13.941,6.25c.641.641,11.378,2.884,15.063-5.929,4.006,1.282,8.814,2.724,14.582,4.166-2.884.16-9.294.961-13.781,6.25.641.641,11.378,2.884,15.063-5.929,2.243.641,4.487,1.122,6.891,1.763a48.107,48.107,0,0,0,9.134,1.282c-2.564.641-8.974,2.724-12.5,9.294.8.481,11.858.32,13.461-9.294a46.211,46.211,0,0,0,11.858-.961,18.924,18.924,0,0,0-8.974,10.1c.8.481,11.378-1.6,11.858-10.9a55.7,55.7,0,0,0,9.615-3.365,18.549,18.549,0,0,0-6.089,13.3c.961.16,10.416-5.128,7.692-14.1a43.542,43.542,0,0,0,8.333-5.128,5.113,5.113,0,0,0-1.122-.961,35.96,35.96,0,0,1-7.532,4.968c-3.045-8.814-13.781-7.852-14.422-7.211a18.732,18.732,0,0,0,13.461,7.532,50.985,50.985,0,0,1-9.775,3.045c-2.884-9.134-13.781-8.012-14.582-7.371a18.165,18.165,0,0,0,13.461,7.532c-1.6.32-3.365.641-5.288,1.122a35.856,35.856,0,0,1-8.493.32c-1.122-9.455-12.018-10.576-12.82-10.1,2.724,6.41,8.493,8.974,11.217,9.935a132.061,132.061,0,0,1-14.9-2.564c-.16-9.294-10.737-11.538-11.7-11.057,1.763,5.609,6.089,8.814,8.814,10.416-4.807-1.282-9.615-2.564-13.461-3.846.32-9.455-10.256-12.179-11.217-11.7A21.058,21.058,0,0,0,270.294,199.9Z" transform="translate(137.694 54.093)"/></g><g class="a" transform="translate(7.5 37.1)"><path class="m" d="M191.229,199.854c-.481-3.365-.8-6.089-.961-7.692.32-3.045.32-9.134-3.846-14.262-.8.481-4.487,10.1,2.564,15.544.32,2.243.641,4.807,1.122,7.852-1.282-2.4-4.807-8.012-11.7-9.935-.32.961,2.4,11.538,11.858,11.057.641,4.166,1.282,9.134,2.4,15.063-1.282-2.564-4.807-8.012-11.7-9.775-.32.962,2.4,11.538,11.858,11.057.481,2.243.961,4.487,1.442,6.891A47.26,47.26,0,0,0,197,234.467a18.218,18.218,0,0,0-13.781-7.211c-.16.961,4.807,10.737,14.1,8.173a53.688,53.688,0,0,0,5.929,10.416,18.49,18.49,0,0,0-12.98-3.686c0,.961,6.25,9.615,14.9,6.089a50.987,50.987,0,0,0,7.211,7.211,18.68,18.68,0,0,0-14.743.32c.32.961,9.134,7.211,16.185.961a41.893,41.893,0,0,0,8.333,5.288,2.635,2.635,0,0,0,.32-1.442,36.351,36.351,0,0,1-7.692-4.647c6.73-6.57,1.122-15.7.32-16.185-3.686,6.41-1.923,12.98-1.122,15.384a56.376,56.376,0,0,1-6.891-7.532c7.051-6.57,1.282-15.864.481-16.345-3.686,6.41-1.923,12.98-1.122,15.544-.961-1.282-2.083-2.724-3.2-4.327a46.805,46.805,0,0,1-4.006-7.532c8.173-4.968,4.327-15.384,3.525-15.864a19.171,19.171,0,0,0-4.166,14.422,96.858,96.858,0,0,1-4.006-14.582c8.333-4.166,5.769-14.582,4.968-15.223a18.366,18.366,0,0,0-5.609,12.5c-.961-4.968-1.763-9.775-2.243-13.941,8.653-3.846,6.57-14.422,5.769-15.223A19.692,19.692,0,0,0,191.229,199.854Z" transform="translate(95.452 47.727)"/></g><g class="a" transform="translate(7.5 37.1)"><g transform="translate(652.108 88.743)"><path class="k" d="M416.939,123.761a4.706,4.706,0,0,1,4.327-1.442c7.692,1.6,21.313-8.012,20.191-18.589a13.946,13.946,0,0,0-5.448-9.455h0a13.5,13.5,0,0,0-10.9-1.122c-10.1,3.365-13.14,19.71-8.653,25.96C417.26,120.716,417.9,122.318,416.939,123.761Z" transform="translate(-414.441 -92.479)"/></g><g transform="translate(658.828 85.073)"><path class="b" d="M435.565,92.45c-7.371-4.807-18.108-1.282-16.826,4.327A13.807,13.807,0,0,1,425.63,97.9c1.763.8,3.365,1.6,4.968,2.4a21.178,21.178,0,0,1,4.166,3.525,15.033,15.033,0,0,1,3.846,5.929C444.219,108.475,443.1,97.258,435.565,92.45Z" transform="translate(-418.634 -90.189)"/></g></g><g class="a" transform="translate(7.5 37.1)"><path class="j" d="M345.865,144.8s5.929,15.7,0,29.165c-4.807,10.576-16.826,16.345-21.153,18.428a329.842,329.842,0,0,0,15.063-33.171c.8-1.763.32-1.282,1.122-3.045-1.442,2.4-.961,1.122-1.763,2.724a343.783,343.783,0,0,0-15.544,33.011c-1.282-4.327-4.327-16.666.641-27.562C330.161,150.889,345.865,144.8,345.865,144.8Z" transform="translate(181.667 27.785)"/></g><g class="a" transform="translate(7.5 37.1)"><g transform="translate(467.756 200.29)"><path class="h" d="M333.213,245.114c-2.243,0-14.743-.481-24.037-10.1-10.1-10.737-12.339-27.082-6.891-42.946s5.929-18.589,5.288-27.883c-.641-9.134,3.686,13.941,15.223,22.755,29.806,22.915,18.428,41.344,10.737,58.33C333.534,245.114,333.373,245.916,333.213,245.114Z" transform="translate(-299.398 -162.089)"/></g><g transform="translate(470.311 224.661)"><path class="i" d="M312.863,223.132a122.9,122.9,0,0,1,13.3,3.686,57.634,57.634,0,0,0,5.929,7.371c.16.32-.641-1.122-.641-1.122-1.442-2.243-2.884-4.647-4.166-7.051,4.166-6.891,7.211-10.9,7.051-10.737-1.122,1.282-4.006,4.647-7.692,9.775a51,51,0,0,1-2.564-5.128c5.288-8.974,9.455-14.1,9.134-13.941a117.444,117.444,0,0,0-9.775,12.5c-.961-1.923-1.763-4.006-2.564-5.929,5.128-10.1,8.974-15.864,8.814-15.7-1.442,1.763-4.968,6.73-9.615,13.941l-1.923-5.288c4.327-9.935,7.852-15.864,7.692-15.7a119.7,119.7,0,0,0-8.333,13.941c-.641-2.083-1.282-4.006-1.763-6.089a140.741,140.741,0,0,1,6.57-14.1,108.1,108.1,0,0,0-7.051,12.339c-.641-2.243-1.122-4.487-1.6-6.41,1.763-6.57,3.365-10.576,3.2-10.416a68.551,68.551,0,0,0-3.686,8.814c-1.442-6.57-1.923-10.737-1.923-10.576,0,1.6.321,5.448.961,10.9a90.386,90.386,0,0,0-7.371-6.891,102.665,102.665,0,0,1,7.532,8.333c.32,2.083.641,4.487,1.282,7.051a126.591,126.591,0,0,0-11.217-8.012,129.451,129.451,0,0,1,11.538,9.775c.321,1.6.8,3.365,1.122,5.128a116.648,116.648,0,0,0-14.1-7.211,156.436,156.436,0,0,1,14.422,9.134c.16.481.16.8.321,1.282.481,1.6.8,3.045,1.442,4.647-7.692-3.686-13.14-5.769-15.384-6.57-.321,0,6.41,2.884,16.025,8.653a47.46,47.46,0,0,0,2.4,4.968,128.909,128.909,0,0,0-13.461-4.006c-.321,0,5.609,1.763,14.262,5.609a54.03,54.03,0,0,0,3.365,5.448A65.948,65.948,0,0,0,312.863,223.132Z" transform="translate(-300.992 -177.297)"/></g></g><g class="a" transform="translate(7.5 37.1)"><g transform="translate(551.655 154.626)"><path class="h" d="M367.532,217.734c-1.923-1.122-12.339-8.173-15.063-21.313-3.045-14.422,3.846-29.646,16.826-40.222,12.98-10.736,14.743-12.82,19.23-20.832,4.327-8.173-4.166,13.781.961,27.242,13.3,35.094-6.089,44.869-21.633,55.285C367.852,217.894,367.211,218.375,367.532,217.734Z" transform="translate(-351.754 -133.593)"/></g><g transform="translate(557.653 177.709)"><path class="i" d="M355.5,187.9A112.128,112.128,0,0,1,364.8,198a71.1,71.1,0,0,0,1.122,9.455c0,.32.16-1.282.16-1.282,0-2.724,0-5.448.16-8.173,7.211-3.686,11.858-5.448,11.7-5.448a103.894,103.894,0,0,0-11.538,4.166c.16-1.923.32-3.846.481-5.609,9.294-4.807,15.384-7.051,15.223-7.051a104.355,104.355,0,0,0-14.9,5.448c.32-2.243.481-4.327.961-6.41a161.1,161.1,0,0,1,15.864-8.653,155.009,155.009,0,0,0-15.544,6.891c.32-1.923.8-3.686,1.122-5.448,8.974-6.089,15.063-9.294,14.9-9.294a121.576,121.576,0,0,0-14.422,7.371c.481-2.083,1.122-4.166,1.6-6.089,7.852-5.769,13.3-8.653,12.98-8.653a127.342,127.342,0,0,0-12.5,6.73,60.209,60.209,0,0,1,2.083-6.41c4.968-4.647,8.333-7.211,8.333-7.051a64.793,64.793,0,0,0-7.692,5.609A89.749,89.749,0,0,1,378.9,148a90.439,90.439,0,0,0-4.807,9.775c-1.122-4.968-2.243-8.333-2.564-9.615a90.874,90.874,0,0,1,2.083,11.057c-.8,1.923-1.763,4.166-2.564,6.57-2.4-6.57-4.487-10.9-5.288-12.659-.16-.16,2.083,5.288,4.647,14.422-.481,1.6-1.122,3.2-1.763,4.968-3.846-7.051-6.891-11.7-8.173-13.621-.16-.16,3.2,5.609,7.532,15.384a3.771,3.771,0,0,0-.32,1.282c-.481,1.6-.8,3.045-1.122,4.647a130.65,130.65,0,0,0-9.615-13.621c-.16-.16,3.846,5.769,9.134,15.7-.32,1.763-.481,3.686-.641,5.448a98.32,98.32,0,0,0-9.294-10.416,150.1,150.1,0,0,1,9.294,12.179,42.741,42.741,0,0,0,0,6.41C360.309,191.749,356.944,189.025,355.5,187.9Z" transform="translate(-355.497 -147.997)"/></g></g><g class="a" transform="translate(7.5 37.1)"><g transform="translate(413.232 216.493)"><path class="h" d="M297.145,204.089c.16-.481,0-.481.32-1.122a32.287,32.287,0,0,1-8.814-4.327,33.69,33.69,0,0,1-5.448-5.288c-1.122-1.442-1.122-1.763-1.282-3.686-.641-15.7-8.493-11.858-16.505-17.467-.641,11.858,5.929,16.986,13.461,19.871,1.763.641,2.243.641,3.365,2.083a28.981,28.981,0,0,0,5.609,5.288,29.759,29.759,0,0,0,9.294,4.647Z" transform="translate(-265.373 -172.2)"/></g><g transform="translate(434.428 226.045)"><path class="h" d="M278.6,178.224c3.365,10.737-1.923,22.595,16.185,23.076-3.365-5.609,2.724-24.357-16.185-23.076Z" transform="translate(-278.6 -178.161)"/></g><g transform="translate(406.065 237.43)"><path class="h" d="M260.9,194.455c11.217,1.442,19.71,11.217,27.723-5.128-6.41.8-20.992-12.5-27.723,5.128Z" transform="translate(-260.9 -185.265)"/></g></g><g class="a" transform="translate(7.5 37.1)"><g transform="translate(533.507 174.278)"><ellipse class="n" cx="9.455" cy="9.775" rx="9.455" ry="9.775" transform="translate(0 18.896) rotate(-87.845)"/><g class="o" transform="translate(14.413 9.484)"><circle class="p" cx="1.763" cy="1.763" r="1.763" transform="translate(0 3.262) rotate(-67.734)"/></g><g transform="translate(4.316 3.2)"><path class="b" d="M345.33,148.249c1.6-.641,3.045-.481,3.525.32.321.8-.641,2.083-2.083,2.724-1.6.641-3.045.481-3.525-.32S343.727,148.89,345.33,148.249Z" transform="translate(-343.122 -147.853)"/></g></g><g transform="translate(536.137 158.576)"><circle class="n" cx="5.609" cy="5.609" r="5.609" transform="translate(0 11.209) rotate(-87.843)"/><g class="o" transform="translate(8.383 5.735)"><circle class="p" cx="0.961" cy="0.961" r="0.961" transform="translate(0 1.78) rotate(-67.752)"/></g><g transform="translate(2.061 1.551)"><ellipse class="b" cx="1.763" cy="0.961" rx="1.763" ry="0.961" transform="translate(0 1.368) rotate(-22.824)"/></g></g><g transform="translate(556.035 177.096)"><circle class="n" cx="5.609" cy="5.609" r="5.609" transform="translate(0 11.209) rotate(-87.844)"/><g class="o" transform="translate(8.378 5.713)"><circle class="p" cx="0.961" cy="0.961" r="0.961" transform="translate(0 1.779) rotate(-67.734)"/></g><g transform="translate(2.042 1.481)"><ellipse class="b" cx="1.763" cy="0.961" rx="1.763" ry="0.961" transform="translate(0 1.362) rotate(-22.724)"/></g></g><g transform="translate(549.853 158.016)"><ellipse class="n" cx="7.692" cy="7.852" rx="7.692" ry="7.852" transform="translate(0 15.373) rotate(-87.834)"/><g class="o" transform="translate(11.587 7.695)"><circle class="p" cx="1.442" cy="1.442" r="1.442" transform="matrix(0.379, -0.925, 0.925, 0.379, 0, 2.67)"/></g><g transform="translate(3.298 2.752)"><path class="b" d="M354.47,137.705c1.282-.481,2.4-.32,2.724.32s-.481,1.6-1.763,2.243c-1.282.481-2.4.32-2.724-.32C352.547,139.147,353.349,138.186,354.47,137.705Z" transform="translate(-352.687 -137.426)"/></g></g></g><g class="a" transform="translate(7.5 37.1)"><g transform="translate(658.908 44.035)"><ellipse class="n" cx="9.455" cy="9.775" rx="9.455" ry="9.775" transform="matrix(0.887, -0.462, 0.462, 0.887, 0, 8.736)"/><g class="o" transform="translate(12.445 17.576)"><circle class="p" cx="1.763" cy="1.763" r="1.763" transform="translate(0 0.455) rotate(-7.418)"/></g><g transform="translate(12.845 5.668)"><path class="b" d="M430.225,69.051c1.282.961,1.923,2.4,1.442,3.2-.641.8-2.083.481-3.365-.481s-1.923-2.4-1.442-3.2C427.5,67.769,428.943,68.09,430.225,69.051Z" transform="translate(-426.7 -68.117)"/></g></g><g transform="translate(680.49 38.082)"><circle class="n" cx="5.609" cy="5.609" r="5.609" transform="translate(0 5.183) rotate(-27.523)"/><g class="o" transform="translate(7.475 10.538)"><circle class="p" cx="0.961" cy="0.961" r="0.961" transform="translate(0 0.248) rotate(-7.418)"/></g><g transform="translate(7.069 2.87)"><ellipse class="b" cx="0.961" cy="1.763" rx="0.961" ry="1.763" transform="matrix(0.609, -0.793, 0.793, 0.609, 0, 1.525)"/></g></g><g transform="translate(674.287 64.605)"><circle class="n" cx="5.609" cy="5.609" r="5.609" transform="matrix(0.887, -0.462, 0.462, 0.887, 0, 5.182)"/><g class="o" transform="translate(7.396 10.306)"><ellipse class="p" cx="0.961" cy="1.122" rx="0.961" ry="1.122" transform="matrix(0.992, -0.129, 0.129, 0.992, 0, 0.248)"/></g><g transform="translate(7.137 2.742)"><ellipse class="b" cx="0.961" cy="1.763" rx="0.961" ry="1.763" transform="matrix(0.609, -0.793, 0.793, 0.609, 0, 1.525)"/></g></g><g transform="translate(684.177 49.851)"><ellipse class="n" cx="7.692" cy="7.852" rx="7.692" ry="7.852" transform="matrix(0.887, -0.462, 0.462, 0.887, 0, 7.106)"/><g class="o" transform="translate(10.17 14.374)"><circle class="p" cx="1.442" cy="1.442" r="1.442" transform="translate(0 0.373) rotate(-7.435)"/></g><g transform="translate(9.61 3.997)"><ellipse class="b" cx="1.442" cy="2.404" rx="1.442" ry="2.404" transform="matrix(0.609, -0.793, 0.793, 0.609, 0, 2.287)"/></g></g></g><g class="a" transform="translate(7.5 37.1)"><g transform="translate(540.672 209.423)"><path class="g" d="M379.193,214.759c1.923-2.724,10.1-1.763,12.659-1.6,3.846.16,14.9,1.763,16.185-4.968.961-4.807-10.576-6.41-2.724-8.974,2.243-.641,8.012-.16,8.814-3.525,1.763-6.891-7.852-4.327-7.692-9.775.32-5.929,9.455-8.012,7.211-13.14h0l-.16-.16v-.16h0c-4.487-3.2-8.333,5.448-14.262,4.647-5.448-.8-1.122-9.775-8.173-9.294-3.365.16-4.006,5.929-5.128,8.012-4.006,7.211-3.365-4.327-8.333-4.327-6.73,0-7.371,11.057-7.852,14.9-.32,2.564-.961,10.737-3.846,12.179-4.487,2.083-3.525-6.73-7.852-7.211-4.647-.32-4.006,8.173-4.487,11.858-.8,8.493-3.846,16.505-8.173,25.639l-.481.32c.16,0,.16,0,.32-.16,0,.16-.16.16-.16.32l.481-.32c9.775-2.564,18.268-4.006,26.761-3.2,3.686.32,12.018,2.4,12.5-2.083C385.282,219.406,376.308,218.765,379.193,214.759Z" transform="translate(-344.9 -167.788)"/></g><g transform="translate(546 220.714)"><path class="d" d="M348.345,220.289h0a.715.715,0,0,1,0-.8c.321-.32,38.139-31.889,56.086-44.549.32-.16.641-.16.8.16s.16.641-.16.8c-17.948,12.5-55.606,44.228-56.086,44.548A1.6,1.6,0,0,1,348.345,220.289Z" transform="translate(-348.225 -174.834)"/></g><g transform="translate(585.895 218.674)"><path class="d" d="M373.408,188.527c-.16-.16-.16-.16-.16-.32,0-.32-.641-8.333.961-14.262.16-.32.32-.481.641-.32s.481.32.32.641c-1.442,4.968-1.122,11.858-.961,13.461,1.763.641,9.294,2.884,13.3,2.083.32,0,.641.16.641.481s-.16.641-.481.641c-4.807.961-13.781-2.083-14.262-2.243C373.568,188.687,373.408,188.687,373.408,188.527Z" transform="translate(-373.121 -173.561)"/></g><g transform="translate(570.717 223.16)"><path class="d" d="M366.134,197.1l-.16-.16c-.16-.641-3.846-14.262-1.6-20.191a.585.585,0,0,1,.8-.32c.32.16.481.481.32.641-1.923,5.128.961,17.307,1.6,19.23a71.081,71.081,0,0,0,21.633,5.609c.321,0,.481.32.481.641s-.32.481-.641.481c-11.378-.8-22.114-5.769-22.274-5.769Z" transform="translate(-363.649 -176.361)"/></g><g transform="translate(552.09 247.556)"><path class="d" d="M352.946,203.948a.56.56,0,0,1-.16-.32c-.321-2.4-1.442-10.256-.16-11.858a.529.529,0,0,1,.8,0c.321.16.321.481,0,.8-.641.8-.32,6.25.481,10.9,0,.32-.16.641-.481.641A.589.589,0,0,1,352.946,203.948Z" transform="translate(-352.025 -191.585)"/></g><g transform="translate(553.171 259.376)"><path class="d" d="M352.86,199.825a.589.589,0,0,1-.16-.481c.16-.32.32-.481.641-.32.16,0,9.775,2.884,13.781,2.4.32,0,.641.16.641.481s-.16.641-.481.641c-4.166.481-13.781-2.4-14.1-2.4Z" transform="translate(-352.7 -198.961)"/></g><g transform="translate(562.482 243.832)"><path class="d" d="M358.814,197.817c-.16-.16-.16-.16-.16-.32s-.481-5.929.32-7.852c.16-.32.481-.481.641-.32.32.16.481.481.32.641-.481,1.442-.32,5.288-.32,7.051,2.724.641,6.891,1.282,7.852,1.122.321,0,.641.16.641.481s-.16.641-.481.641c-1.6.32-8.012-1.122-8.814-1.282C358.974,197.977,358.974,197.977,358.814,197.817Z" transform="translate(-358.511 -189.261)"/></g></g><g class="a" transform="translate(7.5 37.1)"><g transform="translate(299.981 218.841)"><path class="g" d="M224.025,215.866c1.442-2.4,8.814-2.083,11.057-2.243,3.365,0,13.3.641,13.941-5.448.481-4.327-9.775-4.968-2.884-7.692,1.923-.8,7.051-.641,7.532-3.686,1.122-6.25-7.211-3.365-7.371-8.173-.16-5.288,7.852-7.692,5.609-12.018h-.16v-.16h0c-4.166-2.564-7.051,5.288-12.339,4.968-4.968-.32-1.6-8.493-7.852-7.692-3.045.32-3.045,5.448-4.006,7.371-3.045,6.57-3.2-3.525-7.532-3.365-6.089.32-5.769,10.256-6.089,13.621-.16,2.243-.16,9.615-2.724,10.9-3.846,2.083-3.525-5.769-7.371-5.929-4.166,0-3.045,7.532-3.2,10.737-.16,7.532-2.4,14.9-5.609,23.236l-.32.32c.16,0,.16,0,.32-.16,0,.16,0,.16-.16.32l.32-.32c8.493-2.884,15.864-4.647,23.4-4.487,3.365,0,10.737,1.442,10.9-2.724C229.634,219.551,221.782,219.551,224.025,215.866Z" transform="translate(-194.7 -173.666)"/></g><g transform="translate(304.348 227.911)"><path class="d" d="M197.545,222.872h0a.487.487,0,0,1,0-.641c.32-.32,31.729-30.607,46.792-42.786a.453.453,0,0,1,.641.641c-15.063,12.179-46.471,42.465-46.792,42.786A.487.487,0,0,1,197.545,222.872Z" transform="translate(-197.425 -179.325)"/></g><g transform="translate(337.141 227.006)"><path class="d" d="M218.548,192.124a.56.56,0,0,1-.16-.32c0-.32-1.122-7.211,0-12.659,0-.32.32-.481.641-.32.32,0,.481.32.32.641a35.465,35.465,0,0,0,0,11.858c1.6.32,8.493,2.083,11.858.961.32,0,.481,0,.641.32,0,.32,0,.481-.32.641-4.166,1.122-12.339-.961-12.659-1.122Z" transform="translate(-217.889 -178.761)"/></g><g transform="translate(323.961 231.814)"><path class="d" d="M212.766,200.092l-.16-.16c-.16-.481-4.166-12.339-2.564-17.787,0-.32.32-.481.641-.32s.481.32.32.641c-1.442,4.647,1.923,15.223,2.564,16.826,1.442.481,10.416,3.525,19.39,3.686a.481.481,0,1,1,0,.961,60.046,60.046,0,0,1-20.031-3.846C212.766,200.252,212.766,200.252,212.766,200.092Z" transform="translate(-209.664 -181.761)"/></g><g transform="translate(308.632 254.565)"><path class="d" d="M201.543,206.922a.56.56,0,0,1-.16-.32c-.481-2.083-1.923-8.974-.961-10.416.16-.16.481-.32.641-.16s.32.481.16.641c-.481.641.16,5.448,1.122,9.615a.833.833,0,0,1-.32.641A.3.3,0,0,1,201.543,206.922Z" transform="translate(-200.098 -195.959)"/></g><g transform="translate(310.237 264.985)"><path class="d" d="M201.26,203.325a.589.589,0,0,1-.16-.481c0-.32.32-.481.641-.32.16,0,8.814,1.923,12.339,1.282a.507.507,0,0,1,.32.961c-3.686.641-12.339-1.282-12.659-1.282A1.24,1.24,0,0,0,201.26,203.325Z" transform="translate(-201.1 -202.461)"/></g><g transform="translate(317.68 250.563)"><path class="d" d="M206.314,201.215a.56.56,0,0,1-.16-.32c0-.16-.8-5.128-.16-7.051,0-.32.32-.481.641-.32.32,0,.481.32.32.641-.32,1.282,0,4.647.16,6.25,2.4.32,6.25.8,7.051.481.32-.16.481,0,.641.32,0,.32,0,.481-.32.641-1.282.481-7.211-.481-7.852-.481C206.474,201.376,206.474,201.215,206.314,201.215Z" transform="translate(-205.745 -193.461)"/></g></g><g class="a" transform="translate(7.5 37.1)"><g transform="translate(484.745 185.085)"><path class="c" d="M396.693,170.548l-.481-.16a10.429,10.429,0,0,1-1.763,2.4c-1.122,1.122-2.724,2.243-4.647,1.763l.481-3.525-3.686,2.243,1.282-2.4-.481.16a30.629,30.629,0,0,0-14.1,8.333,33.994,33.994,0,0,0-6.891,9.935s-2.083,4.807-4.487,10.1c4.327-11.217,9.455-25.639,10.256-32.37a6.969,6.969,0,0,0-1.763-5.448.56.56,0,0,0-.32-.16l-.321-.32v1.6a2.494,2.494,0,0,1-.481,1.442c-.16,0-.16.16-.32.16a6.206,6.206,0,0,0-1.122-5.288l-.16-.32-.8,1.442c-.16-.8-.32-2.4-1.282-3.2l-.16-.16-.16-.16-1.282,1.6a4.777,4.777,0,0,0-1.122-2.564l-.481-.481-.32-.16v.641a1.215,1.215,0,0,1-.32.641.637.637,0,0,1-.8.16,6.51,6.51,0,0,1-2.243-1.6,22.84,22.84,0,0,1-1.763-1.923h0a.222.222,0,0,0-.32,0h0v-.16h.16l-.16-.16h-.32a22.836,22.836,0,0,0-1.923,1.763,11.3,11.3,0,0,1-2.4,1.442.636.636,0,0,1-.8-.16.963.963,0,0,1-.16-.641v-.641l-.32.16c-.16,0-.32.16-.641.32a3.648,3.648,0,0,0-1.442,2.4l-1.122-1.763-.16.16-.16.16a5.663,5.663,0,0,0-1.6,3.045l-.641-1.442-.16.32a6.132,6.132,0,0,0-1.6,5.128c-.16,0-.16,0-.32-.16a3.828,3.828,0,0,1-.32-1.442v-1.6l-.481.32c-.16,0-.16.16-.321.16a7.193,7.193,0,0,0-2.4,5.128c-.16,6.73,3.365,21.794,6.41,33.331-1.763-5.609-3.365-10.576-3.365-10.576a35.82,35.82,0,0,0-5.769-10.737c-5.929-7.532-12.98-9.775-13.14-9.775l-.481-.16,1.122,2.564-3.365-2.724v3.686a5.11,5.11,0,0,1-4.327-2.243,18.942,18.942,0,0,1-1.6-2.564l-.481.16c.481,2.4.481,2.4,0,6.73a12.62,12.62,0,0,0,.481,5.288h-.32a7.817,7.817,0,0,0-1.122-.481,7.092,7.092,0,0,1-1.442-.8l-.32-.16-.16.32a10.4,10.4,0,0,0,.321,5.128l-.961-.481a2.259,2.259,0,0,1-.8-.481v-.32a19.589,19.589,0,0,0,4.166,8.653c7.371,9.294,22.435,18.108,29.966,22.114a65.95,65.95,0,0,0-19.23-4.006h-.32l.16.32a2.557,2.557,0,0,1,.481,1.282c-1.282.16-3.525.481-3.525.481h-.481l.32.32c.32.481.961,1.282,1.282,1.763-2.083.8-6.41,1.923-6.41,1.923l-.32.16.16.32c1.6,1.923,6.73,4.166,8.012,4.807a1.2,1.2,0,0,1-.8.16,1.657,1.657,0,0,1-.641-.16l-.8-.16.641.641a15.556,15.556,0,0,0,3.525,1.923c0,.16-.16.16-.32.32a.5.5,0,0,1-.321.16h-.16l-.16.481c10.256,4.647,19.55-.481,23.076-2.884h0a3.5,3.5,0,0,0,.8-.481,7.223,7.223,0,0,1,2.243-1.6c-.8,10.416-2.4,22.915-5.769,29.966,2.243.8,3.365-1.6,3.365-1.6s3.525-4.968,4.006-28.524a4.939,4.939,0,0,1,2.4,1.763c2.243,2.083,12.018,10.576,23.877,6.73v-.481h-.16c-.16,0-.16-.16-.32-.16a.56.56,0,0,1-.16-.32,15.716,15.716,0,0,0,3.686-1.442l.641-.481-.8.16h-.641c-.32,0-.481-.16-.8-.16,1.442-.481,6.891-2.083,8.493-3.846l.32-.32-.32-.16s-4.166-1.6-6.25-2.724a13.014,13.014,0,0,1,1.442-1.6l.32-.32-.481-.16a32.461,32.461,0,0,1-3.525-.961,9.452,9.452,0,0,1,.641-1.282l.16-.32h-.32a64.8,64.8,0,0,0-19.55,1.923c8.012-3.2,23.877-10.256,32.37-18.749,2.564-2.564,4.487-5.288,5.128-8.012l.16-.481-.481.16a6.74,6.74,0,0,1-.8.32,2.277,2.277,0,0,1-.961.32c.32-.8,1.282-3.2.8-4.968v-.32l-.321.16-1.6.641a2.971,2.971,0,0,1-1.122.32h-.32a11.322,11.322,0,0,0,1.122-5.128A23.937,23.937,0,0,1,396.693,170.548Z" transform="translate(-310 -152.6)"/></g><g transform="translate(497.085 199.186)"><g transform="translate(29.806)"><path class="d" d="M340.466,161.4c.16,0,.16.16.16.32.481,8.814-3.045,41.183-3.686,46.632,4.327-3.686,30.927-25.96,36.7-31.889a.34.34,0,1,1,.481.481c-6.25,6.41-37.017,32.049-37.337,32.37-.16.16-.16.16-.32,0-.16,0-.16-.16-.16-.32,0-.32,4.487-37.818,3.846-47.273-.16-.16,0-.321.321-.321Z" transform="translate(-336.3 -161.4)"/></g><g transform="translate(1.282 46.792)"><path class="d" d="M371.381,195.407c.16,0,.16.16.16.32a.345.345,0,0,1-.321.32c-7.051.481-22.595-3.846-24.037-4.327-1.6.32-19.871,4.166-28.524-.481a.358.358,0,0,1,.32-.641c8.653,4.807,27.883.481,28.2.481h.16c.16,0,16.826,4.807,24.037,4.327Z" transform="translate(-318.5 -190.6)"/></g><g transform="translate(0 10.416)"><path class="d" d="M318.02,167.9a.157.157,0,0,1,.16.16c4.968,11.858,29.485,36.376,29.806,36.7a.34.34,0,1,1-.481.481c-.321-.32-24.838-24.838-29.806-36.857a.589.589,0,0,1,.16-.481Z" transform="translate(-317.7 -167.9)"/></g><g transform="translate(32.891 7.532)"><path class="d" d="M346.037,166.1h0c.16.16.32.32.16.481-2.243,3.686-7.371,9.294-7.371,9.455a.34.34,0,0,1-.481-.481,100.95,100.95,0,0,0,7.371-9.294C345.716,166.1,345.877,166.1,346.037,166.1Z" transform="translate(-338.225 -166.1)"/></g><g transform="translate(23.396 15.704)"><path class="d" d="M332.781,171.36a.157.157,0,0,1,.16.16c1.923,4.487,8.493,9.615,8.493,9.615a.34.34,0,0,1-.481.481c-.32-.16-6.73-5.288-8.653-9.935a.589.589,0,0,1,.16-.481C332.62,171.36,332.62,171.36,332.781,171.36Z" transform="translate(-332.3 -171.2)"/></g><g transform="translate(5.288 11.538)"><path class="d" d="M321.961,168.6c.16,0,.16.16.16.32a67.21,67.21,0,0,1-.481,8.012.321.321,0,0,1-.641,0,39.7,39.7,0,0,0,.481-7.852c.16-.321.16-.481.481-.481Z" transform="translate(-321 -168.6)"/></g><g transform="translate(5.008 31.128)"><path class="d" d="M332.964,183.189c.16,0,.16.16.16.32a.345.345,0,0,1-.32.32c-.321,0-9.455-.641-11.858-2.4a.34.34,0,0,1,.481-.481c2.243,1.6,11.378,2.243,11.538,2.243Z" transform="translate(-320.825 -180.825)"/></g><g transform="translate(4.006 44.482)"><path class="d" d="M320.52,189.225h0c1.923.8,5.769,4.327,5.929,4.487a.34.34,0,0,1-.481.481s-3.846-3.686-5.609-4.327c-.16,0-.16-.32-.16-.481S320.36,189.065,320.52,189.225Z" transform="translate(-320.2 -189.159)"/></g><g transform="translate(12.018 48.875)"><path class="d" d="M330.969,191.9h0c.16.16.32.32.16.481s-2.724,4.006-5.609,4.647c-.16,0-.32,0-.32-.16s0-.32.16-.32c2.564-.641,5.128-4.327,5.128-4.327C330.648,191.9,330.809,191.9,330.969,191.9Z" transform="translate(-325.2 -191.9)"/></g><g transform="translate(46.992 47.753)"><path class="d" d="M351.953,191.2a.157.157,0,0,1,.16.16.589.589,0,0,1-.16.481c-1.442.481-4.327,3.2-4.327,3.2a.34.34,0,1,1-.481-.481c.16-.16,3.045-2.884,4.647-3.365Z" transform="translate(-347.025 -191.2)"/></g><g transform="translate(40.222 49.837)"><path class="d" d="M343.281,192.5a.157.157,0,0,1,.16.16,8.962,8.962,0,0,0,5.288,4.807c.16,0,.16.16.16.481,0,.16-.16.16-.321.16h0a10.837,10.837,0,0,1-5.769-5.128c0-.16,0-.32.16-.32A.5.5,0,0,1,343.281,192.5Z" transform="translate(-342.8 -192.5)"/></g><g transform="translate(57.849 23.076)"><path class="d" d="M364.376,175.8c.16,0,.16.16.16.32a.345.345,0,0,1-.32.32c-3.2.481-9.775,0-10.1,0a.32.32,0,1,1,0-.641c.32,0,7.051.481,10.256,0Z" transform="translate(-353.8 -175.8)"/></g><g transform="translate(50.798 18.589)"><path class="d" d="M352.445,173h0c.16.16.32.32.16.481-2.243,3.686-2.564,10.576-2.564,10.737a.32.32,0,0,1-.641,0c0-.32.32-7.211,2.724-10.9C352.124,173,352.284,173,352.445,173Z" transform="translate(-349.4 -173)"/></g><g transform="translate(41.664 36.696)"><path class="d" d="M353.8,184.46a.157.157,0,0,1,.16.16c0,.16,0,.32-.16.32-4.006,1.282-9.455.32-9.775.32a.32.32,0,1,1,0-.641s5.448.961,9.455-.32A.5.5,0,0,0,353.8,184.46Z" transform="translate(-343.7 -184.3)"/></g><g transform="translate(11.217 21.473)"><path class="d" d="M325.982,174.8c.16,0,.16.16.16.32l-.8,5.609a.321.321,0,0,1-.641,0l.8-5.609c0-.16.16-.32.481-.32Z" transform="translate(-324.7 -174.8)"/></g><g transform="translate(23.075 34.453)"><path class="d" d="M332.9,182.9c.16,0,.16.16.16.32l-.32,6.089a.32.32,0,1,1-.641,0l.32-6.089c.16-.16.32-.32.481-.32Z" transform="translate(-332.1 -182.9)"/></g><g transform="translate(30.487 33.331)"><path class="d" d="M341.332,182.2h0c.16.16.32.32.16.481a35.052,35.052,0,0,1-4.166,5.929.34.34,0,0,1-.481-.481,36.557,36.557,0,0,0,4.006-5.769A.589.589,0,0,1,341.332,182.2Z" transform="translate(-336.725 -182.2)"/></g></g></g><g class="a" transform="translate(7.5 37.1)"><g transform="translate(440.518 221.461)"><path class="q" d="M321.821,202.542c-.641-5.448-3.2-9.935-5.769-15.223.481,3.846-.16,5.929-.481,8.653-2.564-6.73-10.416-10.1-15.544-14.743a25.76,25.76,0,0,1,4.166,7.371,92.014,92.014,0,0,1-18.108-13.3,89.556,89.556,0,0,1,3.045,22.114,25.91,25.91,0,0,1-4.487-7.211c1.6,6.73.8,15.223,5.609,20.672-2.724-1.122-4.807-1.442-7.852-3.686,3.525,4.647,6.25,9.134,10.737,12.339-2.083-.32-4.327-.16-6.41-.481,2.724.481,8.012,6.089,11.7,7.371a23.227,23.227,0,0,0,14.743.16,19.129,19.129,0,0,0,2.564-1.282,8.981,8.981,0,0,0,2.4-1.6c3.686-3.2,5.929-8.012,6.891-12.98.8-4.006-1.763-11.217-.8-13.781C323.744,198.856,322.462,200.619,321.821,202.542Z" transform="translate(-282.4 -175.3)"/></g><g transform="translate(447.088 227.069)"><path class="d" d="M319.35,230.56c-.16,0-.16,0-.32-.16-1.282-1.763-30.126-41.985-32.53-51.279,0-.16,0-.32.16-.32s.32,0,.32.16c2.243,9.134,32.21,50.638,32.53,51.119a.589.589,0,0,1-.16.481Z" transform="translate(-286.5 -178.8)"/><g transform="translate(2.764 17.988)"><path class="d" d="M296.357,191.748h0c-.321,0-6.41.641-8.012-1.282-.16-.16-.16-.32,0-.32.16-.16.321-.16.321,0,1.282,1.442,5.929,1.282,7.532,1.122a.345.345,0,0,1,.321.32A.157.157,0,0,0,296.357,191.748Z" transform="translate(-288.225 -190.025)"/></g><g transform="translate(15.864 14.903)"><path class="d" d="M296.72,200.92h0c-.32,0-.32-.16-.32-.32,0,0,2.083-7.371,1.282-12.179a.56.56,0,0,1,.16-.32c.16,0,.321,0,.321.16.8,4.968-1.282,12.018-1.282,12.339S296.72,200.92,296.72,200.92Z" transform="translate(-296.4 -188.1)"/></g><g transform="translate(7.251 35.134)"><path class="d" d="M305.567,204.21c-3.045.481-9.615.961-14.422-3.045-.16-.16-.16-.32,0-.32.16-.16.32-.16.32,0,6.089,4.968,15.384,2.724,15.384,2.724.16,0,.32,0,.32.16s0,.32-.16.32C307.17,203.89,306.529,204.05,305.567,204.21Z" transform="translate(-291.025 -200.725)"/></g></g></g></g></svg>