<svg xmlns="http://www.w3.org/2000/svg" xmlns:xlink="http://www.w3.org/1999/xlink" viewBox="0 0 702.2 257.997"><defs><style>.a{clip-path:url(#a);}.b,.h{fill:#814d23;}.c{fill:#f0774a;}.d{fill:#594a42;}.e{fill:#ed916c;}.f{fill:#ff7016;}.g{fill:#93330b;}.h,.i,.j{fill-rule:evenodd;}.i{fill:#f3ebd6;}.j{fill:#ffb339;}.k{fill:#cfbd9f;}.l{fill:#d0984e;}.m{fill:#b2ab52;}.n{fill:#fb402b;}.o{opacity:0.4;}.p{fill:#fff;}.q{fill:#fea92a;}</style><clipPath id="a"><rect width="702.2" height="257.997"/></clipPath></defs><g class="a"><g transform="translate(49.516 85.304)"><path class="b" d="M68.847,130.823s11.538-25.319-9.294-35.9a8.8,8.8,0,0,0-8.814.961,1.919,1.919,0,0,0-.641.641c-5.769-4.487-10.737-6.73-11.7-6.089a57.462,57.462,0,0,1,11.217,6.57c-.16.16-.16.32-.32.481-1.122,1.122-4.968,5.929,4.327,14.743,1.923,1.923,11.377,7.211,14.582,13.621.481,2.884.641,4.807.641,4.968Zm-.16-3.525a6.572,6.572,0,0,1,.16,3.525C68.847,129.541,68.687,128.419,68.687,127.3Z" transform="translate(-38.4 -90.333)"/></g><g transform="translate(7.371 -51.603)"><g transform="translate(0 0)"><path class="c" d="M14.984,81.659l.481.16a10.429,10.429,0,0,1,1.763-2.4c1.122-1.122,2.724-2.243,4.647-1.763l-.481,3.525,3.686-2.243-1.282,2.4.481-.16a30.629,30.629,0,0,0,14.1-8.333,34,34,0,0,0,6.891-9.935s2.083-4.807,4.487-10.1C45.431,64.032,40.143,78.454,39.5,85.185a6.969,6.969,0,0,0,1.763,5.448.559.559,0,0,0,.32.16l.32.32v-1.6a2.494,2.494,0,0,1,.481-1.442c.16,0,.16-.16.32-.16A6.206,6.206,0,0,0,43.829,93.2l.16.32.8-1.442c.16.8.32,2.4,1.282,3.2l.16.16.16.16L47.675,94A4.777,4.777,0,0,0,48.8,96.562l.481.481.32.16v-.641a1.215,1.215,0,0,1,.32-.641.636.636,0,0,1,.8-.16,6.509,6.509,0,0,1,2.243,1.6,22.834,22.834,0,0,1,1.763,1.923h0a.222.222,0,0,0,.32,0h0v.16h0l.16.16h.32a22.838,22.838,0,0,0,1.923-1.763,11.3,11.3,0,0,1,2.4-1.442.636.636,0,0,1,.8.16.963.963,0,0,1,.16.641v.641l.32-.16c.16,0,.32-.16.641-.32a3.648,3.648,0,0,0,1.442-2.4l1.122,1.763.16-.16.16-.16a5.663,5.663,0,0,0,1.6-3.045L66.9,94.8l.16-.32a6.132,6.132,0,0,0,1.6-5.128c.16,0,.16,0,.32.16a3.827,3.827,0,0,1,.32,1.442v1.6l.481-.32c.16,0,.16-.16.32-.16a7.193,7.193,0,0,0,2.4-5.128c0-6.73-3.365-21.794-6.41-33.331,1.763,5.609,3.365,10.576,3.365,10.576a35.819,35.819,0,0,0,5.769,10.737c5.929,7.532,12.98,9.775,13.14,9.775l.481.16L87.736,82.3,91.1,85.024V81.339a5.11,5.11,0,0,1,4.327,2.243,18.942,18.942,0,0,1,1.6,2.564l.481-.16c-.481-2.4-.481-2.4,0-6.73a12.618,12.618,0,0,0-.481-5.288h.32a7.813,7.813,0,0,0,1.122.481,7.1,7.1,0,0,1,1.442.8l.32.16.16-.32a10.4,10.4,0,0,0-.32-5.128l.961.481a2.258,2.258,0,0,1,.8.481l.481.32v-.481a19.59,19.59,0,0,0-4.166-8.653C90.781,52.815,75.718,44,68.186,40A65.948,65.948,0,0,0,87.416,44h.32l-.16-.32A2.557,2.557,0,0,1,87.1,42.4c1.282-.16,3.525-.481,3.525-.481H91.1l-.32-.32c-.32-.481-.961-1.282-1.282-1.763,2.083-.8,6.41-1.923,6.41-1.923l.32-.16-.16-.32c-1.6-1.923-6.73-4.166-8.012-4.807a1.2,1.2,0,0,1,.8-.16,1.658,1.658,0,0,1,.641.16l.8.16-.641-.641a15.558,15.558,0,0,0-3.525-1.923c0-.16.16-.16.32-.32a.5.5,0,0,1,.32-.16h.16l.16-.481c-11.057-3.846-20.351,1.282-23.877,3.686h0a3.5,3.5,0,0,0-.8.481,7.223,7.223,0,0,1-2.243,1.6c.8-10.416,2.4-22.915,5.769-29.966-2.243-.8-3.365,1.6-3.365,1.6s-3.525,4.968-4.006,28.524a4.938,4.938,0,0,1-2.4-1.763c-2.243-2.083-12.018-10.576-23.877-6.73v.481h.16c.16,0,.16.16.32.16a.559.559,0,0,1,.16.32A15.715,15.715,0,0,0,29.246,29.1l-.641.481.8-.16h.641c.32,0,.481.16.8.16-1.442.481-6.891,2.083-8.493,3.846l-.32.32.32.16s4.166,1.6,6.25,2.724a13.012,13.012,0,0,1-1.442,1.6l-.481.481.481.16a32.461,32.461,0,0,1,3.525.961,9.448,9.448,0,0,1-.641,1.282l-.16.32h.32a64.8,64.8,0,0,0,19.55-1.923c-8.012,3.2-23.877,10.256-32.37,18.749-2.564,2.564-4.487,5.288-5.128,8.012l-.16.481.481-.16a6.739,6.739,0,0,1,.8-.32,2.278,2.278,0,0,1,.961-.32c-.32.8-1.282,3.2-.8,4.968v.32l.32-.16,1.6-.641a2.971,2.971,0,0,1,1.122-.32h.32a11.322,11.322,0,0,0-1.122,5.128C15.625,79.416,15.625,79.416,14.984,81.659Z" transform="translate(-12.1 -4.898)"/></g><g transform="translate(8.493 25.162)"><g transform="translate(0.841 7.572)"><path class="d" d="M51.7,73.359c-.16,0-.16-.16-.16-.32-.481-8.814,3.045-41.183,3.686-46.632C50.9,30.092,24.295,52.367,18.526,58.3a.34.34,0,0,1-.481-.481c6.25-6.41,37.017-32.049,37.337-32.37.16-.16.16-.16.32,0,.16,0,.16.16.16.32,0,.32-4.487,37.818-3.846,47.273.16.16,0,.32-.32.32Z" transform="translate(-17.925 -25.325)"/></g><g transform="translate(14.422 3.328)"><path class="d" d="M26.56,23.355c-.16,0-.16-.16-.16-.32a.345.345,0,0,1,.32-.32c7.051-.481,22.595,3.846,24.037,4.327,1.6-.32,19.871-4.166,28.524.481a.589.589,0,0,1,.16.481.589.589,0,0,1-.481.16c-8.653-4.807-27.883-.481-28.2-.481H50.6c-.32-.16-16.826-4.807-24.037-4.327Z" transform="translate(-26.4 -22.677)"/></g><g transform="translate(38.179 7.572)"><path class="d" d="M71.311,62.783a.157.157,0,0,1-.16-.16c-4.968-11.858-29.485-36.376-29.806-36.7a.34.34,0,1,1,.481-.481c.32.32,24.838,24.838,29.806,36.857a.589.589,0,0,1-.16.481Z" transform="translate(-41.225 -25.325)"/></g><g transform="translate(27.817 38.018)"><path class="d" d="M34.985,54.38h0c-.16-.16-.32-.32-.16-.481,2.243-3.686,7.371-9.294,7.371-9.455a.34.34,0,0,1,.481.481,100.956,100.956,0,0,0-7.371,9.294A.559.559,0,0,1,34.985,54.38Z" transform="translate(-34.759 -44.325)"/></g><g transform="translate(36.096 29.365)"><g transform="translate(0)"><path class="d" d="M48.7,49.3a.157.157,0,0,1-.16-.16c-1.923-4.487-8.493-9.615-8.493-9.615a.34.34,0,0,1,.481-.481c.32.16,6.73,5.288,8.653,9.935a.589.589,0,0,1-.16.481A.5.5,0,0,0,48.7,49.3Z" transform="translate(-39.925 -38.925)"/></g></g><g transform="translate(62.15 35.414)"><path class="d" d="M56.37,51.353c-.16,0-.16-.16-.16-.32a67.2,67.2,0,0,1,.481-8.012.32.32,0,0,1,.641,0,39.708,39.708,0,0,0-.481,7.852c0,.32-.16.32-.481.481Z" transform="translate(-56.184 -42.7)"/></g><g transform="translate(51.279 21.473)"><path class="d" d="M49.56,34.641c-.16,0-.16-.16-.16-.32a.345.345,0,0,1,.32-.32c.32,0,9.455.641,11.858,2.4a.34.34,0,1,1-.481.481c-2.243-1.763-11.378-2.243-11.538-2.243Z" transform="translate(-49.4 -34)"/></g><g transform="translate(58.21 5.969)"><path class="d" d="M59.774,29.413h0c-1.923-.8-5.769-4.327-5.929-4.487a.34.34,0,1,1,.481-.481s3.846,3.686,5.609,4.327c.16,0,.16.32.16.481S59.935,29.413,59.774,29.413Z" transform="translate(-53.725 -24.325)"/></g><g transform="translate(50.732 1.442)"><path class="d" d="M49.285,26.628h0c-.16-.16-.32-.32-.16-.481s2.724-4.006,5.609-4.647c.16,0,.32,0,.32.16s0,.32-.16.32c-2.564.641-5.128,4.327-5.128,4.327C49.445,26.628,49.445,26.628,49.285,26.628Z" transform="translate(-49.059 -21.5)"/></g><g transform="translate(16.666 3.726)"><path class="d" d="M27.96,26.891a.157.157,0,0,1-.16-.16.589.589,0,0,1,.16-.481c1.442-.481,4.327-3.2,4.327-3.2a.34.34,0,0,1,.481.481c-.16.16-3.045,2.884-4.647,3.365Z" transform="translate(-27.8 -22.925)"/></g><g transform="translate(22.274)"><path class="d" d="M36.909,26.209a.157.157,0,0,1-.16-.16,8.962,8.962,0,0,0-5.288-4.807c-.16,0-.16-.16-.16-.481,0-.16.16-.16.32-.16h0a10.836,10.836,0,0,1,5.769,5.128c0,.16,0,.32-.16.32C37.069,26.209,37.069,26.209,36.909,26.209Z" transform="translate(-31.3 -20.6)"/></g><g transform="translate(0 31.675)"><path class="d" d="M17.56,41.221c-.16,0-.16-.16-.16-.32a.345.345,0,0,1,.32-.32c3.2-.481,9.775,0,10.1,0a.32.32,0,1,1,0,.641c-.16,0-6.891-.481-10.256,0Z" transform="translate(-17.4 -40.367)"/></g><g transform="translate(14.676 25.319)"><path class="d" d="M26.785,47.938h0c-.16-.16-.32-.32-.16-.481,2.243-3.686,2.564-10.576,2.564-10.737a.32.32,0,1,1,.641,0c0,.32-.32,7.211-2.724,10.9C26.945,47.938,26.945,48.1,26.785,47.938Z" transform="translate(-26.559 -36.4)"/></g><g transform="translate(16.666 17.601)"><path class="d" d="M27.96,32.731a.157.157,0,0,1-.16-.16c0-.16,0-.32.16-.32,4.006-1.282,9.455-.32,9.775-.32a.32.32,0,0,1,0,.641s-5.448-.961-9.455.32C28.12,32.731,28.12,32.731,27.96,32.731Z" transform="translate(-27.8 -31.584)"/></g><g transform="translate(56.086 27.723)"><path class="d" d="M52.56,44.15c-.16,0-.16-.16-.16-.32l.8-5.609a.32.32,0,1,1,.641,0l-.8,5.609c-.16.32-.321.481-.481.32Z" transform="translate(-52.4 -37.9)"/></g><g transform="translate(44.549 14.262)"><path class="d" d="M45.36,36.23c-.16,0-.16-.16-.16-.32l.32-6.089a.32.32,0,0,1,.641,0l-.32,6.089c0,.32-.16.32-.481.32Z" transform="translate(-45.2 -29.5)"/></g><g transform="translate(33.265 15.744)"><path class="d" d="M38.385,36.955h0c-.16-.16-.32-.32-.16-.481a35.055,35.055,0,0,1,4.166-5.929.34.34,0,1,1,.481.481,36.562,36.562,0,0,0-4.006,5.769C38.706,36.795,38.545,36.955,38.385,36.955Z" transform="translate(-38.159 -30.425)"/></g></g></g><g transform="translate(120.598 -51.76)"><path class="e" d="M137.63,103.031l.32-.32a10.775,10.775,0,0,1-1.6-2.724c-.641-1.6-.961-3.686.16-5.288l3.365,1.923-.8-4.487,1.923,2.4.16-.481a33.337,33.337,0,0,0-2.243-17.467,40.207,40.207,0,0,0-6.891-11.057s-3.846-4.166-8.173-8.814c9.294,8.974,21.473,20.351,27.723,23.877a7.067,7.067,0,0,0,6.089.481c.16,0,.16-.16.32-.16l.481-.481-.481-.16a5.461,5.461,0,0,1-2.243-1.6v-.32a6.965,6.965,0,0,0,5.769,1.122h.32l-.961-1.442a5.767,5.767,0,0,0,3.686.16.157.157,0,0,0,.16-.16l.16-.16-1.122-1.923a4.912,4.912,0,0,0,3.045,0c.32-.16.481-.16.641-.32l.32-.32-.32-.16a.5.5,0,0,1-.32-.16c-.16-.16-.481-.32-.481-.481-.16-.16-.16-.481.32-.961a5.036,5.036,0,0,1,2.564-1.442,22.081,22.081,0,0,1,2.564-.961h0c.16,0,.16-.16.16-.32h.16v.16h.16a.559.559,0,0,0,.16-.32h0a22.076,22.076,0,0,0-.961-2.564,7.121,7.121,0,0,1-.32-2.884,1.713,1.713,0,0,1,.481-.8h.8a.559.559,0,0,1,.32.16l.32.16v-.481a1.742,1.742,0,0,0-.16-.8,4.108,4.108,0,0,0-1.763-2.4l2.243-.32v-.32c-.32-1.282-1.6-2.243-2.4-2.884h1.763l-.16-.32a6.684,6.684,0,0,0-4.327-3.846c0-.16.16-.16.32-.16a2.081,2.081,0,0,1,1.6.32l.961.481.481.32-.16-.481v-.32a7.277,7.277,0,0,0-4.166-4.487c-6.73-2.884-22.915-5.769-35.735-7.692,6.25.641,11.858,1.122,11.858,1.122a36.463,36.463,0,0,0,12.98-1.282c10.1-2.724,15.223-8.814,15.223-8.814l.32-.32H169.2l4.006-2.083-3.525-1.442a5.576,5.576,0,0,1,4.166-3.365,12.624,12.624,0,0,1,3.2-.481V24.19c-2.564-.641-2.564-.481-6.57-2.884a10.447,10.447,0,0,0-5.448-1.763c0-.16.16-.16.16-.32a2.355,2.355,0,0,1,.961-.8A8.574,8.574,0,0,1,167.6,17.3l.32-.16-.16-.16a9.349,9.349,0,0,0-5.128-1.763c.16-.32.481-.481.8-.8s.8-.481.8-.641l.481-.32-.481-.16a20.571,20.571,0,0,0-10.256.481c-12.339,3.365-27.242,14.582-34.613,20.351A82.82,82.82,0,0,0,131.22,16.338l.16-.32h-1.923c.32-1.282.961-3.686.961-3.846l.16-.481-.481.16c-.641.16-1.763.32-2.243.481.16-2.4.8-7.211.8-7.211V4.8l-.32.16c-2.564.641-6.891,4.807-8.173,5.929a1.2,1.2,0,0,1,.16-.8,1.983,1.983,0,0,1,.32-.481l.641-.8-.8.32a9.977,9.977,0,0,0-3.365,2.724.5.5,0,0,1-.16-.32v-.641l-.32-.32c-8.974,8.173-7.852,19.55-6.891,24.037h0c0,.481.16.8.16,1.122a6.285,6.285,0,0,1,.641,2.884c-9.935-5.128-21.633-12.179-27.082-18.268-1.763,1.923.32,4.006.32,4.006s3.365,5.609,26.441,16.025a4.589,4.589,0,0,1-2.884,1.6C104.3,43.259,91.8,49.349,90.677,62.809l.481.16.16-.16c.16,0,.16-.16.32-.16s.16,0,.481-.16a12.556,12.556,0,0,0-.16,4.327l.32.961.16-.961a1.6,1.6,0,0,1,.16-.641,2.212,2.212,0,0,1,.481-.641c-.16,1.6-.8,7.692.16,10.1l.16.32.32-.32a62.127,62.127,0,0,1,5.288-4.968,12.083,12.083,0,0,1,.961,2.083l.16.481.32-.32a29.455,29.455,0,0,1,2.4-3.045,8.127,8.127,0,0,1,.961,1.122l.16.32v-.481a71.977,71.977,0,0,0,6.41-20.031c-.16,9.294,0,28.043,4.807,39.9a19.926,19.926,0,0,0,5.769,8.493l.481.32V98.063a2.727,2.727,0,0,1,.16-1.122,8.737,8.737,0,0,0,4.487,2.884h.32V97.743a3.124,3.124,0,0,1,.16-1.282c0-.16,0-.32.16-.32a10.067,10.067,0,0,0,4.647,3.365C135.707,101.268,135.546,101.268,137.63,103.031Z" transform="translate(-82.758 -4.8)"/><g transform="translate(15.491 7.572)"><g transform="translate(14.382 28.043)"><path class="d" d="M147.23,51.342c-.16.16-.16.16-.32.16-8.814-3.2-39.421-20.351-44.549-23.4,1.763,5.769,12.659,41.664,16.025,49.676a.358.358,0,0,1-.641.32C114.059,69.29,101.56,27.946,101.4,27.466c0-.16,0-.32.16-.32.16-.16.32-.16.32,0,.32.16,35.575,20.351,45.189,23.716.321,0,.321.16.16.481C147.391,51.182,147.23,51.182,147.23,51.342Z" transform="translate(-101.4 -27.025)"/></g><g transform="translate(0.214)"><path class="d" d="M93.106,59.963c-.16.16-.16.16-.32.16a.307.307,0,0,1-.16-.481c2.4-7.211,13.461-20.672,14.422-21.954.32-1.6,4.166-21.473,12.5-28.043a.34.34,0,0,1,.481.481c-8.333,6.57-12.339,27.4-12.339,27.723v.16c-.321.16-12.019,14.582-14.582,21.954Z" transform="translate(-92.559 -9.525)"/></g><g transform="translate(14.382 14.06)"><path class="d" d="M151.076,18.781a.559.559,0,0,1-.32.16c-13.941-.16-48.555,13.781-48.875,13.941a.589.589,0,0,1-.481-.16.589.589,0,0,1,.16-.481c.32-.16,35.094-14.1,49.035-13.941a.345.345,0,0,1,.32.32A.157.157,0,0,1,151.076,18.781Z" transform="translate(-101.4 -18.299)"/></g><g transform="translate(43.226 43.867)"><path class="d" d="M126.13,48.758h0c-.16.16-.481.16-.481,0-2.724-3.686-6.089-11.217-6.25-11.377a.358.358,0,0,1,.641-.32,102.28,102.28,0,0,0,6.089,11.217A.3.3,0,0,1,126.13,48.758Z" transform="translate(-119.4 -36.9)"/></g><g transform="translate(34.827 34.894)"><path class="d" d="M128.166,31.941a.559.559,0,0,1-.32.16c-5.288,0-13.14,4.327-13.14,4.327-.16.16-.32,0-.481-.16s0-.32.16-.481c.32-.16,8.012-4.327,13.461-4.487a.345.345,0,0,1,.32.32A.222.222,0,0,1,128.166,31.941Z" transform="translate(-114.159 -31.3)"/></g><g transform="translate(52.361 15.664)"><path class="d" d="M133.273,23.627c-.16.16-.16.16-.32.16-2.884-.961-7.532-3.846-7.692-3.846a.589.589,0,0,1-.16-.481.589.589,0,0,1,.481-.16,58.369,58.369,0,0,0,7.532,3.846c.16,0,.32.16.16.481Z" transform="translate(-125.1 -19.3)"/></g><g transform="translate(33.451 10.63)"><path class="d" d="M113.941,27.122a.358.358,0,1,1-.641-.32c.16-.32,4.647-9.134,7.371-10.576.16-.16.32,0,.481.16s0,.32-.16.481c-2.4,1.282-6.891,10.1-7.051,10.256Z" transform="translate(-113.3 -16.159)"/></g><g transform="translate(21.273 3.686)"><path class="d" d="M113.071,12.426h0c-1.6,1.6-6.73,3.846-6.891,4.006a.589.589,0,0,1-.481-.16.589.589,0,0,1,.16-.481s5.128-2.243,6.73-3.846a.34.34,0,0,1,.481.481Z" transform="translate(-105.7 -11.825)"/></g><g transform="translate(15.925 7.652)"><path class="d" d="M105.147,22.152h0c-.16.16-.481.16-.481,0-.16-.16-2.724-4.487-2.243-7.532a.32.32,0,1,1,.641,0c-.481,2.884,2.083,6.891,2.083,7.051Q105.147,22.152,105.147,22.152Z" transform="translate(-102.363 -14.3)"/></g><g transform="translate(3.325 43.387)"><path class="d" d="M96.583,43.01a.559.559,0,0,1-.32.16.345.345,0,0,1-.32-.32c0-1.6-1.442-5.609-1.442-5.769a.358.358,0,1,1,.641-.32c0,.16,1.442,4.327,1.442,5.929Z" transform="translate(-94.5 -36.6)"/></g><g transform="translate(0 37.296)"><path class="d" d="M100.4,33.441a.559.559,0,0,1-.32.16,10.189,10.189,0,0,0-7.051,3.2.34.34,0,0,1-.481-.481h0a10.477,10.477,0,0,1,7.532-3.525.345.345,0,0,1,.32.32A.222.222,0,0,1,100.4,33.441Z" transform="translate(-92.425 -32.799)"/></g><g transform="translate(22.328 66.302)"><path class="d" d="M106.906,61.316c0,.16-.16.16-.32.16s-.32-.16-.16-.481a68.281,68.281,0,0,1,4.327-9.935c0-.16.32-.16.481-.16a.589.589,0,0,1,.16.481c-.32,0-3.525,6.41-4.487,9.935Z" transform="translate(-106.359 -50.9)"/></g><g transform="translate(23.356 56.367)"><path class="d" d="M117.1,52.392h0c-.16.16-.481.16-.481,0-2.724-3.846-9.455-7.051-9.455-7.051-.16,0-.16-.32-.16-.481a.589.589,0,0,1,.481-.16c.32.16,6.891,3.365,9.775,7.371A.5.5,0,0,1,117.1,52.392Z" transform="translate(-107 -44.7)"/></g><g transform="translate(15.664 44.348)"><path class="d" d="M102.841,47.3c0,.16-.16.16-.32.16a.345.345,0,0,1-.32-.32c.481-4.647,3.686-9.455,3.846-9.775a.358.358,0,1,1,.641.32s-3.365,4.968-3.686,9.455C102.841,47.135,102.841,47.135,102.841,47.3Z" transform="translate(-102.2 -37.2)"/></g><g transform="translate(42.105 18.228)"><path class="d" d="M124.629,24.586a.3.3,0,0,1-.481,0l-5.288-3.045a.589.589,0,0,1-.16-.481.589.589,0,0,1,.481-.16l5.288,3.045c.16.32.32.481.16.641Z" transform="translate(-118.7 -20.9)"/></g><g transform="translate(23.997 24.478)"><path class="d" d="M113.81,28.165a.589.589,0,0,1-.481.16l-5.769-2.884a.589.589,0,0,1-.16-.481.589.589,0,0,1,.481-.16l5.769,2.884c.16,0,.16.16.16.481Z" transform="translate(-107.4 -24.8)"/></g><g transform="translate(22.008 32.263)"><path class="d" d="M110.872,36.776h0a.3.3,0,0,1-.481,0,44.048,44.048,0,0,1-4.166-6.57c-.16-.16,0-.32.16-.481s.32,0,.481.16a48.558,48.558,0,0,0,4.006,6.41A.3.3,0,0,1,110.872,36.776Z" transform="translate(-106.159 -29.659)"/></g></g></g><g transform="translate(-0.419 93.424)"><path class="b" d="M24.964,164.626c.8,3.2,1.6,5.929,2.083,7.532,1.442,2.724,3.846,8.173,1.763,14.582-.961-.16-8.012-7.692-3.525-15.384C24.8,169.274,24,166.71,23.2,163.665a19.237,19.237,0,0,1-7.051,13.621c-.641-.641-2.243-11.538,6.73-14.743-.961-4.006-2.243-8.974-3.365-14.9A18.7,18.7,0,0,1,12.465,161.1c-.641-.641-2.243-11.538,6.891-14.743-.481-2.243-.961-4.487-1.282-7.051a45.973,45.973,0,0,1-.8-9.134c-.8,2.564-3.2,8.814-9.935,11.858-.481-.8.481-11.858,9.935-12.98a45.143,45.143,0,0,1,1.6-11.858A18.851,18.851,0,0,1,8.3,125.526c-.32-.961,2.243-11.217,11.538-11.217a65.247,65.247,0,0,1,3.846-9.294A18.953,18.953,0,0,1,10.061,110.3c0-.961,5.769-10.1,14.582-6.891A44.235,44.235,0,0,1,30.252,95.4c.481.641.481.641.8,1.122a44.876,44.876,0,0,0-5.448,7.211c8.653,3.525,7.051,14.1,6.41,14.9-5.769-4.487-6.73-11.217-6.891-13.941a45.675,45.675,0,0,0-3.525,9.615c8.974,3.365,7.211,14.262,6.57,14.9-5.769-4.647-6.73-11.377-6.891-13.941-.481,1.6-.961,3.2-1.442,5.128a34,34,0,0,0-.8,8.493c9.455,1.6,9.935,12.5,9.294,13.3a18.716,18.716,0,0,1-9.294-11.858A103.673,103.673,0,0,0,20.8,145.4c9.294.8,10.9,11.378,10.416,12.179a18.5,18.5,0,0,1-9.935-9.455c.961,4.968,2.083,9.615,3.2,13.781,9.455.32,11.538,10.9,11.057,11.858A17.6,17.6,0,0,1,24.964,164.626Z" transform="translate(-7.238 -95.4)"/></g><g transform="translate(18.589 82.046)"><g transform="translate(0 6.705)"><path class="f" d="M22.465,115.425c-.16,5.448,1.763,10.416,3.365,15.864.16-3.846,1.122-5.769,1.763-8.493,1.442,7.051,8.814,11.538,13.14,16.986a25.842,25.842,0,0,1-3.045-7.852,82.6,82.6,0,0,1,15.864,15.864,87.185,87.185,0,0,1,.32-22.435,27.4,27.4,0,0,1,3.365,7.692c-.641-6.891,1.442-15.223-2.4-21.313,2.564,1.442,4.487,2.083,7.211,4.807-2.724-5.128-4.807-10.1-8.653-13.781,1.923.641,4.166.8,6.25,1.442-2.564-.8-6.891-7.211-10.576-8.974-4.487-2.243-9.775-3.365-14.582-2.4a11.175,11.175,0,0,0-2.724.961A9.579,9.579,0,0,0,29.2,95.073c-4.166,2.564-7.051,7.051-8.814,11.858-1.282,3.846,0,11.378-1.282,13.781C20.061,118.95,21.5,117.348,22.465,115.425Z" transform="translate(-19.1 -92.484)"/></g><g transform="translate(7.786)"><path class="d" d="M24.185,88.3c.16,0,.16,0,.32.16.961,1.923,23.556,46.151,24.518,55.606a.32.32,0,1,1-.641,0c-.961-9.294-24.2-54.965-24.357-55.445-.16,0,0-.16.16-.32Z" transform="translate(-23.959 -88.3)"/><g transform="translate(16.732 35.094)"><path class="d" d="M34.72,110.2h0c.32,0,6.41.32,7.852,2.4.16.16,0,.32-.16.32s-.32,0-.32-.16c-.961-1.6-5.609-2.083-7.371-2.243a.345.345,0,0,1-.32-.32Z" transform="translate(-34.4 -110.2)"/></g><g transform="translate(9.681 26.28)"><path class="d" d="M33.365,104.7h0c.32.16.32.32.32.32s-3.045,6.891-3.045,11.858a.32.32,0,0,1-.641,0c0-4.968,3.045-11.7,3.2-12.018C33.2,104.7,33.2,104.7,33.365,104.7Z" transform="translate(-30 -104.7)"/></g><g transform="translate(7.277 14.422)"><path class="d" d="M30.263,97.46c3.045,0,9.615.641,13.781,5.128.16.16.16.32,0,.32-.16.16-.32.16-.32,0-5.288-5.929-14.743-4.968-14.9-4.968a.32.32,0,1,1,0-.641C28.82,97.62,29.3,97.46,30.263,97.46Z" transform="translate(-28.5 -97.3)"/></g></g></g><g transform="translate(39.636 42.515)"><g transform="translate(6.408)"><path class="f" d="M44.353,95.791c3.2,4.487,7.692,7.211,12.339,10.576-2.243-3.2-2.724-5.288-3.846-7.852,5.448,4.647,14.1,3.846,20.672,5.448a25.4,25.4,0,0,1-7.211-4.327,84.225,84.225,0,0,1,22.274,2.884,81.268,81.268,0,0,1-13.3-17.948,25.761,25.761,0,0,1,7.371,4.166C78,83.772,74.479,75.92,67.749,73.356c2.884-.32,4.807-1.122,8.653-.641-5.288-2.4-9.935-4.968-15.223-5.609,1.923-.641,3.846-1.923,5.769-2.564-2.564.961-9.935-1.442-13.781-.8a23.084,23.084,0,0,0-12.98,7.051,8.981,8.981,0,0,0-1.6,2.4A9.6,9.6,0,0,0,37.3,75.76a24.381,24.381,0,0,0,.16,14.743c1.282,3.846,6.891,8.974,7.371,11.7A43.153,43.153,0,0,0,44.353,95.791Z" transform="translate(-36.233 -63.631)"/></g><g transform="translate(0 5.879)"><path class="d" d="M32.34,67.3h.32c1.923.961,46.792,22.114,53.362,29,.16.16.16.32,0,.32-.16.16-.32.16-.32,0-6.41-6.891-52.721-28.684-53.2-29-.32.16-.32,0-.16-.32Z" transform="translate(-32.234 -67.3)"/><g transform="translate(34.759 14.464)"><path class="d" d="M54.045,79.329h0c.16-.16,5.288-3.686,7.692-2.884.16,0,.16.16.16.32s-.16.16-.32.16c-1.763-.641-5.769,1.763-7.211,2.724a.222.222,0,0,1-.32,0C53.885,79.649,53.885,79.329,54.045,79.329Z" transform="translate(-53.925 -76.326)"/></g><g transform="translate(26.185 12.909)"><path class="d" d="M48.615,75.427h0c.32-.16.481,0,.481.16,0,0,1.763,7.371,4.807,11.217a.227.227,0,1,1-.32.32c-3.045-4.006-4.807-11.217-4.807-11.538C48.455,75.587,48.615,75.427,48.615,75.427Z" transform="translate(-48.575 -75.356)"/></g><g transform="translate(14.728 1.714)"><path class="d" d="M42.667,72.905c2.4-1.763,8.012-5.448,14.1-4.327.16,0,.32.16.16.32,0,.16-.16.32-.32.16-7.692-1.442-14.743,5.128-14.743,5.128-.16.16-.32.16-.32,0-.16-.16-.16-.32,0-.32A11.673,11.673,0,0,1,42.667,72.905Z" transform="translate(-41.425 -68.37)"/></g></g></g><g transform="translate(425.815 -17.577)"><g transform="translate(6.423)"><path class="f" d="M285.353,58.291c3.2,4.487,7.692,7.211,12.339,10.576-2.243-3.2-2.724-5.288-3.846-7.852,5.448,4.647,14.1,3.846,20.672,5.448a25.4,25.4,0,0,1-7.211-4.327,84.225,84.225,0,0,1,22.274,2.884,81.267,81.267,0,0,1-13.3-17.948,25.76,25.76,0,0,1,7.371,4.166c-4.647-4.968-8.173-12.82-14.9-15.384,2.884-.32,4.807-1.122,8.653-.641-5.288-2.4-9.935-4.968-15.223-5.609,1.923-.641,3.846-1.923,5.769-2.564-2.564.961-9.935-1.442-13.781-.8a23.084,23.084,0,0,0-12.98,7.051,8.981,8.981,0,0,0-1.6,2.4A9.594,9.594,0,0,0,278.3,38.26,24.381,24.381,0,0,0,278.462,53c1.282,3.846,6.891,8.974,7.371,11.7C285.513,62.617,285.673,60.374,285.353,58.291Z" transform="translate(-277.233 -26.131)"/></g><g transform="translate(0 5.879)"><path class="d" d="M273.345,29.8h.32c1.923.961,46.792,22.114,53.362,29,.16.16.16.32,0,.32-.16.16-.32.16-.32,0-6.41-6.891-52.721-28.684-53.2-29-.32,0-.32-.16-.16-.32Z" transform="translate(-273.225 -29.8)"/><g transform="translate(34.662 14.464)"><path class="d" d="M294.927,41.829h0c.16-.16,5.288-3.686,7.692-2.884.16,0,.16.16.16.32s-.16.16-.321.16c-1.763-.641-5.769,1.763-7.211,2.724a.227.227,0,1,1-.32-.32Z" transform="translate(-294.856 -38.826)"/></g><g transform="translate(26.135 12.86)"><path class="d" d="M289.64,37.945h0c.32-.16.481,0,.481.16,0,0,1.763,7.371,4.807,11.217a.227.227,0,0,1-.32.32c-3.045-4.006-4.807-11.217-4.807-11.538C289.479,38.105,289.479,37.945,289.64,37.945Z" transform="translate(-289.534 -37.825)"/></g><g transform="translate(14.743 1.554)"><path class="d" d="M283.667,35.305c2.4-1.763,8.012-5.448,14.1-4.327.16,0,.321.16.16.32,0,.16-.16.32-.32.16-7.692-1.442-14.743,5.128-14.743,5.128-.16.16-.32.16-.32,0-.16-.16-.16-.32,0-.32C282.385,36.427,282.866,35.946,283.667,35.305Z" transform="translate(-282.425 -30.77)"/></g></g></g><g transform="translate(91.501 -38.619)"><g transform="translate(0 6.705)"><path class="f" d="M67.965,40.125c-.16,5.448,1.763,10.416,3.365,15.864.16-3.846,1.122-5.769,1.763-8.493,1.442,7.051,8.814,11.538,13.14,16.986a25.842,25.842,0,0,1-3.045-7.852A82.6,82.6,0,0,1,99.053,72.495a87.185,87.185,0,0,1,.32-22.435,27.4,27.4,0,0,1,3.365,7.692c-.641-6.891,1.442-15.223-2.4-21.313,2.564,1.442,4.487,2.083,7.211,4.807-2.724-5.128-4.807-10.1-8.653-13.781,1.923.641,4.166.8,6.25,1.442-2.564-.8-6.891-7.211-10.576-8.974-4.487-2.243-9.775-3.365-14.582-2.4a11.174,11.174,0,0,0-2.724.961A9.579,9.579,0,0,0,74.7,19.773c-4.166,2.564-7.051,7.051-8.814,11.858-1.282,3.846,0,11.377-1.282,13.781C65.561,43.65,67,42.048,67.965,40.125Z" transform="translate(-64.6 -17.184)"/></g><g transform="translate(7.692 0)"><path class="d" d="M69.72,13c.16,0,.16,0,.32.16C71,15.083,93.6,59.311,94.559,68.766a.32.32,0,1,1-.641,0c-.961-9.294-24.2-54.8-24.518-55.285,0-.16,0-.32.32-.481Z" transform="translate(-69.4 -13)"/><g transform="translate(16.826 35.094)"><g transform="translate(0 0)"><path class="d" d="M80.22,34.9h0c.32,0,6.41.32,7.852,2.4.16.16,0,.32-.16.32s-.32,0-.32-.16c-.961-1.6-5.609-2.083-7.371-2.243a.345.345,0,0,1-.32-.32C80.06,35.06,80.06,34.9,80.22,34.9Z" transform="translate(-79.9 -34.9)"/></g></g><g transform="translate(9.775 26.28)"><path class="d" d="M78.865,29.4h0c.32.16.32.32.32.32s-3.045,6.891-3.045,11.858a.32.32,0,1,1-.641,0c0-4.968,3.045-11.7,3.2-12.018C78.7,29.4,78.7,29.4,78.865,29.4Z" transform="translate(-75.5 -29.4)"/></g><g transform="translate(7.371 14.422)"><path class="d" d="M75.763,22.16c3.045,0,9.615.641,13.781,5.128.16.16.16.32,0,.32-.16.16-.32.16-.32,0-5.288-5.929-14.743-4.968-14.9-4.968a.32.32,0,0,1,0-.641C74.32,22.32,74.8,22.16,75.763,22.16Z" transform="translate(-74 -22)"/></g></g></g><g transform="translate(16.775 24.998)"><path class="g" d="M29.717,89.717c1.763,2.724-2.243,9.935-3.365,12.179-1.6,3.525-7.371,13.14-1.6,16.826,4.166,2.724,9.935-7.211,9.294.961-.16,2.243-2.884,7.371-.16,9.455,5.769,4.327,7.051-5.609,12.018-3.2,5.448,2.564,3.846,11.858,9.294,11.7h.32c4.647-3.045-1.763-9.775,1.282-14.9,2.884-4.807,9.455,2.724,11.858-4.006,1.122-3.2-4.006-5.929-5.448-7.692-5.128-6.41,5.288-1.442,7.211-5.929,2.724-6.25-7.371-11.057-10.737-12.98-2.243-1.282-9.455-4.968-9.615-8.333-.16-4.968,7.532-.641,9.615-4.487,2.083-4.166-5.929-6.891-9.294-8.653-7.532-4.006-13.781-9.935-20.512-17.467l-.16-.481v.32a.157.157,0,0,0-.16-.16l.16.481c-1.442,9.935-3.365,18.428-7.371,25.96-1.763,3.2-6.891,10.1-2.884,12.339C23.147,93.4,27.153,85.39,29.717,89.717Z" transform="translate(-17.968 -52.7)"/><g transform="translate(13.449 6.507)"><path class="d" d="M26.744,56.824h0a.585.585,0,0,1,.8.32c.16.481,14.743,47.433,19.39,68.906,0,.32-.16.641-.481.641s-.641-.16-.641-.481c-4.647-21.473-19.23-68.425-19.39-68.906C26.263,57.3,26.424,56.984,26.744,56.824Z" transform="translate(-26.361 -56.761)"/></g><g transform="translate(20.403 55.926)"><path class="d" d="M38.552,87.6h.32c.32.16,7.852,2.564,12.659,6.41a.578.578,0,0,1-.641.961c-4.006-3.2-10.416-5.609-12.018-6.089-1.122,1.442-6.25,7.532-7.051,11.377,0,.32-.32.481-.641.481s-.481-.32-.481-.641c.961-4.807,7.371-12.018,7.532-12.339C38.392,87.76,38.552,87.76,38.552,87.6Z" transform="translate(-30.7 -87.6)"/></g><g transform="translate(9.666 40.222)"><path class="d" d="M38.262,77.8h.32c.641,0,14.582,1.923,19.23,6.41a.567.567,0,0,1-.8.8C53,81.165,40.666,79.242,38.743,78.922c-1.282,1.282-8.814,8.653-13.621,17.787-.16.32-.481.32-.8.32-.32-.16-.32-.481-.32-.8C29.128,85.973,37.941,77.96,37.941,77.96,38.1,77.8,38.1,77.8,38.262,77.8Z" transform="translate(-24 -77.8)"/></g><g transform="translate(16.396 15.223)"><path class="d" d="M28.841,62.2h.32c2.4.641,10.1,2.564,10.9,4.327a.61.61,0,0,1-1.122.481c-.481-.961-5.609-2.724-10.256-3.846-.32,0-.481-.32-.481-.641A.833.833,0,0,0,28.841,62.2Z" transform="translate(-28.2 -62.2)"/></g><g transform="translate(8.481 15.384)"><path class="d" d="M31.336,62.3a.589.589,0,0,1,.481.16.529.529,0,0,1,0,.8s-6.41,7.852-7.532,11.7c-.16.32-.32.481-.641.32s-.481-.32-.32-.641c1.122-4.006,7.532-11.858,7.692-12.179C31.176,62.46,31.176,62.46,31.336,62.3Z" transform="translate(-23.261 -62.3)"/></g><g transform="translate(15.275 27.242)"><path class="d" d="M32.307,69.7h.32c.16,0,5.609,1.923,7.211,3.365a.567.567,0,1,1-.8.8c-1.122-.961-4.647-2.4-6.41-3.045-1.6,2.243-3.846,5.929-4.006,6.73,0,.32-.32.481-.641.481s-.481-.32-.481-.641c.32-1.6,4.006-7.051,4.487-7.532C32.147,69.86,32.147,69.7,32.307,69.7Z" transform="translate(-27.5 -69.7)"/></g></g><g transform="translate(-7.413 27.71)"><path class="h" d="M23.587,54.725c2.083.8,13.461,5.929,18.428,18.428,5.448,13.621,1.282,29.806-9.775,42.465s-12.5,15.063-15.384,23.716,1.763-14.262-5.609-26.761C-7.821,80.2,9.806,67.225,23.267,54.565,23.267,54.565,23.748,54.084,23.587,54.725Z" transform="translate(-2.874 -54.392)"/><g transform="translate(8.201 1.893)"><path class="i" d="M33.644,73.083a131.915,131.915,0,0,1-10.9-8.333,74.419,74.419,0,0,0-2.724-9.134c0-.32.16,1.282.16,1.282.481,2.724.8,5.448,1.122,8.012-6.41,4.807-10.737,7.371-10.576,7.371a114.275,114.275,0,0,0,10.737-6.089c.16,1.923.32,3.846.481,5.609A149.682,149.682,0,0,1,8.165,81.255c2.083-.8,7.051-3.525,13.781-7.852.16,2.243.16,4.327.16,6.57C13.613,87.345,7.684,91.351,8,91.191a136.706,136.706,0,0,0,14.1-9.455c0,1.923-.16,3.846-.16,5.609-7.692,7.532-13.3,11.7-12.98,11.538a162.341,162.341,0,0,0,12.98-9.775q-.24,3.365-.481,6.25c-6.73,6.891-11.7,10.736-11.377,10.736A119.965,119.965,0,0,0,21.305,97.28c-.32,2.4-.641,4.647-.961,6.57a82.243,82.243,0,0,1-6.891,8.333,54.579,54.579,0,0,0,6.73-6.891,89.857,89.857,0,0,1-2.243,10.576,100.618,100.618,0,0,0,3.2-10.416c1.923,4.807,3.525,7.852,4.166,9.134.16.16-1.763-3.846-3.846-10.576.481-2.083.961-4.327,1.442-6.891a120.581,120.581,0,0,0,7.371,11.538c.16.16-3.045-4.968-7.051-13.461a46.148,46.148,0,0,0,.8-5.288,137.107,137.107,0,0,0,10.256,12.018A159.932,159.932,0,0,1,24.35,87.986c0-.481.16-.8.16-1.282.16-1.6.32-3.2.32-4.807a162.657,162.657,0,0,0,11.7,11.858c.32.16-4.807-4.968-11.7-13.941,0-1.923-.16-3.686-.32-5.448a111.042,111.042,0,0,0,11.057,8.814A151.55,151.55,0,0,1,24.35,72.6c-.32-2.243-.641-4.487-.961-6.41A54.237,54.237,0,0,0,33.644,73.083Z" transform="translate(-7.992 -55.574)"/></g></g><g transform="translate(6.671 74.995)"><path class="j" d="M21.818,135.98s-11.057-12.659-10.1-27.4c.8-11.7,10.1-21.313,13.461-24.678-1.442,12.98-2.083,20.832-2.564,36.376a23.556,23.556,0,0,1,0,3.365c.641-2.724.481-1.282.641-3.2,2.083-16.826,2.564-22.274,3.2-36.376,2.724,3.686,9.775,14.262,8.974,26.12C34.477,124.763,21.818,135.98,21.818,135.98Z" transform="translate(-11.663 -83.9)"/></g><g transform="translate(-11.925 -24.037)"><g transform="translate(0)"><path class="e" d="M54.93,120.331l.32-.32a10.775,10.775,0,0,1-1.6-2.724c-.641-1.6-.961-3.686.16-5.288l3.365,1.923-.8-4.487,1.923,2.4.16-.481A33.337,33.337,0,0,0,56.212,93.89a40.207,40.207,0,0,0-6.891-11.057s-3.846-4.166-8.173-8.814c9.294,8.814,21.473,20.031,27.723,23.556a7.067,7.067,0,0,0,6.089.481c.16,0,.16-.16.32-.16l.481-.16-.481-.16a5.461,5.461,0,0,1-2.243-1.6v-.32a6.965,6.965,0,0,0,5.769,1.122h.32l-.961-1.442a5.766,5.766,0,0,0,3.686.16.157.157,0,0,0,.16-.16l.16-.16L81.05,93.249a4.912,4.912,0,0,0,3.045,0c.32-.16.481-.16.641-.32l.32-.32-.16-.16a.5.5,0,0,1-.32-.16c-.16-.16-.481-.32-.481-.481-.16-.16-.16-.481.32-.961A5.036,5.036,0,0,1,86.979,89.4a22.081,22.081,0,0,1,2.564-.961h0c.16,0,.16-.16.16-.32h.16v.16h.16a.559.559,0,0,0,.16-.32h0a22.083,22.083,0,0,0-.961-2.564,7.121,7.121,0,0,1-.32-2.884,1.713,1.713,0,0,1,.481-.8h.8a.56.56,0,0,1,.32.16l.32.16v-.481a1.742,1.742,0,0,0-.16-.8,4.108,4.108,0,0,0-1.763-2.4l2.243-.32v-.32c-.32-1.282-1.6-2.243-2.4-2.884H90.5l-.16-.32a6.684,6.684,0,0,0-4.327-3.846c0-.16.16-.16.32-.16a2.081,2.081,0,0,1,1.6.32l.961.481.481.32-.16-.481v-.32a7.277,7.277,0,0,0-4.166-4.487c-6.73-2.884-22.915-5.769-35.735-7.692,6.25.641,11.858,1.122,11.858,1.122a36.463,36.463,0,0,0,12.98-1.282c10.1-2.724,15.223-8.814,15.223-8.814l.32-.32H86.658l4.006-2.083-3.525-1.442a5.576,5.576,0,0,1,4.166-3.365,12.624,12.624,0,0,1,3.2-.481V41.49c-2.564-.641-2.564-.481-6.57-2.884a10.447,10.447,0,0,0-5.448-1.763c0-.16.16-.16.16-.32a2.355,2.355,0,0,1,.961-.8A8.575,8.575,0,0,1,85.056,34.6l.32-.16L84.9,33.8a9.349,9.349,0,0,0-5.128-1.763c.16-.32.481-.481.8-.8s.8-.481.8-.641l.481-.32-.481-.16a20.571,20.571,0,0,0-10.256.481C58.775,33.958,43.873,45.175,36.5,50.944A70.255,70.255,0,0,0,48.52,33.638l.16-.32H46.757c.32-1.282.961-3.686.961-3.846l.16-.481-.481.16c-.641.16-1.763.32-2.243.481.16-2.4.8-7.211.8-7.211V22.1l-.32.16c-2.564.641-6.891,4.807-8.173,5.929a1.2,1.2,0,0,1,.16-.8,1.983,1.983,0,0,1,.32-.481l.641-.8-.8.32a9.978,9.978,0,0,0-3.365,2.724.5.5,0,0,1-.16-.32v-.641l-.32-.32c-8.974,8.173-7.852,19.55-6.891,24.037h0c0,.481.16.8.16,1.122a6.285,6.285,0,0,1,.641,2.884C17.913,50.784,6.215,43.733.766,37.644c-1.763,1.923.32,4.006.32,4.006s3.365,5.609,26.441,16.025a4.589,4.589,0,0,1-2.884,1.6C21.6,60.559,9.1,66.649,7.977,80.109l.481.16.16-.16c.16,0,.16-.16.32-.16s.16,0,.481-.16a12.556,12.556,0,0,0-.16,4.327l.32.961v-.961a1.6,1.6,0,0,1,.16-.641,2.212,2.212,0,0,1,.481-.641c-.16,1.6-.8,7.692.16,10.1l.16.32.32-.32a62.131,62.131,0,0,1,5.288-4.968,12.082,12.082,0,0,1,.961,2.083l.16.481.32-.32A29.455,29.455,0,0,1,20,87.16a8.129,8.129,0,0,1,.961,1.122l.16.32.16-.32a71.977,71.977,0,0,0,6.41-20.031c-.16,9.294,0,28.043,4.807,39.9a19.925,19.925,0,0,0,5.769,8.493l.481.32v-1.442a2.727,2.727,0,0,1,.16-1.122,8.737,8.737,0,0,0,4.487,2.884h.32V115.2a3.124,3.124,0,0,1,.16-1.282c0-.16,0-.32.16-.32a10.067,10.067,0,0,0,4.647,3.365C53.007,118.568,53.007,118.729,54.93,120.331Z" transform="translate(-0.058 -22.1)"/></g><g transform="translate(15.491 7.572)"><g transform="translate(14.542 28.043)"><path class="d" d="M64.63,68.642c-.16.16-.16.16-.32.16-8.814-3.2-39.421-20.351-44.549-23.4,1.763,5.769,12.659,41.664,16.025,49.676a.358.358,0,0,1-.641.32C31.459,86.59,18.96,45.246,18.8,44.766c0-.16,0-.32.16-.32.16-.16.32-.16.32,0,.32.16,35.575,20.351,45.189,23.716.16,0,.16.16.16.481Z" transform="translate(-18.8 -44.325)"/></g><g transform="translate(0.214)"><path class="d" d="M10.406,77.263c-.16.16-.16.16-.32.16a.307.307,0,0,1-.16-.481c2.4-7.211,13.461-20.672,14.422-21.954.32-1.6,4.166-21.473,12.5-28.043a.34.34,0,0,1,.481.481C28.994,34,24.988,54.828,24.988,55.149v.16c-.32.321-12.018,14.743-14.582,21.954Z" transform="translate(-9.859 -26.825)"/></g><g transform="translate(14.382 14.221)"><path class="d" d="M68.376,36.181a.559.559,0,0,1-.32.16C54.114,36.181,19.5,50.123,19.181,50.283a.358.358,0,1,1-.32-.641c.32-.16,35.094-14.1,49.035-13.941a.345.345,0,0,1,.32.32C68.537,36.021,68.537,36.021,68.376,36.181Z" transform="translate(-18.7 -35.699)"/></g><g transform="translate(43.226 43.867)"><path class="d" d="M43.43,66.058h0c-.16.16-.481.16-.481,0-2.724-3.686-6.089-11.217-6.25-11.377a.358.358,0,0,1,.641-.32A102.281,102.281,0,0,0,43.43,65.577.3.3,0,0,1,43.43,66.058Z" transform="translate(-36.7 -54.2)"/></g><g transform="translate(34.827 34.894)"><path class="d" d="M45.466,49.241a.559.559,0,0,1-.32.16c-5.288,0-13.14,4.327-13.14,4.327-.16.16-.32,0-.481-.16s0-.32.16-.481c.32-.16,8.012-4.327,13.461-4.487a.345.345,0,0,1,.32.32C45.627,49.241,45.627,49.241,45.466,49.241Z" transform="translate(-31.459 -48.6)"/></g><g transform="translate(52.361 15.664)"><path class="d" d="M50.573,40.927c-.16.16-.16.16-.32.16-2.884-.961-7.532-3.846-7.692-3.846a.358.358,0,0,1,.32-.641,58.371,58.371,0,0,0,7.532,3.846.307.307,0,0,1,.16.481Z" transform="translate(-42.4 -36.6)"/></g><g transform="translate(33.612 10.63)"><path class="d" d="M31.341,44.422a.589.589,0,0,1-.481.16.589.589,0,0,1-.16-.481c.16-.32,4.647-9.134,7.371-10.576.16-.16.32,0,.481.16s0,.32-.16.481c-2.564,1.282-7.051,10.1-7.051,10.256Z" transform="translate(-30.7 -33.459)"/></g><g transform="translate(21.433 3.686)"><path class="d" d="M30.471,29.726h0c-1.6,1.6-6.73,3.846-6.891,4.006a.589.589,0,0,1-.481-.16.589.589,0,0,1,.16-.481s5.128-2.243,6.73-3.846a.3.3,0,0,1,.481,0Z" transform="translate(-23.1 -29.125)"/></g><g transform="translate(15.925 7.812)"><path class="d" d="M22.447,39.552h0c-.16.16-.481.16-.481,0-.16-.16-2.724-4.487-2.243-7.532a.32.32,0,0,1,.641,0c-.481,2.884,2.083,6.891,2.083,7.051A.3.3,0,0,1,22.447,39.552Z" transform="translate(-19.663 -31.7)"/></g><g transform="translate(3.325 43.547)"><path class="d" d="M13.883,60.41a.559.559,0,0,1-.32.16.345.345,0,0,1-.32-.32c0-1.6-1.442-5.609-1.442-5.769A.589.589,0,0,1,11.96,54a.589.589,0,0,1,.481.16c0,.16,1.442,4.327,1.442,5.929C13.883,60.25,13.883,60.25,13.883,60.41Z" transform="translate(-11.8 -54)"/></g><g transform="translate(0 37.296)"><path class="d" d="M17.7,50.741a.559.559,0,0,1-.32.16,10.189,10.189,0,0,0-7.051,3.2.34.34,0,0,1-.481-.481h0A10.477,10.477,0,0,1,17.377,50.1a.345.345,0,0,1,.32.32C17.858,50.741,17.858,50.741,17.7,50.741Z" transform="translate(-9.725 -50.099)"/></g><g transform="translate(22.328 66.302)"><path class="d" d="M24.206,78.616c0,.16-.16.16-.32.16s-.32-.16-.16-.481a68.28,68.28,0,0,1,4.327-9.935c0-.16.32-.16.481-.16a.589.589,0,0,1,.16.481c-.32,0-3.525,6.57-4.487,9.935Z" transform="translate(-23.659 -68.2)"/></g><g transform="translate(23.356 56.367)"><path class="d" d="M34.4,69.692h0c-.16.16-.481.16-.481,0-2.724-3.846-9.455-7.051-9.455-7.051-.16,0-.16-.32-.16-.481a.589.589,0,0,1,.481-.16c.32.16,6.891,3.365,9.775,7.371C34.556,69.532,34.556,69.692,34.4,69.692Z" transform="translate(-24.3 -62)"/></g><g transform="translate(15.664 44.348)"><path class="d" d="M20.141,64.6c0,.16-.16.16-.32.16a.345.345,0,0,1-.32-.32c.481-4.647,3.686-9.455,3.846-9.775a.589.589,0,0,1,.481-.16.589.589,0,0,1,.16.481s-3.365,4.968-3.686,9.455Z" transform="translate(-19.5 -54.5)"/></g><g transform="translate(42.105 18.228)"><path class="d" d="M41.929,41.886a.3.3,0,0,1-.481,0L36.16,38.841a.358.358,0,1,1,.32-.641l5.288,3.045c.32.32.32.481.16.641Z" transform="translate(-36 -38.2)"/></g><g transform="translate(23.997 24.478)"><path class="d" d="M31.11,45.465a.589.589,0,0,1-.481.16L24.86,42.741a.358.358,0,1,1,.32-.641l5.769,2.884c.16,0,.32.16.16.481Z" transform="translate(-24.7 -42.1)"/></g><g transform="translate(22.168 32.263)"><path class="d" d="M28.272,54.076h0a.3.3,0,0,1-.481,0,44.05,44.05,0,0,1-4.166-6.57c-.16-.16,0-.32.16-.481s.32,0,.481.16a48.558,48.558,0,0,0,4.006,6.41Z" transform="translate(-23.559 -46.959)"/></g></g></g><g transform="translate(242.249 31.564)"><g transform="translate(3.317 3.438)"><path class="k" d="M189.038,87.238c-1.122-1.282-.961-2.884-.641-4.487,3.2-7.211-3.365-22.595-13.781-23.716A13.307,13.307,0,0,0,164.2,62.4h0a13.307,13.307,0,0,0-3.365,10.416c1.122,10.576,16.505,16.986,23.556,13.941C186.154,86.277,187.756,86.116,189.038,87.238Z" transform="translate(-160.743 -58.943)"/></g><path class="b" d="M162.883,60.968c-6.25,6.25-5.128,17.467.641,17.307a15.988,15.988,0,0,1,2.564-6.57,50.865,50.865,0,0,1,3.365-4.327,22.351,22.351,0,0,1,4.327-3.365,15.988,15.988,0,0,1,6.57-2.564C180.35,56,169.133,54.719,162.883,60.968Z" transform="translate(-158.672 -56.797)"/></g><g transform="translate(69.466 -20.992)"><path class="l" d="M62.628,61.017c1.442,2.884-3.2,9.615-4.647,11.858C55.9,76.24,49.328,85.214,54.616,89.381c3.846,3.045,10.737-6.25,9.134,1.923-.481,2.243-3.686,7.051-1.122,9.455,5.288,4.807,7.532-4.968,12.339-2.083,5.128,3.045,2.564,12.179,8.173,12.5h.32c4.968-2.564-.8-9.935,2.724-14.743,3.365-4.487,9.134,3.686,12.179-2.724,1.442-3.045-3.365-6.25-4.647-8.333-4.487-6.891,5.448-.961,7.692-5.288,3.365-5.929-6.25-11.7-9.294-14.1-2.083-1.6-8.974-5.929-8.814-9.134.32-4.968,7.692.16,10.1-3.525,2.564-3.846-5.288-7.532-8.333-9.615C78.012,38.9,72.4,32.333,66.314,24.321L66.154,24v.32c0-.16-.16-.16-.16-.32l.16.641c-2.4,9.775-5.128,17.948-9.935,25-2.083,3.045-7.852,9.455-4.166,12.018C55.738,64.062,60.545,56.53,62.628,61.017Z" transform="translate(-50.849 -24)"/><g transform="translate(16.426 7.051)"><path class="d" d="M61.581,28.4h0c.32,0,.641.16.641.481.16.481,9.935,48.715,12.339,70.508,0,.32-.16.641-.481.641s-.641-.16-.641-.481C71.035,77.756,61.1,29.522,61.1,29.041,61.1,28.72,61.26,28.4,61.581,28.4Z" transform="translate(-61.1 -28.4)"/></g><g transform="translate(17.325 57.689)"><path class="d" d="M70.7,60h.32c.32.16,7.532,3.365,12.018,7.692a.567.567,0,0,1-.8.8c-3.686-3.686-9.775-6.57-11.377-7.211-1.282,1.282-7.051,6.73-8.173,10.737-.16.32-.481.481-.641.32-.32-.16-.481-.32-.32-.641,1.442-4.647,8.493-11.217,8.814-11.377C70.537,60,70.7,60,70.7,60Z" transform="translate(-61.661 -60)"/></g><g transform="translate(7.507 41.344)"><path class="d" d="M71.5,49.8h.32c.641.16,14.262,3.365,18.428,8.173a.567.567,0,1,1-.8.8c-3.686-4.166-15.7-7.371-17.627-7.852A73.973,73.973,0,0,0,56.6,67.267c-.16.32-.481.32-.8.16s-.32-.481-.16-.8c6.25-9.615,15.7-16.666,15.7-16.826C71.5,49.96,71.5,49.96,71.5,49.8Z" transform="translate(-55.534 -49.8)"/></g><g transform="translate(18.767 16.025)"><path class="d" d="M62.944,34h.32c2.243.8,9.775,3.525,10.416,5.448.16.32,0,.641-.32.641-.32.16-.641,0-.641-.32-.32-.961-5.288-3.2-9.775-4.807-.32-.16-.481-.481-.32-.641A.345.345,0,0,1,62.944,34Z" transform="translate(-62.561 -34)"/></g><g transform="translate(9.312 16.025)"><path class="d" d="M66.018,34a.589.589,0,0,1,.481.16.728.728,0,0,1,0,.8s-7.211,7.211-8.653,10.9a.61.61,0,1,1-1.122-.481c1.6-3.846,8.653-10.9,8.974-11.217C65.858,34.16,66.018,34.16,66.018,34Z" transform="translate(-56.661 -34)"/></g><g transform="translate(15.562 28.203)"><path class="d" d="M66.072,41.6h.32c.16.16,5.448,2.4,6.891,4.006a.567.567,0,0,1-.8.8c-.961-1.122-4.327-2.884-6.089-3.525-1.763,2.083-4.487,5.448-4.807,6.41-.16.32-.32.481-.641.32s-.481-.32-.32-.641c.481-1.6,4.807-6.57,5.288-7.051C65.912,41.6,65.912,41.6,66.072,41.6Z" transform="translate(-60.561 -41.6)"/></g></g><g transform="translate(223.223 -12.165)"><path class="m" d="M215.866,48.564c3.2.961,5.769,1.923,7.371,2.4,2.564,1.6,8.012,4.327,14.422,2.564-.16-.961-7.211-8.493-15.063-4.327-2.083-.641-4.647-1.442-7.532-2.4a18.725,18.725,0,0,0,13.941-6.25c-.641-.641-11.378-2.884-15.063,5.929-4.006-1.282-8.814-2.724-14.582-4.166a18.6,18.6,0,0,0,13.781-6.25c-.641-.641-11.378-2.884-15.063,5.929-2.243-.641-4.487-1.122-6.891-1.763a48.1,48.1,0,0,0-9.134-1.282c2.564-.641,8.974-2.724,12.5-9.294-.8-.481-11.858-.32-13.461,9.294a46.214,46.214,0,0,0-11.858.961,18.923,18.923,0,0,0,8.974-10.1c-.8-.481-11.378,1.6-11.858,10.9a55.7,55.7,0,0,0-9.615,3.365,18.549,18.549,0,0,0,6.089-13.3c-.961-.16-10.416,5.128-7.692,14.1a43.539,43.539,0,0,0-8.333,5.128,5.112,5.112,0,0,0,1.122.961A35.96,35.96,0,0,1,155.453,46c3.045,8.814,13.781,7.852,14.422,7.211a18.732,18.732,0,0,0-13.461-7.532,50.987,50.987,0,0,1,9.775-3.045c2.884,9.134,13.781,8.012,14.582,7.371a18.166,18.166,0,0,0-13.461-7.532c1.6-.32,3.365-.641,5.288-1.122a35.857,35.857,0,0,1,8.493-.32c1.122,9.455,12.018,10.576,12.82,10.1-2.724-6.41-8.493-8.974-11.217-9.935a132.071,132.071,0,0,1,14.9,2.564c.16,9.294,10.736,11.538,11.7,11.057-1.763-5.609-6.089-8.814-8.814-10.416,4.807,1.282,9.615,2.564,13.461,3.846-.32,9.455,10.256,12.179,11.217,11.7A21.113,21.113,0,0,0,215.866,48.564Z" transform="translate(-146.8 -29.509)"/></g><g transform="translate(391.803 -59.451)"><path class="m" d="M283.088,62.015c.481,3.365.8,6.089.961,7.692-.321,3.045-.321,9.134,3.846,14.262.8-.481,4.487-10.1-2.564-15.544-.321-2.243-.641-4.807-1.122-7.852,1.282,2.4,4.807,8.012,11.7,9.935.32-.961-2.4-11.538-11.858-11.057-.641-4.166-1.282-9.134-2.4-15.063,1.282,2.564,4.807,8.012,11.7,9.775.321-.961-2.4-11.538-11.858-11.057-.481-2.243-.961-4.487-1.442-6.891a47.257,47.257,0,0,0-2.724-8.814A18.218,18.218,0,0,0,291.1,34.613c.16-.961-4.807-10.737-14.1-8.173a53.687,53.687,0,0,0-5.929-10.416,18.489,18.489,0,0,0,12.98,3.686c0-.961-6.25-9.615-14.9-6.089a50.991,50.991,0,0,0-7.211-7.211,18.68,18.68,0,0,0,14.743-.32c-.321-.961-9.134-7.211-16.185-.961A47.982,47.982,0,0,0,252.32,0,2.635,2.635,0,0,0,252,1.442a36.351,36.351,0,0,1,7.692,4.647c-6.73,6.57-1.122,15.7-.321,16.185,3.686-6.41,1.923-12.98,1.122-15.384a56.371,56.371,0,0,1,6.891,7.532c-7.051,6.57-1.282,15.864-.481,16.345,3.686-6.41,1.923-12.98,1.122-15.544.961,1.282,2.083,2.724,3.2,4.327a46.8,46.8,0,0,1,4.006,7.532c-8.173,4.968-4.327,15.384-3.525,15.864a19.171,19.171,0,0,0,4.166-14.422,96.858,96.858,0,0,1,4.006,14.582c-8.333,4.166-5.769,14.582-4.968,15.223a18.366,18.366,0,0,0,5.609-12.5c.961,4.968,1.763,9.775,2.243,13.941C274.114,63.618,276.2,74.194,277,75A20.145,20.145,0,0,0,283.088,62.015Z" transform="translate(-252)"/></g><g transform="translate(27.287 130.28)"><g transform="translate(3.094)"><path class="k" d="M51.042,118.4a4.706,4.706,0,0,1-4.327,1.442c-7.692-1.6-21.313,8.012-20.191,18.589a13.946,13.946,0,0,0,5.448,9.455h0a13.5,13.5,0,0,0,10.9,1.122c10.1-3.365,13.14-19.71,8.653-25.96C50.722,121.284,50.241,119.842,51.042,118.4Z" transform="translate(-26.459 -118.4)"/></g><g transform="translate(0 15.384)"><path class="b" d="M31.053,145.307c7.371,4.807,18.108,1.282,16.826-4.327a13.807,13.807,0,0,1-6.891-1.122c-1.763-.8-3.365-1.6-4.968-2.4a21.178,21.178,0,0,1-4.166-3.525A15.032,15.032,0,0,1,28.008,128C22.4,129.282,23.682,140.5,31.053,145.307Z" transform="translate(-24.528 -128)"/></g></g><g transform="translate(179.405 29.966)"><path class="j" d="M122.091,103.393s-5.929-15.7,0-29.165C126.9,63.652,138.917,57.883,143.243,55.8A329.848,329.848,0,0,0,128.18,88.971c-.8,1.763-.32,1.282-1.122,3.045,1.442-2.4.961-1.122,1.763-2.724a343.769,343.769,0,0,0,15.544-33.011c1.282,4.327,4.327,16.666-.641,27.562C137.795,97.3,122.091,103.393,122.091,103.393Z" transform="translate(-119.456 -55.8)"/></g><g transform="translate(203.632 -14.553)"><path class="h" d="M143.589,28.309c2.243,0,14.743.481,24.037,10.1,10.1,10.737,12.339,27.082,6.891,42.946s-5.929,18.589-5.288,27.883c.641,9.134-3.686-13.941-15.223-22.755-29.806-22.915-18.428-41.344-10.737-58.33C143.108,28.309,143.429,27.669,143.589,28.309Z" transform="translate(-134.574 -28.018)"/><g transform="translate(6.926 2.007)"><path class="i" d="M160.375,40.374a122.9,122.9,0,0,1-13.3-3.686,57.632,57.632,0,0,0-5.929-7.371c-.16-.32.641,1.122.641,1.122,1.442,2.243,2.884,4.647,4.166,7.051-4.166,6.891-7.211,10.9-7.051,10.737,1.122-1.282,4.006-4.647,7.692-9.775a51,51,0,0,1,2.564,5.128c-5.288,8.974-9.455,14.1-9.134,13.941a117.453,117.453,0,0,0,9.775-12.5c.961,1.923,1.763,4.006,2.564,5.929-5.128,10.1-8.974,15.864-8.814,15.7,1.442-1.763,4.968-6.73,9.615-13.941L155.087,58c-4.327,9.935-7.852,15.864-7.692,15.7a119.683,119.683,0,0,0,8.333-13.941c.641,2.083,1.282,4.006,1.763,6.089a140.747,140.747,0,0,1-6.57,14.1,108.1,108.1,0,0,0,7.051-12.339c.641,2.243,1.122,4.487,1.6,6.41-1.763,6.57-3.365,10.576-3.2,10.416a68.552,68.552,0,0,0,3.686-8.814c1.442,6.57,1.923,10.737,1.923,10.576,0-1.6-.32-5.448-.961-10.9a90.384,90.384,0,0,0,7.371,6.891,102.667,102.667,0,0,1-7.532-8.333c-.32-2.083-.641-4.487-1.282-7.051a126.589,126.589,0,0,0,11.217,8.012,129.448,129.448,0,0,1-11.538-9.775c-.32-1.6-.8-3.365-1.122-5.128a116.647,116.647,0,0,0,14.1,7.211A156.439,156.439,0,0,1,157.811,58c-.16-.481-.16-.8-.32-1.282-.481-1.6-.8-3.045-1.442-4.647,7.692,3.686,13.14,5.769,15.384,6.57.32,0-6.41-2.884-16.025-8.653a47.463,47.463,0,0,0-2.4-4.968,128.909,128.909,0,0,0,13.461,4.006c.32,0-5.609-1.763-14.262-5.609a54.032,54.032,0,0,0-3.365-5.448A65.943,65.943,0,0,0,160.375,40.374Z" transform="translate(-138.896 -29.271)"/></g></g><g transform="translate(115.91 11.204)"><path class="h" d="M106.221,44.425c1.923,1.122,12.339,8.173,15.063,21.313,3.045,14.422-3.846,29.646-16.826,40.222-12.98,10.737-14.743,12.82-19.23,20.832-4.327,8.173,4.166-13.781-.961-27.242-13.3-35.094,6.089-44.869,21.633-55.285C105.9,44.265,106.381,43.784,106.221,44.425Z" transform="translate(-79.832 -44.092)"/><g transform="translate(6.825 1.733)"><path class="i" d="M113.27,64.766a112.121,112.121,0,0,1-9.294-10.1,71.094,71.094,0,0,0-1.122-9.455c0-.32-.16,1.282-.16,1.282,0,2.724,0,5.448-.16,8.173-7.211,3.686-11.858,5.448-11.7,5.448a103.885,103.885,0,0,0,11.538-4.166c-.16,1.923-.32,3.846-.481,5.609-9.294,4.807-15.384,7.051-15.223,7.051a104.356,104.356,0,0,0,14.9-5.448c-.32,2.243-.641,4.327-.961,6.41a161.112,161.112,0,0,1-15.864,8.653,155.008,155.008,0,0,0,15.544-6.891c-.32,1.923-.8,3.686-1.122,5.448-8.974,6.089-15.063,9.294-14.9,9.294a121.577,121.577,0,0,0,14.422-7.371c-.481,2.083-1.122,4.166-1.6,6.089-7.852,5.769-13.3,8.653-12.98,8.653a127.363,127.363,0,0,0,12.5-6.73,60.211,60.211,0,0,1-2.083,6.41c-4.968,4.647-8.333,7.211-8.333,7.051a64.8,64.8,0,0,0,7.692-5.609,89.747,89.747,0,0,1-4.006,10.1,90.441,90.441,0,0,0,4.807-9.775c1.122,4.968,2.243,8.333,2.564,9.615A90.87,90.87,0,0,1,95.162,93.45c.8-1.923,1.763-4.166,2.564-6.57,2.4,6.57,4.487,10.9,5.288,12.659.16.16-2.083-5.288-4.647-14.422.481-1.6,1.122-3.2,1.763-4.968,3.846,7.051,6.891,11.7,8.173,13.621.16.16-3.2-5.609-7.532-15.384a3.771,3.771,0,0,0,.32-1.282c.481-1.6.8-3.045,1.122-4.647a130.662,130.662,0,0,0,9.615,13.621c.16.16-3.846-5.769-9.134-15.7.32-1.763.481-3.686.641-5.448a98.317,98.317,0,0,0,9.294,10.416,150.092,150.092,0,0,1-9.294-12.179,42.732,42.732,0,0,0,0-6.41C108.623,60.92,111.828,63.8,113.27,64.766Z" transform="translate(-84.092 -45.174)"/></g></g><g transform="translate(258.638 11.492)"><g transform="translate(5.288 2.61)"><path class="h" d="M172.52,45.9c-.16.481,0,.481-.32,1.122a32.287,32.287,0,0,1,8.814,4.327,33.692,33.692,0,0,1,5.448,5.288c1.122,1.442,1.122,1.763,1.282,3.686.641,15.7,8.493,11.858,16.505,17.467.641-11.858-5.929-16.986-13.461-19.871-1.763-.641-2.243-.641-3.365-2.083a28.98,28.98,0,0,0-5.609-5.288A31.6,31.6,0,0,0,172.52,45.9Z" transform="translate(-172.2 -45.9)"/></g><g transform="translate(0 1.808)"><path class="h" d="M185.085,68.475C181.72,57.739,187.008,45.881,168.9,45.4c3.2,5.609-2.724,24.357,16.185,23.075Z" transform="translate(-168.9 -45.4)"/></g><g transform="translate(16.666)"><path class="h" d="M207.023,48.484c-11.217-1.442-19.71-11.217-27.723,5.128,6.41-.641,20.992,12.659,27.723-5.128Z" transform="translate(-179.3 -44.272)"/></g></g><g transform="translate(141.893 56.202)"><g transform="translate(13.917)"><ellipse class="n" cx="9.455" cy="9.775" rx="9.455" ry="9.775" transform="translate(0 18.896) rotate(-87.845)"/><g class="o" transform="translate(1.251 5.553)"><circle class="p" cx="1.763" cy="1.763" r="1.763" transform="translate(0 3.262) rotate(-67.734)"/></g><g transform="translate(10.305 12.629)"><path class="b" d="M114.749,83.493c-1.6.641-3.045.481-3.525-.32-.32-.8.641-2.083,2.083-2.724,1.6-.641,3.045-.481,3.525.32C117.152,81.731,116.191,82.852,114.749,83.493Z" transform="translate(-111.161 -80.053)"/></g></g><g transform="translate(20.059 23.867)"><circle class="n" cx="5.609" cy="5.609" r="5.609" transform="translate(0 11.209) rotate(-87.843)"/><g class="o" transform="translate(0.517 3.379)"><circle class="p" cx="0.961" cy="0.961" r="0.961" transform="translate(0 1.78) rotate(-67.752)"/></g><g transform="translate(5.605 6.948)"><ellipse class="b" cx="1.763" cy="0.961" rx="1.763" ry="0.961" transform="matrix(0.922, -0.388, 0.388, 0.922, 0, 1.366)"/></g></g><g transform="translate(0 5.342)"><circle class="n" cx="5.609" cy="5.609" r="5.609" transform="matrix(0.038, -0.999, 0.999, 0.038, 0, 11.209)"/><g class="o" transform="translate(0.705 3.407)"><circle class="p" cx="0.961" cy="0.961" r="0.961" transform="translate(0 1.78) rotate(-67.734)"/></g><g transform="translate(5.596 6.936)"><ellipse class="b" cx="1.763" cy="0.961" rx="1.763" ry="0.961" transform="translate(0 1.363) rotate(-22.749)"/></g></g><g transform="translate(1.703 20.089)"><ellipse class="n" cx="7.692" cy="7.852" rx="7.692" ry="7.852" transform="translate(0 15.373) rotate(-87.834)"/><g class="o" transform="translate(0.872 4.554)"><circle class="p" cx="1.442" cy="1.442" r="1.442" transform="translate(0 2.67) rotate(-67.752)"/></g><g transform="translate(8.247 10.123)"><path class="b" d="M105.051,93.869c-1.282.481-2.4.32-2.724-.32s.481-1.6,1.763-2.243c1.282-.481,2.4-.32,2.724.32C106.974,92.267,106.333,93.388,105.051,93.869Z" transform="translate(-102.256 -91.026)"/></g></g></g><g transform="translate(4.578 170.491)"><g transform="translate(20.345 9.769)"><ellipse class="n" cx="9.455" cy="9.775" rx="9.455" ry="9.775" transform="matrix(0.887, -0.462, 0.462, 0.887, 0, 8.736)"/><g class="o" transform="translate(9.305 4.296)"><circle class="p" cx="1.763" cy="1.763" r="1.763" transform="translate(0 0.455) rotate(-7.418)"/></g><g transform="translate(7.768 15.587)"><path class="b" d="M29.5,162.976c-1.282-.961-1.923-2.4-1.442-3.2.641-.8,2.083-.481,3.365.481s1.923,2.4,1.442,3.2S30.784,164.1,29.5,162.976Z" transform="translate(-27.9 -159.317)"/></g></g><g transform="translate(9.458 26.406)"><circle class="n" cx="5.609" cy="5.609" r="5.609" transform="matrix(0.887, -0.462, 0.462, 0.887, 0, 5.182)"/><g class="o" transform="translate(5.563 2.641)"><circle class="p" cx="0.961" cy="0.961" r="0.961" transform="translate(0 0.248) rotate(-7.418)"/></g><g transform="translate(3.99 8.687)"><ellipse class="b" cx="0.961" cy="1.763" rx="0.961" ry="1.763" transform="matrix(0.609, -0.793, 0.793, 0.609, 0, 1.525)"/></g></g><g transform="translate(15.565)"><circle class="n" cx="5.609" cy="5.609" r="5.609" transform="matrix(0.887, -0.462, 0.462, 0.887, 0, 5.182)"/><g class="o" transform="translate(5.561 2.635)"><circle class="p" cx="0.961" cy="0.961" r="0.961" transform="translate(0 0.248) rotate(-7.411)"/></g><g transform="translate(4.118 8.584)"><ellipse class="b" cx="0.961" cy="1.763" rx="0.961" ry="1.763" transform="matrix(0.61, -0.793, 0.793, 0.61, 0, 1.524)"/></g></g><g transform="translate(0 8.709)"><ellipse class="n" cx="7.692" cy="7.852" rx="7.692" ry="7.852" transform="matrix(0.887, -0.462, 0.462, 0.887, 0, 7.106)"/><g class="o" transform="translate(7.585 3.625)"><circle class="p" cx="1.442" cy="1.442" r="1.442" transform="translate(0 0.373) rotate(-7.435)"/></g><g transform="translate(5.599 11.946)"><ellipse class="b" cx="1.442" cy="2.404" rx="1.442" ry="2.404" transform="matrix(0.609, -0.793, 0.793, 0.609, 0, 2.287)"/></g></g></g><g transform="translate(99.457 -20.672)"><path class="g" d="M104.715,38.782c-1.923,2.724-10.1,1.763-12.659,1.6-3.846-.16-14.9-1.763-16.185,4.968-.961,4.807,10.576,6.41,2.724,8.974-2.243.641-8.012.16-8.814,3.525-1.763,6.891,7.852,4.327,7.692,9.775-.32,5.929-9.455,8.012-7.211,13.14h0l.16.16v.16h0c4.487,3.2,8.333-5.448,14.262-4.647,5.448.8,1.122,9.775,8.173,9.294,3.365-.16,4.006-5.929,5.128-8.012,4.006-7.211,3.365,4.327,8.333,4.327,6.73,0,7.371-11.057,7.852-14.9.32-2.564.961-10.737,3.846-12.179,4.487-2.083,3.525,6.73,7.852,7.211,4.647.32,4.006-8.173,4.487-11.858.8-8.493,3.846-16.505,8.173-25.639l.481-.32c-.16,0-.16,0-.32.16,0-.16.16-.16.16-.32l-.481.32c-9.775,2.564-18.268,4.006-26.761,3.2-3.686-.32-12.018-2.4-12.5,2.083C98.626,34.135,107.6,34.776,104.715,38.782Z" transform="translate(-69.565 -24.2)"/><g transform="translate(7.001 4.542)"><path class="d" d="M130.927,27.3h0a.715.715,0,0,1,0,.8c-.32.32-38.139,31.889-56.086,44.549-.32.16-.641.16-.8-.16s-.16-.641.16-.8c17.948-12.5,55.606-44.228,56.086-44.549A.4.4,0,0,1,130.927,27.3Z" transform="translate(-73.934 -27.034)"/></g><g transform="translate(9.35 34.586)"><path class="d" d="M90.143,48.374c.16.16.16.16.16.32,0,.32.641,8.333-.961,14.262-.16.32-.32.481-.641.32s-.481-.32-.32-.641c1.442-4.968,1.122-11.858.961-13.461-1.763-.641-9.294-2.884-13.3-2.083-.32,0-.641-.16-.641-.481s.16-.641.481-.641c4.807-.961,13.781,2.083,14.262,2.243C89.982,48.214,89.982,48.374,90.143,48.374Z" transform="translate(-75.4 -45.783)"/></g><g transform="translate(13.997 20.992)"><path class="d" d="M101.215,43.229l.16.16c.16.641,3.846,14.262,1.6,20.191-.16.32-.481.481-.641.32-.32-.16-.481-.481-.32-.641,1.923-5.128-.961-17.307-1.6-19.23a71.082,71.082,0,0,0-21.633-5.609c-.32,0-.481-.32-.481-.641s.32-.481.641-.481c11.377.8,22.114,5.769,22.274,5.769C101.055,43.229,101.215,43.229,101.215,43.229Z" transform="translate(-78.3 -37.3)"/></g><g transform="translate(56.302 10.83)"><path class="d" d="M105.661,31.185a.56.56,0,0,1,.16.32c.32,2.4,1.442,10.256.16,11.858a.529.529,0,0,1-.8,0c-.32-.16-.32-.481,0-.8.641-.8.32-6.25-.481-10.9,0-.32.16-.641.481-.641C105.341,30.865,105.5,31.025,105.661,31.185Z" transform="translate(-104.7 -30.959)"/></g><g transform="translate(42.04 7.798)"><path class="d" d="M110.7,31.845a.589.589,0,0,1,.16.481c-.16.32-.32.481-.641.32-.16,0-9.775-2.884-13.781-2.4-.32,0-.641-.16-.641-.481s.16-.641.481-.641c4.166-.481,13.781,2.4,14.1,2.4C110.543,31.845,110.543,31.845,110.7,31.845Z" transform="translate(-95.8 -29.066)"/></g><g transform="translate(38.034 16.94)"><path class="d" d="M102.594,36.26c.16.16.16.16.16.32s.481,5.929-.32,7.852c-.16.32-.481.481-.641.32-.32-.16-.481-.481-.32-.641.481-1.442.32-5.288.32-7.051-2.724-.641-6.891-1.282-7.852-1.122-.32,0-.641-.16-.641-.481s.16-.641.481-.641c1.6-.32,8.012,1.122,8.814,1.282C102.434,36.1,102.594,36.26,102.594,36.26Z" transform="translate(-93.3 -34.771)"/></g></g><g transform="translate(350.515 -25.639)"><path class="g" d="M255.985,36c-1.442,2.4-8.814,2.083-11.057,2.243-3.365,0-13.3-.641-13.941,5.448-.481,4.327,9.775,4.968,2.884,7.692-1.923.8-7.051.641-7.532,3.686-1.122,6.25,7.211,3.365,7.371,8.173.16,5.288-7.852,7.692-5.609,12.018h.16v.16h0c4.166,2.564,7.051-5.288,12.339-4.968,4.968.32,1.6,8.493,7.852,7.692,3.045-.32,3.045-5.448,4.006-7.371,3.045-6.57,3.2,3.525,7.532,3.365,6.089-.32,5.769-10.256,6.089-13.621.16-2.243.16-9.615,2.724-10.9,3.846-2.083,3.525,5.769,7.371,5.929,4.166,0,3.045-7.532,3.2-10.737.16-7.532,2.4-14.9,5.609-23.236l.321-.32c-.16,0-.16,0-.321.16,0-.16,0-.16.16-.32l-.32.32c-8.493,2.884-15.864,4.647-23.4,4.487-3.365,0-10.737-1.442-10.9,2.724C250.376,32.157,258.388,32.157,255.985,36Z" transform="translate(-226.235 -21.1)"/><g transform="translate(7.034 4.206)"><path class="d" d="M278.178,23.845h0a.487.487,0,0,1,0,.641c-.32.32-31.729,30.607-46.792,42.786a.453.453,0,0,1-.641-.641c15.063-12.179,46.472-42.465,46.792-42.786A.487.487,0,0,1,278.178,23.845Z" transform="translate(-230.625 -23.725)"/></g><g transform="translate(8.116 34.123)"><path class="d" d="M244.6,43.846a.559.559,0,0,1,.16.32c0,.32,1.122,7.211,0,12.659,0,.32-.32.481-.641.32-.32,0-.481-.32-.32-.641a35.466,35.466,0,0,0,0-11.858c-1.6-.32-8.493-2.083-11.858-.961-.32,0-.481,0-.641-.32,0-.32,0-.481.32-.641,4.166-1.122,12.339.961,12.659,1.122C244.44,43.686,244.44,43.686,244.6,43.846Z" transform="translate(-231.3 -42.394)"/></g><g transform="translate(11.481 21.794)"><path class="d" d="M254.072,38.546l.16.16c.16.481,4.166,12.339,2.564,17.787,0,.32-.32.481-.641.32-.321,0-.481-.32-.321-.641,1.442-4.647-1.923-15.223-2.564-16.826-1.442-.481-10.416-3.525-19.39-3.686a.481.481,0,1,1,0-.961,60.044,60.044,0,0,1,20.031,3.846Z" transform="translate(-233.4 -34.7)"/></g><g transform="translate(48.178 10.185)"><path class="d" d="M257.1,27.527a.559.559,0,0,1,.16.32c.481,2.083,1.923,8.974.961,10.416-.16.16-.481.32-.641.16s-.32-.481-.16-.641c.481-.641-.16-5.448-1.122-9.615a.833.833,0,0,1,.32-.641C256.941,27.367,257.1,27.527,257.1,27.527Z" transform="translate(-256.3 -27.456)"/></g><g transform="translate(35.198 8.523)"><path class="d" d="M261.661,27.991a.589.589,0,0,1,.16.481c0,.32-.32.481-.641.32-.16,0-8.814-1.923-12.339-1.282a.832.832,0,0,1-.641-.32.833.833,0,0,1,.32-.641c3.686-.641,12.339,1.282,12.659,1.282C261.661,27.831,261.661,27.831,261.661,27.991Z" transform="translate(-248.2 -26.418)"/></g><g transform="translate(32.313 16.691)"><path class="d" d="M254.893,32.292c.16,0,.16.16.16.32s.8,5.128.16,7.051c0,.32-.32.481-.641.32-.32,0-.481-.32-.32-.641.32-1.282,0-4.647-.16-6.25-2.4-.32-6.25-.8-7.051-.481-.32.16-.481,0-.641-.32,0-.32,0-.481.32-.641,1.282-.481,7.211.481,7.852.481A.5.5,0,0,0,254.893,32.292Z" transform="translate(-246.4 -31.516)"/></g></g><g transform="translate(135.408 -29.809)"><path class="c" d="M94.724,95.42l.481.16a10.429,10.429,0,0,1,1.763-2.4c1.122-1.122,2.724-2.243,4.647-1.763l-.481,3.525L104.82,92.7l-1.282,2.4.481-.16a30.629,30.629,0,0,0,14.1-8.333,34,34,0,0,0,6.891-9.935s2.083-4.807,4.487-10.1c-4.327,11.217-9.615,25.639-10.256,32.37A6.969,6.969,0,0,0,121,104.393a.559.559,0,0,0,.32.16l.32.32v-1.6a2.494,2.494,0,0,1,.481-1.442c.16,0,.16-.16.32-.16a6.206,6.206,0,0,0,1.122,5.288l.16.32.8-1.442c.16.8.32,2.4,1.282,3.2l.16.16.16.16,1.282-1.6a4.777,4.777,0,0,0,1.122,2.564l.481.481.32.16v-.641a1.215,1.215,0,0,1,.32-.641.636.636,0,0,1,.8-.16,6.509,6.509,0,0,1,2.243,1.6,22.836,22.836,0,0,1,1.763,1.923h0a.222.222,0,0,0,.32,0h0v.16h0l.16.16h.32a22.834,22.834,0,0,0,1.923-1.763,11.3,11.3,0,0,1,2.4-1.442.636.636,0,0,1,.8.16.963.963,0,0,1,.16.641v.641l.32-.16c.16,0,.32-.16.641-.32a3.648,3.648,0,0,0,1.442-2.4l1.122,1.763.16-.16.16-.16a5.663,5.663,0,0,0,1.6-3.045l.641,1.442.16-.32a6.132,6.132,0,0,0,1.6-5.128c.16,0,.16,0,.32.16a3.827,3.827,0,0,1,.32,1.442v1.6l.481-.32c.16,0,.16-.16.32-.16a7.193,7.193,0,0,0,2.4-5.128c0-6.73-3.365-21.794-6.41-33.331,1.763,5.609,3.365,10.576,3.365,10.576a35.819,35.819,0,0,0,5.769,10.737c5.929,7.532,12.98,9.775,13.14,9.775l.481.16-1.122-2.564,3.365,2.724V95.1a5.11,5.11,0,0,1,4.327,2.243,18.941,18.941,0,0,1,1.6,2.564l.481-.16c-.481-2.4-.481-2.4,0-6.73a12.618,12.618,0,0,0-.481-5.288h.32a7.812,7.812,0,0,0,1.122.481,7.094,7.094,0,0,1,1.442.8l.32.16.16-.32a10.4,10.4,0,0,0-.32-5.128l.961.481a2.258,2.258,0,0,1,.8.481l.481.32v-.481a19.59,19.59,0,0,0-4.166-8.653c-7.371-9.294-22.435-18.108-29.966-22.114a65.948,65.948,0,0,0,19.23,4.006h.32l-.16-.32a2.557,2.557,0,0,1-.481-1.282c1.282-.16,3.525-.481,3.525-.481h.481l-.32-.32c-.32-.481-.961-1.282-1.282-1.763,2.083-.8,6.41-1.923,6.41-1.923l.32-.16-.16-.32c-1.6-1.923-6.73-4.166-8.012-4.807a1.2,1.2,0,0,1,.8-.16,1.657,1.657,0,0,1,.641.16l.8.16h-1.122a15.558,15.558,0,0,0-3.525-1.923c0-.16.16-.16.32-.32a.5.5,0,0,1,.32-.16h.16l.16-.481c-10.256-4.647-19.55.481-23.076,2.884h0a3.5,3.5,0,0,0-.8.481,7.223,7.223,0,0,1-2.243,1.6c.8-10.416,2.4-22.915,5.769-29.966-2.243-.8-3.365,1.6-3.365,1.6s-3.525,4.968-4.006,28.524a4.938,4.938,0,0,1-2.4-1.763c-2.243-2.083-12.018-10.576-23.877-6.73v.481h.16c.16,0,.16.16.32.16a.559.559,0,0,1,.16.32,15.715,15.715,0,0,0-3.686,1.442l-.641.481.8-.16h.641c.32,0,.481.16.8.16-1.442.481-6.891,2.083-8.493,3.846l-.32.32.32.16s4.166,1.6,6.25,2.724a13.01,13.01,0,0,1-1.442,1.6l-.32.32.481.16a32.461,32.461,0,0,1,3.525.961,9.446,9.446,0,0,1-.641,1.282l-.16.32h.32a64.8,64.8,0,0,0,19.55-1.923c-8.012,3.2-23.877,10.256-32.37,18.749-2.564,2.564-4.487,5.288-5.128,8.012L92,80.356l.481-.16a6.739,6.739,0,0,1,.8-.32,2.278,2.278,0,0,1,.961-.32c-.32.8-1.282,3.2-.8,4.968v.32l.32-.16,1.6-.641a2.971,2.971,0,0,1,1.122-.32h.32a11.322,11.322,0,0,0-1.122,5.128C95.525,93.176,95.525,93.176,94.724,95.42Z" transform="translate(-92 -18.498)"/><g transform="translate(8.493 25.322)"><g transform="translate(0.841 7.572)"><path class="d" d="M131.6,87.059c-.16,0-.16-.16-.16-.32-.481-8.814,3.045-41.183,3.686-46.632C130.8,43.792,104.195,66.227,98.426,72a.34.34,0,0,1-.481-.481c6.25-6.41,37.017-32.049,37.337-32.37.16-.16.16-.16.32,0,.16,0,.16.16.16.32,0,.32-4.487,37.818-3.846,47.273.16.16,0,.32-.32.32Z" transform="translate(-97.825 -39.025)"/></g><g transform="translate(14.422 3.328)"><path class="d" d="M106.46,37.055c-.16,0-.16-.16-.16-.32a.345.345,0,0,1,.32-.32c7.051-.481,22.595,3.846,24.037,4.327,1.6-.32,19.871-4.166,28.524.481a.358.358,0,1,1-.32.641c-8.653-4.807-27.883-.481-28.2-.481h-.16c-.321-.16-16.826-4.807-24.037-4.327Z" transform="translate(-106.3 -36.377)"/></g><g transform="translate(38.179 7.572)"><path class="d" d="M151.211,76.483a.157.157,0,0,1-.16-.16c-4.968-11.858-29.485-36.376-29.806-36.7a.34.34,0,0,1,.481-.481c.32.32,24.838,24.838,29.806,36.857a.589.589,0,0,1-.16.481Z" transform="translate(-121.125 -39.025)"/></g><g transform="translate(27.817 37.858)"><path class="d" d="M114.885,67.98h0c-.16-.16-.32-.32-.16-.481,2.243-3.686,7.371-9.294,7.371-9.455a.34.34,0,1,1,.481.481,100.956,100.956,0,0,0-7.371,9.294C115.206,67.98,115.045,68.141,114.885,67.98Z" transform="translate(-114.659 -57.925)"/></g><g transform="translate(36.096 29.365)"><path class="d" d="M128.6,63a.157.157,0,0,1-.16-.16c-1.923-4.487-8.493-9.615-8.493-9.615a.34.34,0,1,1,.481-.481c.32.16,6.73,5.288,8.653,9.935a.589.589,0,0,1-.16.481A.5.5,0,0,0,128.6,63Z" transform="translate(-119.825 -52.625)"/></g><g transform="translate(62.15 35.254)"><path class="d" d="M136.27,64.953c-.16,0-.16-.16-.16-.32a67.2,67.2,0,0,1,.481-8.012.32.32,0,0,1,.641,0,39.708,39.708,0,0,0-.481,7.852.425.425,0,0,1-.481.481Z" transform="translate(-136.084 -56.3)"/></g><g transform="translate(51.279 21.313)"><path class="d" d="M129.46,48.241c-.16,0-.16-.16-.16-.32a.345.345,0,0,1,.32-.32c.32,0,9.455.641,11.858,2.4a.34.34,0,0,1-.481.481c-2.243-1.6-11.377-2.083-11.538-2.243Z" transform="translate(-129.3 -47.6)"/></g><g transform="translate(58.21 5.969)"><path class="d" d="M139.674,43.113h0c-1.923-.8-5.769-4.327-5.929-4.487a.34.34,0,0,1,.481-.481s3.846,3.686,5.609,4.327c.16,0,.16.32.16.481S139.835,43.113,139.674,43.113Z" transform="translate(-133.625 -38.025)"/></g><g transform="translate(50.732 1.442)"><path class="d" d="M129.185,40.328h0c-.16-.16-.32-.32-.16-.481s2.724-4.006,5.609-4.647c.16,0,.32,0,.32.16s0,.32-.16.32c-2.564.641-5.128,4.327-5.128,4.327C129.345,40.328,129.185,40.328,129.185,40.328Z" transform="translate(-128.959 -35.2)"/></g><g transform="translate(16.666 3.726)"><path class="d" d="M107.86,40.591a.157.157,0,0,1-.16-.16.589.589,0,0,1,.16-.481c1.442-.481,4.327-3.2,4.327-3.2a.34.34,0,0,1,.481.481c-.16.16-3.045,2.884-4.647,3.365Z" transform="translate(-107.7 -36.625)"/></g><g transform="translate(22.274)"><path class="d" d="M116.809,39.909a.157.157,0,0,1-.16-.16,8.962,8.962,0,0,0-5.288-4.807c-.16,0-.16-.16-.16-.481,0-.16.16-.16.32-.16h0a10.836,10.836,0,0,1,5.769,5.128c0,.16,0,.32-.16.32A.5.5,0,0,1,116.809,39.909Z" transform="translate(-111.2 -34.3)"/></g><g transform="translate(0 31.515)"><path class="d" d="M97.46,54.821c-.16,0-.16-.16-.16-.32a.345.345,0,0,1,.32-.32c3.2-.481,9.775,0,10.1,0a.32.32,0,0,1,0,.641c-.16,0-6.891-.32-10.256,0Z" transform="translate(-97.3 -53.967)"/></g><g transform="translate(14.676 25.319)"><path class="d" d="M106.685,61.638h0c-.16-.16-.32-.32-.16-.481,2.243-3.686,2.564-10.576,2.564-10.737a.32.32,0,1,1,.641,0c0,.32-.32,7.211-2.724,10.9C106.845,61.638,106.685,61.8,106.685,61.638Z" transform="translate(-106.459 -50.1)"/></g><g transform="translate(16.666 17.601)"><path class="d" d="M107.86,46.431a.157.157,0,0,1-.16-.16c0-.16,0-.32.16-.32,4.006-1.282,9.455-.32,9.775-.32a.32.32,0,0,1,0,.641s-5.448-.961-9.455.32C108.02,46.431,108.02,46.431,107.86,46.431Z" transform="translate(-107.7 -45.284)"/></g><g transform="translate(56.086 27.723)"><path class="d" d="M132.46,57.85c-.16,0-.16-.16-.16-.32l.8-5.609a.32.32,0,1,1,.641,0l-.8,5.609c-.16.32-.32.32-.481.32Z" transform="translate(-132.3 -51.6)"/></g><g transform="translate(44.549 14.262)"><path class="d" d="M125.26,49.93c-.16,0-.16-.16-.16-.32l.32-6.089a.32.32,0,1,1,.641,0l-.32,6.089c0,.16-.16.32-.481.32Z" transform="translate(-125.1 -43.2)"/></g><g transform="translate(33.265 15.584)"><path class="d" d="M118.285,50.555h0c-.16-.16-.32-.32-.16-.481a35.054,35.054,0,0,1,4.166-5.929.34.34,0,1,1,.481.481,36.562,36.562,0,0,0-4.006,5.769C118.606,50.555,118.445,50.715,118.285,50.555Z" transform="translate(-118.059 -44.025)"/></g></g></g><g transform="translate(214.45 -19.39)"><g transform="translate(1.83 0.582)"><path class="q" d="M147.648,54.106c1.763,5.128,5.448,8.974,9.134,13.461-1.442-3.686-1.282-5.769-1.442-8.653,4.006,5.929,12.5,7.371,18.428,10.737A29.838,29.838,0,0,1,168,63.561a91.5,91.5,0,0,1,20.672,8.653,83.293,83.293,0,0,1-8.012-20.832,23.17,23.17,0,0,1,5.929,5.929c-3.2-6.089-4.327-14.582-10.256-18.749,2.884.481,4.968.32,8.493,1.763-4.487-3.686-8.173-7.532-13.14-9.455,2.083-.16,4.166-.8,6.25-.961-2.724.16-9.134-4.166-13.14-4.487-5.128-.32-10.416.641-14.422,3.365a11.973,11.973,0,0,0-2.243,1.923,11.383,11.383,0,0,0-1.923,2.083,22.006,22.006,0,0,0-3.686,14.262c.16,4.006,4.327,10.576,4.006,13.3C146.686,58.273,147.488,56.19,147.648,54.106Z" transform="translate(-142.467 -25.363)"/></g><path class="d" d="M141.445,25h.32c1.6,1.442,39.1,33.972,43.587,42.305,0,.16,0,.32-.16.32s-.32,0-.32-.16c-4.327-8.333-42.946-41.824-43.427-42.145-.16.16-.16-.16,0-.32Z" transform="translate(-141.325 -25)"/><g transform="translate(28.738 24.946)"><path class="d" d="M159.485,41.741h0c.32-.16,6.089-2.083,8.173-.641.16.16.16.32,0,.32-.16.16-.32.16-.32,0-1.6-1.122-6.089.16-7.692.641-.16,0-.32,0-.32-.16Z" transform="translate(-159.259 -40.567)"/></g><g transform="translate(21.573 19.55)"><path class="d" d="M154.968,37.2h0c.32,0,.32.16.32.32,0,0-.32,7.532,1.6,12.179,0,.16,0,.32-.16.32s-.32,0-.32-.16c-1.923-4.647-1.6-12.018-1.6-12.339A.56.56,0,0,1,154.968,37.2Z" transform="translate(-154.787 -37.2)"/></g><g transform="translate(12.459 8.544)"><path class="d" d="M150.382,32.044c2.724-1.122,9.134-3.045,14.743-.32.16,0,.16.16.16.32s-.16.16-.32.16c-7.051-3.525-15.544.961-15.544.961-.16,0-.32,0-.32-.16s0-.32.16-.32C148.94,32.685,149.581,32.364,150.382,32.044Z" transform="translate(-149.1 -30.332)"/></g></g></g></svg>