<?xml version="1.0" encoding="utf-8"?>
<!-- Generator: Adobe Illustrator 21.1.0, SVG Export Plug-In . SVG Version: 6.00 Build 0)  -->
<svg version="1.1" id="Layer_1" xmlns="http://www.w3.org/2000/svg" xmlns:xlink="http://www.w3.org/1999/xlink" x="0px" y="0px"
	 viewBox="0 0 200 200" style="enable-background:new 0 0 200 200;" xml:space="preserve">
<style type="text/css">
	.st0{fill:#262626;}
</style>
<g>
	<path class="st0" d="M53.7,165.5H32V60.6L0,71.5V53.2l50.9-18.7h2.8V165.5z"/>
	<path class="st0" d="M102.6,165.5V34.9h38.6c11.5,0,21.8,2.6,30.7,7.7c8.9,5.1,15.9,12.4,20.8,21.9C197.5,74,200,84.8,200,97v6.5
		c0,12.4-2.5,23.3-7.4,32.6c-4.9,9.4-12,16.6-21.1,21.7c-9.1,5.1-19.6,7.6-31.3,7.6H102.6z M125.3,53.2v94.2h14.8
		c11.9,0,21-3.7,27.4-11.2c6.4-7.4,9.6-18.1,9.7-32.1v-7.3c0-14.2-3.1-25-9.2-32.5c-6.2-7.5-15.1-11.2-26.8-11.2H125.3z"/>
</g>
</svg>
