<?xml version="1.0" encoding="utf-8"?>
<!-- Generator: Adobe Illustrator 21.1.0, SVG Export Plug-In . SVG Version: 6.00 Build 0)  -->
<svg version="1.1" id="Layer_1" xmlns="http://www.w3.org/2000/svg" xmlns:xlink="http://www.w3.org/1999/xlink" x="0px" y="0px"
	 viewBox="0 0 200 200" style="enable-background:new 0 0 200 200;" xml:space="preserve">
<style type="text/css">
	.st0{fill:#262626;}
</style>
<g>
	<path class="st0" d="M86.9,163.7H2.4v-14.4l41.9-45.7c6-6.7,10.3-12.4,12.9-16.9c2.6-4.5,3.8-9,3.8-13.6c0-6-1.7-10.8-5-14.5
		c-3.4-3.7-7.9-5.5-13.6-5.5c-6.8,0-12.1,2.1-15.8,6.2c-3.7,4.1-5.6,9.8-5.6,17H0c0-7.7,1.7-14.5,5.2-20.7
		c3.5-6.1,8.5-10.9,14.9-14.3c6.5-3.4,13.9-5.1,22.4-5.1c12.2,0,21.8,3.1,28.9,9.2c7,6.1,10.6,14.6,10.6,25.4
		c0,6.3-1.8,12.8-5.3,19.7c-3.5,6.9-9.3,14.7-17.4,23.4L28.6,147h58.4V163.7z"/>
	<path class="st0" d="M106.3,163.7V38h37.1c11.1,0,21,2.5,29.6,7.4c8.6,4.9,15.3,12,20,21.1c4.7,9.1,7.1,19.5,7.1,31.2v6.3
		c0,11.9-2.4,22.4-7.1,31.4c-4.7,9-11.5,16-20.3,20.9c-8.8,4.9-18.8,7.3-30.2,7.3H106.3z M128.1,55.6v90.6h14.2
		c11.5,0,20.2-3.6,26.4-10.7c6.1-7.2,9.3-17.5,9.4-30.9v-7c0-13.6-3-24.1-8.9-31.2c-5.9-7.2-14.5-10.8-25.8-10.8H128.1z"/>
</g>
</svg>
