<svg xmlns="http://www.w3.org/2000/svg" viewBox="0 0 446.983 404.999"><defs><style>.a{fill:#f9fcff;}.b{fill:#848186;}.c{fill:#daa19d;}.d{fill:#1a68ff;}.e{fill:#cada67;}.f{fill:#e5b665;}.g{fill:#bcbcbe;}.h{fill:#99cdf0;}.i{fill:#b63a37;}.j{fill:#902b2b;}.k{fill:#e3e2e3;}.l{fill:#9c9b9d;}.m{fill:#d7d4d2;}.n{fill:#bbbbbd;}.o{fill:#a2a3a5;}.p{fill:#bfbdbf;}.q{fill:#313333;}.r{fill:#4d4e4f;}.s{fill:#e1e3e6;}.t{fill:#777779;}.u{fill:#cda47b;}.v{fill:#fff;}.w{fill:#404759;}.x{fill:#f8fcff;}.y{fill:#e3cb95;}.z{fill:#272a28;}.aa{fill:#424a59;}.ab{fill:#545e70;}.ac{fill:#5e8493;}.ad{fill:#54727a;}.ae{fill:#a2a7ab;}.af{fill:#abc7c9;}.ag{fill:#90bcc4;}.ah{fill:#8b8a8c;}</style></defs><g transform="translate(-0.048)"><g transform="translate(0.048 96.695)"><g transform="translate(0 0)"><g transform="translate(0)"><rect class="a" width="91.131" height="125.946" transform="matrix(0.961, -0.277, 0.277, 0.961, 0, 25.216)"/><g transform="translate(46.49 6.932)"><rect class="b" width="39.166" height="2.723" transform="matrix(0.961, -0.277, 0.277, 0.961, 8.215, 39.372)"/><rect class="b" width="39.166" height="2.744" transform="matrix(0.961, -0.277, 0.277, 0.961, 7.057, 35.294)"/><rect class="b" width="39.166" height="2.744" transform="matrix(0.961, -0.277, 0.277, 0.961, 5.879, 31.222)"/><rect class="b" width="39.166" height="2.744" transform="matrix(0.961, -0.277, 0.277, 0.961, 4.7, 27.15)"/><rect class="b" width="39.166" height="2.744" transform="matrix(0.961, -0.277, 0.277, 0.961, 3.521, 23.079)"/><rect class="b" width="39.166" height="2.723" transform="matrix(0.961, -0.277, 0.277, 0.961, 2.363, 19.001)"/><rect class="b" width="39.166" height="2.744" transform="matrix(0.961, -0.277, 0.277, 0.961, 1.185, 14.929)"/><rect class="b" width="39.166" height="2.723" transform="matrix(0.961, -0.277, 0.277, 0.961, 0, 10.837)"/></g><g transform="translate(4.774 18.958)"><rect class="b" width="39.166" height="2.744" transform="matrix(0.961, -0.277, 0.277, 0.961, 8.209, 39.351)"/><rect class="b" width="39.166" height="2.744" transform="matrix(0.961, -0.277, 0.277, 0.961, 7.031, 35.279)"/><rect class="b" width="39.166" height="2.723" transform="matrix(0.961, -0.277, 0.277, 0.961, 5.873, 31.201)"/><rect class="b" width="39.166" height="2.744" transform="matrix(0.961, -0.277, 0.277, 0.961, 4.695, 27.13)"/><rect class="b" width="39.166" height="2.744" transform="matrix(0.961, -0.277, 0.277, 0.961, 3.516, 23.058)"/><rect class="b" width="39.166" height="2.723" transform="matrix(0.961, -0.277, 0.277, 0.961, 2.337, 18.987)"/><rect class="b" width="39.166" height="2.744" transform="matrix(0.961, -0.277, 0.277, 0.961, 1.179, 14.909)"/><rect class="b" width="39.166" height="2.723" transform="matrix(0.961, -0.277, 0.277, 0.961, 0, 10.837)"/></g><rect class="c" width="7.203" height="6.238" transform="matrix(0.961, -0.277, 0.277, 0.961, 89.354, 51.173)"/><rect class="d" width="7.203" height="6.238" transform="matrix(0.961, -0.277, 0.277, 0.961, 86.846, 42.419)"/><rect class="e" width="7.203" height="6.238" transform="matrix(0.961, -0.277, 0.277, 0.961, 48.835, 62.83)"/><rect class="f" width="7.203" height="6.238" transform="matrix(0.961, -0.277, 0.277, 0.961, 46.302, 54.087)"/><rect class="g" width="8.468" height="2.53" transform="matrix(0.961, -0.277, 0.277, 0.961, 77.951, 56.267)"/><rect class="g" width="8.468" height="2.337" transform="matrix(0.961, -0.277, 0.277, 0.961, 75.426, 47.449)"/><rect class="g" width="8.468" height="2.53" transform="matrix(0.961, -0.277, 0.277, 0.961, 38.246, 67.697)"/><rect class="g" width="8.468" height="2.337" transform="matrix(0.961, -0.277, 0.277, 0.961, 35.722, 58.877)"/></g><rect class="h" width="81.441" height="9.84" transform="matrix(0.961, -0.277, 0.277, 0.961, 35.34, 131.98)"/></g><rect class="b" width="83.071" height="2.744" transform="matrix(0.961, -0.277, 0.277, 0.961, 25.142, 102.329)"/><rect class="b" width="83.071" height="2.744" transform="matrix(0.961, -0.277, 0.277, 0.961, 23.939, 98.103)"/><rect class="b" width="83.071" height="2.744" transform="matrix(0.961, -0.277, 0.277, 0.961, 22.721, 93.902)"/><rect class="b" width="83.071" height="2.744" transform="matrix(0.961, -0.277, 0.277, 0.961, 21.495, 89.682)"/><rect class="b" width="83.071" height="2.723" transform="matrix(0.961, -0.277, 0.277, 0.961, 20.298, 85.476)"/><rect class="b" width="83.071" height="2.744" transform="matrix(0.961, -0.277, 0.277, 0.961, 19.074, 81.256)"/><rect class="b" width="83.071" height="2.744" transform="matrix(0.961, -0.277, 0.277, 0.961, 27.565, 110.755)"/><rect class="b" width="83.071" height="2.723" transform="matrix(0.961, -0.277, 0.277, 0.961, 26.361, 106.529)"/><rect class="h" width="7.203" height="6.238" transform="matrix(0.961, -0.277, 0.277, 0.961, 101.79, 94.345)"/><rect class="f" width="7.203" height="6.238" transform="matrix(0.961, -0.277, 0.277, 0.961, 61.277, 106.025)"/><rect class="g" width="8.468" height="2.337" transform="matrix(0.961, -0.277, 0.277, 0.961, 90.366, 99.377)"/><rect class="g" width="8.468" height="2.337" transform="matrix(0.961, -0.277, 0.277, 0.961, 50.665, 110.803)"/><rect class="b" width="83.071" height="2.744" transform="matrix(0.961, -0.277, 0.277, 0.961, 32.473, 127.776)"/><rect class="b" width="83.071" height="2.744" transform="matrix(0.961, -0.277, 0.277, 0.961, 31.255, 123.576)"/></g><g transform="translate(15.46 130.805)"><g transform="translate(0 0)"><g transform="translate(0)"><rect class="a" width="125.946" height="91.131" transform="translate(0 122.092) rotate(-75.783)"/><g transform="translate(6.463 86.432)"><rect class="b" width="2.723" height="39.166" transform="translate(7.29 2.639) rotate(-75.783)"/><rect class="b" width="2.744" height="39.166" transform="translate(6.258 6.741) rotate(-75.783)"/><rect class="b" width="2.744" height="39.166" transform="translate(5.22 10.86) rotate(-75.783)"/><rect class="b" width="2.744" height="39.166" transform="translate(4.162 14.975) rotate(-75.783)"/><rect class="b" width="2.744" height="39.166" transform="translate(3.129 19.076) rotate(-75.783)"/><rect class="b" width="2.723" height="39.166" transform="translate(2.091 23.198) rotate(-75.783)"/><rect class="b" width="2.744" height="39.166" transform="translate(1.059 27.297) rotate(-75.783)"/><rect class="b" width="2.723" height="39.166" transform="translate(0 31.412) rotate(-75.783)"/></g><g transform="translate(48.571 97.102)"><rect class="b" width="2.723" height="39.166" transform="translate(7.285 2.639) rotate(-75.783)"/><rect class="b" width="2.744" height="39.166" transform="translate(6.232 6.734) rotate(-75.783)"/><rect class="b" width="2.723" height="39.166" transform="translate(5.194 10.855) rotate(-75.783)"/><rect class="b" width="2.744" height="39.166" transform="translate(4.161 14.955) rotate(-75.783)"/><rect class="b" width="2.744" height="39.166" transform="translate(3.103 19.07) rotate(-75.783)"/><rect class="b" width="2.723" height="39.166" transform="translate(2.071 23.172) rotate(-75.783)"/><rect class="b" width="2.744" height="39.166" transform="translate(1.033 27.293) rotate(-75.783)"/><rect class="b" width="2.723" height="39.166" transform="translate(0 31.393) rotate(-75.783)"/></g><rect class="d" width="6.238" height="7.203" transform="matrix(0.245, -0.969, 0.969, 0.245, 17.245, 75.238)"/><rect class="d" width="6.238" height="7.203" transform="translate(15.015 84.063) rotate(-75.783)"/><rect class="d" width="6.238" height="7.203" transform="matrix(0.245, -0.969, 0.969, 0.245, 58.147, 85.6)"/><rect class="d" width="6.238" height="7.203" transform="matrix(0.245, -0.969, 0.969, 0.245, 55.914, 94.409)"/><rect class="g" width="2.53" height="8.468" transform="matrix(0.245, -0.969, 0.969, 0.245, 28.453, 76.265)"/><rect class="g" width="2.337" height="8.468" transform="matrix(0.245, -0.969, 0.969, 0.245, 26.195, 85.146)"/><rect class="g" width="2.53" height="8.468" transform="matrix(0.245, -0.969, 0.969, 0.245, 68.494, 86.408)"/><rect class="g" width="2.337" height="8.468" transform="matrix(0.245, -0.969, 0.969, 0.245, 66.236, 95.288)"/></g><rect class="d" width="9.84" height="81.441" transform="translate(32.682 14.452) rotate(-75.783)"/></g><rect class="b" width="2.744" height="83.071" transform="translate(24.969 44.807) rotate(-75.783)"/><rect class="b" width="2.744" height="83.071" transform="translate(23.887 49.052) rotate(-75.783)"/><rect class="b" width="2.744" height="83.071" transform="translate(22.827 53.301) rotate(-75.783)"/><rect class="b" width="2.744" height="83.071" transform="translate(21.74 57.567) rotate(-75.783)"/><rect class="b" width="2.744" height="83.071" transform="translate(20.659 61.812) rotate(-75.783)"/><rect class="b" width="2.744" height="83.071" transform="translate(19.578 66.056) rotate(-75.783)"/><rect class="b" width="2.744" height="83.071" transform="translate(27.131 36.318) rotate(-75.783)"/><rect class="b" width="2.723" height="83.071" transform="translate(26.05 40.563) rotate(-75.783)"/><rect class="d" width="6.238" height="7.203" transform="translate(28.291 31.681) rotate(-75.783)"/><path class="d" d="M0,0H6.238V7.2H0Z" transform="translate(69.176 42.042) rotate(-75.783)"/><rect class="g" width="2.337" height="8.468" transform="matrix(0.245, -0.969, 0.969, 0.245, 39.47, 32.768)"/><rect class="g" width="2.337" height="8.468" transform="matrix(0.245, -0.969, 0.969, 0.245, 79.51, 42.911)"/><rect class="b" width="2.744" height="83.071" transform="translate(31.465 19.137) rotate(-75.783)"/><rect class="b" width="2.744" height="83.071" transform="translate(30.404 23.386) rotate(-75.783)"/></g><g transform="translate(89.217)"><g transform="translate(5.761 66.871)"><rect class="i" width="200.57" height="10.826" transform="translate(0 36.063) rotate(-10.358)"/><rect class="j" width="200.57" height="10.826" transform="translate(1.953 46.716) rotate(-10.358)"/></g><g transform="translate(22.06)"><path class="k" d="M518.9,17.279l29.541,161.6,132.013-24.139L656.894,25.854,615.262,0Z" transform="translate(-518.9)"/><path class="l" d="M1010.032,25.854,968.4,0l5.96,32.564Z" transform="translate(-872.038)"/><path class="m" d="M1018.1,126.41l36.916,26.69-5.938-32.5Z" transform="translate(-911.084 -94.746)"/><rect class="m" width="89.974" height="3.216" transform="translate(21.45 63.943) rotate(-10.358)"/><rect class="m" width="89.974" height="3.216" transform="translate(22.931 72.069) rotate(-10.358)"/><rect class="m" width="89.974" height="3.216" transform="translate(24.412 80.194) rotate(-10.358)"/><rect class="m" width="89.974" height="3.216" transform="translate(25.889 88.299) rotate(-10.358)"/><rect class="m" width="89.974" height="3.216" transform="translate(27.366 96.403) rotate(-10.358)"/><rect class="m" width="89.974" height="3.216" transform="translate(28.868 104.524) rotate(-10.358)"/><rect class="m" width="93.468" height="3.687" transform="translate(27.716 109.966) rotate(-10.358)"/><rect class="m" width="93.468" height="3.687" transform="translate(29.411 119.271) rotate(-10.358)"/><rect class="m" width="93.468" height="3.687" transform="translate(31.107 128.576) rotate(-10.358)"/><rect class="m" width="93.468" height="3.687" transform="translate(32.819 137.855) rotate(-10.358)"/><rect class="m" width="93.468" height="3.687" transform="translate(34.514 147.16) rotate(-10.358)"/><rect class="m" width="93.468" height="3.687" transform="translate(36.205 156.445) rotate(-10.358)"/><rect class="m" width="93.468" height="3.687" transform="translate(37.901 165.749) rotate(-10.358)"/><rect class="n" width="54.001" height="15.907" transform="translate(14.509 25.977) rotate(-10.358)"/></g><g transform="translate(209.639 71.14)"><path class="o" d="M1393.9,331.945l1.93,10.5a5.344,5.344,0,1,0-1.93-10.5Z" transform="translate(-1393.9 -331.849)"/></g><path class="p" d="M589.179,433.54l1.972-3.366,11.212,7.525,110.854-20.259,9.6-11.34,8.082,8.982-3,15.585L588,455.085Z" transform="translate(-551.127 -319.042)"/><path class="q" d="M728.461,429.07l-19.4-14.17-56,10.226-.45.086L596.62,435.459l-13.12,20.13,29.37,63.691,54.837-12.8,55.8-7.439Z" transform="translate(-547.591 -325.955)"/><path class="r" d="M724.674,747.683,537.845,781.747,533,755.25,719.807,721.1Z" transform="translate(-507.917 -566.514)"/><path class="i" d="M654.5,391.481l-17.043,3.108c.365,1.458.707,2.937.986,4.438a67.1,67.1,0,0,1-132.013,24.16c-.279-1.5-.472-3-.643-4.5l-17.043,3.109a10.543,10.543,0,0,0-8.468,12.241l14.234,77.84a10.543,10.543,0,0,0,12.241,8.468l165.755-30.313a10.544,10.544,0,0,0,8.468-12.241l-14.235-77.84A10.543,10.543,0,0,0,654.5,391.481Z" transform="translate(-466.367 -307.424)"/><path class="r" d="M657.2,942.09s7.975,46.026,56.852,37.087l5.96-1.093,38.673-7.074,5.938-1.093c48.878-8.939,40.045-54.816,40.045-54.816Z" transform="translate(-605.492 -718.925)"/><g transform="translate(63.91 201.722)"><path class="s" d="M721.533,1047.584a3.738,3.738,0,1,1-4.352-3A3.743,3.743,0,0,1,721.533,1047.584Z" transform="translate(-714.12 -1022.324)"/><path class="s" d="M1172.633,965.16a3.738,3.738,0,1,1-4.352-3A3.744,3.744,0,0,1,1172.633,965.16Z" transform="translate(-1068.515 -957.566)"/><circle class="s" cx="3.73" cy="3.73" r="3.73" transform="translate(10.142 20.979) rotate(-10.358)"/><circle class="s" cx="3.73" cy="3.73" r="3.73" transform="translate(20.88 19.009) rotate(-10.358)"/><circle class="s" cx="3.73" cy="3.73" r="3.73" transform="translate(31.642 17.058) rotate(-10.358)"/><circle class="s" cx="3.73" cy="3.73" r="3.73" transform="translate(42.38 15.088) rotate(-10.358)"/><path class="s" d="M972.133,1001.784a3.738,3.738,0,1,1-4.352-3A3.744,3.744,0,0,1,972.133,1001.784Z" transform="translate(-910.997 -986.343)"/><circle class="s" cx="3.73" cy="3.73" r="3.73" transform="translate(63.864 11.166) rotate(-10.358)"/><path class="s" d="M1072.433,983.481a3.738,3.738,0,1,1-4.352-3A3.743,3.743,0,0,1,1072.433,983.481Z" transform="translate(-989.795 -971.964)"/><path class="s" d="M1122.533,974.284a3.738,3.738,0,1,1-4.352-3A3.744,3.744,0,0,1,1122.533,974.284Z" transform="translate(-1029.155 -964.738)"/><circle class="s" cx="3.73" cy="3.73" r="3.73" transform="translate(117.611 1.341) rotate(-10.358)"/><circle class="s" cx="3.73" cy="3.73" r="3.73" transform="translate(106.844 3.301) rotate(-10.358)"/></g><g transform="translate(60.245 210.758)"><path class="s" d="M704.433,1096.184a3.738,3.738,0,1,1-4.352-3A3.744,3.744,0,0,1,704.433,1096.184Z" transform="translate(-697.02 -1069.542)"/><circle class="s" cx="3.73" cy="3.73" r="3.73" transform="translate(96.132 6.646) rotate(-10.358)"/><circle class="s" cx="3.73" cy="3.73" r="3.73" transform="matrix(0.984, -0.18, 0.18, 0.984, 10.157, 22.355)"/><circle class="s" cx="3.73" cy="3.73" r="3.73" transform="translate(20.907 20.384) rotate(-10.358)"/><circle class="s" cx="3.73" cy="3.73" r="3.73" transform="translate(31.642 18.443) rotate(-10.358)"/><path class="s" d="M905.033,1059.56a3.738,3.738,0,1,1-4.352-3A3.743,3.743,0,0,1,905.033,1059.56Z" transform="translate(-854.616 -1040.764)"/><path class="s" d="M955.133,1050.381a3.738,3.738,0,1,1-4.352-3A3.743,3.743,0,0,1,955.133,1050.381Z" transform="translate(-893.976 -1033.557)"/><circle class="s" cx="3.73" cy="3.73" r="3.73" transform="translate(63.889 12.543) rotate(-10.358)"/><circle class="s" cx="3.73" cy="3.73" r="3.73" transform="translate(74.63 10.57) rotate(-10.358)"/><circle class="s" cx="3.73" cy="3.73" r="3.73" transform="translate(85.384 8.604) rotate(-10.358)"/><circle class="s" cx="3.73" cy="3.73" r="3.73" transform="translate(117.627 2.709) rotate(-10.358)"/><path class="s" d="M1205.833,1004.581a3.738,3.738,0,1,1-4.352-3A3.743,3.743,0,0,1,1205.833,1004.581Z" transform="translate(-1090.931 -997.576)"/><path class="s" d="M1306.033,986.184a3.738,3.738,0,1,1-4.352-3A3.743,3.743,0,0,1,1306.033,986.184Z" transform="translate(-1169.651 -983.123)"/></g><g transform="translate(67.362 220.582)"><path class="s" d="M737.633,1135.584a3.738,3.738,0,1,1-4.352-3A3.744,3.744,0,0,1,737.633,1135.584Z" transform="translate(-730.22 -1110.319)"/><path class="s" d="M1188.733,1053.16a3.738,3.738,0,1,1-4.352-3A3.743,3.743,0,0,1,1188.733,1053.16Z" transform="translate(-1084.615 -1045.56)"/><circle class="s" cx="3.73" cy="3.73" r="3.73" transform="translate(10.146 20.98) rotate(-10.358)"/><circle class="s" cx="3.73" cy="3.73" r="3.73" transform="translate(20.885 19.009) rotate(-10.358)"/><circle class="s" cx="3.73" cy="3.73" r="3.73" transform="translate(31.62 17.067) rotate(-10.358)"/><circle class="s" cx="3.73" cy="3.73" r="3.73" transform="translate(42.38 15.093) rotate(-10.358)"/><path class="s" d="M988.233,1089.784a3.738,3.738,0,1,1-4.352-3A3.744,3.744,0,0,1,988.233,1089.784Z" transform="translate(-927.097 -1074.338)"/><circle class="s" cx="3.73" cy="3.73" r="3.73" transform="translate(63.864 11.17) rotate(-10.358)"/><path class="s" d="M1088.533,1071.481a3.738,3.738,0,1,1-4.352-3A3.743,3.743,0,0,1,1088.533,1071.481Z" transform="translate(-1005.895 -1059.958)"/><path class="s" d="M1138.633,1062.284a3.738,3.738,0,1,1-4.352-3A3.744,3.744,0,0,1,1138.633,1062.284Z" transform="translate(-1045.255 -1052.733)"/><circle class="s" cx="3.73" cy="3.73" r="3.73" transform="translate(117.594 1.341) rotate(-10.358)"/><circle class="s" cx="3.73" cy="3.73" r="3.73" transform="translate(106.843 3.308) rotate(-10.358)"/></g><g transform="translate(79.217 231.969)"><g transform="translate(0 15.705)"><circle class="s" cx="3.73" cy="3.73" r="3.73" transform="translate(0 3.328) rotate(-10.358)"/><circle class="s" cx="3.73" cy="3.73" r="3.73" transform="matrix(0.984, -0.18, 0.18, 0.984, 10.778, 1.342)"/></g><g transform="translate(86.586 0)"><path class="s" d="M1196.833,1097.16a3.738,3.738,0,1,1-4.352-3A3.744,3.744,0,0,1,1196.833,1097.16Z" transform="translate(-1189.42 -1091.515)"/><circle class="s" cx="3.73" cy="3.73" r="3.73" transform="translate(10.143 1.341) rotate(-10.358)"/></g><path class="s" d="M888.365,1117.064a3.869,3.869,0,0,0,4.5,3.109l53.594-9.8a3.869,3.869,0,0,0,3.108-4.5h0a3.869,3.869,0,0,0-4.5-3.109l-53.594,9.8a3.869,3.869,0,0,0-3.109,4.5Z" transform="translate(-866.268 -1098.277)"/></g><path class="q" d="M787.538,894.1l-7.61,1.394L637.11,921.6,629.5,923l14.256,23.732s-6.088-16.4-4.287-20.923L779.22,900.253c3.28,3.58,3.387,21.073,3.387,21.073Z" transform="translate(-583.73 -702.426)"/><path class="j" d="M742.407,844.8,555.6,878.95s12.648,72.245,74.56,60.926l7.546-1.372,48.985-8.961,7.546-1.372C756.149,916.831,742.407,844.8,742.407,844.8Zm-57.6,69.929-5.938,1.093L640.193,922.9l-5.959,1.093c-48.878,8.94-56.853-37.087-56.853-37.087L724.85,859.935C724.85,859.914,733.682,905.79,684.8,914.729Z" transform="translate(-525.672 -663.695)"/><g transform="translate(61.287 164.685)"><path class="o" d="M711.675,826.391l102.386-18.715a7.884,7.884,0,0,0,6.346-9.175L702.5,820.045A7.889,7.889,0,0,0,711.675,826.391Z" transform="translate(-702.368 -792.006)"/><path class="p" d="M810.746,768.335,708.36,787.05a7.883,7.883,0,0,0-6.345,9.175l117.928-21.566A7.922,7.922,0,0,0,810.746,768.335Z" transform="translate(-701.882 -768.208)"/></g><g transform="translate(59.234 97.1)"><path class="s" d="M721.608,482.658a.427.427,0,0,0-.6.15L698.627,519.96a1.326,1.326,0,0,0-.643-.064l-.643.15-4.845,8.189a1.387,1.387,0,0,0,.472,1.886l.472.279.493-.086.643-.15,4.845-8.189a1.442,1.442,0,0,0-.064-1.522l22.4-37.194A.467.467,0,0,0,721.608,482.658Z" transform="translate(-692.304 -476.236)"/><path class="s" d="M916.793,524.176a.424.424,0,0,0-.343.514l7.76,42.661a1.3,1.3,0,0,0-.514.386l-.386.536,1.779,9.347a1.387,1.387,0,0,0,1.608,1.115l.536-.107.321-.408.386-.536-1.779-9.368a1.408,1.408,0,0,0-1.051-1.093L917.35,524.5A.547.547,0,0,0,916.793,524.176Z" transform="translate(-868.388 -508.899)"/><path class="s" d="M738.2,490.713a.453.453,0,0,0-.6.172l-20.473,38.223a1.1,1.1,0,0,0-.643-.021l-.622.172-4.437,8.425a1.4,1.4,0,0,0,.557,1.865l.493.257.493-.107.622-.172,4.438-8.425a1.365,1.365,0,0,0-.15-1.5l20.494-38.287A.447.447,0,0,0,738.2,490.713Z" transform="translate(-707.204 -482.576)"/><path class="s" d="M752.27,498.346a.432.432,0,0,0-.579.214l-17.815,39.552a1.31,1.31,0,0,0-.643.022l-.622.214-3.837,8.7a1.4,1.4,0,0,0,.686,1.822l.514.215.493-.15.622-.214L734.927,540a1.382,1.382,0,0,0-.257-1.5l17.836-39.6A.475.475,0,0,0,752.27,498.346Z" transform="translate(-720.865 -488.579)"/><path class="s" d="M908.88,525.993a.441.441,0,0,0-.386.493l5,43.09a1.625,1.625,0,0,0-.557.343l-.429.493,1.179,9.454a1.4,1.4,0,0,0,1.522,1.222l.557-.086.343-.386.428-.514-1.179-9.454a1.384,1.384,0,0,0-.986-1.158l-4.995-43.132A.441.441,0,0,0,908.88,525.993Z" transform="translate(-862.146 -510.331)"/><path class="s" d="M899.5,529a.45.45,0,0,0-.407.472l3.151,43.261a1.315,1.315,0,0,0-.557.322l-.45.493.772,9.5a1.418,1.418,0,0,0,1.479,1.286l.558-.043.364-.364.45-.493-.772-9.5a1.39,1.39,0,0,0-.943-1.2l-3.151-43.3A.488.488,0,0,0,899.5,529Z" transform="translate(-854.762 -512.695)"/><path class="s" d="M890.693,529.094a.435.435,0,0,0-.429.45l.686,43.368a1.493,1.493,0,0,0-.579.3l-.471.45.236,9.518a1.382,1.382,0,0,0,1.393,1.351l.557-.021.386-.343.472-.471-.236-9.518a1.389,1.389,0,0,0-.857-1.243l-.686-43.411A.465.465,0,0,0,890.693,529.094Z" transform="translate(-847.54 -512.767)"/><path class="s" d="M872.657,529.6a.435.435,0,0,0-.45.429l-1.458,43.347a1.5,1.5,0,0,0-.6.257l-.493.429-.257,9.518a1.415,1.415,0,0,0,1.329,1.436h.558l.386-.321.493-.429.257-9.518a1.4,1.4,0,0,0-.793-1.286l1.458-43.39A.441.441,0,0,0,872.657,529.6Z" transform="translate(-831.433 -513.166)"/><path class="s" d="M852.292,526.894a.433.433,0,0,0-.472.386l-4.245,43.154a1.385,1.385,0,0,0-.622.236l-.514.407-.858,9.475a1.422,1.422,0,0,0,1.222,1.522l.557.043.407-.3.515-.407.858-9.5a1.419,1.419,0,0,0-.707-1.329l4.245-43.218A.432.432,0,0,0,852.292,526.894Z" transform="translate(-812.718 -511.038)"/><path class="s" d="M834.954,523.076a.422.422,0,0,0-.493.365l-6.088,42.939a1.614,1.614,0,0,0-.622.193l-.536.386-1.265,9.432a1.4,1.4,0,0,0,1.157,1.565l.557.065.429-.279.536-.386,1.265-9.433a1.4,1.4,0,0,0-.665-1.372l6.088-42.982A.422.422,0,0,0,834.954,523.076Z" transform="translate(-797.289 -508.035)"/><path class="s" d="M815.906,521.473a.439.439,0,0,0-.514.343l-8.511,42.532a1.092,1.092,0,0,0-.622.171l-.558.343-1.8,9.347a1.391,1.391,0,0,0,1.072,1.629l.557.107.429-.257.557-.343,1.8-9.347a1.389,1.389,0,0,0-.579-1.393l8.511-42.575A.462.462,0,0,0,815.906,521.473Z" transform="translate(-779.956 -506.776)"/><path class="s" d="M769.275,503.793a.42.42,0,0,0-.557.257l-15.542,40.5a1.327,1.327,0,0,0-.643.064l-.6.257-3.344,8.918a1.4,1.4,0,0,0,.793,1.779l.514.193.472-.171.6-.257,3.344-8.918a1.388,1.388,0,0,0-.343-1.479l15.564-40.538A.478.478,0,0,0,769.275,503.793Z" transform="translate(-736.455 -492.868)"/><path class="s" d="M799.157,517.045a.442.442,0,0,0-.536.321l-11.1,41.932a1.329,1.329,0,0,0-.643.129l-.579.321-2.358,9.218a1.415,1.415,0,0,0,.965,1.694l.536.129.45-.236.579-.322,2.358-9.218a1.4,1.4,0,0,0-.493-1.436l11.1-41.975A.409.409,0,0,0,799.157,517.045Z" transform="translate(-764.257 -503.291)"/><path class="s" d="M784.4,512.339a.469.469,0,0,0-.557.279l-13.056,41.353a1.307,1.307,0,0,0-.643.086l-.6.279-2.787,9.089a1.38,1.38,0,0,0,.9,1.736l.536.15.472-.214.579-.279,2.787-9.111a1.376,1.376,0,0,0-.429-1.458L784.677,512.9A.424.424,0,0,0,784.4,512.339Z" transform="translate(-750.742 -499.592)"/><path class="s" d="M986.569,453.1a.441.441,0,0,1,.622-.064l34.064,26.84a1.452,1.452,0,0,1,.579-.279l.643-.086,7.439,5.938a1.389,1.389,0,0,1,.236,1.929l-.343.429-.493.086-.643.086-7.439-5.96a1.416,1.416,0,0,1-.471-1.436L986.655,453.7A.419.419,0,0,1,986.569,453.1Z" transform="translate(-923.415 -452.941)"/><path class="s" d="M981.833,463.575a.462.462,0,0,1,.621-.043L1015.189,492a1.253,1.253,0,0,1,.6-.257l.643-.064,7.139,6.3a1.429,1.429,0,0,1,.15,1.951l-.365.407-.493.064-.643.064-7.139-6.3a1.351,1.351,0,0,1-.386-1.458L981.875,464.2A.46.46,0,0,1,981.833,463.575Z" transform="translate(-919.686 -461.183)"/><path class="s" d="M982.829,471.229a.44.44,0,0,1,.622,0l30.656,30.677a1.533,1.533,0,0,1,.622-.214l.643-.022,6.667,6.774a1.385,1.385,0,0,1,0,1.951l-.407.386-.514.021-.665.022-6.689-6.8a1.41,1.41,0,0,1-.3-1.479l-30.634-30.7A.44.44,0,0,1,982.829,471.229Z" transform="translate(-920.446 -467.207)"/><path class="s" d="M924.911,522.745a.442.442,0,0,1,.536.321l10.569,42.061a1.716,1.716,0,0,1,.643.129l.579.321,2.251,9.24a1.4,1.4,0,0,1-.986,1.672l-.536.129-.45-.236-.579-.321-2.251-9.261a1.426,1.426,0,0,1,.515-1.436l-10.59-42.1A.4.4,0,0,1,924.911,522.745Z" transform="translate(-874.791 -507.769)"/><path class="s" d="M933.181,517.74a.461.461,0,0,1,.557.3l12.369,41.568a1.624,1.624,0,0,1,.643.107l.579.3,2.637,9.154a1.4,1.4,0,0,1-.922,1.715l-.536.15-.472-.214-.579-.3-2.637-9.154a1.427,1.427,0,0,1,.45-1.458L932.9,518.276A.4.4,0,0,1,933.181,517.74Z" transform="translate(-881.303 -503.835)"/><path class="s" d="M940.95,514.9a.438.438,0,0,1,.558.257l14.685,40.8a1.606,1.606,0,0,1,.643.064l.6.257,3.151,8.982a1.393,1.393,0,0,1-.815,1.758l-.515.172-.472-.193-.6-.257-3.151-8.982a1.4,1.4,0,0,1,.364-1.479l-14.706-40.86A.4.4,0,0,1,940.95,514.9Z" transform="translate(-887.421 -501.598)"/><path class="s" d="M949.26,514.392a.46.46,0,0,1,.579.236l16.7,40.024a1.1,1.1,0,0,1,.643.043l.621.236,3.6,8.811a1.4,1.4,0,0,1-.729,1.8l-.515.193-.472-.172-.622-.236-3.6-8.811a1.352,1.352,0,0,1,.3-1.479l-16.721-40.067A.425.425,0,0,1,949.26,514.392Z" transform="translate(-893.974 -501.195)"/><path class="s" d="M959.417,510.346a.432.432,0,0,1,.579.214l18.35,39.295a1.309,1.309,0,0,1,.643.022l.621.214,3.966,8.661a1.371,1.371,0,0,1-.665,1.822l-.514.214-.493-.15-.622-.214-3.966-8.661a1.377,1.377,0,0,1,.236-1.5l-18.372-39.338A.449.449,0,0,1,959.417,510.346Z" transform="translate(-901.943 -498.007)"/><path class="s" d="M963.824,504.913a.453.453,0,0,1,.6.172l20.88,38.009a1.1,1.1,0,0,1,.643-.021l.643.171,4.523,8.382a1.372,1.372,0,0,1-.536,1.865l-.493.257-.493-.107-.643-.172-4.523-8.382a1.4,1.4,0,0,1,.129-1.5l-20.923-38.052A.474.474,0,0,1,963.824,504.913Z" transform="translate(-905.429 -493.732)"/><path class="s" d="M970.843,500.555a.44.44,0,0,1,.6.129l23,36.765a1.328,1.328,0,0,1,.643-.064l.643.129,4.995,8.1a1.405,1.405,0,0,1-.429,1.908l-.472.279-.493-.086-.643-.129-4.995-8.125a1.4,1.4,0,0,1,.043-1.522l-23.046-36.787A.446.446,0,0,1,970.843,500.555Z" transform="translate(-910.969 -490.295)"/><path class="s" d="M978.475,478.674a.423.423,0,0,1,.622.043l28.876,32.371a1.293,1.293,0,0,1,.622-.171l.643.021,6.281,7.16a1.407,1.407,0,0,1-.107,1.951l-.429.364h-.515l-.664-.021-6.281-7.16a1.43,1.43,0,0,1-.214-1.5L978.432,479.3A.464.464,0,0,1,978.475,478.674Z" transform="translate(-917.014 -473.066)"/><path class="s" d="M973.938,494.574a.43.43,0,0,1,.621.107l25.211,35.286a1.358,1.358,0,0,1,.643-.107l.643.086,5.467,7.782a1.4,1.4,0,0,1-.322,1.929l-.45.322-.515-.043-.643-.086-5.467-7.8a1.4,1.4,0,0,1-.043-1.522l-25.254-35.351A.439.439,0,0,1,973.938,494.574Z" transform="translate(-913.42 -485.579)"/><path class="s" d="M977.3,488.439a.442.442,0,0,1,.622.064l26.99,33.957a1.283,1.283,0,0,1,.643-.128l.664.064,5.874,7.5a1.385,1.385,0,0,1-.214,1.929l-.45.343-.515-.022-.664-.064-5.874-7.5a1.376,1.376,0,0,1-.129-1.5l-27.011-34A.466.466,0,0,1,977.3,488.439Z" transform="translate(-916.079 -480.752)"/></g><g transform="translate(95.785 89.845)"><path class="o" d="M874.316,419.1l.686,3.794a3.683,3.683,0,0,1-7.246,1.329l-.686-3.794a9.515,9.515,0,0,0-4.116,9.6l2.165,11.812,18.608-3.409-2.165-11.812A9.511,9.511,0,0,0,874.316,419.1Z" transform="translate(-862.805 -419.1)"/></g><g transform="translate(47.457 76.504)"><g transform="translate(0 15.778)"><path class="o" d="M666.36,442.458a14.612,14.612,0,1,1-17-11.748A14.607,14.607,0,0,1,666.36,442.458Z" transform="translate(-637.37 -430.467)"/><path class="s" d="M682.6,465.757a8.553,8.553,0,1,1-9.947-6.881A8.533,8.533,0,0,1,682.6,465.757Z" transform="translate(-659.574 -452.673)"/><circle class="q" cx="4.395" cy="4.395" r="4.395" transform="translate(9.488 11.081) rotate(-10.358)"/></g><g transform="translate(86.286)"><path class="o" d="M1068.86,368.858a14.612,14.612,0,1,1-17-11.748A14.607,14.607,0,0,1,1068.86,368.858Z" transform="translate(-1039.87 -356.867)"/><path class="s" d="M1085.1,392.157a8.553,8.553,0,1,1-9.947-6.881A8.533,8.533,0,0,1,1085.1,392.157Z" transform="translate(-1062.074 -379.073)"/><circle class="q" cx="4.395" cy="4.395" r="4.395" transform="translate(9.488 11.082) rotate(-10.358)"/></g><rect class="s" width="50.571" height="1.522" transform="translate(32.799 26.29) rotate(-10.358)"/><g transform="translate(27.425 14.392)"><path class="o" d="M1018.868,424.665a2.636,2.636,0,1,0,.943,5.188l3.58-.664-.943-5.188Z" transform="translate(-962.808 -424)"/><path class="o" d="M768.88,472.245l-3.58.664.943,5.188,3.58-.664a2.636,2.636,0,1,0-.943-5.188Z" transform="translate(-765.3 -461.87)"/></g></g><g transform="translate(85.129 93.897)"><path class="s" d="M847.422,438.986a15.123,15.123,0,0,1-29.048,5.3l-5.274.965A20.393,20.393,0,0,0,852.7,438Z" transform="translate(-813.1 -438)"/></g><path class="t" d="M427.338,489.236a3.782,3.782,0,0,1-3.066,4.416h0a3.782,3.782,0,0,1-4.416-3.066l-3.794-20.709a3.782,3.782,0,0,1,3.066-4.416h0a3.783,3.783,0,0,1,4.416,3.044Z" transform="translate(-415.997 -365.627)"/><path class="t" d="M1366.238,317.636a3.781,3.781,0,0,1-3.065,4.416h0a3.782,3.782,0,0,1-4.416-3.066l-3.795-20.709a3.782,3.782,0,0,1,3.066-4.416h0a3.783,3.783,0,0,1,4.416,3.044Z" transform="translate(-1153.619 -230.814)"/><path class="o" d="M1386.584,239.369a2.139,2.139,0,0,0-1.715,2.487l.664,3.6a2.13,2.13,0,0,0,1.544,1.672l3.194,17.493,1.822-.343-3.194-17.493a2.131,2.131,0,0,0,.858-2.1l-.664-3.6A2.172,2.172,0,0,0,1386.584,239.369Z" transform="translate(-1177.138 -188.026)"/></g><g transform="translate(148.236 232.364)"><path class="u" d="M868.711,1109.841a5.679,5.679,0,0,0-6.5,4.759l-6.774,43.583a5.679,5.679,0,0,0,4.759,6.5h0a5.679,5.679,0,0,0,6.5-4.759l6.774-43.583a5.707,5.707,0,0,0-4.759-6.5Z" transform="translate(-820.198 -1104.227)"/><path class="u" d="M801.928,1137.823a5.694,5.694,0,0,0,5.188,6.153h0a5.694,5.694,0,0,0,6.153-5.188l4.095-48.706a5.694,5.694,0,0,0-5.188-6.152h0a5.694,5.694,0,0,0-6.153,5.188Z" transform="translate(-778.197 -1083.909)"/><path class="u" d="M752.522,1168.512a5.169,5.169,0,0,0,5.167,5.166h0a5.169,5.169,0,0,0,5.166-5.166l-.021-40.046a5.169,5.169,0,0,0-5.167-5.166h0a5.169,5.169,0,0,0-5.167,5.166Z" transform="translate(-739.38 -1114.855)"/><path class="u" d="M696.454,1202.017a4.25,4.25,0,0,0,4.738,3.709h0a4.25,4.25,0,0,0,3.709-4.738l-3.966-32.692a4.25,4.25,0,0,0-4.738-3.709h0a4.25,4.25,0,0,0-3.709,4.738Z" transform="translate(-692.209 -1147.268)"/><path class="u" d="M764.819,1276.194c-4.93,4.395-9.647,15.2-11.4,16.743s-8.146,3.58-8.06-6.71l-1.222-11.727s-9.583,10.955-12.605,1.072c0,0-8.189,7.825-12.562,4.716,0,0-5.252,6.474-9.175,4.33l-5.531-1.458s-7.117,26.2,2.958,45.362c6.624,12.584,1.479,41.182,1.479,41.182l29.905,4.652s3.73-43.411,4.738-45.984,14.192-15.093,21.095-32.221,8.918-18.329,8.918-18.329S769.749,1271.8,764.819,1276.194Z" transform="translate(-699.563 -1233.642)"/><path class="v" d="M764.621,1567.853l1.008-6.517-34.472-.836-.257,7.546Z" transform="translate(-722.411 -1458.33)"/><path class="w" d="M735.162,1577.336,698.61,1576.2l-7.31,67.1h49.071Z" transform="translate(-691.3 -1470.665)"/></g><g transform="translate(246.527 221.488)"><path class="u" d="M1180.907,1083a5.678,5.678,0,0,1,7.8,1.929l22.745,37.773a5.679,5.679,0,0,1-1.929,7.8h0a5.679,5.679,0,0,1-7.8-1.93l-22.745-37.773a5.669,5.669,0,0,1,1.929-7.8Z" transform="translate(-1172.075 -1071.671)"/><path class="u" d="M1262.351,1079.85a5.67,5.67,0,0,1-2.487,7.653h0a5.67,5.67,0,0,1-7.653-2.487L1230,1041.455a5.669,5.669,0,0,1,2.487-7.653h0a5.669,5.669,0,0,1,7.653,2.487Z" transform="translate(-1212.316 -1033.175)"/><path class="u" d="M1336.678,1083.42a5.17,5.17,0,0,1-2.83,6.731h0a5.17,5.17,0,0,1-6.732-2.829L1312,1050.234a5.171,5.171,0,0,1,2.83-6.732h0a5.17,5.17,0,0,1,6.731,2.83Z" transform="translate(-1276.931 -1040.989)"/><path class="u" d="M1406.354,1092.19a4.25,4.25,0,0,1-2.98,5.231h0a4.251,4.251,0,0,1-5.231-2.98l-8.7-31.771a4.25,4.25,0,0,1,2.98-5.23h0a4.25,4.25,0,0,1,5.231,2.98Z" transform="translate(-1337.947 -1052.118)"/><path class="u" d="M1230.212,1241.511c2.08-21.545-14.405-43.111-14.405-43.111l-4.567,3.451c-2.83,3.452-10.14-.558-10.14-.558-2.872,4.524-13.42.386-13.42.386.943,10.29-12.069,3.773-12.069,3.773l3.3,11.319c3.966,9.518-2.7,10.033-4.931,9.261-2.208-.772-10.655-8.982-16.893-11.191-6.217-2.208-7.289,4.738-7.289,4.738s2.316.365,15.2,13.592c12.884,13.248,29.8,19.851,31.706,21.845s21.781,40.774,21.781,40.774l25.939-15.606S1228.862,1255.66,1230.212,1241.511Z" transform="translate(-1149.8 -1162.98)"/><path class="v" d="M1387.458,1457.609l-2.358-6.067,32.114-14.042,3.109,6.881Z" transform="translate(-1334.657 -1350.823)"/><path class="w" d="M1388.4,1464.857l34.043-15.156,48.063,94.218h-54.022Z" transform="translate(-1337.25 -1360.407)"/></g><g transform="translate(307.768 80.829)"><rect class="x" width="99.428" height="137.115" transform="translate(0 32.96) rotate(-19.359)"/><g transform="translate(79.824 92.085)"><g transform="translate(0 0)"><g transform="translate(0)"><rect class="g" width="42.725" height="2.98" transform="translate(0 14.163) rotate(-19.359)"/></g><g transform="translate(1.521 4.356)"><rect class="g" width="42.725" height="2.98" transform="translate(0 14.163) rotate(-19.359)"/></g><g transform="translate(3.063 8.703)"><rect class="g" width="42.725" height="2.98" transform="translate(0 14.163) rotate(-19.359)"/></g><g transform="translate(4.585 13.058)"><rect class="g" width="42.725" height="2.98" transform="translate(0 14.163) rotate(-19.359)"/></g><g transform="translate(6.114 17.432)"><rect class="g" width="42.725" height="2.98" transform="translate(0 14.163) rotate(-19.359)"/></g><g transform="translate(7.656 21.781)"><rect class="g" width="42.725" height="2.98" transform="translate(0 14.163) rotate(-19.359)"/></g><g transform="translate(9.157 26.174)"><rect class="g" width="42.725" height="2.98" transform="matrix(0.943, -0.331, 0.331, 0.943, 0, 14.159)"/></g><g transform="translate(10.679 30.524)"><rect class="g" width="42.725" height="2.98" transform="matrix(0.943, -0.331, 0.331, 0.943, 0, 14.159)"/></g></g></g><g transform="translate(35.103 107.816)"><g transform="translate(0 0)"><g transform="translate(0)"><rect class="g" width="42.725" height="2.98" transform="matrix(0.943, -0.331, 0.331, 0.943, 0, 14.159)"/></g><g transform="translate(1.529 4.371)"><rect class="g" width="42.725" height="2.98" transform="matrix(0.943, -0.331, 0.331, 0.943, 0, 14.159)"/></g><g transform="translate(3.09 8.686)"><rect class="g" width="42.725" height="2.98" transform="translate(0 14.163) rotate(-19.359)"/></g><g transform="translate(4.612 13.04)"><rect class="g" width="42.725" height="2.98" transform="translate(0 14.163) rotate(-19.359)"/></g><g transform="translate(6.133 17.397)"><rect class="g" width="42.725" height="2.98" transform="translate(0 14.163) rotate(-19.359)"/></g><g transform="translate(7.655 21.776)"><rect class="g" width="42.725" height="2.98" transform="matrix(0.943, -0.331, 0.331, 0.943, 0, 14.159)"/></g><g transform="translate(9.175 26.135)"><rect class="g" width="42.725" height="2.98" transform="matrix(0.943, -0.331, 0.331, 0.943, 0, 14.159)"/></g><g transform="translate(10.725 30.474)"><rect class="g" width="42.725" height="2.98" transform="translate(0 14.163) rotate(-19.359)"/></g></g></g><rect class="g" width="7.868" height="6.796" transform="translate(106.308 76.44) rotate(-19.359)"/><rect class="g" width="7.868" height="6.796" transform="translate(109.591 85.793) rotate(-19.359)"/><rect class="g" width="7.868" height="6.796" transform="translate(62.877 91.722) rotate(-19.359)"/><rect class="g" width="7.868" height="6.796" transform="matrix(0.943, -0.331, 0.331, 0.943, 66.139, 101.053)"/><rect class="g" width="9.24" height="2.765" transform="translate(94.262 82.932) rotate(-19.359)"/><rect class="g" width="9.24" height="2.551" transform="matrix(0.943, -0.331, 0.331, 0.943, 97.645, 92.559)"/><rect class="g" width="9.24" height="2.765" transform="translate(51.75 97.865) rotate(-19.359)"/><rect class="g" width="90.638" height="2.98" transform="matrix(0.943, -0.331, 0.331, 0.943, 18.047, 75.032)"/><rect class="g" width="90.638" height="2.98" transform="matrix(0.943, -0.331, 0.331, 0.943, 19.632, 79.58)"/><rect class="g" width="90.638" height="2.98" transform="matrix(0.943, -0.331, 0.331, 0.943, 21.245, 84.144)"/><rect class="g" width="90.638" height="2.98" transform="translate(22.845 88.661) rotate(-19.359)"/><rect class="g" width="90.638" height="2.98" transform="matrix(0.943, -0.331, 0.331, 0.943, 24.435, 93.235)"/><rect class="g" width="90.638" height="2.98" transform="matrix(0.943, -0.331, 0.331, 0.943, 26.02, 97.785)"/><path class="g" d="M1515.686,537.512l71.752-26-.986-2.808-71.752,26Z" transform="translate(-1497.715 -480.476)"/><path class="g" d="M1522.886,557.812l71.73-26L1593.63,529l-71.73,26Z" transform="translate(-1503.371 -496.424)"/><path class="g" d="M1529.986,578.112l71.752-26-.986-2.808L1529,575.3Z" transform="translate(-1508.95 -512.372)"/><path class="g" d="M1537.186,598.412l71.73-26-.986-2.808-71.73,26Z" transform="translate(-1514.606 -528.321)"/><g transform="translate(15.077 17.205)"><path class="g" d="M1576.18,466.947l-67.057,24.139-3.323-9.647,67.036-24.139Z" transform="translate(-1505.8 -457.3)"/></g></g><g transform="translate(413.354 171.357)"><path class="y" d="M1970.161,803.931a2.409,2.409,0,0,1-2.659,2.122l-1.737-.193a2.409,2.409,0,0,1-2.122-2.658l.193-1.737a2.408,2.408,0,0,1,2.658-2.122l1.737.193a2.409,2.409,0,0,1,2.123,2.658Z" transform="translate(-1955.99 -799.328)"/><g transform="translate(0 70.931)"><path class="z" d="M1937.308,1159.729l1.179-2.015-1.887-.214Z" transform="translate(-1934.757 -1151.648)"/><path class="y" d="M1928,1130.2l1.844,5.853,1.887.214,3.044-5.295Z" transform="translate(-1928 -1130.2)"/></g><g transform="translate(0.021 5.911)"><path class="aa" d="M1951.289,828.7,1944,893.506c.322-.75,1.008-1.436,1.758-1.35a1.851,1.851,0,0,1,1.5,1.951h.064l7.289-65.042Z" transform="translate(-1940.591 -828.314)"/><path class="ab" d="M1935.389,826.9l-7.289,65.042h.021a1.848,1.848,0,0,1,1.908-1.651c.793.086,1.372,1.008,1.479,1.865,0-.021.021-.043.043-.064l7.267-64.806Z" transform="translate(-1928.1 -826.9)"/></g><path class="y" d="M1933.331,1122.913a1.811,1.811,0,0,0-1.8,1.243,1.833,1.833,0,0,0-1.5-1.694,1.873,1.873,0,0,0-1.929,1.672l3.323.365.128.021,3.3.365A1.872,1.872,0,0,0,1933.331,1122.913Z" transform="translate(-1928.079 -1053.182)"/><rect class="ac" width="1.758" height="6.731" transform="translate(7.35 5.913) rotate(-83.604)"/><path class="ad" d="M1969,822.8a.258.258,0,0,1-.279.214l-6.517-.729a.243.243,0,0,1-.215-.279h0a.243.243,0,0,1,.279-.214l6.518.729c.128,0,.214.129.214.279Z" transform="translate(-1954.699 -816.971)"/><path class="ad" d="M1968.7,826.8a.243.243,0,0,1-.279.215l-6.517-.729a.258.258,0,0,1-.215-.279h0a.258.258,0,0,1,.279-.214l6.517.729c.129,0,.214.129.214.279Z" transform="translate(-1954.466 -820.115)"/></g><g transform="translate(337.744 187.845)"><ellipse class="x" cx="3.966" cy="3.516" rx="3.966" ry="3.516" transform="translate(20.615 86.636) rotate(-74.812)"/><rect class="x" width="4.33" height="26.797" transform="translate(31.644 9.06) rotate(-74.812)"/><path class="ae" d="M1673.814,1252.9a4.719,4.719,0,1,1,5.788-3.323A4.727,4.727,0,0,1,1673.814,1252.9Zm1.973-7.31a2.845,2.845,0,1,0,1.994,3.495A2.823,2.823,0,0,0,1675.786,1245.591Z" transform="translate(-1649.954 -1164.867)"/><path class="aa" d="M1640.75,886.846l-38.33-10.4a6.061,6.061,0,0,0-7.4,4.287l-19.508,71.859a6.075,6.075,0,0,0,4.223,7.439l38.331,10.4a6.061,6.061,0,0,0,7.4-4.287l19.508-71.859A6.055,6.055,0,0,0,1640.75,886.846Zm-30.313-4.716,20.516,5.574a1.412,1.412,0,0,1,.986,1.737,1.442,1.442,0,0,1-1.737,1.007l-20.516-5.574a1.422,1.422,0,0,1,.75-2.744Zm-10.976,81.034a3.555,3.555,0,1,1,4.33-2.508A3.541,3.541,0,0,1,1599.461,963.163Zm23.324-3.108-41.868-11.362,17.215-63.455L1640,896.6Z" transform="translate(-1575.301 -876.243)"/><g transform="translate(5.552 8.887)"><path class="af" d="M1619.386,917.7,1602.3,980.6l58.91-51.557Z" transform="translate(-1602.065 -917.7)"/><path class="ag" d="M1601.436,1022.158l-.236.9,41.868,11.362,17.3-63.8-.021-.021Z" transform="translate(-1601.2 -959.26)"/></g><g transform="translate(5.015 8.351)"><path class="ah" d="M1640.951,991.387l-41.868-11.362a.519.519,0,0,1-.364-.643l17.322-63.8a.519.519,0,0,1,.643-.365l41.868,11.362a.519.519,0,0,1,.364.643l-17.321,63.8A.511.511,0,0,1,1640.951,991.387Zm-41.074-12.219,40.86,11.083,17.043-62.791-40.86-11.083Z" transform="translate(-1598.697 -915.197)"/></g></g></g></svg>