<svg xmlns="http://www.w3.org/2000/svg" viewBox="0 0 74.2 50"><defs><style>.a{fill:#fff;}</style></defs><path class="a" d="M26.9,16.7V0H21.3V50H32.4a2.8,2.8,0,0,0,2.8-2.8V19.4a2.8,2.8,0,0,0-2.8-2.8H26.9Zm3,27.1H26.4V22.9h3.5Z"/><rect class="a" width="28.8" height="8.4" transform="translate(0 28.4)"/><path class="a" d="M46.8,16.7V0h5.6V50H41.2a2.8,2.8,0,0,1-2.8-2.8V19.4a2.8,2.8,0,0,1,2.8-2.8h5.6Zm-3,27.1h3.5V22.9H43.8Z"/><rect class="a" width="28.8" height="8.4" transform="translate(45.4 28.4)"/><rect class="a" width="2" height="8.4" transform="translate(35.8 28.4)"/></svg>