<?xml version="1.0" encoding="utf-8"?>
<!-- Generator: Adobe Illustrator 21.1.0, SVG Export Plug-In . SVG Version: 6.00 Build 0)  -->
<svg version="1.1" id="Layer_1" xmlns="http://www.w3.org/2000/svg" xmlns:xlink="http://www.w3.org/1999/xlink" x="0px" y="0px"
	 viewBox="0 0 512 345" style="enable-background:new 0 0 512 345;" xml:space="preserve">
<style type="text/css">
	.st0{fill:#1A68FF;}
	.st1{fill:#FFFFFF;}
	.st2{fill:#E61616;}
</style>
<path class="st0" d="M185.6,115.2V0H147v345h76.6c10.7,0,19.3-8.7,19.3-19.3V133.9c0-10.7-8.7-19.3-19.3-19.3h-38V115.2z
	 M206.3,302.2h-24.2V158h24.2V302.2z"/>
<rect y="196" class="st1" width="198.7" height="58"/>
<path class="st1" d="M322.9,115.2V0h38.6v345h-77.3c-10.7,0-19.3-8.7-19.3-19.3V133.9c0-10.7,8.7-19.3,19.3-19.3h38.6L322.9,115.2
	L322.9,115.2z M302.2,302.2h24.2V158h-24.2V302.2z"/>
<rect x="313.3" y="196" class="st0" width="198.7" height="58"/>
<rect x="247" y="196" class="st2" width="13.8" height="58"/>
</svg>
