<?xml version="1.0" encoding="utf-8"?>
<!-- Generator: Adobe Illustrator 21.1.0, SVG Export Plug-In . SVG Version: 6.00 Build 0)  -->
<svg version="1.1" id="Layer_1" xmlns="http://www.w3.org/2000/svg" xmlns:xlink="http://www.w3.org/1999/xlink" x="0px" y="0px"
	 viewBox="0 0 35 35" style="enable-background:new 0 0 35 35;" xml:space="preserve">
<style type="text/css">
	.st0{fill:#1A68FF;}
</style>
<g transform="translate(-41.317 -36.407)">
	<path class="st0" d="M68.5,71.4H49.1c-2.1,0-3.9-1.7-3.9-3.9V52c0-2.1,1.7-3.9,3.9-3.9v-1.9c0-5.4,4.4-9.7,9.7-9.7s9.7,4.4,9.7,9.7
		v1.9c2.1,0,3.9,1.7,3.9,3.9v15.6C72.4,69.7,70.7,71.4,68.5,71.4z M54.5,52.7v8.7h2.4v7.1l5.5-9.5h-3.2l3.2-6.3L54.5,52.7z
		 M58.8,39.5c-3.6,0-6.6,3-6.6,6.6v1.9h13.2v-1.9C65.4,42.5,62.5,39.5,58.8,39.5z"/>
</g>
</svg>
