<svg xmlns="http://www.w3.org/2000/svg" viewBox="0 0 30 30"><defs><style>.a{fill:#fff;}</style></defs><g transform="translate(-1568 -2172)"><path class="a" d="M15,30A15,15,0,0,1,4.393,4.393,15,15,0,0,1,25.607,25.607,14.9,14.9,0,0,1,15,30ZM15,1.363A13.636,13.636,0,1,0,28.636,15,13.652,13.652,0,0,0,15,1.363Z" transform="translate(1568 2172)"/><path class="a" d="M17.343,4H3.7a1.7,1.7,0,0,0-1.7,1.7L2,15.933a1.71,1.71,0,0,0,1.7,1.7H17.343a1.71,1.71,0,0,0,1.7-1.7V5.7A1.71,1.71,0,0,0,17.343,4Zm0,3.41-6.819,4.262L3.7,7.41V5.7l6.819,4.262L17.343,5.7Z" transform="translate(1572.476 2176.181)"/></g></svg>