<svg xmlns="http://www.w3.org/2000/svg" viewBox="0 0 30 30"><defs><style>.a{fill:#fff;}</style></defs><g transform="translate(-206 -35)"><path class="a" d="M15,30A15,15,0,0,1,4.393,4.393,15,15,0,0,1,25.607,25.607,14.9,14.9,0,0,1,15,30ZM15,1.363A13.637,13.637,0,1,0,28.637,15,13.652,13.652,0,0,0,15,1.363Zm1.552,23.655H12.873v-9.14H9.8V12.317h3.076V9.69a4.778,4.778,0,0,1,1.271-3.5,4.582,4.582,0,0,1,3.31-1.211l2.749,0V8.308H18.316c-1.465,0-1.765.693-1.765,1.734v2.274h3.527l0,3.561H16.552v9.14Z" transform="translate(206 35)"/></g></svg>