<svg xmlns="http://www.w3.org/2000/svg" viewBox="0 0 49 30.772"><defs><style>.a{fill:#fff;}</style></defs><g transform="translate(0 0)"><path class="a" d="M3.455,1.843A1.553,1.553,0,0,0,1.885,3.378V27.394a1.553,1.553,0,0,0,1.571,1.536h42.09a1.553,1.553,0,0,0,1.571-1.536V3.378a1.553,1.553,0,0,0-1.571-1.536ZM3.455,0h42.09A3.417,3.417,0,0,1,49,3.378V27.394a3.417,3.417,0,0,1-3.455,3.378H3.455A3.417,3.417,0,0,1,0,27.394V3.378A3.417,3.417,0,0,1,3.455,0Z" transform="translate(0 0)"/><g transform="translate(3.932 9.11)"><path class="a" d="M222.6,16.471l2.08-12.208h3.328l-2.082,12.208Z" transform="translate(-208.067 -4.013)"/><path class="a" d="M314.674.957a8.6,8.6,0,0,0-2.982-.513c-3.288,0-5.6,1.656-5.624,4.029-.019,1.754,1.653,2.733,2.916,3.317,1.3.6,1.731.98,1.725,1.514-.008.818-1.034,1.192-1.991,1.192a6.976,6.976,0,0,1-3.132-.641l-.429-.194-.467,2.733a10.533,10.533,0,0,0,3.707.651c3.5,0,5.769-1.637,5.794-4.171.013-1.389-.874-2.446-2.794-3.317-1.163-.565-1.875-.942-1.868-1.513,0-.507.6-1.05,1.906-1.05a6.138,6.138,0,0,1,2.491.468l.3.141.451-2.646" transform="translate(-284.795 -0.444)"/><path class="a" d="M456.172,4.263H453.6a1.656,1.656,0,0,0-1.742,1.012l-4.942,11.188h3.494s.571-1.5.7-1.835l4.262.005c.1.427.4,1.829.4,1.829h3.088Zm-4.08,7.883c.275-.7,1.326-3.413,1.326-3.413-.02.032.273-.707.441-1.165l.225,1.053s.637,2.914.77,3.525h-2.762Z" transform="translate(-417.73 -4.013)"/><path class="a" d="M61.857,4.263,58.6,12.588,58.252,10.9a9.528,9.528,0,0,0-4.609-5.121l2.979,10.677,3.521,0L65.382,4.263H61.857" transform="translate(-50.151 -4.013)"/><path class="a" d="M5.6,4.263H.231l-.042.254C4.363,5.527,7.125,7.969,8.272,10.9L7.105,5.293A1.393,1.393,0,0,0,5.6,4.263" transform="translate(-0.189 -4.013)"/></g></g></svg>