<svg xmlns="http://www.w3.org/2000/svg" viewBox="0 0 623.99 348.48"><defs><style>.cls-1{fill:#231f20;}.cls-12,.cls-2{fill:#1a68ff;}.cls-3{fill:#d1d3d4;}.cls-4{fill:#e6e7e8;}.cls-5{fill:#f1f2f2;}.cls-6{fill:#bcbec0;}.cls-11,.cls-7{fill:#e61616;}.cls-8{fill:#939598;}.cls-9{fill:#fff;}.cls-10{fill:#a7a9ac;}.cls-11,.cls-12,.cls-13{stroke:#231f20;}.cls-11,.cls-12{stroke-miterlimit:10;stroke-width:4px;}.cls-13{fill:none;stroke-linejoin:round;stroke-width:3.2px;}</style></defs><title>we_propouse</title><g id="banner"><path class="cls-1" d="M790.58,343.11l-1.14-3.37c1.26-.43,2.55-.82,3.83-1.16l.92,3.43C793,342.33,791.77,342.7,790.58,343.11Z" transform="translate(-288.14 -285.28)"/><path class="cls-1" d="M840.8,451.73,839,448.68a59.22,59.22,0,0,0,6.29-4.3l2.19,2.8A61.3,61.3,0,0,1,840.8,451.73Zm12.69-9.93L851,439.31a60.56,60.56,0,0,0,5-5.76l2.84,2.14A62.69,62.69,0,0,1,853.49,441.8Zm9.71-12.86-3.09-1.75a59.19,59.19,0,0,0,3.32-6.85l3.3,1.33A61.68,61.68,0,0,1,863.2,428.94ZM869.27,414l-3.45-.89a57.38,57.38,0,0,0,1.43-7.48l3.53.44A62.31,62.31,0,0,1,869.27,414Zm-1.57-16a59.86,59.86,0,0,0-.54-7.59l3.52-.48a63.41,63.41,0,0,1,.57,8.05Zm-2.06-15a58.68,58.68,0,0,0-2.48-7.19l3.27-1.38a61.45,61.45,0,0,1,2.64,7.63Zm-5.89-14a58,58,0,0,0-4.26-6.3l2.81-2.18a60.33,60.33,0,0,1,4.52,6.69Zm-9.3-12a59.34,59.34,0,0,0-5.74-5l2.16-2.82a63.86,63.86,0,0,1,6.09,5.3Zm-12.08-9.22a60,60,0,0,0-6.83-3.36l1.35-3.28a62.52,62.52,0,0,1,7.26,3.56Zm-14-5.79a58.69,58.69,0,0,0-7.47-1.46l.46-3.53a62.64,62.64,0,0,1,7.92,1.56Zm-22.66-1.44-.47-3.52a62,62,0,0,1,8.06-.53V340A58.28,58.28,0,0,0,801.66,340.53Z" transform="translate(-288.14 -285.28)"/><path class="cls-1" d="M829.77,456.87l-1.17-3.36c1.18-.41,2.36-.87,3.52-1.36l1.39,3.27C832.28,455.94,831,456.43,829.77,456.87Z" transform="translate(-288.14 -285.28)"/><path class="cls-2" d="M770.68,397.91A39.35,39.35,0,1,0,810,358.56,39.35,39.35,0,0,0,770.68,397.91Z" transform="translate(-288.14 -285.28)"/><path class="cls-1" d="M815.74,459.32a1.81,1.81,0,0,1-1.08-.37l-16-12.27c-23-5.09-39.09-25.24-39.09-49.16a50.18,50.18,0,1,1,100.35,0,49.87,49.87,0,0,1-42.4,49.66v10.36a1.77,1.77,0,0,1-1,1.59A1.7,1.7,0,0,1,815.74,459.32Zm-5.82-108.59a46.84,46.84,0,0,0-46.79,46.79c0,22.36,15.08,41.18,36.67,45.76a1.85,1.85,0,0,1,.71.33L814,453.93v-8.29a1.78,1.78,0,0,1,1.54-1.76,46.76,46.76,0,0,0-5.59-93.15Z" transform="translate(-288.14 -285.28)"/><path class="cls-1" d="M814.63,424.87h-8.89a1.77,1.77,0,0,1-1.77-1.78V387.54a1.78,1.78,0,0,1,1.77-1.78h8.89a1.78,1.78,0,0,1,1.78,1.78v35.55A1.78,1.78,0,0,1,814.63,424.87Zm-7.11-3.55h5.33v-32h-5.33Z" transform="translate(-288.14 -285.28)"/><path class="cls-1" d="M810.13,382.82a7.8,7.8,0,1,1,7.8-7.8A7.81,7.81,0,0,1,810.13,382.82Zm0-12a4.25,4.25,0,1,0,4.24,4.24A4.25,4.25,0,0,0,810.13,370.78Z" transform="translate(-288.14 -285.28)"/><path class="cls-1" d="M404.08,568.75,404,565.2c2.52-.09,5.07-.32,7.56-.66l.49,3.52C409.4,568.42,406.73,568.65,404.08,568.75Zm-7.94-.11a77.84,77.84,0,0,1-7.91-.91l.59-3.51a73.42,73.42,0,0,0,7.54.87Zm23.68-2.08-.85-3.45a74.91,74.91,0,0,0,7.27-2.19l1.2,3.35A79.3,79.3,0,0,1,419.82,566.56ZM380.47,566a79.49,79.49,0,0,1-7.55-2.51l1.29-3.31c2.35.91,4.77,1.72,7.2,2.39Zm54.31-4.82-1.54-3.2a74.16,74.16,0,0,0,6.67-3.63l1.85,3A77.19,77.19,0,0,1,434.78,561.2Zm-69.12-1c-2.35-1.21-4.66-2.55-6.88-4l1.94-3c2.12,1.37,4.32,2.65,6.57,3.81Zm82.67-7.33-2.16-2.83a74.76,74.76,0,0,0,5.8-4.9l2.43,2.59C452.47,549.58,450.42,551.31,448.33,552.91Zm-96-1.34a76.3,76.3,0,0,1-5.93-5.3l2.5-2.53a75.54,75.54,0,0,0,5.66,5.07ZM459.92,542l-2.69-2.33c1.66-1.91,3.24-3.92,4.69-6l2.91,2A77.51,77.51,0,0,1,459.92,542Zm-118.86-1.65a77.5,77.5,0,0,1-4.73-6.39l3-2a72.26,72.26,0,0,0,4.52,6.1Zm128-11.33L466,527.32a75.36,75.36,0,0,0,3.37-6.8l3.26,1.41A76.23,76.23,0,0,1,469.07,529.06Zm-136.8-1.9a77.3,77.3,0,0,1-3.34-7.22l3.3-1.33a75.34,75.34,0,0,0,3.18,6.89ZM475.4,514.48,472,513.41a74.83,74.83,0,0,0,1.91-7.35l3.49.72A78.45,78.45,0,0,1,475.4,514.48Zm-149-2.07c-.72-2.54-1.32-5.15-1.79-7.75l3.51-.62a74.6,74.6,0,0,0,1.7,7.39Zm152.26-13.49-3.54-.36a73.57,73.57,0,0,0,.39-7.58H479A77.74,77.74,0,0,1,478.61,498.92Zm-155-2.15c-.14-1.92-.21-3.86-.21-5.79,0-.72,0-1.44,0-2.16l3.56.09q0,1,0,2.07c0,1.84.07,3.7.2,5.53Zm151.8-9.25c-.12-2.53-.37-5.07-.74-7.56l3.52-.52a77.56,77.56,0,0,1,.77,7.91Zm-147.84-6.17-3.53-.46a76.27,76.27,0,0,1,1.43-7.82l3.46.81A72.15,72.15,0,0,0,327.54,481.35Zm145.6-8.83a73,73,0,0,0-2.25-7.24l3.33-1.23a76.69,76.69,0,0,1,2.37,7.59ZM331,466.59l-3.36-1.16a77.28,77.28,0,0,1,3-7.37l3.22,1.5C332.81,461.84,331.85,464.21,331,466.59ZM467.9,458.3a72.69,72.69,0,0,0-3.69-6.63l3-1.89c1.4,2.24,2.7,4.58,3.87,7Zm-130.46-5.44L334.39,451c1.36-2.26,2.85-4.49,4.43-6.61l2.85,2.13A75.45,75.45,0,0,0,337.44,452.86Zm122.42-7.42c-1.55-2-3.22-3.92-5-5.75l2.57-2.45a78.46,78.46,0,0,1,5.2,6Zm-113.34-4.73-2.62-2.41c1.79-1.94,3.7-3.81,5.68-5.57l2.36,2.66A75.62,75.62,0,0,0,346.52,440.71Zm102.87-6.23a74.59,74.59,0,0,0-6-4.63l2-2.93c2.17,1.5,4.29,3.14,6.31,4.85Zm-91.52-3.83-2.08-2.89c2.15-1.54,4.4-3,6.68-4.3l1.78,3.08A73.67,73.67,0,0,0,357.87,430.65Zm79-4.8a75.36,75.36,0,0,0-6.83-3.31l1.39-3.27c2.42,1,4.83,2.19,7.16,3.47ZM371,423.1l-1.45-3.25A79.51,79.51,0,0,1,377,417l1.1,3.37C375.7,421.16,373.32,422.07,371,423.1ZM423,420a74,74,0,0,0-7.36-1.84l.68-3.49a77.76,77.76,0,0,1,7.72,1.93Zm-37.53-1.56-.75-3.47a76,76,0,0,1,7.85-1.28l.39,3.53A75.39,75.39,0,0,0,385.42,418.39ZM408.07,417c-2.26-.21-4.58-.32-6.88-.32h-.7l0-3.56h.74c2.41,0,4.83.11,7.21.33Z" transform="translate(-288.14 -285.28)"/><rect class="cls-3" x="250.94" y="293.37" width="63.33" height="42.22"/><path class="cls-4" d="M716.85,397.58c0-8.79-6.52-16.71-15.7-16.71H439.48c-9.17,0-17.07,7.92-17.07,16.71V528.65H716.85Z" transform="translate(-288.14 -285.28)"/><path class="cls-5" d="M422.41,528.65V563.7c0,8.79,7.9,14.95,17.07,14.95H701.15c9.18,0,15.7-6.16,15.7-14.95V528.65Z" transform="translate(-288.14 -285.28)"/><path class="cls-1" d="M701.15,580.43H439.48c-10.57,0-18.85-7.35-18.85-16.73V528.65a1.78,1.78,0,0,1,1.78-1.78H716.85a1.78,1.78,0,0,1,1.78,1.78V563.7C718.63,573.39,711.28,580.43,701.15,580.43Zm-277-50V563.7c0,7.39,6.71,13.17,15.29,13.17H701.15c8.2,0,13.93-5.42,13.93-13.17V530.43Z" transform="translate(-288.14 -285.28)"/><path class="cls-6" d="M580.59,553.78a10.27,10.27,0,1,1-10.27-10.27A10.27,10.27,0,0,1,580.59,553.78Z" transform="translate(-288.14 -285.28)"/><rect class="cls-5" x="238.71" y="335.59" width="85.56" height="11.11"/><path class="cls-1" d="M612.41,633.76H526.85a1.78,1.78,0,0,1-1.77-1.78V620.87a1.78,1.78,0,0,1,1.77-1.78h85.56a1.78,1.78,0,0,1,1.78,1.78V632A1.78,1.78,0,0,1,612.41,633.76Zm-83.78-3.56h82v-7.55h-82Z" transform="translate(-288.14 -285.28)"/><rect class="cls-2" x="153.16" y="113.37" width="257.78" height="130"/><path class="cls-1" d="M699.08,530.43H441.3a1.78,1.78,0,0,1-1.78-1.78v-130a1.78,1.78,0,0,1,1.78-1.78H699.08a1.78,1.78,0,0,1,1.77,1.78v130A1.78,1.78,0,0,1,699.08,530.43Zm-256-3.56H697.3V400.43H443.08Z" transform="translate(-288.14 -285.28)"/><polygon class="cls-7" points="453.76 251.15 463.91 242.98 505.69 208.93 403.73 208.93 443.99 242.98 453.76 251.15"/><polygon class="cls-5" points="404.27 208.66 404.27 274.75 444.53 242.84 404.27 208.66"/><path class="cls-1" d="M692.41,561.8a1.73,1.73,0,0,1-.77-.17,1.78,1.78,0,0,1-1-1.6V493.94a1.78,1.78,0,0,1,2.93-1.36l40.26,34.19a1.82,1.82,0,0,1,.63,1.38,1.78,1.78,0,0,1-.68,1.37l-40.26,31.9A1.79,1.79,0,0,1,692.41,561.8Zm1.78-64v58.57l35.68-28.27Z" transform="translate(-288.14 -285.28)"/><polygon class="cls-5" points="463.6 242.84 505.38 274.75 505.38 208.66 463.6 242.84"/><path class="cls-1" d="M793.52,561.8a1.8,1.8,0,0,1-1.08-.36l-41.78-31.9a1.79,1.79,0,0,1-.7-1.39,1.76,1.76,0,0,1,.65-1.4l41.78-34.19a1.8,1.8,0,0,1,1.89-.23,1.78,1.78,0,0,1,1,1.61V560a1.79,1.79,0,0,1-1,1.59A1.82,1.82,0,0,1,793.52,561.8Zm-38.91-33.72,37.13,28.35V497.69Z" transform="translate(-288.14 -285.28)"/><polygon class="cls-5" points="453.76 251.15 443.99 242.71 403.73 274.48 505.69 274.48 463.91 242.71 453.76 251.15"/><path class="cls-1" d="M793.83,561.54h-102a1.78,1.78,0,0,1-1.1-3.18L731,526.59a1.79,1.79,0,0,1,2.26,0l8.63,7.46,9-7.48a1.79,1.79,0,0,1,2.22,0l41.78,31.77a1.78,1.78,0,0,1-1.08,3.19ZM697,558h91.56L752.1,530.26,743,537.79a1.77,1.77,0,0,1-2.3,0l-8.66-7.47Z" transform="translate(-288.14 -285.28)"/><rect class="cls-1" x="228.71" y="166.04" width="8.89" height="3.55"/><path class="cls-5" d="M486.22,387.54h.63v-6.92c0-5.12,4.07-9.75,9.2-9.75h46.18c5.12,0,9.07,4.63,9.07,9.75v14.3a9.79,9.79,0,0,1-6.67,9V440a13.2,13.2,0,0,1-13.08,13.06h-5.81v12.23H504.63V453.09h-5.54c-7.12,0-13.35-5.94-13.35-13.06V415.67A4.73,4.73,0,0,1,481.3,411V392.56A5,5,0,0,1,486.22,387.54Z" transform="translate(-288.14 -285.28)"/><path class="cls-1" d="M525.74,467.09H504.63a1.78,1.78,0,0,1-1.78-1.77V454.87h-3.76A15.18,15.18,0,0,1,484,440V417.15a6.64,6.64,0,0,1-4.44-6.16V392.56a6.89,6.89,0,0,1,5.56-6.7v-5.24c0-6.25,5-11.53,11-11.53h46.18c5.88,0,10.85,5.28,10.85,11.53v14.3a11.55,11.55,0,0,1-6.67,10.23V440a15,15,0,0,1-14.86,14.84h-4v10.45A1.78,1.78,0,0,1,525.74,467.09Zm-19.33-3.55H524V453.09a1.78,1.78,0,0,1,1.78-1.77h5.81A11.44,11.44,0,0,0,542.85,440V403.92a1.78,1.78,0,0,1,1.28-1.7,8.06,8.06,0,0,0,5.39-7.3v-14.3c0-4.32-3.34-8-7.29-8H496.05c-4,0-7.42,3.65-7.42,8v6.92a1.78,1.78,0,0,1-1.78,1.78h-.63a3.28,3.28,0,0,0-3.14,3.24V411a2.94,2.94,0,0,0,2.67,2.9,1.78,1.78,0,0,1,1.77,1.78V440c0,6,5.41,11.29,11.57,11.29h5.54a1.78,1.78,0,0,1,1.78,1.77Z" transform="translate(-288.14 -285.28)"/><path class="cls-6" d="M475.74,526.43v-50a11.47,11.47,0,0,1,11.13-11.07H545.8a11.39,11.39,0,0,1,11.05,11.07v50" transform="translate(-288.14 -285.28)"/><polygon class="cls-5" points="227.18 209.68 237.62 180.04 216.68 180.04 227.18 209.68"/><path class="cls-1" d="M515.32,496.74a1.79,1.79,0,0,1-1.68-1.18l-10.5-29.65a1.8,1.8,0,0,1,.23-1.62,1.77,1.77,0,0,1,1.45-.75h20.94a1.78,1.78,0,0,1,1.68,2.37L517,495.55a1.79,1.79,0,0,1-1.68,1.19Zm-8-29.65,8,22.53,7.94-22.53Z" transform="translate(-288.14 -285.28)"/><rect class="cls-1" x="210.94" y="117.15" width="45.56" height="3.55"/><rect class="cls-1" x="225.38" y="218.26" width="3.33" height="3.55"/><rect class="cls-1" x="225.38" y="229.37" width="3.33" height="3.55"/><path class="cls-1" d="M528,432.65h-4.44v-3.56h2.67V418.65h3.55v12.22A1.78,1.78,0,0,1,528,432.65Z" transform="translate(-288.14 -285.28)"/><rect class="cls-1" x="203.6" y="211.15" width="3.56" height="30"/><rect class="cls-1" x="250.27" y="211.15" width="3.56" height="30"/><path class="cls-1" d="M522.41,444.87H501a5.15,5.15,0,0,1-3.86-1.61c-2.19-2.3-2.06-6.23-2-6.67V425.32h3.55v11.36c0,.81.09,3.12,1.07,4.14a1.64,1.64,0,0,0,1.28.5h21.43Z" transform="translate(-288.14 -285.28)"/><rect class="cls-8" x="234.27" y="154.48" width="13.33" height="5.56" rx="2.22"/><path class="cls-1" d="M533.52,447.09h-8.89a4,4,0,0,1-4-4V442a4,4,0,0,1,4-4h8.89a4,4,0,0,1,4,4v1.11A4,4,0,0,1,533.52,447.09Zm-8.89-5.55a.44.44,0,0,0-.44.44v1.11a.45.45,0,0,0,.44.45h8.89a.44.44,0,0,0,.44-.45V442a.44.44,0,0,0-.44-.44Z" transform="translate(-288.14 -285.28)"/><path class="cls-8" d="M492.5,420.56a4.31,4.31,0,1,0,4.31-4.3A4.31,4.31,0,0,0,492.5,420.56Z" transform="translate(-288.14 -285.28)"/><path class="cls-1" d="M496.81,426.65a6.09,6.09,0,1,1,6.08-6.09A6.09,6.09,0,0,1,496.81,426.65Zm0-8.61a2.53,2.53,0,1,0,2.52,2.52A2.52,2.52,0,0,0,496.81,418Z" transform="translate(-288.14 -285.28)"/><path class="cls-9" d="M673.53,355.85a9.7,9.7,0,0,0-2.28-.53H582.32a8.7,8.7,0,0,0-8.8,8.34v165h93.33v-165C666.85,360,669.74,356.77,673.53,355.85Z" transform="translate(-288.14 -285.28)"/><path class="cls-1" d="M666.85,530.43H573.52a1.78,1.78,0,0,1-1.78-1.78v-165c0-5.49,4.85-10.12,10.58-10.12h88.93a6.75,6.75,0,0,1,2.11.41l.59.17a1.78,1.78,0,0,1,0,3.46c-3,.73-5.31,3.35-5.31,6.08v165A1.78,1.78,0,0,1,666.85,530.43Zm-91.55-3.56h89.78V363.66a9.48,9.48,0,0,1,2.78-6.57H582.32a6.9,6.9,0,0,0-7,6.57Z" transform="translate(-288.14 -285.28)"/><path class="cls-9" d="M673.62,499.26a10.47,10.47,0,0,0,2.39.5h88.92a8.46,8.46,0,0,0,8.59-8.28V343.09H680.19V491.48A8.32,8.32,0,0,1,673.62,499.26Z" transform="translate(-288.14 -285.28)"/><path class="cls-1" d="M764.93,501.54H676a7.92,7.92,0,0,1-2.26-.41l-.55-.15a1.77,1.77,0,0,1,0-3.45,6.53,6.53,0,0,0,5.21-6V343.09a1.77,1.77,0,0,1,1.78-1.77h93.33a1.78,1.78,0,0,1,1.78,1.77V491.48A10.23,10.23,0,0,1,764.93,501.54ZM679.26,498h85.67a6.66,6.66,0,0,0,6.81-6.5V344.87H682V491.48A9.43,9.43,0,0,1,679.26,498Z" transform="translate(-288.14 -285.28)"/><path class="cls-3" d="M673.52,356.09c-3.79.92-6.67,4-6.67,7.57V491.48c0,3.62,2.88,6.65,6.67,7.56,3.79-.91,6.67-3.94,6.67-7.56V363.66C680.19,360,677.31,357,673.52,356.09Z" transform="translate(-288.14 -285.28)"/><path class="cls-1" d="M673.52,500.82a1.51,1.51,0,0,1-.42-.05c-4.72-1.14-8-5-8-9.29V363.66c0-4.33,3.3-8.15,8-9.29a1.71,1.71,0,0,1,.84,0c4.72,1.14,8,5,8,9.29V491.48c0,4.33-3.3,8.15-8,9.29A1.51,1.51,0,0,1,673.52,500.82Zm0-142.88c-2.9.86-4.89,3.16-4.89,5.72V491.48c0,2.56,2,4.87,4.89,5.72,2.9-.85,4.89-3.16,4.89-5.72V363.66C678.41,361.1,676.42,358.8,673.52,357.94Z" transform="translate(-288.14 -285.28)"/><line class="cls-5" x1="378.71" y1="82.26" x2="385.38" y2="82.26"/><rect class="cls-1" x="378.71" y="80.48" width="6.67" height="3.55"/><line class="cls-5" x1="378.71" y1="202.26" x2="385.38" y2="202.26"/><rect class="cls-1" x="378.71" y="200.48" width="6.67" height="3.55"/><line class="cls-5" x1="298.71" y1="87.81" x2="313.16" y2="87.81"/><rect class="cls-1" x="298.71" y="86.04" width="14.44" height="3.55"/><line class="cls-5" x1="298.71" y1="97.81" x2="365.38" y2="97.81"/><rect class="cls-1" x="298.71" y="96.04" width="66.67" height="3.55"/><line class="cls-5" x1="298.71" y1="110.04" x2="326.49" y2="110.04"/><rect class="cls-1" x="298.71" y="108.26" width="27.78" height="3.55"/><line class="cls-5" x1="298.71" y1="121.15" x2="365.38" y2="121.15"/><rect class="cls-1" x="298.71" y="119.37" width="66.67" height="3.55"/><line class="cls-5" x1="335.38" y1="110.04" x2="342.05" y2="110.04"/><rect class="cls-1" x="335.38" y="108.26" width="6.67" height="3.55"/><line class="cls-5" x1="405.38" y1="171.15" x2="433.16" y2="171.15"/><rect class="cls-1" x="405.38" y="169.37" width="27.78" height="3.55"/><line class="cls-5" x1="440.94" y1="171.15" x2="447.6" y2="171.15"/><rect class="cls-1" x="440.94" y="169.37" width="6.67" height="3.55"/><line class="cls-5" x1="472.05" y1="195.59" x2="445.38" y2="195.59"/><rect class="cls-1" x="445.38" y="193.82" width="26.67" height="3.55"/><line class="cls-5" x1="472.05" y1="183.37" x2="405.38" y2="183.37"/><rect class="cls-1" x="405.38" y="181.59" width="66.67" height="3.55"/><line class="cls-5" x1="435.38" y1="195.59" x2="429.82" y2="195.59"/><rect class="cls-1" x="429.82" y="193.82" width="5.56" height="3.55"/><rect class="cls-3" x="298.71" y="133.37" width="66.67" height="21.11"/><line class="cls-5" x1="298.71" y1="163.37" x2="317.6" y2="163.37"/><rect class="cls-1" x="298.71" y="161.59" width="18.89" height="3.55"/><line class="cls-5" x1="325.38" y1="163.37" x2="364.27" y2="163.37"/><rect class="cls-1" x="325.38" y="161.59" width="38.89" height="3.55"/><line class="cls-5" x1="298.71" y1="174.48" x2="346.49" y2="174.48"/><rect class="cls-1" x="298.71" y="172.7" width="47.78" height="3.55"/><rect class="cls-3" x="298.71" y="186.7" width="66.67" height="21.11"/><line class="cls-5" x1="298.71" y1="216.7" x2="317.6" y2="216.7"/><rect class="cls-1" x="298.71" y="214.93" width="18.89" height="3.55"/><line class="cls-5" x1="325.38" y1="216.7" x2="364.27" y2="216.7"/><rect class="cls-1" x="325.38" y="214.93" width="38.89" height="3.55"/><line class="cls-5" x1="298.71" y1="227.81" x2="346.49" y2="227.81"/><rect class="cls-1" x="298.71" y="226.04" width="47.78" height="3.55"/><rect class="cls-3" x="405.38" y="68.93" width="66.67" height="21.11"/><line class="cls-5" x1="405.38" y1="98.93" x2="424.27" y2="98.93"/><rect class="cls-1" x="405.38" y="97.15" width="18.89" height="3.55"/><line class="cls-5" x1="432.05" y1="98.93" x2="470.94" y2="98.93"/><rect class="cls-1" x="432.05" y="97.15" width="38.89" height="3.55"/><line class="cls-5" x1="405.38" y1="110.04" x2="453.16" y2="110.04"/><rect class="cls-1" x="405.38" y="108.26" width="47.78" height="3.55"/><rect class="cls-3" x="405.38" y="121.15" width="66.67" height="36.67"/><polygon class="cls-10" points="89.82 67.81 176.49 67.81 176.49 123.37 134.27 123.37 134.27 142.05 107.76 123.37 89.82 123.37 89.82 67.81"/><rect class="cls-1" x="96.49" y="82.7" width="34.44" height="3.55"/><rect class="cls-1" x="144.27" y="82.7" width="25.56" height="3.55"/><rect class="cls-1" x="96.49" y="94.93" width="73.33" height="3.55"/><rect class="cls-1" x="96.49" y="106.04" width="73.33" height="3.55"/><path class="cls-4" d="M856.34,588l3.11,3.11c4.66,4.67,3.42,8.71,1.35,10.78l-9.33,9.33c-2.08,2.08-6,3.23-10.7-1.43l-11.4-11.41s1.71-15.18,26.63-40.11,39.08-25.6,39.08-25.6l11.4,11.41c2.43,2.43,6.16,6,2,10.12l-9.33,9.33c-4.15,4.15-8.92,1.65-11.35-.78l-3.11-3.11s-4.1-3.16-17.29,10S856.34,588,856.34,588Z" transform="translate(-288.14 -285.28)"/><path class="cls-1" d="M847.21,614.83c-2.61,0-5.19-1.27-7.69-3.77l-11.41-11.4a1.79,1.79,0,0,1-.51-1.46c.08-.64,2.07-16.09,27.15-41.17S894.39,531,895,530.92a1.78,1.78,0,0,1,1.34.52L907.89,543a15.84,15.84,0,0,1,3.76,5c.72,1.83,1,4.62-1.91,7.51l-9.33,9.33a8.56,8.56,0,0,1-6.19,2.74c-3.75,0-6.61-2.46-7.67-3.52l-2.88-2.88c-.71-.16-4.86-.34-15,9.8S858,586,858,587.16l2.72,2.72c2.45,2.45,3.7,5,3.72,7.6a8,8,0,0,1-2.37,5.69l-9.33,9.33A7.81,7.81,0,0,1,847.21,614.83Zm-15.92-17L842,608.55c1.78,1.78,3.57,2.72,5.18,2.72a4.24,4.24,0,0,0,3-1.29l9.33-9.33a4.42,4.42,0,0,0,1.33-3.14c0-1.61-.94-3.38-2.68-5.12l-3.11-3.11a1.88,1.88,0,0,1-.38-.58c-.44-1-1.91-6.9,11.45-20.26,9-9,14.26-10.89,17.09-10.89a4,4,0,0,1,2.54.71l.17.14,3.11,3.11a8,8,0,0,0,5.16,2.48,5.07,5.07,0,0,0,3.68-1.7l9.33-9.33c1.63-1.62,1.47-2.77,1.11-3.68a13,13,0,0,0-3-3.77l-10.94-10.94c-3.12.57-16.31,4.1-37.18,25C836.23,580.58,832,594.44,831.29,597.8Z" transform="translate(-288.14 -285.28)"/><path class="cls-9" d="M591.78,366.52h.08c2.87-2,5-5.39,5-8v-12.2s.17-10.16-10-10.16-10,10.16-10,10.16v12.2c0,2.62,2.31,6,5.18,8h.2a5.49,5.49,0,0,1-3.35,4.27c-2.58,1.15-8,3.69-11.38,7a29,29,0,0,0,38.57-.47c-3.38-3.12-8.45-5.48-10.91-6.57A5.53,5.53,0,0,1,591.78,366.52Z" transform="translate(-288.14 -285.28)"/><path class="cls-1" d="M586.52,386.72a30.72,30.72,0,0,1-20.18-7.55,1.78,1.78,0,0,1-.09-2.6c2.57-2.57,6.47-5,11.91-7.4a3.73,3.73,0,0,0,2-1.86c-3-2.46-5.06-6-5.06-8.8v-12.2a13.29,13.29,0,0,1,3.4-8.77,12.65,12.65,0,0,1,16.75,0c3.45,3.5,3.4,8.59,3.4,8.8v12.17c0,2.87-1.93,6.32-4.79,8.72a3.88,3.88,0,0,0,2,1.94c5.09,2.26,8.82,4.51,11.39,6.89a1.71,1.71,0,0,1,.57,1.31,1.78,1.78,0,0,1-.57,1.3A30.65,30.65,0,0,1,586.52,386.72Zm-16.27-9a27.19,27.19,0,0,0,33-.38,45.73,45.73,0,0,0-8.86-5,7.32,7.32,0,0,1-4.41-5.58,1.63,1.63,0,0,1,0-.31h0a1.8,1.8,0,0,1,1.12-1.66c2.24-1.7,4-4.43,4-6.34v-12.2c0-.06,0-3.88-2.4-6.3A9.19,9.19,0,0,0,581,340c-2.37,2.41-2.38,6.22-2.38,6.25v12.23c0,1.83,1.77,4.53,4.08,6.3a1.8,1.8,0,0,1,1.3,1.71,1.53,1.53,0,0,1,0,.3,7.29,7.29,0,0,1-4.37,5.59A43.85,43.85,0,0,0,570.25,377.76Z" transform="translate(-288.14 -285.28)"/><path class="cls-7" d="M586.53,327a29,29,0,0,0-19,50.83c3.36-3.35,8.81-5.89,11.4-7a5.15,5.15,0,0,0,3.11-4.27c-2.87-2-5.18-5.39-5.18-8v-12.2s-.16-10.16,10-10.16,10,10.16,10,10.16v12.2c0,2.62-2.12,6-5,8a5.49,5.49,0,0,0,3.34,4.27c2.47,1.09,7.51,3.45,10.89,6.57A29,29,0,0,0,586.53,327Z" transform="translate(-288.14 -285.28)"/><path class="cls-1" d="M567.52,379.61a1.77,1.77,0,0,1-1.16-.44,30.75,30.75,0,1,1,40.93-.5,1.78,1.78,0,0,1-2.41,0,39.09,39.09,0,0,0-10.4-6.26,7.29,7.29,0,0,1-4.37-5.6,1.76,1.76,0,0,1,.72-1.74c2.38-1.69,4.25-4.56,4.25-6.56v-12.2c0-.06,0-3.88-2.4-6.3A9.19,9.19,0,0,0,581,340c-2.37,2.41-2.38,6.22-2.38,6.25v12.23c0,1.92,2,4.8,4.43,6.56a1.78,1.78,0,0,1,.73,1.75,6.91,6.91,0,0,1-4.15,5.59c-5,2.22-8.65,4.47-10.86,6.68A1.8,1.8,0,0,1,567.52,379.61Zm19-50.84a27.19,27.19,0,0,0-19,46.65,44.16,44.16,0,0,1,10.66-6.25,3.16,3.16,0,0,0,1.85-1.94c-3-2.46-5-5.91-5-8.72v-12.2a13.29,13.29,0,0,1,3.4-8.77,12.65,12.65,0,0,1,16.75,0c3.45,3.5,3.4,8.59,3.4,8.8v12.17c0,2.85-1.9,6.28-4.74,8.68a3.72,3.72,0,0,0,2,2A46.57,46.57,0,0,1,606,375a27.2,27.2,0,0,0-19.49-46.19Z" transform="translate(-288.14 -285.28)"/><path class="cls-9" d="M491.78,584.3v0l.08,0c2.87-2,5-5.39,5-8v-12.2s.17-10.16-10-10.16-10,10.16-10,10.16v12.2c0,2.62,2.31,6,5.18,8l.14,0,.06,0a5.52,5.52,0,0,1-3.35,4.27c-2.58,1.15-8,3.69-11.38,7a29,29,0,0,0,38.57-.47c-3.38-3.12-8.45-5.48-10.91-6.57A5.56,5.56,0,0,1,491.78,584.3Z" transform="translate(-288.14 -285.28)"/><path class="cls-1" d="M486.52,604.5A30.72,30.72,0,0,1,466.34,597a1.78,1.78,0,0,1-.61-1.28,1.76,1.76,0,0,1,.52-1.32c2.57-2.57,6.47-5,11.91-7.41a3.75,3.75,0,0,0,2-1.85c-3-2.46-5.06-6-5.06-8.8v-12.2a13.32,13.32,0,0,1,3.4-8.78,12.68,12.68,0,0,1,16.75,0c3.45,3.51,3.4,8.6,3.4,8.81v12.17c0,2.87-1.93,6.32-4.79,8.72a3.86,3.86,0,0,0,2,1.93c5.09,2.27,8.82,4.52,11.39,6.89a1.74,1.74,0,0,1,.57,1.31,1.78,1.78,0,0,1-.57,1.31A30.69,30.69,0,0,1,486.52,604.5Zm-16.27-9a27.17,27.17,0,0,0,33.05-.39,46.29,46.29,0,0,0-8.86-5,7.32,7.32,0,0,1-4.41-5.58,1.63,1.63,0,0,1,0-.31h0a1.78,1.78,0,0,1,1.12-1.65c2.24-1.7,4-4.43,4-6.34v-12.2c0-.06,0-3.88-2.4-6.3a9.16,9.16,0,0,0-11.67,0,9.92,9.92,0,0,0-2.38,6.25v12.23c0,1.83,1.77,4.53,4.08,6.3a1.8,1.8,0,0,1,1.3,1.71,1.36,1.36,0,0,1,0,.29,7.29,7.29,0,0,1-4.37,5.6A43.43,43.43,0,0,0,470.25,595.54Z" transform="translate(-288.14 -285.28)"/><path class="cls-6" d="M486.53,544.78a29,29,0,0,0-19,50.83c3.36-3.35,8.81-5.89,11.4-7A5.17,5.17,0,0,0,482,584.3c-2.87-2-5.18-5.39-5.18-8v-12.2s-.16-10.16,10-10.16,10,10.16,10,10.16v12.2c0,2.62-2.12,6-5,8a5.52,5.52,0,0,0,3.34,4.27c2.47,1.09,7.51,3.45,10.89,6.57a29,29,0,0,0-19.56-50.36Z" transform="translate(-288.14 -285.28)"/><path class="cls-1" d="M467.52,597.38a1.76,1.76,0,0,1-1.16-.43,30.75,30.75,0,1,1,40.93-.5,1.79,1.79,0,0,1-2.41,0,38.83,38.83,0,0,0-10.4-6.26,7.29,7.29,0,0,1-4.37-5.6,1.79,1.79,0,0,1,.72-1.75c2.38-1.68,4.25-4.56,4.25-6.55v-12.2c0-.06,0-3.88-2.4-6.3a9.16,9.16,0,0,0-11.67,0,9.92,9.92,0,0,0-2.38,6.25v12.23c0,1.92,1.95,4.8,4.43,6.55a1.8,1.8,0,0,1,.73,1.76,6.91,6.91,0,0,1-4.15,5.59c-5,2.22-8.65,4.46-10.86,6.68A1.79,1.79,0,0,1,467.52,597.38Zm19-50.83a27.18,27.18,0,0,0-19,46.64,44.83,44.83,0,0,1,10.66-6.25A3.14,3.14,0,0,0,480,585c-3-2.47-5-5.92-5-8.72v-12.2a13.32,13.32,0,0,1,3.4-8.78,12.68,12.68,0,0,1,16.75,0c3.45,3.51,3.4,8.6,3.4,8.81v12.17c0,2.85-1.9,6.28-4.74,8.68a3.74,3.74,0,0,0,2,2,46.56,46.56,0,0,1,10.1,5.8,27.2,27.2,0,0,0-19.49-46.19Z" transform="translate(-288.14 -285.28)"/><path class="cls-9" d="M726.23,592.07h0s.08,0,.08,0c2.88-2,5-5.39,5-8v-12.2s.16-10.17-10-10.17-10,10.17-10,10.17v12.2c0,2.61,2.3,6,5.18,8a.57.57,0,0,0,.13,0s.06,0,.06,0a5.5,5.5,0,0,1-3.34,4.28c-2.59,1.14-8,3.68-11.38,7a29,29,0,0,0,38.56-.46c-3.38-3.12-8.44-5.48-10.91-6.57A5.55,5.55,0,0,1,726.23,592.07Z" transform="translate(-288.14 -285.28)"/><path class="cls-1" d="M721,612.28a30.77,30.77,0,0,1-20.19-7.55,1.81,1.81,0,0,1-.61-1.28,1.78,1.78,0,0,1,.52-1.32c2.57-2.57,6.47-5,11.92-7.41a3.79,3.79,0,0,0,2-1.85c-3-2.47-5.07-6-5.07-8.8v-12.2c0-.19,0-5.28,3.4-8.78a12.69,12.69,0,0,1,16.76,0c3.44,3.5,3.4,8.59,3.4,8.81v12.17c0,2.87-1.93,6.32-4.8,8.72a3.85,3.85,0,0,0,2.05,1.93c5.09,2.26,8.82,4.52,11.39,6.89a1.8,1.8,0,0,1,.57,1.31,1.77,1.77,0,0,1-.58,1.31A30.69,30.69,0,0,1,721,612.28Zm-16.27-9a27.21,27.21,0,0,0,33-.39,46.18,46.18,0,0,0-8.87-5,7.31,7.31,0,0,1-4.4-5.59,1.53,1.53,0,0,1,0-.3h0a1.77,1.77,0,0,1,1.12-1.65c2.24-1.71,3.95-4.43,3.95-6.34v-12.2c0-.06,0-3.88-2.4-6.3a9.16,9.16,0,0,0-11.67,0,9.88,9.88,0,0,0-2.37,6.25v12.23c0,1.83,1.76,4.53,4.08,6.3a1.8,1.8,0,0,1,1.29,1.7c0,.1,0,.2,0,.3a7.33,7.33,0,0,1-4.38,5.6A43.08,43.08,0,0,0,704.7,603.32Z" transform="translate(-288.14 -285.28)"/><path class="cls-2" d="M721,552.55a29,29,0,0,0-19,50.83c3.35-3.35,8.81-5.89,11.39-7a5.17,5.17,0,0,0,3.12-4.28c-2.88-2-5.18-5.39-5.18-8v-12.2s-.17-10.17,10-10.17,10,10.17,10,10.17v12.2c0,2.61-2.12,6-5,8a5.52,5.52,0,0,0,3.34,4.28c2.47,1.09,7.52,3.45,10.89,6.57A29,29,0,0,0,721,552.55Z" transform="translate(-288.14 -285.28)"/><path class="cls-1" d="M702,605.16a1.78,1.78,0,0,1-1.17-.43,30.76,30.76,0,1,1,40.93-.5,1.77,1.77,0,0,1-2.4,0A39,39,0,0,0,728.92,598a7.29,7.29,0,0,1-4.37-5.6,1.79,1.79,0,0,1,.73-1.75c2.38-1.68,4.24-4.56,4.24-6.55v-12.2c0-.06,0-3.88-2.4-6.3a9.16,9.16,0,0,0-11.67,0,9.88,9.88,0,0,0-2.37,6.25v12.23c0,1.92,1.94,4.8,4.42,6.55a1.79,1.79,0,0,1,.73,1.75,6.93,6.93,0,0,1-4.15,5.6c-5,2.22-8.64,4.46-10.86,6.67A1.74,1.74,0,0,1,702,605.16Zm19-50.83A27.19,27.19,0,0,0,702,601a44.38,44.38,0,0,1,10.67-6.25,3.14,3.14,0,0,0,1.84-1.94c-3-2.46-5-5.91-5-8.71v-12.2c0-.19,0-5.28,3.4-8.78a12.69,12.69,0,0,1,16.76,0c3.44,3.5,3.4,8.59,3.4,8.81v12.17c0,2.85-1.91,6.27-4.75,8.68a3.76,3.76,0,0,0,2,2,46.46,46.46,0,0,1,10.09,5.8A27.2,27.2,0,0,0,721,554.33Z" transform="translate(-288.14 -285.28)"/><path class="cls-1" d="M844.63,557.09h-7.78v-3.55h7.78Zm-15.55,0H821.3v-3.55h7.78Zm-15.56,0h-7.78v-3.55h7.78Z" transform="translate(-288.14 -285.28)"/><path class="cls-1" d="M365.74,394.87H358v-3.55h7.78Zm-15.55,0h-7.78v-3.55h7.78Zm-15.56,0h-7.78v-3.55h7.78Z" transform="translate(-288.14 -285.28)"/><rect class="cls-1" x="210.94" y="344.93" width="135.56" height="3.55"/><rect class="cls-1" x="357.6" y="344.93" width="16.67" height="3.55"/><path class="cls-1" d="M847.82,484.11l-9.16-8.06a1.79,1.79,0,0,1,0-2.68l9.16-7.9,2.33,2.69-7.62,6.57,7.63,6.72Z" transform="translate(-288.14 -285.28)"/><rect class="cls-1" x="552.05" y="188.26" width="43.33" height="3.55"/><path class="cls-1" d="M901.17,504l-2.32-2.69,7.61-6.57-7.63-6.72,2.36-2.67,9.16,8.07a1.8,1.8,0,0,1,.6,1.34,1.76,1.76,0,0,1-.62,1.34Z" transform="translate(-288.14 -285.28)"/><rect class="cls-1" x="569.82" y="208.26" width="51.11" height="3.55"/><rect class="cls-1" x="603.16" y="188.26" width="12.22" height="3.55"/><rect class="cls-1" x="546.49" y="208.26" width="16.67" height="3.55"/><path class="cls-1" d="M364.75,602l-10.35-9.11a1.81,1.81,0,0,1-.6-1.35,1.75,1.75,0,0,1,.62-1.33l10.34-8.93,2.32,2.7-8.8,7.59,8.82,7.76Z" transform="translate(-288.14 -285.28)"/><rect class="cls-1" x="67.6" y="306.04" width="50" height="3.55"/><path class="cls-1" d="M424.71,624.44l-2.33-2.69,8.8-7.59-8.81-7.77,2.35-2.66,10.35,9.11a1.8,1.8,0,0,1,.6,1.34,1.76,1.76,0,0,1-.62,1.34Z" transform="translate(-288.14 -285.28)"/><rect class="cls-1" x="88.71" y="328.26" width="57.78" height="3.55"/><rect class="cls-1" x="125.38" y="306.04" width="14.44" height="3.55"/><rect class="cls-1" x="60.94" y="328.26" width="20" height="3.55"/><path class="cls-11" d="M450.36,448.08c-3.16-3.49-7.82-4.44-10.34-2.16s-5.9,3.24-7.48,2.09-5.24-6.36-4.19-9.62-1.76-7.1-6.23-8.54-9,0-10.05,3.31-3.5,5.75-5.48,5.57-7.67-2.92-8.4-6.26-5.05-5.27-9.65-4.28-7.77,4.55-7.06,7.88-.14,6.74-1.94,7.57-8.1,1.31-10.41-1.22-7-2-10.5,1.12-4.46,7.81-2.17,10.35,3.25,5.9,2.1,7.48-6.37,5.24-9.63,4.19-7.09,1.76-8.54,6.24.05,9,3.32,10,5.75,3.51,5.56,5.48-2.93,7.69-6.26,8.4-5.26,5.07-4.28,9.66,4.53,7.76,7.89,7,6.74.15,7.55,1.94,1.33,8.12-1.21,10.42-2,7,1.13,10.5,7.81,4.47,10.34,2.16,5.9-3.23,7.48-2.1,5.25,6.37,4.19,9.63,1.76,7.1,6.24,8.55,9,0,10-3.31,3.51-5.76,5.48-5.56,7.68,2.91,8.39,6.25,5.08,5.26,9.68,4.28,7.77-4.54,7-7.88.15-6.75,1.94-7.55,8.12-1.35,10.42,1.21,7,2,10.51-1.12,4.45-7.82,2.16-10.36-1.17-8.76-.19-10.47,4.45-2.24,7.72-1.2,7.1-1.75,8.53-6.23-.05-9-3.3-10.05-5.77-3.5-5.56-5.47,2.9-7.67,6.24-8.39,5.28-5.07,4.28-9.66-4.53-7.77-7.87-7.06-6.76-.14-7.56-1.94-1.33-8.11,1.21-10.41S453.53,451.57,450.36,448.08Zm-12.64,55a37.28,37.28,0,1,1-24.07-46.92A37.28,37.28,0,0,1,437.72,503.1Z" transform="translate(-288.14 -285.28)"/><path class="cls-12" d="M336.55,352.31a8.45,8.45,0,1,0,12,11.9l41.54-41.92,0-.05a17.91,17.91,0,0,0,22.76-21.82l-10.09,10.19L392.87,308l-2.72-9.92,10.1-10.19a17.88,17.88,0,0,0-21.82,22.2Zm2.05,7.3a3.23,3.23,0,1,1,3.25,3.21A3.22,3.22,0,0,1,338.6,359.61Z" transform="translate(-288.14 -285.28)"/><path class="cls-13" d="M445.94,546.72" transform="translate(-288.14 -285.28)"/><path class="cls-6" d="M318.65,516.39a30.25,30.25,0,0,1,17.3,5.3,22.49,22.49,0,0,1,13.14-7.36,30.09,30.09,0,0,1-.33-4.48A30.51,30.51,0,1,1,408.9,517a31.21,31.21,0,0,1,37.53,30H288.14A30.77,30.77,0,0,1,318.65,516.39Z" transform="translate(-288.14 -285.28)"/><path class="cls-1" d="M335.93,526.76a11.87,11.87,0,0,0-1.51-4.26l3.07-1.8a15.14,15.14,0,0,1,2,5.94Z" transform="translate(-288.14 -285.28)"/><rect class="cls-1" x="41.37" y="260.01" width="81.11" height="3.55"/><rect class="cls-1" x="0.26" y="260.01" width="26.67" height="3.55"/><polygon class="cls-6" points="414.27 197.81 343.16 197.81 343.16 246.7 378.71 246.7 378.71 262.84 397.78 246.7 414.27 246.7 414.27 197.81"/><rect class="cls-1" x="378.71" y="212.7" width="24.44" height="3.55"/><rect class="cls-1" x="353.16" y="212.7" width="17.78" height="3.55"/><rect class="cls-1" x="353.16" y="228.26" width="50" height="3.55"/><polygon class="cls-10" points="463.16 181.15 526.49 181.15 526.49 224.48 495.38 224.48 495.38 239.51 477.91 224.48 463.16 224.48 463.16 181.15"/><rect class="cls-1" x="472.05" y="194.93" width="23.33" height="3.55"/><rect class="cls-1" x="502.05" y="194.93" width="15.56" height="3.55"/><rect class="cls-1" x="472.05" y="209.37" width="45.56" height="3.55"/></g></svg>