<?xml version="1.0" encoding="utf-8"?>
<!-- Generator: Adobe Illustrator 21.1.0, SVG Export Plug-In . SVG Version: 6.00 Build 0)  -->
<svg version="1.1" id="Layer_1" xmlns="http://www.w3.org/2000/svg" xmlns:xlink="http://www.w3.org/1999/xlink" x="0px" y="0px"
	 viewBox="0 0 624 348.5" style="enable-background:new 0 0 624 348.5;" xml:space="preserve">
<style type="text/css">
	.st0{fill:#231F20;}
	.st1{fill:#D1D3D4;}
	.st2{fill:#E6E7E8;}
	.st3{fill:#F1F2F2;}
	.st4{fill:#BCBEC0;}
	.st5{fill:#1A68FF;}
	.st6{fill:#E61616;}
	.st7{fill:#939598;}
	.st8{fill:#FFFFFF;}
	.st9{fill:#A7A9AC;}
	.st10{fill:#E6E7E8;stroke:#231F20;stroke-width:3;stroke-miterlimit:10;}
	.st11{fill:#E61616;stroke:#231F20;stroke-width:3;stroke-miterlimit:10;}
	.st12{fill:#1A68FF;stroke:#231F20;stroke-width:3;stroke-miterlimit:10;}
	.st13{fill:#FFFFFF;stroke:#231F20;stroke-width:3;stroke-linecap:round;stroke-linejoin:round;stroke-miterlimit:10;}
</style>
<g>
	<path class="st0" d="M115.9,283.5l-0.1-3.5c2.5-0.1,5.1-0.3,7.6-0.7l0.5,3.5C121.3,283.1,118.6,283.4,115.9,283.5L115.9,283.5z
		 M108,283.4c-2.7-0.2-5.3-0.5-7.9-0.9l0.6-3.5c2.5,0.4,5,0.7,7.5,0.9L108,283.4z M131.7,281.3l-0.9-3.5c2.5-0.6,4.9-1.3,7.3-2.2
		l1.2,3.3C136.8,279.9,134.3,280.6,131.7,281.3L131.7,281.3z M92.3,280.7c-2.6-0.7-5.1-1.5-7.5-2.5l1.3-3.3c2.4,0.9,4.8,1.7,7.2,2.4
		L92.3,280.7z M146.6,275.9l-1.5-3.2c2.3-1.1,4.5-2.3,6.7-3.6l1.9,3C151.4,273.5,149,274.8,146.6,275.9L146.6,275.9z M77.5,274.9
		c-2.4-1.2-4.7-2.5-6.9-4l1.9-3c2.1,1.4,4.3,2.7,6.6,3.8L77.5,274.9z M160.2,267.6l-2.2-2.8c2-1.5,4-3.2,5.8-4.9l2.4,2.6
		C164.3,264.3,162.3,266,160.2,267.6L160.2,267.6z M64.2,266.2c-2.1-1.7-4-3.4-5.9-5.3l2.5-2.5c1.8,1.8,3.7,3.5,5.7,5.1L64.2,266.2z
		 M171.8,256.7l-2.7-2.3c1.7-1.9,3.2-3.9,4.7-6l2.9,2C175.2,252.6,173.5,254.7,171.8,256.7z M52.9,255.1c-1.7-2-3.3-4.2-4.7-6.4l3-2
		c1.4,2.1,2.9,4.1,4.5,6.1L52.9,255.1z M180.9,243.7l-3.1-1.7c1.2-2.2,2.4-4.5,3.4-6.8l3.3,1.4C183.4,239.1,182.2,241.5,180.9,243.7
		L180.9,243.7z M44.1,241.8c-1.2-2.3-2.4-4.8-3.3-7.2l3.3-1.3c0.9,2.3,2,4.6,3.2,6.9L44.1,241.8z M187.3,229.2l-3.4-1.1
		c0.8-2.4,1.4-4.9,1.9-7.4l3.5,0.7C188.7,224.1,188.1,226.7,187.3,229.2z M38.3,227.1c-0.7-2.5-1.3-5.1-1.8-7.8l3.5-0.6
		c0.4,2.5,1,5,1.7,7.4L38.3,227.1z M190.5,213.6l-3.5-0.4c0.3-2.5,0.4-5,0.4-7.6h3.5C190.9,208.4,190.7,211,190.5,213.6L190.5,213.6
		z M35.5,211.5c-0.1-1.9-0.2-3.9-0.2-5.8v-2.2l3.6,0.1v2.1c0,1.8,0.1,3.7,0.2,5.5L35.5,211.5z M187.3,202.2
		c-0.1-2.5-0.4-5.1-0.7-7.6l3.5-0.5c0.4,2.6,0.6,5.3,0.8,7.9L187.3,202.2z M39.5,196.1l-3.5-0.5c0.3-2.6,0.8-5.2,1.4-7.8l3.5,0.8
		C40.2,191.1,39.7,193.6,39.5,196.1L39.5,196.1z M185.1,187.2c-0.6-2.5-1.4-4.9-2.3-7.2l3.3-1.2c0.9,2.5,1.7,5,2.4,7.6L185.1,187.2z
		 M42.9,181.3l-3.4-1.2c0.9-2.5,1.9-5,3-7.4l3.2,1.5C44.7,176.6,43.7,178.9,42.9,181.3L42.9,181.3z M179.8,173
		c-1.1-2.3-2.3-4.5-3.7-6.6l3-1.9c1.4,2.2,2.7,4.6,3.9,7L179.8,173z M49.3,167.6l-3-1.9c1.4-2.3,2.9-4.5,4.4-6.6l2.9,2.1
		C52,163.3,50.6,165.4,49.3,167.6L49.3,167.6z M171.7,160.2c-1.5-2-3.2-3.9-5-5.8l2.6-2.5c1.8,1.9,3.6,3.9,5.2,6L171.7,160.2z
		 M58.4,155.4l-2.6-2.4c1.8-1.9,3.7-3.8,5.7-5.6l2.4,2.7C61.9,151.8,60.1,153.6,58.4,155.4L58.4,155.4z M161.2,149.2
		c-1.9-1.6-3.9-3.2-6-4.6l2-2.9c2.2,1.5,4.3,3.1,6.3,4.9L161.2,149.2z M69.7,145.4l-2.1-2.9c2.1-1.5,4.4-3,6.7-4.3l1.8,3.1
		C73.9,142.5,71.8,143.9,69.7,145.4L69.7,145.4z M148.7,140.6c-2.2-1.2-4.5-2.3-6.8-3.3l1.4-3.3c2.4,1,4.8,2.2,7.2,3.5L148.7,140.6z
		 M82.9,137.8l-1.5-3.3c2.4-1.1,4.9-2,7.5-2.9l1.1,3.4C87.6,135.9,85.2,136.8,82.9,137.8z M134.9,134.7c-2.4-0.7-4.9-1.4-7.4-1.8
		l0.7-3.5c2.6,0.5,5.2,1.2,7.7,1.9L134.9,134.7z M97.3,133.2l-0.8-3.5c2.6-0.6,5.2-1,7.9-1.3l0.4,3.5
		C102.3,132.2,99.8,132.6,97.3,133.2L97.3,133.2z M119.9,131.7c-2.3-0.2-4.6-0.3-6.9-0.3h-0.7v-3.6h0.7c2.4,0,4.8,0.1,7.2,0.3
		L119.9,131.7z"/>
</g>
<g>
	<path class="st1" d="M250.9,293.4h63.3v42.2h-63.3L250.9,293.4z"/>
	<path class="st2" d="M428.7,112.3c0-8.8-6.5-16.7-15.7-16.7H151.3c-9.2,0-17.1,7.9-17.1,16.7v131.1h294.4V112.3z"/>
	<path class="st3" d="M134.3,243.4v35c0,8.8,7.9,15,17.1,15H413c9.2,0,15.7-6.2,15.7-15v-35H134.3z"/>
	<path class="st0" d="M413,295.1H151.3c-10.6,0-18.9-7.3-18.9-16.7v-35c0-1,0.8-1.8,1.8-1.8h0h294.4c1,0,1.8,0.8,1.8,1.8v0v35
		C430.5,288.1,423.1,295.1,413,295.1z M136,245.1v33.3c0,7.4,6.7,13.2,15.3,13.2H413c8.2,0,13.9-5.4,13.9-13.2v-33.3H136z"/>
	<path class="st4" d="M292.5,268.5c0,5.7-4.6,10.3-10.3,10.3c-5.7,0-10.3-4.6-10.3-10.3c0-5.7,4.6-10.3,10.3-10.3
		S292.5,262.8,292.5,268.5C292.5,268.5,292.5,268.5,292.5,268.5z"/>
	<path class="st3" d="M238.7,335.6h85.6v11.1h-85.6L238.7,335.6z"/>
	<path class="st5" d="M153.2,113.4h257.8v130H153.2V113.4z"/>
	<path class="st0" d="M410.9,245.1H153.2c-1,0-1.8-0.8-1.8-1.8l0,0v-130c0-1,0.8-1.8,1.8-1.8h257.8c1,0,1.8,0.8,1.8,1.8v130
		C412.7,244.3,411.9,245.1,410.9,245.1L410.9,245.1z M154.9,241.6h254.2V115.1H154.9L154.9,241.6z"/>
	<g>
		<path class="st0" d="M326,335.6L326,335.6c0-1-0.8-1.8-1.8-1.8h-85.6c-1,0-1.8,0.8-1.8,1.8v9.3h-26v3.5h27.8c0,0,0,0,0,0h85.6
			c0,0,0,0,0,0h22.2v-3.5H326V335.6z M240.5,337.4h82v7.5h-82V337.4z"/>
		<rect x="357.6" y="344.9" class="st0" width="16.7" height="3.5"/>
	</g>
</g>
<g>
	<path class="st5" d="M482.5,112.6c0,21.7,17.6,39.3,39.4,39.3c21.7,0,39.3-17.6,39.3-39.4c0-21.7-17.6-39.4-39.4-39.3c0,0,0,0,0,0
		C500.1,73.3,482.5,90.9,482.5,112.6z"/>
	<path class="st0" d="M502.4,57.8l-1.1-3.4c1.3-0.4,2.5-0.8,3.8-1.2l0.9,3.4C504.9,57,503.6,57.4,502.4,57.8z M552.7,166.5l-1.8-3
		c2.2-1.3,4.3-2.7,6.3-4.3l2.2,2.8C557.2,163.6,555,165.1,552.7,166.5z M565.3,156.5l-2.5-2.5c1.8-1.8,3.5-3.7,5-5.8l2.8,2.1
		C569.1,152.6,567.3,154.6,565.3,156.5L565.3,156.5z M575.1,143.7l-3.1-1.8c1.3-2.2,2.4-4.5,3.3-6.9l3.3,1.3
		C577.6,138.9,576.4,141.3,575.1,143.7L575.1,143.7z M581.1,128.7l-3.5-0.9c0.6-2.5,1.1-5,1.4-7.5l3.5,0.4
		C582.3,123.5,581.8,126.1,581.1,128.7L581.1,128.7z M579.6,112.7c0-2.5-0.2-5.1-0.5-7.6l3.5-0.5c0.4,2.7,0.6,5.4,0.6,8L579.6,112.7
		z M577.5,97.7c-0.7-2.4-1.5-4.8-2.5-7.2l3.3-1.4c1,2.5,1.9,5,2.6,7.6L577.5,97.7z M571.6,83.7c-1.3-2.2-2.7-4.3-4.3-6.3l2.8-2.2
		c1.7,2.1,3.2,4.4,4.5,6.7L571.6,83.7z M562.3,71.7c-1.8-1.8-3.7-3.5-5.7-5l2.2-2.8c2.1,1.6,4.2,3.4,6.1,5.3L562.3,71.7z
		 M550.2,62.5c-2.2-1.3-4.5-2.4-6.8-3.4l1.3-3.3c2.5,1,4.9,2.2,7.3,3.6L550.2,62.5z M536.2,56.7c-2.5-0.6-5-1.1-7.5-1.5l0.5-3.5
		c2.7,0.3,5.3,0.9,7.9,1.6L536.2,56.7z M513.6,55.3l-0.5-3.5c2.7-0.4,5.4-0.5,8.1-0.5v3.5C518.6,54.7,516.1,54.9,513.6,55.3
		L513.6,55.3z M541.6,171.6l-1.2-3.4c1.2-0.4,2.4-0.9,3.5-1.4l1.4,3.3C544.1,170.7,542.9,171.2,541.6,171.6L541.6,171.6z"/>
	<path class="st0" d="M527.6,174c-0.4,0-0.8-0.1-1.1-0.4l-16-12.3c-23-5.1-39.1-25.2-39.1-49.2c-0.4-27.7,21.8-50.5,49.5-50.9
		c27.7-0.4,50.5,21.8,50.9,49.5c0,0.5,0,0.9,0,1.4c0.2,24.8-17.9,45.9-42.4,49.7v10.4c0,0.7-0.4,1.3-1,1.6
		C528.1,174,527.9,174,527.6,174L527.6,174z M521.8,65.5c-25.8,0-46.8,21-46.8,46.8c0,22.4,15.1,41.2,36.7,45.8
		c0.3,0.1,0.5,0.2,0.7,0.3l13.5,10.3v-8.3c0-0.9,0.7-1.6,1.5-1.8c25.6-3.2,43.8-26.6,40.5-52.3C565,83.1,545.3,65.6,521.8,65.5
		L521.8,65.5z"/>
	<g>
		<path class="st0" d="M526.5,100.5h-8.9c-1,0-1.8,0.8-1.8,1.8v35.5c0,0,0,0,0,0c0,1,0.8,1.8,1.8,1.8h8.9c1,0,1.8-0.8,1.8-1.8v-35.5
			C528.3,101.3,527.5,100.5,526.5,100.5z M524.7,136h-5.3v-32h5.3V136z"/>
		<path class="st0" d="M522,81.9c-4.3,0-7.8,3.5-7.8,7.8c0,4.3,3.5,7.8,7.8,7.8c4.3,0,7.8-3.5,7.8-7.8v0
			C529.8,85.4,526.3,81.9,522,81.9z M526.2,89.8c0,2.3-1.9,4.2-4.3,4.2c-2.3,0-4.2-1.9-4.2-4.3c0-2.3,1.9-4.2,4.3-4.2v0c0,0,0,0,0,0
			C524.4,85.5,526.2,87.4,526.2,89.8C526.2,89.8,526.2,89.8,526.2,89.8z"/>
	</g>
</g>
<g>
	<path class="st6" d="M453.8,251.1l10.1-8.2l41.8-34.1h-102L444,243L453.8,251.1z"/>
	<path class="st3" d="M404.3,208.7v66.1l40.3-31.9L404.3,208.7z"/>
	<path class="st0" d="M404.3,276.5c-0.3,0-0.5-0.1-0.8-0.2c-0.6-0.3-1-0.9-1-1.6v-66.1c0-1,0.8-1.8,1.8-1.8c0.4,0,0.8,0.1,1.2,0.4
		l40.3,34.2c0.4,0.3,0.6,0.9,0.6,1.4c0,0.5-0.3,1-0.7,1.4l-40.3,31.9C405.1,276.4,404.7,276.5,404.3,276.5L404.3,276.5z M406,212.5
		v58.6l35.7-28.3L406,212.5z"/>
	<path class="st3" d="M463.6,242.8l41.8,31.9v-66.1L463.6,242.8z"/>
	<path class="st0" d="M505.4,276.5c-0.4,0-0.8-0.1-1.1-0.4l-41.8-31.9c-0.4-0.3-0.7-0.8-0.7-1.4c0-0.5,0.2-1.1,0.7-1.4l41.8-34.2
		c0.5-0.4,1.3-0.5,1.9-0.2c0.6,0.3,1,0.9,1,1.6v66.1c0,0.7-0.4,1.3-1,1.6C505.9,276.4,505.6,276.5,505.4,276.5L505.4,276.5z
		 M466.5,242.8l37.1,28.3v-58.7L466.5,242.8z"/>
	<path class="st3" d="M453.8,251.1l-9.8-8.4l-40.3,31.8h102l-41.8-31.8L453.8,251.1L453.8,251.1z"/>
	<path class="st0" d="M505.7,276.3h-102c-1,0-1.8-0.8-1.8-1.8c0-0.5,0.3-1.1,0.7-1.4l40.3-31.8c0.7-0.5,1.6-0.5,2.3,0l8.6,7.5l9-7.5
		c0.7-0.5,1.6-0.5,2.2,0l41.8,31.8c0.8,0.6,0.9,1.7,0.3,2.5C506.7,276,506.2,276.2,505.7,276.3L505.7,276.3z M408.9,272.7h91.6
		L464,245l-9.1,7.5c-0.7,0.6-1.6,0.6-2.3,0l-8.7-7.5L408.9,272.7z"/>
</g>
<path class="st0" d="M228.7,166h8.9v3.6h-8.9V166z"/>
<g>
	<g>
		<path class="st3" d="M198.1,102.3h0.6v-6.9c0-5.1,4.1-9.8,9.2-9.8h46.2c5.1,0,9.1,4.6,9.1,9.8v14.3c-0.1,4.1-2.8,7.7-6.7,9v36.1
			c-0.1,7.2-5.9,13-13.1,13.1h-5.8V180h-21.1v-12.2H211c-7.1,0-13.4-5.9-13.4-13.1v-24.4c-2.5-0.2-4.4-2.2-4.4-4.7v-18.4
			C193.1,104.5,195.3,102.3,198.1,102.3L198.1,102.3z"/>
		<path class="st4" d="M187.6,241.1v-50c0.2-6,5.1-10.9,11.1-11.1h58.9c6,0.2,10.9,5,11,11.1v50"/>
	</g>
	<path class="st3" d="M227.2,209.7l10.4-29.6h-20.9L227.2,209.7z"/>
	<path class="st0" d="M227.2,211.5c-0.8,0-1.4-0.5-1.7-1.2L215,180.6c-0.2-0.5-0.1-1.1,0.2-1.6c0.3-0.5,0.9-0.8,1.5-0.8h20.9
		c1,0,1.8,0.8,1.8,1.8c0,0.2,0,0.4-0.1,0.6l-10.4,29.6C228.6,211,227.9,211.5,227.2,211.5z M219.2,181.8l8,22.5l7.9-22.5H219.2z"/>
	<g>
		<path class="st0" d="M254.2,83.8H208c-6,0-11,5.3-11,11.5v5.2c-3.2,0.6-5.5,3.4-5.6,6.7v18.4c0,2.8,1.8,5.2,4.4,6.2v22.9
			c0.2,8.2,6.9,14.8,15.1,14.9h3.8V180c0,1,0.8,1.8,1.8,1.8h21.1c0,0,0.1,0,0.1,0c1,0,1.8-0.8,1.8-1.8v-10.5h4
			c8.2-0.1,14.8-6.7,14.9-14.8v-34.9c4-1.9,6.6-5.8,6.7-10.2V95.3C265,89.1,260,83.8,254.2,83.8z M261.4,109.6
			c-0.1,3.3-2.3,6.2-5.4,7.3c-0.2,0-0.3,0.1-0.4,0.2h-44.6v3.5h43.8v34c-0.1,6.2-5.1,11.2-11.3,11.3h-5.8c-1,0-1.8,0.8-1.8,1.8v10.5
			h-17.6v-10.5c0-1-0.8-1.8-1.8-1.8H211c-6.2,0-11.6-5.3-11.6-11.3v-24.3c0-1-0.8-1.8-1.8-1.8c-1.5-0.1-2.7-1.4-2.7-2.9v-18.4
			c0-1.7,1.4-3.2,3.1-3.2h0.6c1,0,1.8-0.8,1.8-1.8v-6.9c0-4.4,3.4-8,7.4-8h46.2c3.9,0,7.3,3.7,7.3,8V109.6z"/>
		<rect x="225.4" y="229.4" class="st0" width="3.3" height="3.6"/>
		<rect x="225.4" y="218.3" class="st0" width="3.3" height="3.5"/>
	</g>
	<path class="st0" d="M239.9,147.4h-4.4v-3.6h2.7v-10.4h3.5v12.2C241.6,146.6,240.8,147.4,239.9,147.4L239.9,147.4L239.9,147.4z"/>
	<path class="st0" d="M203.6,211.1h3.6v30h-3.6V211.1z M250.3,211.1h3.6v30h-3.6V211.1z"/>
	<path class="st7" d="M236.5,154.5h8.9c1.2,0,2.2,1,2.2,2.2v1.1c0,1.2-1,2.2-2.2,2.2h-8.9c-1.2,0-2.2-1-2.2-2.2v-1.1
		C234.3,155.5,235.3,154.5,236.5,154.5z"/>
	<path class="st7" d="M204.4,135.3c0,2.4,1.9,4.3,4.3,4.3s4.3-1.9,4.3-4.3c0-2.4-1.9-4.3-4.3-4.3c0,0,0,0,0,0
		C206.3,131,204.4,132.9,204.4,135.3z"/>
	<path class="st0" d="M245.4,152.7h-8.9c-2,0-3.6,1.4-3.9,3.3h-19.7c-0.5,0-0.9-0.2-1.3-0.5c-1-1-1.1-3.3-1.1-4.1v-10.3
		c2.4-0.8,4.2-3.1,4.2-5.8c0,0,0,0,0,0c0-3.4-2.7-6.1-6.1-6.1c-3.4,0-6.1,2.7-6.1,6.1c0,2.8,1.9,5.1,4.4,5.8v10.2
		c-0.1,0.4-0.2,4.4,2,6.7c1,1.1,2.4,1.6,3.9,1.6h20.1c0.7,1.3,2,2.2,3.6,2.2h8.9c2.2,0,4-1.8,4-4v-1.1
		C249.4,154.5,247.6,152.7,245.4,152.7z M206.1,135.3c0-1.4,1.2-2.5,2.6-2.5c0,0,0,0,0,0c1.4,0,2.5,1.1,2.5,2.5c0,0,0,0,0,0
		c0,1.4-1.1,2.5-2.5,2.5C207.3,137.8,206.1,136.7,206.1,135.3z M245.4,158.3h-8.9c-0.2,0-0.4-0.2-0.4-0.5v-1.1
		c0-0.2,0.2-0.4,0.4-0.4l8.9,0c0.2,0,0.4,0.2,0.4,0.4v1.1c0,0,0,0,0,0C245.8,158.1,245.6,158.3,245.4,158.3z"/>
</g>
<path class="st3" d="M378.7,82.3h6.7"/>
<path class="st3" d="M378.7,202.3h6.7"/>
<path class="st0" d="M378.7,200.5h6.7v3.6h-6.7V200.5z"/>
<path class="st3" d="M298.7,87.8h14.5"/>
<path class="st3" d="M298.7,97.8h66.7"/>
<path class="st3" d="M298.7,110h27.8"/>
<path class="st3" d="M298.7,121.2h66.7"/>
<path class="st3" d="M335.4,110h6.7"/>
<path class="st3" d="M405.4,171.1h27.8"/>
<path class="st3" d="M440.9,171.1h6.7"/>
<path class="st3" d="M472,195.6h-26.7"/>
<path class="st3" d="M472,183.4h-66.7"/>
<path class="st3" d="M435.4,195.6h-5.6"/>
<path class="st3" d="M298.7,163.4h18.9"/>
<path class="st3" d="M325.4,163.4h38.9"/>
<path class="st3" d="M298.7,174.5h47.8"/>
<path class="st3" d="M298.7,216.7h18.9"/>
<path class="st3" d="M325.4,216.7h38.9"/>
<path class="st3" d="M298.7,227.8h47.8"/>
<g>
	<path class="st8" d="M385.4,70.6c-0.7-0.3-1.5-0.4-2.3-0.5h-88.9c-4.7-0.1-8.6,3.6-8.8,8.3v165h93.3v-165
		C378.7,74.7,381.6,71.5,385.4,70.6L385.4,70.6z"/>
	<path class="st0" d="M378.7,245.1h-93.3c-1,0-1.8-0.8-1.8-1.8v0v-165c0-5.5,4.8-10.1,10.6-10.1h88.9c0.7,0,1.4,0.2,2.1,0.4l0.6,0.2
		c1,0.2,1.5,1.2,1.3,2.1c-0.2,0.6-0.7,1.2-1.3,1.3c-3,0.7-5.3,3.4-5.3,6.1v165C380.5,244.4,379.7,245.1,378.7,245.1
		C378.7,245.1,378.7,245.1,378.7,245.1z M287.2,241.6h89.8V78.4c0-2.5,1-4.8,2.8-6.6h-85.5c-3.7-0.1-6.8,2.8-7,6.6L287.2,241.6z"/>
	<path class="st1" d="M385.4,70.8c-3.8,0.9-6.7,4-6.7,7.6v127.8c0,3.6,2.9,6.6,6.7,7.6c3.8-0.9,6.7-3.9,6.7-7.6V78.4
		C392,74.7,389.2,71.7,385.4,70.8z"/>
	<path class="st0" d="M385.4,215.5c-0.1,0-0.3,0-0.4,0c-4.7-1.1-8-5-8-9.3V78.4c0-4.3,3.3-8.1,8-9.3c0.3-0.1,0.6-0.1,0.8,0
		c4.7,1.1,8,5,8,9.3v127.8c0,4.3-3.3,8.1-8,9.3C385.7,215.5,385.5,215.5,385.4,215.5L385.4,215.5z M385.4,72.7
		c-2.9,0.9-4.9,3.2-4.9,5.7v127.8c0,2.6,2,4.9,4.9,5.7c2.9-0.9,4.9-3.2,4.9-5.7V78.4C390.3,75.8,388.3,73.5,385.4,72.7z"/>
	<path class="st0" d="M378.7,80.5h6.7V84h-6.7V80.5z"/>
	<path class="st0" d="M298.7,86h14.4v3.6h-14.4V86z"/>
	<path class="st0" d="M298.7,96h66.7v3.6h-66.7L298.7,96z"/>
	<path class="st0" d="M298.7,108.3h27.8v3.6h-27.8V108.3z"/>
	<path class="st0" d="M298.7,119.4h66.7v3.6h-66.7L298.7,119.4z"/>
	<path class="st0" d="M335.4,108.3h6.7v3.6h-6.7V108.3z"/>
	<path class="st1" d="M298.7,133.4h66.7v21.1h-66.7L298.7,133.4z"/>
	<path class="st0" d="M298.7,161.6h18.9v3.6h-18.9L298.7,161.6z"/>
	<path class="st0" d="M325.4,161.6h38.9v3.6h-38.9V161.6z"/>
	<path class="st0" d="M298.7,172.7h47.8v3.6h-47.8V172.7z"/>
	<path class="st1" d="M298.7,186.7h66.7v21.1h-66.7L298.7,186.7z"/>
	<path class="st0" d="M298.7,214.9h18.9v3.6h-18.9L298.7,214.9z"/>
	<path class="st0" d="M325.4,214.9h38.9v3.6h-38.9V214.9z"/>
	<path class="st0" d="M298.7,226h47.8v3.6h-47.8V226z"/>
</g>
<path class="st3" d="M405.4,98.9h18.9"/>
<path class="st3" d="M432,98.9h38.9"/>
<path class="st3" d="M405.4,110h47.8"/>
<g>
	<path class="st8" d="M385.5,214c0.8,0.3,1.6,0.4,2.4,0.5h88.9c4.7,0.1,8.5-3.6,8.6-8.3V57.8H392v148.4
		C391.9,210,389.2,213.2,385.5,214L385.5,214z"/>
	<path class="st0" d="M476.8,216.3h-88.9c-0.8,0-1.5-0.2-2.3-0.4l-0.5-0.1c-1-0.2-1.5-1.2-1.3-2.1c0.2-0.7,0.7-1.2,1.3-1.3
		c2.9-0.6,5-3.1,5.2-6V57.8c0-1,0.8-1.8,1.8-1.8c0,0,0,0,0,0h93.3c1,0,1.8,0.8,1.8,1.8v148.4C487.1,211.8,482.4,216.3,476.8,216.3
		L476.8,216.3z M391.1,212.7h85.7c3.7,0.1,6.7-2.8,6.8-6.5V59.6h-89.7v146.6C393.8,208.6,392.8,211,391.1,212.7L391.1,212.7z"/>
	<path class="st0" d="M405.4,169.4h27.8v3.6h-27.8V169.4z"/>
	<path class="st0" d="M440.9,169.4h6.7v3.6h-6.7V169.4z"/>
	<path class="st0" d="M445.4,193.8h26.7v3.6h-26.7V193.8z"/>
	<path class="st0" d="M405.4,181.6H472v3.6h-66.7V181.6z"/>
	<path class="st0" d="M429.8,193.8h5.6v3.6h-5.6V193.8z"/>
	<path class="st1" d="M405.4,68.9H472V90h-66.7V68.9z"/>
	<path class="st0" d="M405.4,97.2h18.9v3.6h-18.9V97.2z"/>
	<path class="st0" d="M432,97.2h38.9v3.6H432V97.2z"/>
	<path class="st0" d="M405.4,108.3h47.8v3.6h-47.8V108.3z"/>
	<path class="st1" d="M405.4,121.2H472v36.7h-66.7V121.2z"/>
</g>
<g>
	<path class="st9" d="M89.8,67.8h86.7v55.6h-42.2V142l-26.5-18.7H89.8V67.8z"/>
	<path class="st0" d="M96.5,82.7h34.4v3.6H96.5V82.7z M144.3,82.7h25.6v3.6h-25.6V82.7z M96.5,94.9h73.3v3.6H96.5V94.9z M96.5,106
		h73.3v3.6H96.5V106z"/>
</g>
<path class="st10" d="M568.2,302.7l3.1,3.1c4.7,4.7,3.4,8.7,1.3,10.8l-9.3,9.3c-2.1,2.1-6,3.2-10.7-1.4l-11.4-11.4
	c0,0,1.7-15.2,26.6-40.1s39.1-25.6,39.1-25.6l11.4,11.4c2.4,2.4,6.2,6,2,10.1l-9.3,9.3c-4.2,4.2-8.9,1.7-11.3-0.8l-3.1-3.1
	c0,0-4.1-3.2-17.3,10S568.2,302.7,568.2,302.7z"/>
<path class="st0" d="M77.6,109.6h-7.7V106h7.8L77.6,109.6z M62,109.6h-7.8V106H62V109.6z M46.5,109.6h-7.8V106h7.8V109.6z"/>
<g>
	<path class="st0" d="M78.9,298.7l-2.3-2.7l-10.3,8.9c-0.4,0.3-0.6,0.8-0.6,1.3c0,0.5,0.2,1,0.6,1.3l10.3,9.1l2.4-2.7l-5.1-4.5h45.5
		V306H70.4L78.9,298.7z"/>
	<rect x="127.1" y="306" class="st0" width="14.4" height="3.5"/>
</g>
<path class="st11" d="M162.2,162.8c-3.2-3.5-7.8-4.4-10.3-2.2s-5.9,3.2-7.5,2.1s-5.2-6.4-4.2-9.6s-1.8-7.1-6.2-8.5s-9,0-10.1,3.3
	s-3.5,5.8-5.5,5.6s-7.7-2.9-8.4-6.3s-5.1-5.3-9.7-4.3s-7.8,4.6-7.1,7.9s-0.1,6.7-1.9,7.6s-8.1,1.3-10.4-1.2s-7-2-10.5,1.1
	s-4.5,7.8-2.2,10.4s3.3,5.9,2.1,7.5s-6.4,5.2-9.6,4.2s-7.1,1.8-8.5,6.2s0,9,3.3,10s5.8,3.5,5.6,5.5s-2.9,7.7-6.3,8.4
	s-5.3,5.1-4.3,9.7s4.5,7.8,7.9,7s6.7,0.1,7.6,1.9s1.3,8.1-1.2,10.4s-2,7,1.1,10.5s7.8,4.5,10.3,2.2s5.9-3.2,7.5-2.1s5.3,6.4,4.2,9.6
	s1.8,7.1,6.2,8.5s9,0,10-3.3s3.5-5.8,5.5-5.6s7.7,2.9,8.4,6.3s5.1,5.3,9.7,4.3c4.6-1,7.8-4.5,7-7.9s0.1-6.8,1.9-7.6
	s8.1-1.4,10.4,1.2c2.3,2.6,7,2,10.5-1.1s4.4-7.8,2.2-10.4s-1.2-8.8-0.2-10.5s4.4-2.2,7.7-1.2s7.1-1.8,8.5-6.2s-0.1-9-3.3-10.1
	s-5.8-3.5-5.6-5.5s2.9-7.7,6.2-8.4s5.3-5.1,4.3-9.7s-4.5-7.8-7.9-7.1s-6.8-0.1-7.6-1.9s-1.3-8.1,1.2-10.4S165.4,166.3,162.2,162.8
	L162.2,162.8z M149.6,217.8c-6.3,19.6-27.3,30.4-46.9,24.1s-30.4-27.3-24.1-46.9c6.3-19.6,27.3-30.4,46.9-24.1
	C145.1,177.2,155.9,198.2,149.6,217.8C149.6,217.8,149.6,217.8,149.6,217.8z"/>
<path class="st12" d="M48.4,67c-3.3,3.3-3.3,8.7,0,12s8.7,3.3,12-0.1l0,0L101.9,37v0c9.4,3,19.5-2.1,22.5-11.5
	c1.1-3.3,1.1-6.9,0.2-10.3l-10.1,10.2l-9.9-2.6l-2.7-9.9l10.1-10.2c-9.5-2.6-19.3,3.1-21.9,12.6c-0.8,3.1-0.8,6.4,0.1,9.6L48.4,67z
	 M50.5,74.3c0-1.8,1.4-3.2,3.2-3.2c1.8,0,3.2,1.4,3.2,3.2c0,1.8-1.4,3.2-3.2,3.2C51.9,77.6,50.5,76.1,50.5,74.3
	C50.5,74.3,50.5,74.3,50.5,74.3z"/>
<g>
	<path class="st4" d="M30.5,231.1c6.2,0,12.2,1.8,17.3,5.3c3.4-3.9,8-6.5,13.1-7.4c-0.2-1.5-0.3-3-0.3-4.5
		C60.6,207.7,74.2,194,91,193.9s30.6,13.5,30.6,30.4c0,2.5-0.3,5-0.9,7.4c16.9-3.5,33.4,7.4,36.9,24.2c0.4,1.9,0.6,3.8,0.6,5.8H0
		C0.1,244.9,13.7,231.3,30.5,231.1L30.5,231.1z"/>
	<path class="st0" d="M47.8,241.5c-0.2-1.5-0.7-2.9-1.5-4.3l3.1-1.8c1.1,1.8,1.8,3.8,2,5.9L47.8,241.5z"/>
	<path class="st0" d="M41.4,260h81.1v3.5H41.4V260z M0.3,260h26.7v3.5H0.3V260z"/>
</g>
<g>
	<path class="st4" d="M414.3,197.8h-71.1v48.9h35.5v16.1l19.1-16.1h16.5L414.3,197.8L414.3,197.8z"/>
	<path class="st0" d="M378.7,212.7h24.4v3.6h-24.4V212.7z M353.2,212.7h17.8v3.6h-17.8V212.7z M353.2,228.3h50v3.6h-50V228.3z"/>
</g>
<g>
	<path class="st9" d="M463.2,181.1h63.3v43.3h-31.1v15l-17.5-15h-14.8V181.1z"/>
	<path class="st0" d="M472,194.9h23.3v3.6H472V194.9z M502,194.9h15.6v3.6H502V194.9z M472,209.4h45.6v3.6H472V209.4z"/>
</g>
<g>
	<g>
		<path class="st6" d="M286,91.3c-16,0-29.1-13.1-29.1-29.1S270,33.1,286,33.1s29.1,13.1,29.1,29.1S302.1,91.3,286,91.3z"/>
		<path class="st0" d="M286,34.6c15.2,0,27.6,12.4,27.6,27.6S301.3,89.8,286,89.8s-27.6-12.4-27.6-27.6S270.8,34.6,286,34.6
			 M286,31.6c-16.9,0-30.6,13.7-30.6,30.6s13.7,30.6,30.6,30.6s30.6-13.7,30.6-30.6S302.9,31.6,286,31.6L286,31.6z"/>
	</g>
	<g>
		<path class="st13" d="M291.2,71.4L291.2,71.4c3-2,5.1-5.4,5.1-8V51.2c0,0,0.2-10.2-10-10.2s-10,10.2-10,10.2v12.2
			c0,2.6,2.3,6,5.2,8h0.2c-0.3,1.9-1.6,3.5-3.3,4.3c-2.6,1.1-8,3.7-11.4,7c11.8,11.8,29.1,9.8,38.6-0.5c-3.4-3.1-8.5-5.5-10.9-6.6
			C292.8,74.9,291.6,73.3,291.2,71.4L291.2,71.4z"/>
	</g>
</g>
<g>
	<g>
		<path class="st5" d="M433.2,325.1c-16,0-29.1-13.1-29.1-29.1s13.1-29.1,29.1-29.1s29.1,13.1,29.1,29.1S449.2,325.1,433.2,325.1z"
			/>
		<path class="st0" d="M433.2,268.4c15.2,0,27.6,12.4,27.6,27.6s-12.4,27.6-27.6,27.6s-27.6-12.4-27.6-27.6S417.9,268.4,433.2,268.4
			 M433.2,265.4c-16.9,0-30.6,13.7-30.6,30.6s13.7,30.6,30.6,30.6s30.6-13.7,30.6-30.6S450.1,265.4,433.2,265.4L433.2,265.4z"/>
	</g>
	<g>
		<path class="st13" d="M438.4,305.2L438.4,305.2c3-2,5.1-5.4,5.1-8V285c0,0,0.2-10.2-10-10.2s-10,10.2-10,10.2v12.2
			c0,2.6,2.3,6,5.2,8h0.2c-0.3,1.9-1.6,3.5-3.3,4.3c-2.6,1.1-8,3.7-11.4,7c11.8,11.8,29.1,9.8,38.6-0.5c-3.4-3.1-8.5-5.5-10.9-6.6
			C440,308.7,438.7,307.1,438.4,305.2L438.4,305.2z"/>
	</g>
</g>
<g>
	<rect x="548.7" y="268.3" class="st0" width="7.8" height="3.5"/>
	<rect x="533.2" y="268.3" class="st0" width="7.8" height="3.5"/>
	<rect x="517.6" y="268.3" class="st0" width="7.8" height="3.5"/>
</g>
<g>
	<path class="st0" d="M546.5,208.3h16.7v3.6h-16.7V208.3z"/>
	<path class="st0" d="M622.2,208.1l-9.2-8.1l-2.4,2.7l6.3,5.5h-47.1v3.5h45.8l-4.9,4.2l2.3,2.7l9.2-7.9c0.4-0.3,0.6-0.8,0.6-1.3
		C622.8,209,622.6,208.5,622.2,208.1z"/>
</g>
<g>
	<path class="st0" d="M595.4,188.3h-39.6l6.2-5.4l-2.3-2.7l-9.2,7.9c-0.1,0-0.1,0.1-0.2,0.2c-0.7,0.7-0.6,1.9,0.2,2.5l9.2,8.1
		l2.3-2.7l-5-4.4h38.3V188.3z"/>
	<rect x="603.2" y="188.3" class="st0" width="12.2" height="3.6"/>
</g>
<g>
	<path class="st0" d="M146.9,327.6l-10.3-9.1l-2.4,2.7l8.1,7.2H86.1v3.5h53.6l-5.4,4.7l2.3,2.7l10.3-8.9c0.4-0.3,0.6-0.8,0.6-1.3
		C147.5,328.4,147.3,327.9,146.9,327.6z"/>
	<rect x="58.3" y="328.3" class="st0" width="20" height="3.5"/>
</g>
<g>
	<g>
		<path class="st4" d="M199.9,318c-16,0-29.1-13.1-29.1-29.1s13.1-29.1,29.1-29.1s29.1,13.1,29.1,29.1S215.9,318,199.9,318z"/>
		<path class="st0" d="M199.9,261.3c15.2,0,27.6,12.4,27.6,27.6c0,15.2-12.4,27.6-27.6,27.6s-27.6-12.4-27.6-27.6
			C172.3,273.7,184.7,261.3,199.9,261.3 M199.9,258.3c-16.9,0-30.6,13.7-30.6,30.6s13.7,30.6,30.6,30.6s30.6-13.7,30.6-30.6
			S216.8,258.3,199.9,258.3L199.9,258.3z"/>
	</g>
	<g>
		<path class="st13" d="M205.1,298.1L205.1,298.1c3-2,5.1-5.4,5.1-8v-12.2c0,0,0.2-10.2-10-10.2s-10,10.2-10,10.2v12.2
			c0,2.6,2.3,6,5.2,8h0.2c-0.3,1.9-1.6,3.5-3.3,4.3c-2.6,1.1-8,3.7-11.4,7c11.8,11.8,29.1,9.8,38.6-0.5c-3.4-3.1-8.5-5.5-10.9-6.6
			C206.7,301.6,205.4,300,205.1,298.1L205.1,298.1z"/>
	</g>
</g>
</svg>
