<svg xmlns="http://www.w3.org/2000/svg" viewBox="0 0 199 61.456"><path d="M36.414 36.516a.665.665 0 0 1-.5.745c-1.9.745-3.89 1.49-5.793 2.235-.662.248-.91-.166-1.076-.662a174.638 174.638 0 0 1-2.152-6.042 1.031 1.031 0 0 0-1.159-.828H12a1.022 1.022 0 0 0-1.159.745c-.662 1.986-1.49 3.973-2.152 5.959-.248.745-.579.993-1.407.662-1.738-.745-3.476-1.407-5.214-2.069-.745-.248-.91-.662-.662-1.324a12743.14 12743.14 0 0 1 11.421-31.2c.745-1.9 1.738-3.724 3.89-4.386 3.145-.91 5.876-.083 7.448 2.979a46.329 46.329 0 0 1 2.152 5.628l9.684 26.564a6.465 6.465 0 0 1 .413.994zM19.035 9.784h-.248c-1.658 5.048-3.394 10.097-5.049 15.228h10.345c-1.654-5.131-3.393-10.18-5.048-15.228zm0 41.301H36.5c1.324 0 1.324 0 1.324 1.324v5.545c0 .745-.248.993-.993.993H.91c-.745 0-.91-.248-.91-.91 0-1.986.083-3.89 0-5.876 0-.91.331-1.159 1.159-1.076zm93.437-13.411v3.973c0 .5-.166.662-.662.662-.91-.083-2.069.248-2.731-.166-.579-.414-.166-1.655-.166-2.566v-1.985a7.525 7.525 0 0 1-2.979.5 4.239 4.239 0 0 1-4.138-2.731 10.434 10.434 0 0 1-.083-8.193c.993-2.4 3.724-3.476 6.621-2.814a2.105 2.105 0 0 1 .579.166v-4.8c0-.579.083-.91.828-.828.91.083 2.069-.331 2.566.166.579.5.166 1.655.166 2.566v2.814a7.737 7.737 0 0 1 2.731-.331 4.854 4.854 0 0 1 4.883 4.3 10.893 10.893 0 0 1-.248 5.876 4.85 4.85 0 0 1-6.46 3.391c-.245.166-.493.083-.907 0zm-3.559-6.29V28.24c0-.331 0-.579-.331-.745a2.519 2.519 0 0 0-3.641 1.49 7.712 7.712 0 0 0-.166 3.641c.331 2.069 1.407 2.9 3.476 2.483.5-.083.828-.248.745-.91a16 16 0 0 1-.083-2.814zm3.559-.248v3.145a.644.644 0 0 0 .5.745 2.528 2.528 0 0 0 3.393-1.655 7.22 7.22 0 0 0 .166-3.973q-.621-2.855-3.476-1.986c-.414.166-.662.331-.662.828.079.91.079 1.903.079 2.896zm33.85-2.731v-7.94c0-.579.166-.828.745-.91a24.145 24.145 0 0 1 9.435-.166c.579.083.828.248.745.91-.166 1.986-.166 1.986-2.152 1.821a35.909 35.909 0 0 0-4.221 0c-.662.083-.828.331-.828.91a15.965 15.965 0 0 1 0 2.814c-.083.828.166 1.076.993.91a7.112 7.112 0 0 1 3.724.083 4.953 4.953 0 0 1 3.973 4.717c.248 4.3-2.069 6.786-6.373 6.786a19.044 19.044 0 0 1-5.3-.745.949.949 0 0 1-.828-1.076c.083-1.324 0-2.731 0-4.055.087-1.41.087-2.735.087-4.059zm5.545 6.952c2.069 0 3.145-.993 3.228-2.9 0-1.9-.993-2.814-3.145-2.814-.331 0-.745.083-1.076.083-.579 0-.828.248-.828.91.083 1.076 0 2.152 0 3.145 0 1.49 0 1.49 1.49 1.572zm-78.955 2.566h-3.476c-.414 0-.579-.166-.662-.579-.248-.828-.5-1.738-.745-2.566-.083-.414-.331-.5-.662-.5h-5.545a.578.578 0 0 0-.662.5c0 .083-.083.166-.083.248-.331.91-.331 2.4-.993 2.648-1.076.414-2.483.083-3.807.083a434.627 434.627 0 0 0 3.31-9.6c.993-2.731 1.9-5.462 2.814-8.193a1.228 1.228 0 0 1 1.076-.993 3.4 3.4 0 0 1 .91-.083c2.317-.083 2.483.083 3.228 2.235 1.738 5.214 3.393 10.428 5.131 15.725a2.272 2.272 0 0 1 .166 1.075zm-10.676-6.787h3.89c.579 0 .745-.166.579-.745-.662-2.4-1.324-4.883-2.069-7.448-.828 2.814-1.573 5.462-2.4 8.193zm122.321.165v5.959c0 .579-.165.745-.745.745a18.65 18.65 0 0 0-2.152 0c-.5 0-.662-.166-.662-.662V33.37c0-.579-.083-.828-.745-.828a11.632 11.632 0 0 1-2.4 0c-.579 0-.828.166-.828.745.083 1.324 0 2.566 0 3.89 0 .579-.083.828-.745.828-.91-.083-2.069.248-2.566-.166-.579-.5-.166-1.655-.166-2.566v-9.848c0-.662.166-.91.828-.828a7.976 7.976 0 0 0 1.986 0c.662-.083.745.248.745.828v3.476c0 .5.083.828.662.745.993-.083 2.317.331 2.979-.166s.165-1.9.248-2.9c0-1.9 0-1.9 1.9-1.9 1.655 0 1.655 0 1.655 1.655q.006 2.359.006 4.966zm-52.388-.327c.083 1.821-.083 3.724 1.076 5.379a.289.289 0 0 0 .083.166c-.5.745-1.241.993-1.9 1.49-.414.331-.745 0-.91-.248-.5-.579-.91-.5-1.49-.166a5.955 5.955 0 0 1-4.3.5 3.885 3.885 0 0 1-2.979-4.055 4.122 4.122 0 0 1 3.476-4.221 6.059 6.059 0 0 1 2.979-.083c.5.083.662 0 .662-.579 0-1.407-.414-1.9-1.821-1.986a15.135 15.135 0 0 0-2.731.166c-.579.083-.745-.083-.828-.579-.331-2.317-.91-1.9 1.572-2.317a13.879 13.879 0 0 1 4.138-.083 3.271 3.271 0 0 1 3.145 3.228c-.089 1.15-.172 2.309-.172 3.388zm-3.393 2.731c-.083-1.821-.579-2.152-2.4-1.655a.43.43 0 0 0-.331.166 1.376 1.376 0 0 0-.828 1.159 1.644 1.644 0 0 0 1.738 2.069c1.655-.004 1.903-.17 1.821-1.742zm41.878-2.982c0 1.9-.166 3.89 1.076 5.628a.289.289 0 0 0 .083.166 8.424 8.424 0 0 1-1.9 1.49c-.414.331-.745 0-.91-.248-.5-.579-.91-.579-1.572-.166a5.955 5.955 0 0 1-4.3.5 3.617 3.617 0 0 1-2.9-3.476c-.166-2.152.662-3.724 2.4-4.469a6.549 6.549 0 0 1 3.973-.414c.579.083.662 0 .662-.579-.083-1.572-.414-1.9-1.986-1.9a13.369 13.369 0 0 0-2.566.166c-.579.083-.828 0-.91-.662-.414-2.069-.414-2.069 1.738-2.317a20.373 20.373 0 0 1 3.89-.083c2.152.248 3.228 1.324 3.31 3.476-.006.984-.088 1.895-.088 2.888zm-3.476 2.9c0-1.821-.331-2.069-2.069-1.655a1.584 1.584 0 0 0-1.49 1.738c.083 1.076.579 1.572 1.738 1.655 1.655.162 1.903-.004 1.821-1.742zm-81.106-2.155v5.793c0 .579-.166.745-.745.745-.91-.083-2.152.248-2.648-.166-.579-.5-.166-1.738-.166-2.648v-6.869c0-.662-.166-.828-.828-.91-2.731-.248-2.731-.248-2.814 2.483a28.939 28.939 0 0 1-.166 4.635 4.255 4.255 0 0 1-3.145 3.559c-.331.083-.662.083-.745-.331-.331-.828-1.076-1.572 0-2.483.745-.662.579-1.9.579-2.9v-6.453c0-.579.166-.91.745-.993a19.162 19.162 0 0 1 9.186 0c.579.166.745.414.662.91.085 1.906.085 3.806.085 5.628zm112.885 6.455h-3.31c-.5 0-.662-.248-.828-.662-.5-1.241-1.076-2.483-1.655-3.724a3.417 3.417 0 0 0-.579-.91 1.408 1.408 0 0 0-1.159-.166c-.5.083-.248.579-.248.828v3.807c0 .579-.083.828-.745.828a21.629 21.629 0 0 0-2.317 0c-.414 0-.579-.166-.579-.579v-12.25c0-.5.248-.579.662-.579.91.083 2.152-.414 2.814.166.579.5.083 1.738.166 2.648a5.407 5.407 0 0 0 0 1.159c.083.331-.331.828.331.993a1.224 1.224 0 0 0 1.407-.579c.414-.828.828-1.738 1.241-2.566.91-1.738 1.9-2.317 3.807-2.069.166 0 .331 0 .414.166a3.156 3.156 0 0 1-.662 2.4c-.745.331-.91.993-1.241 1.655a3.962 3.962 0 0 1-1.738 2.235c2.316 1.902 2.729 4.799 4.219 7.199zM88.72 30.888v-5.545c0-.662.166-.828.828-.828 2.648 0 2.648-.083 2.648 2.648 0 1.572 0 1.49 1.49 1.49a9.194 9.194 0 0 1 2.152.083 4.232 4.232 0 0 1 3.641 4.552 4.637 4.637 0 0 1-3.973 4.883 13.087 13.087 0 0 1-6.207-.579c-.5-.166-.579-.5-.579-.993zm4.966.414c-1.407 0-1.407.083-1.407 1.407v1.986c0 .248 0 .414.248.579a3.452 3.452 0 0 0 2.731-.248 2.821 2.821 0 0 0 .5-2.731 2.006 2.006 0 0 0-2.072-.994zM64.47 53.151v3.641c0 .248-.083.662.331.579.91-.083.828.5.828 1.076v1.821c0 .993-.579 1.407-1.49 1.076-.414-.166-.248-.5-.248-.745-.083-1.49-.083-1.49-1.572-1.49H58.76c-.662 0-.91.248-.828.828v.579c.166.745-.248.828-.91.828s-.993-.083-.91-.828a15.905 15.905 0 0 0 0-1.986c0-.5-.248-1.159.662-1.241.166 0 .331-.5.414-.745a16.323 16.323 0 0 0 1.241-6.869c0-.745.083-1.076.993-.993a37.323 37.323 0 0 0 4.3 0c.662 0 .828.248.828.828-.08 1.24-.08 2.399-.08 3.641zm-5.793 4.221h3.141c.579 0 .745-.166.745-.745v-4.552c0-1.9-.166-1.986-1.986-1.738-.331 0-.5.083-.5.5a18.192 18.192 0 0 1-1.4 6.534zm36.25-3.724a2.786 2.786 0 0 1 1.49 3.31c-.248 1.159-1.159 1.821-2.648 1.986a33.17 33.17 0 0 1-4.055.083c-.414 0-.662-.083-.662-.579v-9.1c0-.414.083-.662.579-.662 1.324.083 2.566 0 3.89.083a2.516 2.516 0 0 1 2.566 1.738 2.582 2.582 0 0 1-1.16 3.141zm-3.976 2.234c.083.662-.414 1.572.993 1.49 1.821-.083 2.483-.414 2.483-1.572 0-1.076-.662-1.49-2.317-1.49-1.321.165-1.159-.083-1.159 1.572zm1.324-5.462c-.745 0-1.407-.166-1.324.993.083 1.49 0 1.49 1.49 1.407h.5c.745-.083 1.324-.331 1.324-1.159a1.107 1.107 0 0 0-1.241-1.159 2.553 2.553 0 0 0-.745-.082zm19.038 8.689h-3.973c-.579 0-.745-.166-.745-.745V52.24c0-.828.5-.579.91-.579s.91-.166.91.579c-.083 1.49.083 3.062 0 4.552-.083.993.5.745 1.076.745.662.083.993 0 .91-.828-.083-1.407 0-2.814 0-4.3 0-.828.248-.91.993-.91.662 0 .91.166.91.91-.083 1.49 0 2.9 0 4.386-.083.828.414.745.993.745.5 0 1.076.166.993-.745-.083-1.49 0-2.979 0-4.469 0-.828.414-.745.993-.745s.91.083.91.745q-.124 2.979 0 5.959c0 .662-.248.745-.828.745-1.486-.004-2.727.079-4.052.079zm34.512-6.289a3.571 3.571 0 0 1 3.145-.828c.248.083.414.166.662.248 1.324.828 1.821 3.228.993 5.131a3.067 3.067 0 0 1-3.724 1.738 2.663 2.663 0 0 1-1.986-2.152 10.128 10.128 0 0 1 .083-5.214 3.307 3.307 0 0 1 2.566-2.4c.745-.166 1.572-.331 2.317-.5.248-.083.745-.414.828.083.083.414.331 1.159-.414 1.324a15.247 15.247 0 0 1-2.069.414 3.128 3.128 0 0 0-2.401 2.156zm.662 2.566c0 1.407.5 2.235 1.407 2.235s1.407-.91 1.407-2.235-.579-2.152-1.49-2.069c-.828-.083-1.324.744-1.324 2.069zm8.359.248c.828-1.324 2.069-2.317 2.648-3.807.166-.5.91-.166 1.324-.166.5-.083.414.331.414.579v6.124c0 .828-.5.662-.993.662s-.91 0-.828-.662a22.391 22.391 0 0 0-.083-3.31 21.092 21.092 0 0 0-2.483 3.559c-.331.828-.91.331-1.407.414s-.414-.331-.414-.662v-6.124c0-.91.579-.579.993-.662.414 0 .91-.166.91.662a23.242 23.242 0 0 0-.081 3.393zm-79.285 3.393c.248-.5.5-.993.745-1.407.414-.828.91-1.407-.166-2.317-1.159-1.076-.414-3.145 1.159-3.559a22.181 22.181 0 0 1 4.055-.163c.414 0 .331.331.331.579v6.373c0 .828-.579.5-.993.579-.414 0-.91.166-.828-.579a8.954 8.954 0 0 0 0-1.49c0-.248.166-.579-.248-.662-.331 0-.745-.166-.91.331a4.436 4.436 0 0 0-.414.91c-.831 1.57-.831 1.57-2.731 1.405zm4.3-5.048c0-.579.166-1.159-.745-1.076-1.159.083-1.655.331-1.655 1.076.083.993.828.91 1.49.993.996.165 1.079-.331.91-.991zm119.014 2.068v2.069c0 .331.331.745-.083.91-.5.166-1.159.331-1.49-.083s-.5-.248-.828-.083a3.47 3.47 0 0 1-1.324.331 1.943 1.943 0 0 1-2.069-1.076 2.4 2.4 0 0 1 .5-2.648 5.3 5.3 0 0 1 2.731-1.076c.414-.083.828-.083.745-.662a.887.887 0 0 0-.828-.828 1.784 1.784 0 0 0-1.407.414c-.662.662-1.076.083-1.407-.248-.414-.414.166-.662.414-.828a3.686 3.686 0 0 1 3.89-.331 1.945 1.945 0 0 1 .993 1.738 11.319 11.319 0 0 1 .166 2.4zm-1.738.248c-.165-.248.248-.662-.248-.745a2.156 2.156 0 0 0-1.986 1.076c-.248.579-.083 1.076.579 1.159a1.627 1.627 0 0 0 1.655-1.491zm-92.941-.496v2.317c0 .331.414.828-.083.91-.414.166-1.159.248-1.407-.083-.331-.5-.579-.248-.828-.083a6.9 6.9 0 0 1-1.241.331 1.79 1.79 0 0 1-2.069-.993 2.428 2.428 0 0 1 .5-2.648 4.423 4.423 0 0 1 2.566-1.076c.414-.083.993 0 .828-.745a.934.934 0 0 0-1.159-.745 1.739 1.739 0 0 0-1.159.579.4.4 0 0 1-.579.083c-.993-.414-.993-.745-.166-1.407a4.059 4.059 0 0 1 3.89-.331 1.737 1.737 0 0 1 .993 1.655 20.167 20.167 0 0 0-.083 2.235zm-1.821.5c-.166-.166.248-.745-.248-.662a1.9 1.9 0 0 0-1.9.993c-.248.579-.166 1.076.5 1.241a1.638 1.638 0 0 0 1.648-1.575zm66.954-.996c0-.993.083-1.9 0-2.9-.083-.828.331-.828.91-.828.662 0 .993.166.91.828v.662c-.166.993.166 1.407 1.241 1.324 1.241-.083 1.324 0 1.241-1.655 0-.828.083-1.324 1.076-1.159.579.083.745.248.745.828 0 1.986-.083 3.973 0 5.959 0 .828-.414.745-.91.745s-.993 0-.91-.745c.083-.5-.083-.91 0-1.407.166-1.159-.579-1.076-1.324-1.076s-1.407-.083-1.241 1.076a4.679 4.679 0 0 1 0 1.076c.166.91-.248 1.159-1.076 1.076-.579-.083-.745-.166-.745-.745.083-.99.083-2.066.083-3.059zm-30.787.082c0 2.648-1.324 3.973-3.559 3.807a.746.746 0 0 1-.414-.083c-1.9-.414-2.9-2.814-2.235-5.379a3.048 3.048 0 0 1 4.055-2.152c1.409.414 2.153 1.736 2.153 3.807zm-1.821-.083a3.644 3.644 0 0 0-.166-1.324c-.248-.579-.579-.91-1.159-.91a1.072 1.072 0 0 0-1.076.828 4.116 4.116 0 0 0 .083 2.979 1.007 1.007 0 0 0 1.076.745 1.109 1.109 0 0 0 1.076-.662 5.361 5.361 0 0 0 .167-1.656zm44.691.332a7.989 7.989 0 0 1-1.407 0c-.828-.083-.828.331-.662.91a1.433 1.433 0 0 0 2.483.662c.745-.828 1.159-.083 1.49.248.5.414-.166.745-.414.993a3.216 3.216 0 0 1-5.3-1.655 6.052 6.052 0 0 1 0-2.979 3.049 3.049 0 0 1 5.959 0c.414 1.655.331 1.738-1.324 1.738a3.1 3.1 0 0 1-.825.083zm-2.152-1.241h1.984c.579 0 .579-.248.414-.662a1.187 1.187 0 0 0-1.324-.828c-.66.082-1.074.579-1.074 1.489zm-61.156.91c0-2.235.91-3.559 2.648-3.807a3.267 3.267 0 0 1 3.552 3.807c-.083.414-.414.331-.579.331h-3.145c-.579 0-.745.166-.579.662.166.579.331 1.076.91 1.324a1.286 1.286 0 0 0 1.655-.414c.662-.828 1.076-.083 1.407.166.5.414-.083.745-.331.993a3.47 3.47 0 0 1-3.559.579c-1.324-.414-1.738-1.572-1.9-2.814a1.431 1.431 0 0 1-.079-.827zm2.979-.91c.414-.331 1.241.414 1.324-.5.083-.662-.5-1.076-1.241-1.076a1.154 1.154 0 0 0-1.241 1.159c-.005.827.74.168 1.154.417zm-47.508.992c0 .993-.083 2.069 0 3.062.083.828-.5.662-.91.662s-.91.166-.91-.662c.083-1.49 0-3.062 0-4.552 0-.579-.083-.91-.745-.828-.579.083-1.076-.083-1.076.828a15.23 15.23 0 0 1-.331 3.393 2.183 2.183 0 0 1-1.9 1.821c-.331 0-.745.166-.745-.331 0-.331-.248-.828.248-.993.828-.331.993-.993 1.159-1.821a26.818 26.818 0 0 0 .166-3.641c0-.5.166-.662.662-.662h3.724c.579 0 .745.166.745.662a18.676 18.676 0 0 0-.087 3.062zm92.526-.248a2.013 2.013 0 0 1 1.159 2.317 2.114 2.114 0 0 1-1.738 1.655c-1.655.414-3.393 0-4.055-1.076-.166-.248-.579-.579-.083-.828.414-.166.828-.828 1.324-.166a1.612 1.612 0 0 0 1.821.662c.5-.083.91-.331.91-.91s-.414-.828-.993-.91c-.414-.083-1.076.331-1.076-.579 0-.662 0-1.076.828-.993.5.083 1.076 0 1.076-.662 0-.745-.662-.745-1.159-.745s-.993 0-1.241.5c-.414.91-1.076.414-1.407.083-.5-.414 0-.828.248-1.159a3.776 3.776 0 0 1 4.966-.083 1.885 1.885 0 0 1-.58 2.894zm22.677 4.055c-2.069 0-3.062-.91-3.393-2.648a6.094 6.094 0 0 1 .083-2.731 2.905 2.905 0 0 1 2.4-2.317 2.792 2.792 0 0 1 3.062 1.159c.166.248.662.662.166.91-.414.166-.91.993-1.49.083a1.118 1.118 0 0 0-1.324-.579 1.319 1.319 0 0 0-1.076 1.076 5.479 5.479 0 0 0-.083 2.317c.166.579.331.993.91 1.159a1.194 1.194 0 0 0 1.49-.5c.579-.993 1.076-.248 1.49 0 .579.414-.083.745-.331 1.076a2.313 2.313 0 0 1-1.904.995zm-62.567-3.89v-2.979c0-.579.083-.745.745-.745 1.159.083 2.235 0 3.393 0 .5 0 .662.166.662.662s0 .828-.662.828-1.655-.331-2.069.166c-.331.5-.166 1.407-.166 2.152 0 .993-.083 1.986 0 2.979.083.828-.414.745-.91.745s-.993.166-.993-.662c.083-1.077 0-2.153 0-3.146zm15.31-24.083a2.235 2.235 0 1 1-4.469.083 2.179 2.179 0 0 1 2.152-2.317 2.245 2.245 0 0 1 2.317 2.234z" fill="#262626"/></svg>