<svg xmlns="http://www.w3.org/2000/svg" viewBox="0 0 446.983 404.999"><defs><style>.a{fill:#f9fcff}.b{fill:#848186}.d{fill:#1a68ff}.f{fill:#e5b665}.g{fill:#bcbcbe}.h{fill:#99cdf0}.i{fill:#b63a37}.j{fill:#902b2b}.o{fill:#a2a3a5}.p{fill:#bfbdbf}.q{fill:#313333}.r{fill:#4d4e4f}.s{fill:#e1e3e6}.u{fill:#cda47b}.v{fill:#fff}.w{fill:#404759}.x{fill:#f8fcff}.y{fill:#e3cb95}.aa{fill:#424a59}</style></defs><path class="a" d="M0 121.911l87.577-25.243 34.887 121.034-87.577 25.243z"/><path class="b" d="M54.705 142.999l37.639-10.849.754 2.617-37.639 10.849zm-1.158-4.078l37.639-10.849.76 2.637-37.639 10.849zm-1.178-4.072L90.008 124l.76 2.637-37.639 10.849zm-1.179-4.072l37.639-10.849.76 2.637-37.639 10.849zm-1.179-4.071l37.639-10.849.76 2.637-37.639 10.849zm-1.158-4.078l37.639-10.849.754 2.617-37.639 10.849zm-1.178-4.072l37.639-10.849.76 2.637-37.639 10.849zm-1.185-4.092l37.639-10.849.754 2.617-37.639 10.849zm-33.507 40.54l37.639-10.849.76 2.637-37.639 10.849zm-1.178-4.072l37.639-10.849.76 2.637-37.639 10.849zm-1.158-4.078l37.639-10.849.754 2.617L11.4 149.47zm-1.178-4.071l37.639-10.849.76 2.637-37.639 10.849zm-1.179-4.072l37.639-10.849.76 2.637L9.05 141.348zm-1.179-4.071l37.639-10.849.754 2.617-37.639 10.849zm-1.158-4.078l37.639-10.849.76 2.637-37.639 10.849zm-1.179-4.072l37.639-10.849.754 2.617-37.639 10.849z"/><path fill="#daa19d" d="M89.354 147.868l6.922-1.995 1.728 5.994-6.922 1.996z"/><path class="d" d="M86.846 139.114l6.922-1.995 1.728 5.994-6.922 1.996z"/><path fill="#cada67" d="M48.835 159.525l6.922-1.995 1.728 5.994-6.922 1.996z"/><path class="f" d="M46.302 150.782l6.922-1.995 1.728 5.994-6.922 1.996z"/><path class="g" d="M77.951 152.962l8.138-2.346.7 2.432-8.137 2.345zm-2.525-8.818l8.138-2.346.647 2.246-8.138 2.346zm-37.18 20.248l8.138-2.346.7 2.432-8.137 2.345zm-2.524-8.82l8.138-2.346.647 2.246-8.138 2.346z"/><path class="h" d="M35.34 228.675l78.265-22.56 2.725 9.457-78.264 22.56z"/><path class="b" d="M25.142 199.024l79.831-23.01.76 2.636-79.83 23.011zm-1.203-4.226l79.831-23.01.76 2.636-79.83 23.011zm-1.218-4.201l79.831-23.01.76 2.636-79.83 23.011zm-1.226-4.22l79.831-23.01.76 2.636-79.83 23.011zm-1.197-4.206l79.831-23.01.755 2.616-79.832 23.01zm-1.224-4.22l79.831-23.01.76 2.636-79.83 23.011zm8.491 29.499l79.831-23.01.76 2.636-79.83 23.011zm-1.204-4.226l79.831-23.01.755 2.616-79.832 23.01z"/><path class="h" d="M101.79 191.04l6.922-1.995 1.728 5.994-6.922 1.996z"/><path class="f" d="M61.277 202.72l6.922-1.995 1.728 5.994-6.922 1.996z"/><path class="g" d="M90.366 196.072l8.138-2.346.647 2.246-8.138 2.346zm-39.701 11.426l8.138-2.346.647 2.246-8.138 2.346z"/><path class="b" d="M32.473 224.471l79.831-23.01.76 2.636-79.83 23.011zm-1.218-4.2l79.831-23.01.76 2.636-79.83 23.011z"/><path class="a" d="M15.412 252.897l30.932-122.089 88.34 22.382-30.932 122.088z"/><path class="b" d="M29.165 219.876l.669-2.64 37.966 9.62-.669 2.639zm-1.032 4.102l.674-2.66 37.966 9.619-.674 2.66zm-1.038 4.119l.674-2.66 37.966 9.619-.674 2.66zm-1.058 4.115l.674-2.66 37.966 9.619-.674 2.66zm-1.033 4.101l.674-2.66 37.966 9.619-.674 2.66zm-1.038 4.122l.669-2.64 37.966 9.62-.669 2.639zm-1.032 4.099l.674-2.66 37.966 9.619-.674 2.66zm-1.059 4.115l.669-2.64 37.966 9.62-.669 2.639zm49.393-18.103l.669-2.64 37.966 9.62-.669 2.639zm-1.053 4.095l.674-2.66 37.966 9.619-.674 2.66zm-1.038 4.121l.669-2.64 37.966 9.62-.669 2.639zm-1.033 4.1l.674-2.66 37.966 9.619-.674 2.66zm-1.058 4.115l.674-2.66 37.966 9.619-.674 2.66zm-1.032 4.102l.669-2.64 37.966 9.62-.669 2.639zm-1.038 4.121l.674-2.66 37.966 9.619-.674 2.66zm-1.033 4.1l.669-2.64 37.966 9.62-.669 2.639z"/><path class="d" d="M32.657 206.043l1.528-6.045 6.98 1.765-1.528 6.045zm-2.23 8.825l1.532-6.047 6.982 1.77-1.532 6.046zm43.132 1.537l1.528-6.045 6.98 1.765-1.528 6.045zm-2.233 8.809l1.528-6.045 6.98 1.765-1.528 6.045z"/><path class="g" d="M43.865 207.07l.62-2.452 8.205 2.075-.62 2.452zm-2.258 8.881l.573-2.265 8.205 2.075-.573 2.265zm42.299 1.262l.62-2.452 8.205 2.075-.62 2.452zm-2.258 8.88l.573-2.265 8.205 2.075-.573 2.265z"/><path class="d" d="M48.094 145.257l2.417-9.539 78.946 20.002-2.416 9.539z"/><path class="b" d="M40.381 175.612l.674-2.66 80.527 20.402-.674 2.66zm-1.082 4.245l.674-2.66 80.527 20.402-.674 2.66zm-1.06 4.249l.674-2.66 80.527 20.402-.674 2.66zm-1.087 4.266l.674-2.66 80.527 20.402-.674 2.66zm-1.081 4.245l.674-2.66 80.527 20.402-.674 2.66zm-1.081 4.244l.674-2.66 80.527 20.402-.674 2.66zm7.553-29.738l.674-2.66 80.527 20.402-.674 2.66zm-1.081 4.245l.669-2.64 80.527 20.402-.67 2.64z"/><path class="d" d="M43.703 162.486l1.532-6.047 6.982 1.77-1.532 6.046zm40.885 10.361l1.532-6.047 6.98 1.768-1.533 6.047z"/><path class="g" d="M54.882 163.573l.573-2.265 8.205 2.075-.573 2.265zm40.04 10.143l.573-2.265 8.205 2.075-.573 2.265z"/><path class="b" d="M46.877 149.942l.674-2.66 80.527 20.402-.674 2.66zm-1.061 4.249l.674-2.66 80.527 20.402-.674 2.66z"/><path class="i" d="M94.93 102.934l197.301-36.062 1.947 10.65-197.302 36.062z"/><path class="j" d="M96.883 113.587l197.301-36.062 1.947 10.65-197.302 36.062z"/><path d="M111.229 17.279l29.541 161.6 132.013-24.139-23.56-128.886L207.591 0z" fill="#e3e2e3"/><path d="M249.223 25.854L207.591 0l5.96 32.564z" fill="#9c9b9d"/><path d="M218.245 31.664l36.916 26.69-5.938-32.5zm-85.566 32.279l88.508-16.177.578 3.163-88.508 16.178zm1.481 8.126l88.508-16.177.578 3.163-88.508 16.178zm1.481 8.125l88.508-16.177.578 3.163-88.508 16.178zm1.477 8.105l88.508-16.177.578 3.163-88.508 16.178zm1.477 8.104l88.508-16.177.578 3.163-88.508 16.178zm1.502 8.121l88.508-16.177.578 3.163-88.508 16.178zm-1.152 5.442l91.945-16.805.663 3.627-91.945 16.805zm1.695 9.305l91.945-16.805.663 3.627-91.945 16.805zm1.696 9.305l91.945-16.805.663 3.627-91.945 16.805zm1.712 9.279l91.945-16.805.663 3.627-91.945 16.805zm1.695 9.305l91.945-16.805.663 3.627-91.945 16.805zm1.691 9.285l91.945-16.805.663 3.627-91.945 16.805zm1.696 9.304l91.945-16.805.663 3.627-91.945 16.805z" fill="#d7d4d2"/><path fill="#bbbbbd" d="M125.738 25.977l53.121-9.71 2.86 15.648-53.121 9.71z"/><path class="o" d="M298.808 71.236l1.93 10.5a5.344 5.344 0 1 0-1.93-10.5z"/><path class="p" d="M127.221 114.498l1.972-3.366 11.212 7.525 110.854-20.259 9.6-11.34 8.082 8.982-3 15.585-139.899 24.418z"/><path class="q" d="M270.039 103.115l-19.4-14.17-56 10.226-.45.086-55.991 10.247-13.12 20.13 29.37 63.691 54.837-12.8 55.8-7.439z"/><path class="r" d="M305.926 181.169l-186.829 34.064-4.845-26.497 186.807-34.15z"/><path class="i" d="M277.302 84.057l-17.043 3.108c.365 1.458.707 2.937.986 4.438a67.103 67.103 0 0 1-132.013 24.16c-.279-1.5-.472-3-.643-4.5l-17.043 3.109a10.543 10.543 0 0 0-8.468 12.241l14.234 77.84a10.543 10.543 0 0 0 12.241 8.468l165.755-30.313a10.544 10.544 0 0 0 8.468-12.241l-14.235-77.84a10.543 10.543 0 0 0-12.239-8.47z"/><path class="r" d="M140.877 223.165s7.975 46.026 56.852 37.087l5.96-1.093 38.673-7.074 5.938-1.093c48.878-8.939 40.045-54.816 40.045-54.816z"/><g transform="translate(153.079 201.722)"><path class="s" d="M7.413 25.26a3.738 3.738 0 1 1-4.352-3 3.743 3.743 0 0 1 4.352 3zm96.705-17.666a3.738 3.738 0 1 1-4.352-3 3.744 3.744 0 0 1 4.352 3z"/><circle class="s" cx="3.73" cy="3.73" r="3.73" transform="rotate(-10.358 120.801 -45.459)"/><circle class="s" cx="3.73" cy="3.73" r="3.73" transform="rotate(-10.358 115.303 -105.68)"/><circle class="s" cx="3.73" cy="3.73" r="3.73" transform="rotate(-10.358 109.921 -166.023)"/><circle class="s" cx="3.73" cy="3.73" r="3.73" transform="rotate(-10.358 104.423 -226.244)"/><path class="s" d="M61.136 15.441a3.738 3.738 0 1 1-4.352-3 3.744 3.744 0 0 1 4.352 3z"/><circle class="s" cx="3.73" cy="3.73" r="3.73" transform="rotate(-10.358 93.529 -346.721)"/><path class="s" d="M82.638 11.517a3.738 3.738 0 1 1-4.352-3 3.743 3.743 0 0 1 4.352 3zm10.74-1.971a3.738 3.738 0 1 1-4.352-3 3.744 3.744 0 0 1 4.352 3z"/><circle class="s" cx="3.73" cy="3.73" r="3.73" transform="rotate(-10.358 66.203 -648.128)"/><circle class="s" cx="3.73" cy="3.73" r="3.73" transform="rotate(-10.358 71.632 -587.752)"/></g><g transform="translate(149.414 210.758)"><path class="s" d="M7.413 26.642a3.738 3.738 0 1 1-4.352-3 3.744 3.744 0 0 1 4.352 3z"/><circle class="s" cx="3.73" cy="3.73" r="3.73" transform="rotate(-10.358 84.728 -526.987)"/><circle class="s" cx="3.73" cy="3.73" r="3.73" transform="matrix(.984 -.18 .18 .984 10.157 22.355)"/><circle class="s" cx="3.73" cy="3.73" r="3.73" transform="rotate(-10.358 122.901 -105.14)"/><circle class="s" cx="3.73" cy="3.73" r="3.73" transform="rotate(-10.358 117.561 -165.33)"/><path class="s" d="M50.417 18.796a3.738 3.738 0 1 1-4.352-3 3.743 3.743 0 0 1 4.352 3zm10.74-1.972a3.738 3.738 0 1 1-4.352-3 3.743 3.743 0 0 1 4.352 3z"/><circle class="s" cx="3.73" cy="3.73" r="3.73" transform="rotate(-10.358 101.138 -346.17)"/><circle class="s" cx="3.73" cy="3.73" r="3.73" transform="rotate(-10.358 95.624 -406.41)"/><circle class="s" cx="3.73" cy="3.73" r="3.73" transform="rotate(-10.358 90.156 -466.717)"/><circle class="s" cx="3.73" cy="3.73" r="3.73" transform="rotate(-10.358 73.758 -647.532)"/><path class="s" d="M114.902 7.005a3.738 3.738 0 1 1-4.352-3 3.743 3.743 0 0 1 4.352 3zm21.48-3.944a3.738 3.738 0 1 1-4.352-3 3.743 3.743 0 0 1 4.352 3z"/></g><g transform="translate(156.531 220.582)"><path class="s" d="M7.413 25.265a3.738 3.738 0 1 1-4.352-3 3.744 3.744 0 0 1 4.352 3zM104.118 7.6a3.738 3.738 0 1 1-4.352-3 3.743 3.743 0 0 1 4.352 3z"/><circle class="s" cx="3.73" cy="3.73" r="3.73" transform="rotate(-10.358 120.809 -45.48)"/><circle class="s" cx="3.73" cy="3.73" r="3.73" transform="rotate(-10.358 115.305 -105.707)"/><circle class="s" cx="3.73" cy="3.73" r="3.73" transform="rotate(-10.358 109.96 -165.897)"/><circle class="s" cx="3.73" cy="3.73" r="3.73" transform="rotate(-10.358 104.45 -226.242)"/><path class="s" d="M61.136 15.446a3.738 3.738 0 1 1-4.352-3 3.744 3.744 0 0 1 4.352 3z"/><circle class="s" cx="3.73" cy="3.73" r="3.73" transform="rotate(-10.358 93.551 -346.72)"/><path class="s" d="M82.638 11.523a3.738 3.738 0 1 1-4.352-3 3.743 3.743 0 0 1 4.352 3zm10.74-1.972a3.738 3.738 0 1 1-4.352-3 3.744 3.744 0 0 1 4.352 3z"/><circle class="s" cx="3.73" cy="3.73" r="3.73" transform="rotate(-10.358 66.195 -648.034)"/><circle class="s" cx="3.73" cy="3.73" r="3.73" transform="rotate(-10.358 71.67 -587.743)"/></g><g transform="translate(168.386 247.674)"><circle class="s" cx="3.73" cy="3.73" r="3.73" transform="rotate(-10.358 18.359 1.664)"/><circle class="s" cx="3.73" cy="3.73" r="3.73" transform="matrix(.984 -.18 .18 .984 10.778 1.342)"/></g><g transform="translate(254.972 231.969)"><path class="s" d="M7.413 5.645a3.738 3.738 0 1 1-4.352-3 3.744 3.744 0 0 1 4.352 3z"/><circle class="s" cx="3.73" cy="3.73" r="3.73" transform="rotate(-10.358 12.47 -55.283)"/></g><path class="s" d="M190.483 250.756a3.869 3.869 0 0 0 4.5 3.109l53.594-9.8a3.869 3.869 0 0 0 3.108-4.5 3.869 3.869 0 0 0-4.5-3.109l-53.594 9.8a3.869 3.869 0 0 0-3.109 4.5z"/><path class="q" d="M292.977 191.674l-7.61 1.394-142.818 26.106-7.61 1.4 14.256 23.732s-6.088-16.4-4.287-20.923l139.751-25.556c3.28 3.58 3.387 21.073 3.387 21.073z"/><path class="j" d="M305.904 181.105l-186.807 34.15s12.648 72.245 74.56 60.926l7.546-1.372 48.985-8.961 7.546-1.372c61.912-11.34 48.17-83.371 48.17-83.371zm-57.6 69.929l-5.938 1.093-38.676 7.078-5.959 1.093c-48.878 8.94-56.853-37.087-56.853-37.087l147.469-26.971c0-.021 8.832 45.855-40.05 54.794z"/><path class="o" d="M159.763 199.07l102.386-18.715a7.884 7.884 0 0 0 6.346-9.175l-117.907 21.544a7.889 7.889 0 0 0 9.175 6.346z"/><path class="p" d="M259.32 164.812l-102.386 18.715a7.883 7.883 0 0 0-6.345 9.175l117.928-21.566a7.922 7.922 0 0 0-9.197-6.324z"/><path class="s" d="M177.707 103.522a.427.427 0 0 0-.6.15l-22.381 37.152a1.326 1.326 0 0 0-.643-.064l-.643.15-4.845 8.189a1.387 1.387 0 0 0 .472 1.886l.472.279.493-.086.643-.15 4.845-8.189a1.442 1.442 0 0 0-.064-1.522l22.4-37.194a.467.467 0 0 0-.149-.601zm19.101 8.855a.424.424 0 0 0-.343.514l7.76 42.661a1.3 1.3 0 0 0-.514.386l-.386.536 1.779 9.347a1.387 1.387 0 0 0 1.608 1.115l.536-.107.321-.408.386-.536-1.779-9.368a1.408 1.408 0 0 0-1.051-1.093l-7.76-42.723a.547.547 0 0 0-.557-.324zm-17.409-7.14a.453.453 0 0 0-.6.172l-20.473 38.223a1.1 1.1 0 0 0-.643-.021l-.622.172-4.437 8.425a1.4 1.4 0 0 0 .557 1.865l.493.257.493-.107.622-.172 4.438-8.425a1.365 1.365 0 0 0-.15-1.5l20.494-38.287a.447.447 0 0 0-.172-.602zm.409 1.63a.432.432 0 0 0-.579.214l-17.815 39.552a1.31 1.31 0 0 0-.643.022l-.622.214-3.837 8.7a1.4 1.4 0 0 0 .686 1.822l.514.215.493-.15.622-.214 3.838-8.721a1.382 1.382 0 0 0-.257-1.5l17.836-39.6a.475.475 0 0 0-.236-.554zm15.329 5.895a.441.441 0 0 0-.386.493l5 43.09a1.625 1.625 0 0 0-.557.343l-.429.493 1.179 9.454a1.4 1.4 0 0 0 1.522 1.222l.557-.086.343-.386.428-.514-1.179-9.454a1.384 1.384 0 0 0-.986-1.158l-4.995-43.132a.441.441 0 0 0-.497-.365zm-1.996.643a.45.45 0 0 0-.407.472l3.151 43.261a1.315 1.315 0 0 0-.557.322l-.45.493.772 9.5a1.418 1.418 0 0 0 1.479 1.286l.558-.043.364-.364.45-.493-.772-9.5a1.39 1.39 0 0 0-.943-1.2l-3.151-43.3a.488.488 0 0 0-.494-.434zm-1.585.022a.435.435 0 0 0-.429.45l.686 43.368a1.493 1.493 0 0 0-.579.3l-.471.45.236 9.518a1.382 1.382 0 0 0 1.393 1.351l.557-.021.386-.343.472-.471-.236-9.518a1.389 1.389 0 0 0-.857-1.243l-.686-43.411a.465.465 0 0 0-.472-.43zm-1.929.107a.435.435 0 0 0-.45.429l-1.458 43.347a1.5 1.5 0 0 0-.6.257l-.493.429-.257 9.518a1.415 1.415 0 0 0 1.329 1.436h.558l.386-.321.493-.429.257-9.518a1.4 1.4 0 0 0-.793-1.286l1.458-43.39a.441.441 0 0 0-.43-.472zm-1.65-.578a.433.433 0 0 0-.472.386l-4.245 43.154a1.385 1.385 0 0 0-.622.236l-.514.407-.858 9.475a1.422 1.422 0 0 0 1.222 1.522l.557.043.407-.3.515-.407.858-9.5a1.419 1.419 0 0 0-.707-1.329l4.245-43.218a.432.432 0 0 0-.386-.469zm-1.909-.815a.422.422 0 0 0-.493.365l-6.088 42.939a1.614 1.614 0 0 0-.622.193l-.536.386-1.265 9.432a1.4 1.4 0 0 0 1.157 1.565l.557.065.429-.279.536-.386 1.265-9.433a1.4 1.4 0 0 0-.665-1.372l6.088-42.982a.422.422 0 0 0-.363-.493zm-1.715-.344a.439.439 0 0 0-.514.343l-8.511 42.532a1.092 1.092 0 0 0-.622.171l-.558.343-1.8 9.347a1.391 1.391 0 0 0 1.072 1.629l.557.107.429-.257.557-.343 1.8-9.347a1.389 1.389 0 0 0-.579-1.393l8.511-42.575a.462.462 0 0 0-.342-.557zm-3.13-3.772a.42.42 0 0 0-.557.257l-15.542 40.5a1.327 1.327 0 0 0-.643.064l-.6.257-3.344 8.918a1.4 1.4 0 0 0 .793 1.779l.514.193.472-.171.6-.257 3.344-8.918a1.388 1.388 0 0 0-.343-1.479l15.564-40.538a.478.478 0 0 0-.258-.605zm2.08 2.829a.442.442 0 0 0-.536.321l-11.1 41.932a1.329 1.329 0 0 0-.643.129l-.579.321-2.358 9.218a1.415 1.415 0 0 0 .965 1.694l.536.129.45-.236.579-.322 2.358-9.218a1.4 1.4 0 0 0-.493-1.436l11.1-41.975a.409.409 0 0 0-.279-.557zm-1.242-1.007a.469.469 0 0 0-.557.279l-13.056 41.353a1.307 1.307 0 0 0-.643.086l-.6.279-2.787 9.089a1.38 1.38 0 0 0 .9 1.736l.536.15.472-.214.579-.279 2.787-9.111a1.376 1.376 0 0 0-.429-1.458l13.075-41.349a.424.424 0 0 0-.277-.561zm29.496-12.588a.441.441 0 0 1 .622-.064l34.064 26.84a1.452 1.452 0 0 1 .579-.279l.643-.086 7.439 5.938a1.389 1.389 0 0 1 .236 1.929l-.343.429-.493.086-.643.086-7.439-5.96a1.416 1.416 0 0 1-.471-1.436l-34.108-26.883a.419.419 0 0 1-.086-.6zm-1.007 2.233a.462.462 0 0 1 .621-.043l32.735 28.468a1.253 1.253 0 0 1 .6-.257l.643-.064 7.139 6.3a1.429 1.429 0 0 1 .15 1.951l-.365.407-.493.064-.643.064-7.139-6.3a1.351 1.351 0 0 1-.386-1.458l-32.82-28.507a.46.46 0 0 1-.042-.625zm.236 1.63a.44.44 0 0 1 .622 0l30.656 30.677a1.533 1.533 0 0 1 .622-.214l.643-.022 6.667 6.774a1.385 1.385 0 0 1 0 1.951l-.407.386-.514.021-.665.022-6.689-6.8a1.41 1.41 0 0 1-.3-1.479l-30.634-30.7a.44.44 0 0 1-.001-.616zm-12.263 10.954a.442.442 0 0 1 .536.321l10.569 42.061a1.716 1.716 0 0 1 .643.129l.579.321 2.251 9.24a1.4 1.4 0 0 1-.986 1.672l-.536.129-.45-.236-.579-.321-2.251-9.261a1.426 1.426 0 0 1 .515-1.436l-10.59-42.1a.4.4 0 0 1 .299-.519zm1.758-1.071a.461.461 0 0 1 .557.3l12.369 41.568a1.624 1.624 0 0 1 .643.107l.579.3 2.637 9.154a1.4 1.4 0 0 1-.922 1.715l-.536.15-.472-.214-.579-.3-2.637-9.154a1.427 1.427 0 0 1 .45-1.458L200 111.541a.4.4 0 0 1 .281-.536zm1.651-.603a.438.438 0 0 1 .558.257l14.685 40.8a1.606 1.606 0 0 1 .643.064l.6.257 3.151 8.982a1.393 1.393 0 0 1-.815 1.758l-.515.172-.472-.193-.6-.257-3.151-8.982a1.4 1.4 0 0 1 .364-1.479l-14.706-40.86a.4.4 0 0 1 .258-.519zm1.757-.105a.46.46 0 0 1 .579.236l16.7 40.024a1.1 1.1 0 0 1 .643.043l.621.236 3.6 8.811a1.4 1.4 0 0 1-.729 1.8l-.515.193-.472-.172-.622-.236-3.6-8.811a1.352 1.352 0 0 1 .3-1.479l-16.721-40.067a.425.425 0 0 1 .216-.578zm2.188-.858a.432.432 0 0 1 .579.214l18.35 39.295a1.309 1.309 0 0 1 .643.022l.621.214 3.966 8.661a1.371 1.371 0 0 1-.665 1.822l-.514.214-.493-.15-.622-.214-3.966-8.661a1.377 1.377 0 0 1 .236-1.5l-18.372-39.338a.449.449 0 0 1 .237-.579zm.921-1.158a.453.453 0 0 1 .6.172l20.88 38.009a1.1 1.1 0 0 1 .643-.021l.643.171 4.523 8.382a1.372 1.372 0 0 1-.536 1.865l-.493.257-.493-.107-.643-.172-4.523-8.382a1.4 1.4 0 0 1 .129-1.5l-20.923-38.052a.474.474 0 0 1 .193-.622zm1.479-.921a.44.44 0 0 1 .6.129l23 36.765a1.328 1.328 0 0 1 .643-.064l.643.129 4.995 8.1a1.405 1.405 0 0 1-.429 1.908l-.472.279-.493-.086-.643-.129-4.995-8.125a1.4 1.4 0 0 1 .043-1.522l-23.046-36.787a.446.446 0 0 1 .154-.597zm1.587-4.652a.423.423 0 0 1 .622.043l28.876 32.371a1.293 1.293 0 0 1 .622-.171l.643.021 6.281 7.16a1.407 1.407 0 0 1-.107 1.951l-.429.364h-.515l-.664-.021-6.281-7.16a1.43 1.43 0 0 1-.214-1.5l-28.877-32.432a.464.464 0 0 1 .043-.626zm-.943 3.387a.43.43 0 0 1 .621.107l25.211 35.286a1.358 1.358 0 0 1 .643-.107l.643.086 5.467 7.782a1.4 1.4 0 0 1-.322 1.929l-.45.322-.515-.043-.643-.086-5.467-7.8a1.4 1.4 0 0 1-.043-1.522l-25.254-35.351a.439.439 0 0 1 .109-.603zm.703-1.308a.442.442 0 0 1 .622.064l26.99 33.957a1.283 1.283 0 0 1 .643-.128l.664.064 5.874 7.5a1.385 1.385 0 0 1-.214 1.929l-.45.343-.515-.022-.664-.064-5.874-7.5a1.376 1.376 0 0 1-.129-1.5l-27.011-34a.466.466 0 0 1 .064-.643z"/><path class="o" d="M196.465 89.845l.686 3.794a3.683 3.683 0 0 1-7.246 1.329l-.686-3.794a9.515 9.515 0 0 0-4.116 9.6l2.165 11.812 18.608-3.409-2.165-11.812a9.511 9.511 0 0 0-7.246-7.52z"/><g transform="translate(136.626 92.282)"><path class="o" d="M28.99 11.991a14.612 14.612 0 1 1-17-11.748 14.607 14.607 0 0 1 17 11.748z"/><path class="s" d="M23.026 13.084a8.553 8.553 0 1 1-9.947-6.881 8.533 8.533 0 0 1 9.947 6.881z"/><circle class="q" cx="4.395" cy="4.395" r="4.395" transform="rotate(-10.358 65.872 -46.8)"/></g><g transform="translate(222.912 76.504)"><path class="o" d="M28.99 11.991a14.612 14.612 0 1 1-17-11.748 14.607 14.607 0 0 1 17 11.748z"/><path class="s" d="M23.026 13.084a8.553 8.553 0 1 1-9.947-6.881 8.533 8.533 0 0 1 9.947 6.881z"/><circle class="q" cx="4.395" cy="4.395" r="4.395" transform="rotate(-10.358 65.878 -46.8)"/></g><path class="s" d="M169.425 102.794l49.747-9.093.274 1.498-49.747 9.092z"/><path class="o" d="M220.111 91.561a2.637 2.637 0 1 0 .943 5.188l3.58-.664-.943-5.188zm-52.48 9.71l-3.58.664.943 5.188 3.58-.664a2.637 2.637 0 1 0-.943-5.188z"/><path class="s" d="M208.62 94.883a15.123 15.123 0 0 1-29.048 5.3l-5.274.965a20.393 20.393 0 0 0 39.6-7.251z"/><path d="M100.51 123.609a3.782 3.782 0 0 1-3.066 4.416 3.782 3.782 0 0 1-4.416-3.066l-3.794-20.709a3.782 3.782 0 0 1 3.066-4.416 3.783 3.783 0 0 1 4.416 3.044zm201.278-36.787a3.781 3.781 0 0 1-3.065 4.416 3.782 3.782 0 0 1-4.416-3.066l-3.795-20.709a3.782 3.782 0 0 1 3.066-4.416 3.783 3.783 0 0 1 4.416 3.044z" fill="#777779"/><path class="o" d="M298.615 51.343a2.139 2.139 0 0 0-1.715 2.487l.664 3.6a2.13 2.13 0 0 0 1.544 1.672l3.194 17.493 1.822-.343-3.194-17.493a2.131 2.131 0 0 0 .858-2.1l-.664-3.6a2.172 2.172 0 0 0-2.509-1.716z"/><path class="u" d="M196.701 237.978a5.679 5.679 0 0 0-6.5 4.759l-6.774 43.583a5.679 5.679 0 0 0 4.759 6.5 5.679 5.679 0 0 0 6.5-4.759l6.774-43.583a5.707 5.707 0 0 0-4.759-6.5z"/><path class="u" d="M171.919 286.278a5.694 5.694 0 0 0 5.188 6.153 5.694 5.694 0 0 0 6.153-5.188l4.095-48.706a5.694 5.694 0 0 0-5.188-6.152 5.694 5.694 0 0 0-6.153 5.188zm-10.589-.257a5.169 5.169 0 0 0 5.167 5.166 5.169 5.169 0 0 0 5.166-5.166l-.021-40.046a5.169 5.169 0 0 0-5.167-5.166 5.169 5.169 0 0 0-5.167 5.166zm-8.897 1.092a4.25 4.25 0 0 0 4.738 3.709 4.25 4.25 0 0 0 3.709-4.738l-3.966-32.692a4.25 4.25 0 0 0-4.738-3.709 4.25 4.25 0 0 0-3.709 4.738z"/><path class="u" d="M213.444 274.916c-4.93 4.395-9.647 15.2-11.4 16.743s-8.146 3.58-8.06-6.71l-1.222-11.727s-9.583 10.955-12.605 1.072c0 0-8.189 7.825-12.562 4.716 0 0-5.252 6.474-9.175 4.33l-5.531-1.458s-7.117 26.2 2.958 45.362c6.624 12.584 1.479 41.182 1.479 41.182l29.905 4.652s3.73-43.411 4.738-45.984 14.192-15.093 21.095-32.221 8.918-18.329 8.918-18.329-3.608-6.022-8.538-1.628z"/><path class="v" d="M190.398 341.887l1.008-6.517-34.472-.836-.257 7.546z"/><path class="w" d="M192.05 339.035l-36.552-1.136-7.31 67.1h49.071z"/><path class="u" d="M255.311 232.817a5.678 5.678 0 0 1 7.8 1.929l22.745 37.773a5.679 5.679 0 0 1-1.929 7.8 5.679 5.679 0 0 1-7.8-1.93l-22.745-37.773a5.669 5.669 0 0 1 1.929-7.8z"/><path class="u" d="M296.514 268.163a5.67 5.67 0 0 1-2.487 7.653 5.67 5.67 0 0 1-7.653-2.487l-22.211-43.561a5.669 5.669 0 0 1 2.487-7.653 5.669 5.669 0 0 1 7.653 2.487zm9.712-4.244a5.17 5.17 0 0 1-2.83 6.731 5.17 5.17 0 0 1-6.732-2.829l-15.116-37.088a5.171 5.171 0 0 1 2.83-6.732 5.17 5.17 0 0 1 6.731 2.83zm8.66-2.359a4.25 4.25 0 0 1-2.98 5.231 4.251 4.251 0 0 1-5.231-2.98l-8.7-31.771a4.25 4.25 0 0 1 2.98-5.23 4.25 4.25 0 0 1 5.231 2.98z"/><path class="u" d="M326.891 300.019c2.08-21.545-14.405-43.111-14.405-43.111l-4.567 3.451c-2.83 3.452-10.14-.558-10.14-.558-2.872 4.524-13.42.386-13.42.386.943 10.29-12.069 3.773-12.069 3.773l3.3 11.319c3.966 9.518-2.7 10.033-4.931 9.261-2.208-.772-10.655-8.982-16.893-11.191-6.217-2.208-7.289 4.738-7.289 4.738s2.316.365 15.2 13.592c12.884 13.248 29.8 19.851 31.706 21.845s21.781 40.774 21.781 40.774l25.939-15.606s-15.562-24.524-14.212-38.673z"/><path class="v" d="M299.28 328.274l-2.358-6.067 32.114-14.042 3.109 6.881z"/><path class="w" d="M297.629 325.938l34.043-15.156L379.735 405h-54.022z"/><path class="x" d="M307.72 113.789l93.806-32.959 45.452 129.363-93.806 32.959z"/><path class="g" d="M387.544 187.077l40.31-14.163.987 2.812-40.31 14.163zm1.521 4.356l40.31-14.163.987 2.812-40.31 14.163zm1.542 4.347l40.31-14.163.987 2.812-40.31 14.163zm1.522 4.355l40.31-14.163.987 2.812-40.31 14.163zm1.529 4.374l40.31-14.163.987 2.812-40.31 14.163zm1.542 4.349l40.31-14.163.987 2.812-40.31 14.163zm1.501 4.389l40.29-14.142.986 2.81-40.29 14.142zm1.522 4.35l40.29-14.142.986 2.81-40.29 14.142zm-55.4-14.793l40.29-14.142.986 2.81-40.29 14.142zm1.529 4.371l40.29-14.142.986 2.81-40.29 14.142zm1.561 4.319l40.31-14.163.987 2.812-40.31 14.163zm1.522 4.354l40.31-14.163.987 2.812-40.31 14.163zm1.521 4.357l40.31-14.163.987 2.812-40.31 14.163zm1.522 4.375l40.29-14.142.986 2.81-40.29 14.142zm1.52 4.359l40.29-14.142.986 2.81-40.29 14.142zm1.55 4.343l40.31-14.163.987 2.812-40.31 14.163zm60.48-76.013l7.423-2.608 2.253 6.412-7.423 2.608zm3.283 9.353l7.423-2.608 2.253 6.412-7.423 2.608zm-46.714 5.929l7.423-2.608 2.253 6.412-7.423 2.608zm3.262 9.331l7.42-2.604 2.249 6.408-7.42 2.605zm28.123-18.121l8.718-3.063.916 2.609-8.717 3.063zm3.383 9.627l8.713-3.058.845 2.405-8.714 3.059zm-45.895 5.306l8.718-3.063.916 2.609-8.717 3.063zm-33.703-22.833l85.472-30.001.986 2.81-85.472 30.001zm1.585 4.548l85.472-30.001.986 2.81-85.472 30.001zm1.613 4.564l85.472-30.001.986 2.81-85.472 30.001zm1.6 4.517l85.513-30.045.988 2.811-85.513 30.046zm1.59 4.574l85.472-30.001.986 2.81-85.472 30.001zm1.585 4.55l85.472-30.001.986 2.81-85.472 30.001zm-8.049-40.749l71.752-26-.986-2.808-71.752 26zm1.544 4.352l71.73-26-.986-2.812-71.73 26zm1.521 4.352l71.752-26-.986-2.808-71.752 25.996zm1.544 4.351l71.73-26-.986-2.808-71.73 26zm62.877-43.239L326.12 131.82l-3.323-9.647 67.036-24.139z"/><path class="y" d="M427.477 175.96a2.409 2.409 0 0 1-2.659 2.122l-1.737-.193a2.409 2.409 0 0 1-2.122-2.658l.193-1.737a2.408 2.408 0 0 1 2.658-2.122l1.737.193a2.409 2.409 0 0 1 2.123 2.658z"/><path d="M415.857 250.369l1.179-2.015-1.887-.214z" fill="#272a28"/><path class="y" d="M413.306 242.288l1.844 5.853 1.887.214 3.044-5.295z"/><path class="aa" d="M424.025 177.654l-7.289 64.806c.322-.75 1.008-1.436 1.758-1.35a1.851 1.851 0 0 1 1.5 1.951h.064l7.289-65.042z"/><path d="M420.616 177.268l-7.289 65.042h.021a1.848 1.848 0 0 1 1.908-1.651c.793.086 1.372 1.008 1.479 1.865 0-.021.021-.043.043-.064l7.267-64.806z" fill="#545e70"/><path class="y" d="M418.558 241.088a1.811 1.811 0 0 0-1.8 1.243 1.833 1.833 0 0 0-1.5-1.694 1.873 1.873 0 0 0-1.929 1.672l3.323.365.128.021 3.3.365a1.872 1.872 0 0 0-1.522-1.972z"/><path fill="#5e8493" d="M420.656 177.27l.196-1.747 6.689.75-.196 1.747z"/><path d="M427.607 177.186a.258.258 0 0 1-.279.214l-6.517-.729a.243.243 0 0 1-.215-.279.243.243 0 0 1 .279-.214l6.518.729c.128 0 .214.129.214.279zm-.067.856a.243.243 0 0 1-.279.215l-6.517-.729a.258.258 0 0 1-.215-.279.258.258 0 0 1 .279-.214l6.517.729c.129 0 .214.129.214.279z" fill="#54727a"/><g transform="translate(337.696 187.845)"><ellipse class="x" cx="3.966" cy="3.516" rx="3.966" ry="3.516" transform="rotate(-74.812 66.953 29.84)"/><path class="x" d="M31.644 9.06l1.134-4.179 25.861 7.02-1.134 4.18z"/><path d="M23.86 88.033a4.719 4.719 0 1 1 5.788-3.323 4.727 4.727 0 0 1-5.788 3.323zm1.973-7.31a2.845 2.845 0 1 0 1.994 3.495 2.823 2.823 0 0 0-1.995-3.494z" fill="#a2a7ab"/><path class="aa" d="M65.449 10.603L27.119.203a6.061 6.061 0 0 0-7.4 4.287L.211 76.349a6.075 6.075 0 0 0 4.223 7.439l38.331 10.4a6.061 6.061 0 0 0 7.4-4.287l19.508-71.859a6.055 6.055 0 0 0-4.224-7.439zM35.136 5.887l20.516 5.574a1.412 1.412 0 0 1 .986 1.737 1.442 1.442 0 0 1-1.737 1.007L34.385 8.631a1.422 1.422 0 0 1 .75-2.744zM24.16 86.921a3.555 3.555 0 1 1 4.33-2.508 3.541 3.541 0 0 1-4.33 2.507zm23.324-3.108L5.616 72.451 22.831 8.996l41.868 11.361z"/><path d="M22.873 8.887l-17.086 62.9 58.91-51.557z" fill="#abc7c9"/><path d="M5.788 71.785l-.236.9L47.42 84.047l17.3-63.8-.021-.021z" fill="#90bcc4"/><path d="M47.269 84.541L5.401 73.179a.519.519 0 0 1-.364-.643l17.322-63.8a.519.519 0 0 1 .643-.365L64.87 19.733a.519.519 0 0 1 .364.643l-17.321 63.8a.511.511 0 0 1-.644.365zM6.195 72.322l40.86 11.083 17.043-62.791-40.86-11.083z" fill="#8b8a8c"/></g></svg>