<svg xmlns="http://www.w3.org/2000/svg" viewBox="0 0 199 40.243"><path d="M178.339 40.233a21.415 21.415 0 0 1-12.761-3.669 18.061 18.061 0 0 1-7.7-12.852 20.091 20.091 0 0 1 4.746-16.576 19.91 19.91 0 0 1 17.891-7.01 20.382 20.382 0 0 1 17.854 15.389c2.1 8.105-1.132 16.959-7.85 21.4a21.548 21.548 0 0 1-10.26 3.286 16.794 16.794 0 0 1-1.92.032zm12.834-12.45H180.95c-.4 0-.584.073-.566.529.037.876 0 1.753.018 2.629a3.409 3.409 0 0 0 3.724 3.45 9.253 9.253 0 0 0 6.9-3.323 15.5 15.5 0 0 0 3.45-13.819 15.954 15.954 0 0 0-11.72-12.45c-6.225-1.771-11.793-.183-16.375 4.436a16.262 16.262 0 0 0-1.857 20.41 9.978 9.978 0 0 0 7.85 4.728 3.492 3.492 0 0 0 3.907-3.542c.018-.8-.036-1.625 0-2.428.018-.493-.109-.621-.621-.621-3.1.018-6.225.018-9.328 0-.219 0-.456.073-.639-.073a75.474 75.474 0 0 0 12.669-22.181 71.6 71.6 0 0 0 12.811 22.255zM11.464 26.707h10.643a2.329 2.329 0 0 0 2.245-1.771 2.294 2.294 0 0 0-1.3-2.428 2.467 2.467 0 0 0-1.1-.164c-4.783 0-9.548.018-14.331 0a7.232 7.232 0 0 1-6.59-3.578A7.318 7.318 0 0 1 5.777 7.849a5.711 5.711 0 0 1 1.114-.073c5.586 0 11.172.055 16.759-.018 3.45-.037 4.655 2.483 5.057 4.655.055.237 0 .383-.292.347a3.807 3.807 0 0 0-.456 0h-20.5a1.985 1.985 0 0 0-2.154 1.442 2.48 2.48 0 0 0 .876 2.757 2.415 2.415 0 0 0 1.5.365c4.746 0 9.511.018 14.258 0a7.927 7.927 0 0 1 5.659 2.209c3.3 3.03 2.355 8.27-.8 10.661a7.424 7.424 0 0 1-4.673 1.588c-5.55-.055-11.081-.018-16.631-.018a8.291 8.291 0 0 1-1.643-.11 4.433 4.433 0 0 1-3.669-4.345c-.018-.475.11-.584.566-.584 3.578 0 7.138-.018 10.716-.018zM127.77 7.739h8.471a7.206 7.206 0 0 1 7.375 7.266 7.333 7.333 0 0 1-3.852 6.955c-.383.237-.365.365-.128.675 1.187 1.57 2.337 3.176 3.505 4.765a2.635 2.635 0 0 1 .128 3.122 2.964 2.964 0 0 1-3.049 1.2 2.108 2.108 0 0 1-1.223-.822c-2.008-2.538-4.035-5.075-6.043-7.613a1.072 1.072 0 0 0-.986-.475c-2.081.018-4.162.018-6.243.018a4.807 4.807 0 0 1-4.911-4.491c-.055-.511.073-.639.566-.639 4.783.018 9.548.018 14.331 0a2.367 2.367 0 0 0 2.337-1.57 2.46 2.46 0 0 0-.858-2.757 2.053 2.053 0 0 0-1.333-.475c-5.385 0-10.771.018-16.175-.018-.529 0-.529.237-.529.621.018 5.039 0 10.077.018 15.116a2.987 2.987 0 0 1-1 2.464 2.716 2.716 0 0 1-4.436-1.606 5.956 5.956 0 0 1-.073-.986c0-5.13.073-10.26-.036-15.371a5.571 5.571 0 0 1 5.422-5.422c2.935.153 5.838.043 8.722.043zm-74.409.036h8.471a7.234 7.234 0 0 1 7.375 6.955 7.342 7.342 0 0 1-3.852 7.284 6.431 6.431 0 0 1-3.286.785q-5.422.027-10.844 0a4.768 4.768 0 0 1-4.746-4.728c-.018-.511.292-.42.584-.42h14.258a2.374 2.374 0 0 0 2.337-1.57 2.489 2.489 0 0 0-.931-2.738 2.162 2.162 0 0 0-1.278-.438c-5.385 0-10.771.018-16.174-.018-.566 0-.511.292-.511.657 0 5.075.018 10.168 0 15.243a2.763 2.763 0 1 1-5.513.073c-.018-1.3 0-2.592 0-3.87V13.16a5.308 5.308 0 0 1 5.4-5.385zm35.982-.018a4.086 4.086 0 0 1 3.122 1.223 10.594 10.594 0 0 1 1.46 1.68q5.915 8.461 11.848 16.941a2.525 2.525 0 0 1-1.406 4.016 2.4 2.4 0 0 1-2.684-.895 159.613 159.613 0 0 1-2.574-3.56.876.876 0 0 0-.8-.438q-9.064.027-18.128 0a.843.843 0 0 0-.8.438c-.84 1.2-1.68 2.41-2.538 3.6a2.3 2.3 0 0 1-2.775.913 2.589 2.589 0 0 1-1.826-2.665 2.4 2.4 0 0 1 .475-1.2q6.079-8.681 12.177-17.343a6.572 6.572 0 0 1 2.41-2.282 3.9 3.9 0 0 1 2.039-.428zM83.154 21.89h12.119c.018-.055.037-.073.037-.091-1.807-2.611-3.6-5.221-5.422-7.813a.733.733 0 0 0-1.223-.018 7 7 0 0 0-.475.621c-1.387 2.026-2.775 4.034-4.162 6.061-.272.379-.545.762-.874 1.24z" fill="#262626"/></svg>